<svg width="388" height="474" viewBox="0 0 388 474" fill="none" xmlns="http://www.w3.org/2000/svg">
<g clip-path="url(#clip0_87_2023)">
<path d="M100.342 180.35C101.466 191.645 103.264 198.758 110.309 207.659C117.206 216.369 123.006 221.633 133.968 223.46C144.382 225.192 151.085 222.364 160.256 217.126C169.039 212.106 173.763 207.67 178.499 198.728C181.944 192.214 183.607 180.559 183.607 180.559C183.607 180.559 183.954 179.323 184.526 177.406L104.011 154.77C101.544 163.847 99.3272 170.151 100.342 180.35Z" fill="#B40406"/>
<path d="M313.762 196.015L233.586 176.429C233.053 178.207 232.642 179.32 232.642 179.32L213.886 227.531L298.825 248.287C305.063 229.167 309.882 216.164 313.76 196.022L313.762 196.015Z" fill="#E8E2E4"/>
<path d="M148.995 394.332C148.995 394.332 145.435 407.088 147.095 415.037C149.086 424.576 153.22 429.582 160.449 436.11C168.392 443.284 174.634 446.79 185.3 447.671C197.218 448.656 205.037 445.626 214.426 438.215C219.734 434.028 225.648 425.032 225.648 425.032C225.648 425.032 234.844 406.129 247.033 379.141L162.9 358.586L148.995 394.332Z" fill="#B40406"/>
<path d="M225.808 54.8572C207.78 53.6381 196.726 53.7653 179.856 60.2369C164.641 66.0759 157.384 72.6623 145.214 83.5006C139.417 88.6611 134.902 92.8421 130.838 97.398L197.497 148.259C199.684 145.757 202.421 143.598 206.085 142.446C210.372 141.096 213.921 140.538 217.603 141.155L232.999 55.4282C230.706 55.2149 228.32 55.0341 225.806 54.8632L225.808 54.8572Z" fill="#B40406"/>
<path d="M119.071 113.728C111.128 127.081 108.775 135.87 105.013 150.948C104.731 152.064 104.453 153.123 104.174 154.162L184.702 176.802C186.366 171.231 189.581 160.979 191.931 156.758L192.039 156.56C193.428 154.062 194.996 151.248 197.087 148.738L130.416 97.8741C126.473 102.347 122.947 107.217 119.069 113.734L119.071 113.728Z" fill="#E8E2E4"/>
<path d="M234.586 155.065C237.3 161.194 235.221 170.726 233.757 175.817L313.878 195.395C314.168 193.849 314.457 192.264 314.74 190.631C318.122 171.068 321.61 159.756 319.494 140.013C317.912 125.256 316.795 116.002 310.135 103.405L242.89 149.375L234.579 155.064L234.586 155.065Z" fill="#B40406"/>
<path d="M223.546 143.1C229.088 145.749 231.8 149.028 234.325 154.482L234.375 154.444L242.441 148.928L309.819 102.787C309.587 102.356 309.345 101.915 309.103 101.474C300.232 85.5833 291.406 78.2267 275.78 68.9061C260.731 59.9305 249.471 57.0002 233.638 55.4833L218.228 141.258C219.935 141.601 221.681 142.203 223.554 143.096L223.546 143.1Z" fill="#E8E2E4"/>
<path d="M187.17 296.201L179.623 315.606L221.587 325.992L264.282 336.427C264.264 336.468 264.246 336.509 264.228 336.549L265.548 336.875C268.226 330.556 270.899 324.119 273.534 317.652L187.504 296.36C187.504 296.36 187.517 296.312 187.524 296.288L187.17 296.201Z" fill="#E8E2E4"/>
<path d="M277.167 308.655L190.558 287.495L187.4 295.612L273.776 317.066C274.915 314.269 276.05 311.465 277.165 308.661L277.167 308.655Z" fill="#B40406"/>
<path d="M179.887 316.458L179.934 316.334L179.39 316.201L163.131 357.997L247.293 378.561C252.875 366.19 259.073 352.144 265.297 337.464L221.409 326.602L179.88 316.456L179.887 316.458Z" fill="#E8E2E4"/>
<path d="M282.993 293.745L197.032 272.741L197.263 272.153L283.223 293.156C288.216 280.071 292.783 267.266 296.533 255.439C297.251 253.164 297.954 250.989 298.638 248.881L213.661 228.121L190.789 286.906L277.404 308.068C279.313 303.278 281.18 298.496 282.993 293.745Z" fill="#B40406"/>
<path d="M104.011 154.77L184.52 177.404C184.574 177.21 184.63 177.01 184.702 176.802L104.175 154.163C104.119 154.362 104.061 154.568 104.011 154.77Z" fill="#E8E2E4"/>
<path d="M313.876 195.401L233.756 175.823C233.696 176.035 233.64 176.235 233.58 176.427L313.756 196.014C313.794 195.809 313.838 195.606 313.878 195.395L313.876 195.401Z" fill="#E8E2E4"/>
<path d="M298.826 248.281L213.888 227.525L213.657 228.114L298.634 248.873C298.697 248.669 298.766 248.473 298.828 248.275L298.826 248.281Z" fill="#E8E2E4"/>
<path d="M277.405 308.068L190.789 286.906L190.558 287.495L277.168 308.655C277.248 308.462 277.324 308.261 277.405 308.068Z" fill="#B40406"/>
<path d="M162.9 358.586L247.032 379.141C247.119 378.949 247.207 378.752 247.295 378.555L163.132 357.991L162.902 358.579L162.9 358.586Z" fill="#E8E2E4"/>
<path d="M179.279 317.202L221.202 327.616L264.378 337.899C264.585 337.395 264.8 336.887 265.008 336.377L221.906 325.671L179.887 315.668L179.279 317.202Z" fill="#E8E2E4"/>
<path d="M264.019 337.013L221.415 326.604L265.303 337.466C265.385 337.267 265.472 337.075 265.552 336.882L264.232 336.557C264.162 336.713 264.094 336.864 264.025 337.015L264.019 337.013Z" fill="#E8E2E4"/>
<path d="M180.118 315.863L221.584 325.998L179.622 315.606L179.39 316.201L179.934 316.334L180.118 315.863Z" fill="#E8E2E4"/>
<path d="M310.142 103.407L310.319 103.287C310.319 103.287 310.29 103.252 310.277 103.229L310.107 103.345C310.107 103.345 310.129 103.384 310.142 103.407Z" fill="#E8E2E4"/>
<path d="M242.897 149.377L310.142 103.407C310.142 103.407 310.12 103.368 310.107 103.345L242.891 149.375L242.897 149.377Z" fill="#E8E2E4"/>
<path d="M234.369 154.442L234.373 154.45L242.435 148.927L234.369 154.442Z" fill="#E8E2E4"/>
<path d="M197.032 272.741L282.993 293.745C283.069 293.544 283.143 293.349 283.217 293.155L197.257 272.151L197.026 272.74L197.032 272.741Z" fill="#B40406"/>
<path d="M130.418 97.868L197.09 148.732C197.225 148.575 197.357 148.409 197.499 148.253L130.84 97.3918C130.698 97.548 130.562 97.7058 130.42 97.862L130.418 97.868Z" fill="#E8E2E4"/>
<path d="M233.624 55.486C233.414 55.4661 233.204 55.4463 232.994 55.4264L217.598 141.153C217.804 141.185 218.009 141.223 218.22 141.263L233.63 55.4877L233.624 55.486Z" fill="#E8E2E4"/>
<path d="M234.586 155.066L242.897 149.377L234.701 154.98C234.6 154.808 234.486 154.632 234.373 154.45L234.323 154.489C234.404 154.668 234.492 154.843 234.57 155.029C234.579 155.044 234.582 155.058 234.584 155.072L234.586 155.066Z" fill="#E8E2E4"/>
<path d="M309.848 102.847C309.848 102.847 309.826 102.808 309.813 102.785L242.435 148.927L309.848 102.847Z" fill="#E8E2E4"/>
<path d="M310.276 103.229C310.161 103.079 310.051 102.937 309.93 102.785L309.841 102.845C309.931 103.014 310.016 103.176 310.106 103.345L310.276 103.229Z" fill="#E8E2E4"/>
<path d="M234.373 154.45C234.486 154.632 234.6 154.808 234.701 154.98L242.897 149.377L310.113 103.346C310.023 103.177 309.938 103.016 309.848 102.847L242.435 148.927L234.373 154.45Z" fill="#E8E2E4"/>
<path d="M187.523 296.294L273.532 317.657C273.614 317.458 273.695 317.265 273.775 317.072L187.679 295.762C187.626 295.95 187.576 296.126 187.529 296.295L187.523 296.294Z" fill="#E8E2E4"/>
<path d="M187.68 295.756L273.777 317.066L187.4 295.612L187.17 296.201L187.524 296.287C187.574 296.112 187.623 295.936 187.674 295.754L187.68 295.756Z" fill="#E8E2E4"/>
</g>
<defs>
<clipPath id="clip0_87_2023">
<rect width="286.336" height="411.835" fill="white" transform="translate(111.461) rotate(15.7027)"/>
</clipPath>
</defs>
</svg>
