<svg width="486" height="510" viewBox="0 0 486 510" fill="none" xmlns="http://www.w3.org/2000/svg">
<path d="M235.59 116.96C228.651 134.404 231.015 175.635 231.015 175.635C231.015 175.635 180.173 111.951 160.516 108.323C145.445 105.542 135.079 110.984 123.307 120.797C106.763 134.589 96.0618 151.614 98.0673 173.06C100.219 196.07 114.498 215.44 136.375 222.889C146.992 226.504 187.73 234.324 187.73 234.324C187.73 234.324 94.5361 280.893 77.3552 323.581C69.1839 343.883 60.2492 359.022 69.147 379.016C79.8693 403.11 103.617 409.663 129.957 408.382C159.266 406.957 191.566 365.369 191.566 365.369C191.566 365.369 176.625 423.384 198.075 447.217C214.206 465.139 232.321 474.672 255.793 469.149C277.421 464.06 285.132 448.497 296.513 429.415C320.565 389.089 287.676 282.589 287.676 282.589C287.676 282.589 319.668 309.676 329.644 316.22C351.232 330.383 370.266 333.051 392.31 319.608C410.818 308.321 422.892 287.155 422.906 265.476C422.919 244.069 416.337 230.425 396.532 222.298C381.07 215.953 312.898 215.177 312.898 215.177C312.898 215.177 340.949 189.377 351.189 172.784C364.222 151.667 374.632 133.101 363.777 109.817C354.567 90.0592 344.866 82.864 325.599 73.5603C308.396 65.2532 290.409 62.6996 272.925 70.3979C248.151 81.3061 245.473 92.1136 235.59 116.96Z" fill="#CF7C38"/>
<path d="M258.043 212.248C254.837 214.606 252.654 217.76 250.612 221.163C249.74 222.616 250.767 223.315 251.724 224.401C252.635 225.434 254.477 224.05 255.46 223.604C257.293 222.772 257.954 221.754 258.775 220.054C259.941 217.639 258.681 215.257 256.256 214.086C255.445 213.694 253.332 215.056 252.764 215.775C251.784 217.016 251.233 218.893 250.55 220.308C249.314 222.868 253.101 225.734 254.972 226.945C258.079 228.955 259.993 224.989 261.088 222.721C262.544 219.706 262.602 218.43 261.712 215.37C260.907 212.6 258.421 209.783 255.716 211.475C253.309 212.98 246.997 222.668 251.326 224.759C252.194 225.178 252.866 226.021 253.888 226.446C254.814 226.831 256.843 226.085 257.848 225.908C260.74 225.399 263.179 222.12 264.399 219.594C266.156 215.954 259.789 211.201 256.554 212.329C254.506 213.043 253.776 213.076 252.21 215.058C250.816 216.823 250.679 219.321 252 221.033" stroke="white" stroke-width="7.7" stroke-linecap="round"/>
<path d="M225.856 279.978C222.649 282.335 220.467 285.49 218.425 288.893C217.553 290.346 218.58 291.044 219.537 292.13C220.447 293.164 222.29 291.78 223.273 291.334C225.105 290.502 225.766 289.483 226.588 287.783C227.754 285.368 226.493 282.986 224.068 281.815C223.257 281.424 221.145 282.786 220.576 283.505C219.596 284.746 219.046 286.623 218.363 288.037C217.126 290.598 220.914 293.464 222.785 294.674C225.892 296.684 227.805 292.718 228.9 290.45C230.356 287.436 230.414 286.16 229.524 283.1C228.719 280.33 226.233 277.512 223.529 279.204C221.122 280.709 214.809 290.397 219.139 292.488C220.006 292.907 220.679 293.75 221.7 294.175C222.626 294.561 224.656 293.814 225.661 293.637C228.552 293.129 230.991 289.849 232.211 287.323C233.969 283.683 227.602 278.93 224.366 280.059C222.318 280.773 221.588 280.806 220.023 282.787C218.628 284.552 218.492 287.051 219.813 288.763" stroke="white" stroke-width="7.7" stroke-linecap="round"/>
<path d="M242.137 246.261C238.93 248.619 236.748 251.773 234.706 255.176C233.834 256.629 234.861 257.327 235.818 258.414C236.729 259.447 238.571 258.063 239.554 257.617C241.386 256.785 242.048 255.767 242.869 254.066C244.035 251.652 242.774 249.27 240.349 248.098C239.538 247.707 237.426 249.069 236.858 249.788C235.878 251.029 235.327 252.906 234.644 254.321C233.407 256.881 237.195 259.747 239.066 260.957C242.173 262.967 244.087 259.001 245.182 256.734C246.638 253.719 246.695 252.443 245.806 249.383C245 246.613 242.514 243.795 239.81 245.487C237.403 246.993 231.09 256.681 235.42 258.772C236.288 259.19 236.96 260.033 237.981 260.459C238.908 260.844 240.937 260.097 241.942 259.921C244.833 259.412 247.273 256.132 248.492 253.606C250.25 249.966 243.883 245.214 240.647 246.342C238.599 247.056 237.869 247.089 236.304 249.071C234.91 250.836 234.773 253.334 236.094 255.046" stroke="white" stroke-width="7.7" stroke-linecap="round"/>
<path d="M268.548 134.815C268.33 135.41 268.598 135.922 268.677 136.507C268.904 138.197 269.214 139.721 269.634 141.387C270.684 145.55 271.772 149.585 273.307 153.599C273.734 154.716 273.987 155.914 274.445 157.014C275.054 158.479 276.247 159.697 277.252 160.894C278.556 162.45 280.32 163.607 282.115 164.544C283.819 165.434 285.661 166.495 287.553 166.894C290.284 167.471 293.284 167.769 296.079 167.751C299.185 167.731 302.293 167.06 305.1 165.705C307.078 164.75 309.187 164.227 310.889 162.782C313.235 160.791 315.056 158.198 317.305 156.112C318.258 155.227 319.148 154.264 319.982 153.264" stroke="white" stroke-width="8" stroke-linecap="round"/>
<path d="M287.001 111.975C286.268 113.493 288.331 114.99 289.302 116.031C290.268 117.068 291.92 116.621 292.769 115.602C293.526 114.694 294.329 113.092 293.852 111.971C293.447 111.019 291.892 109.744 290.802 109.604C288.543 109.313 287.185 111.378 287.17 113.476C287.153 115.714 287.783 116.139 289.74 117.084" stroke="white" stroke-width="8" stroke-linecap="round"/>
<path d="M314.696 125.35C313.963 126.868 316.027 128.365 316.997 129.406C317.963 130.443 319.615 129.996 320.464 128.977C321.222 128.069 322.024 126.467 321.548 125.346C321.143 124.394 319.587 123.119 318.497 122.979C316.238 122.688 314.881 124.753 314.865 126.851C314.848 129.089 315.479 129.514 317.435 130.459" stroke="white" stroke-width="8" stroke-linecap="round"/>
<path fill-rule="evenodd" clip-rule="evenodd" d="M372.16 217.733L372.158 217.739L372.155 217.745L372.152 217.752L372.148 217.758L372.145 217.764L372.142 217.771L372.139 217.777L372.136 217.783L372.133 217.79L372.13 217.796L372.127 217.802L372.124 217.809L372.121 217.815L372.118 217.821L372.115 217.828L372.112 217.834L372.109 217.84L372.106 217.847L372.103 217.853L372.099 217.859L372.096 217.866L372.093 217.872L372.09 217.878L372.087 217.885L372.084 217.891L372.081 217.897L372.078 217.904L372.075 217.91L372.072 217.916L372.069 217.923L372.066 217.929L372.063 217.935L372.06 217.942L372.057 217.948L372.054 217.954L372.051 217.961L372.047 217.967L372.044 217.973L372.041 217.98L372.038 217.986L372.035 217.992L372.032 217.999L372.029 218.005L372.026 218.011L372.023 218.018L372.02 218.024L372.017 218.03L372.014 218.037L372.011 218.043L372.008 218.049L372.005 218.056L372.002 218.062L371.999 218.068L371.995 218.075L371.992 218.081L371.989 218.087L371.986 218.094L371.983 218.1L371.98 218.106L371.977 218.113L371.974 218.119L371.971 218.125L371.968 218.132L371.965 218.138L371.962 218.144L371.959 218.151L371.956 218.157L371.953 218.163L371.95 218.17L371.947 218.176L371.943 218.182L371.94 218.189L371.937 218.195L371.934 218.201L371.931 218.208L371.928 218.214L371.925 218.221L371.922 218.227L371.919 218.233L371.916 218.24L371.913 218.246L371.91 218.252L371.907 218.259L371.904 218.265L371.901 218.271L371.898 218.278L371.895 218.284L371.891 218.29L371.888 218.297L371.885 218.303L371.882 218.309L371.879 218.316L371.876 218.322L371.873 218.328L371.87 218.335L371.867 218.341L371.864 218.347L371.861 218.354L371.858 218.36L371.855 218.366L371.852 218.373L371.849 218.379L371.846 218.385L371.843 218.392L371.839 218.398L371.836 218.404L371.833 218.411L371.83 218.417L371.827 218.423L371.824 218.43L371.821 218.436L371.818 218.442L371.815 218.449L371.812 218.455L371.809 218.461L371.806 218.468L371.803 218.474L371.8 218.48L371.797 218.487L371.794 218.493L371.79 218.499L371.787 218.506L371.784 218.512L371.781 218.518L371.778 218.525L371.775 218.531L371.772 218.537L371.769 218.544L371.766 218.55L371.763 218.556L371.76 218.563L371.757 218.569L371.754 218.575L371.751 218.582L371.748 218.588L371.745 218.594L371.742 218.601L371.738 218.607L371.735 218.613L371.732 218.62L371.729 218.626L371.726 218.632L371.723 218.639L371.72 218.645L371.717 218.651L371.714 218.658L371.711 218.664L371.708 218.67L371.705 218.677L371.702 218.683L371.699 218.689L371.696 218.696L371.693 218.702L371.69 218.708L371.686 218.715L371.683 218.721L371.68 218.727L371.677 218.734L371.674 218.74L371.671 218.746L371.668 218.753L371.665 218.759L371.662 218.765L371.659 218.772L371.656 218.778L371.653 218.784L371.65 218.791L371.647 218.797L371.644 218.803L371.641 218.81L371.638 218.816L371.634 218.822L371.631 218.829L371.628 218.835L371.625 218.841L371.622 218.848L371.619 218.854L371.616 218.86L371.613 218.867L371.61 218.873L371.607 218.879L371.604 218.886L371.601 218.892L371.598 218.898L371.595 218.905L371.592 218.911L371.589 218.917L371.586 218.924L371.582 218.93L371.579 218.936L371.576 218.943L371.573 218.949L371.57 218.955L371.57 218.956C371.568 218.96 371.56 218.975 371.543 219.007C371.522 219.047 371.505 219.078 371.48 219.124L371.419 219.237C371.317 219.425 371.122 219.787 370.937 220.207C370.59 220.992 369.953 222.672 370.304 224.765C370.498 225.92 370.845 226.928 371.098 227.617C371.252 228.037 371.354 228.297 371.434 228.504L371.434 228.504L371.434 228.504C371.529 228.749 371.596 228.92 371.688 229.194C372.28 230.956 372.268 232.572 371.548 234.517C371.312 234.659 371.016 234.813 370.538 235.053L370.414 235.115C369.99 235.328 369.379 235.635 368.801 235.972C365.698 237.785 361.643 240.309 358.87 244.671C355.455 250.043 353.872 255.784 354.7 262.434C354.766 262.961 354.855 263.583 354.934 264.13L354.934 264.13C354.975 264.413 355.013 264.676 355.043 264.896C355.147 265.653 355.219 266.284 355.249 266.853C355.311 268.027 355.165 268.515 355.074 268.707C354.283 270.386 353.298 271.375 351.086 272.541C349.783 273.228 348.387 273.812 346.677 274.526L346.626 274.547C344.985 275.233 343.04 276.047 341.143 277.079C336.967 279.353 335.124 283.201 334.066 285.41C334.012 285.522 333.961 285.63 333.911 285.733C332.219 289.235 331.98 292.66 332.074 295.512C332.119 296.89 332.248 298.244 332.358 299.396L332.358 299.396L332.363 299.449C332.46 300.459 332.542 301.329 332.588 302.16C332.559 302.216 332.526 302.28 332.487 302.355L332.446 302.434L332.446 302.435C332.395 302.533 332.334 302.65 332.276 302.766C332.091 303.127 331.683 303.741 331.125 304.363C330.862 304.657 330.609 304.902 330.391 305.088C330.365 305.109 330.341 305.13 330.318 305.148C330.128 305.143 329.899 305.128 329.512 305.103L329.494 305.102C329.092 305.076 328.461 305.035 327.798 305.044C324.563 305.088 321.961 307.686 321.882 310.893C324.51 312.898 326.777 314.554 328.436 315.642C329.225 316.159 330.01 316.661 330.792 317.148C332.095 317.12 333.911 316.905 335.772 315.893C337.5 314.955 338.973 313.586 340.058 312.376C341.175 311.131 342.222 309.673 342.96 308.228C342.986 308.177 343.022 308.111 343.066 308.03L343.066 308.03C343.501 307.232 344.703 305.022 344.604 302.257C344.555 300.885 344.427 299.543 344.318 298.402L344.309 298.308C344.192 297.084 344.099 296.082 344.067 295.119C344.006 293.247 344.206 292.01 344.717 290.951C345.335 289.672 345.695 288.958 346.092 288.393C346.416 287.931 346.65 287.744 346.881 287.618C348.156 286.924 349.549 286.331 351.251 285.62L351.492 285.519L351.492 285.519C353.054 284.867 354.894 284.099 356.684 283.156C360.587 281.097 363.765 278.414 365.928 273.825C367.222 271.082 367.344 268.326 367.233 266.219C367.157 264.799 366.919 263.147 366.749 261.968L366.749 261.968C366.691 261.564 366.641 261.216 366.608 260.951C366.163 257.375 366.903 254.403 368.997 251.109C370.09 249.39 371.858 248.084 374.854 246.334C375.089 246.196 375.371 246.055 375.919 245.779L375.919 245.779L375.93 245.774C376.408 245.533 377.101 245.184 377.797 244.762C379.152 243.941 381.253 242.421 382.401 239.696C384.332 235.112 384.734 230.346 383.063 225.372C382.926 224.966 382.783 224.585 382.666 224.28C382.628 224.18 382.594 224.09 382.562 224.008L382.515 223.886L382.517 223.882L382.52 223.876L382.523 223.87L382.526 223.863L382.529 223.857L382.532 223.851L382.535 223.844L382.538 223.838L382.541 223.832L382.544 223.825L382.548 223.819L382.551 223.813L382.554 223.806L382.557 223.8L382.56 223.794L382.563 223.787L382.566 223.781L382.569 223.775L382.572 223.768L382.575 223.762L382.578 223.756L382.581 223.749L382.584 223.743L382.587 223.737L382.59 223.73L382.593 223.724L382.596 223.718L382.6 223.711L382.603 223.705L382.606 223.699L382.609 223.692L382.612 223.686L382.615 223.68L382.618 223.673L382.621 223.667L382.624 223.661L382.627 223.654L382.63 223.648L382.633 223.642L382.636 223.635L382.639 223.629L382.642 223.623L382.645 223.616L382.648 223.61L382.652 223.604L382.655 223.597L382.658 223.591L382.661 223.585L382.664 223.578L382.667 223.572L382.67 223.566L382.673 223.559L382.676 223.553L382.679 223.547L382.682 223.54L382.685 223.534L382.688 223.528L382.691 223.521L382.694 223.515L382.697 223.509L382.7 223.502L382.704 223.496L382.707 223.49L382.71 223.483L382.713 223.477L382.716 223.471L382.719 223.464L382.722 223.458L382.725 223.451L382.728 223.445L382.731 223.439L382.734 223.432L382.737 223.426L382.74 223.42L382.743 223.413L382.746 223.407L382.749 223.401L382.753 223.394L382.756 223.388L382.759 223.382L382.762 223.375L382.765 223.369L382.768 223.363L382.771 223.356L382.774 223.35L382.777 223.344L382.78 223.337L382.783 223.331L382.786 223.325L382.789 223.318L382.792 223.312L382.795 223.306L382.798 223.299L382.801 223.293L382.805 223.287L382.808 223.28L382.811 223.274L382.814 223.268L382.817 223.261L382.82 223.255L382.823 223.249L382.826 223.242L382.829 223.236L382.832 223.23L382.835 223.223L382.838 223.217L382.841 223.211L382.844 223.204L382.847 223.198L382.85 223.192L382.853 223.185L382.857 223.179L382.86 223.173L382.863 223.166L382.866 223.16L382.869 223.154L382.872 223.147L382.875 223.141L382.878 223.135L382.881 223.128L382.884 223.122L382.887 223.116L382.89 223.109L382.893 223.103L382.896 223.097L382.899 223.09L382.902 223.084L382.905 223.078L382.909 223.071L382.912 223.065L382.915 223.059L382.918 223.052L382.921 223.046L382.924 223.04L382.927 223.033L382.93 223.027L382.933 223.021L382.936 223.014L382.939 223.008L382.942 223.002L382.945 222.995L382.948 222.989L382.951 222.983L382.954 222.976L382.957 222.97L382.961 222.964L382.964 222.957L382.967 222.951L382.97 222.945L382.973 222.938L382.976 222.932L382.979 222.926L382.982 222.919L382.985 222.913L382.988 222.907L382.991 222.9L382.994 222.894L382.997 222.888L383 222.881L383.003 222.875L383.006 222.869L383.009 222.862L383.013 222.856L383.016 222.85L383.019 222.843L383.022 222.837L383.025 222.831L383.028 222.824L383.031 222.818L383.034 222.812L383.037 222.805L383.04 222.799L383.043 222.793L383.046 222.786L383.049 222.78L383.052 222.774L383.055 222.767L383.058 222.761L383.061 222.755L383.065 222.748L383.068 222.742L383.071 222.736L383.074 222.729L383.077 222.723L383.08 222.717L383.083 222.71L383.086 222.704L383.089 222.698L383.092 222.691L383.095 222.685L383.098 222.679L383.101 222.672L383.104 222.666L383.107 222.66L383.11 222.653L383.114 222.647L383.117 222.641L383.12 222.634L383.123 222.628L383.126 222.622L383.129 222.615L383.132 222.609L383.135 222.603L383.138 222.596L383.141 222.59L383.144 222.584L383.147 222.577L383.15 222.571L383.153 222.565L383.156 222.558L383.159 222.552L383.162 222.546L383.166 222.539L383.169 222.533L383.172 222.527L383.175 222.52L383.178 222.514L383.181 222.508L383.184 222.501L383.187 222.495L383.19 222.489L383.193 222.482L383.196 222.476L383.199 222.47L383.202 222.463L383.205 222.457L383.208 222.451L383.211 222.444L383.214 222.438L383.218 222.432L383.221 222.425L383.224 222.419L383.227 222.413L383.23 222.406L383.233 222.4L383.236 222.394L383.239 222.387L383.242 222.381L383.245 222.375L383.248 222.368L383.251 222.362L383.254 222.356L383.257 222.349L383.26 222.343L383.263 222.336L383.266 222.33L383.27 222.324L383.273 222.317L383.276 222.311L383.279 222.305L383.282 222.298L383.285 222.292L383.288 222.286L383.291 222.279L383.294 222.273L383.297 222.267L383.3 222.26L383.303 222.254L383.306 222.248L383.309 222.241L383.312 222.235L383.315 222.229L383.318 222.222L383.322 222.216L383.325 222.21L383.328 222.203L383.331 222.197L383.334 222.191L383.337 222.184L383.34 222.178L383.343 222.172L383.346 222.165L383.349 222.159L383.352 222.153L383.355 222.146L383.358 222.14L383.361 222.134L383.364 222.127L383.367 222.121L383.37 222.115L383.374 222.108L383.377 222.102L383.38 222.096L383.383 222.089L383.386 222.083L383.389 222.077L383.392 222.07L383.395 222.064L383.398 222.058L383.401 222.051L383.404 222.045L383.407 222.039L383.41 222.032L383.413 222.026L383.416 222.02L383.419 222.013L383.422 222.007L383.426 222.001L383.429 221.994L383.432 221.988L383.435 221.982L383.438 221.975L383.441 221.969L383.444 221.963L383.447 221.956L383.45 221.95L383.453 221.944L383.456 221.937L383.459 221.931L383.462 221.925L383.465 221.918L383.468 221.912L383.471 221.906L383.475 221.899L383.478 221.893L383.481 221.887L383.484 221.88L383.487 221.874L383.49 221.868L383.493 221.861L383.496 221.855L383.499 221.849L383.502 221.842L383.505 221.836L383.508 221.83L383.511 221.823L383.514 221.817L383.517 221.811L383.52 221.804L383.523 221.798L383.527 221.792L383.53 221.785L383.533 221.779L383.536 221.773L383.539 221.766L383.542 221.76L383.545 221.754L383.548 221.747L383.551 221.741L383.554 221.735L383.557 221.728L383.56 221.722L383.563 221.716L383.566 221.709L383.569 221.703L383.572 221.697L383.575 221.69L383.579 221.684L383.582 221.678L383.585 221.671L383.588 221.665L383.591 221.659L383.594 221.652L383.597 221.646L383.6 221.64L383.603 221.633L383.606 221.627L383.609 221.621L383.612 221.614L383.615 221.608L383.618 221.602L383.621 221.595L383.624 221.589L383.627 221.583L383.631 221.576L383.634 221.57L383.637 221.564L383.64 221.557L383.643 221.551L383.646 221.545L383.649 221.538L383.652 221.532L383.655 221.526L383.658 221.519L383.661 221.513L383.664 221.507L383.667 221.5L383.67 221.494L383.673 221.488L383.676 221.481L383.679 221.475L383.683 221.469L383.686 221.462L383.689 221.456L383.692 221.45L383.695 221.443L383.698 221.437L383.701 221.431L383.704 221.424L383.707 221.418L383.71 221.412L383.713 221.405L383.716 221.399L383.719 221.393L383.722 221.386L383.725 221.38L383.728 221.374L383.731 221.367L383.735 221.361L383.738 221.355L383.741 221.348L383.744 221.342L383.747 221.336L383.75 221.329L383.753 221.323L383.756 221.317L383.759 221.31L383.762 221.304L383.765 221.298L383.768 221.291L383.771 221.285L383.774 221.279L383.777 221.272L383.78 221.266L383.784 221.26L383.787 221.253L383.79 221.247L383.793 221.241L383.796 221.234L383.799 221.228L383.802 221.221L383.805 221.215L383.808 221.209L383.811 221.202L383.814 221.196L383.817 221.19L383.82 221.183L383.823 221.177L383.826 221.171L383.829 221.164L383.832 221.158L383.836 221.152L383.839 221.145L383.842 221.139L383.845 221.133L383.848 221.126L383.851 221.12L383.854 221.114L383.857 221.107L383.86 221.101L383.863 221.095L383.866 221.088L383.869 221.082L383.872 221.076L383.875 221.069L383.878 221.063L383.881 221.057L383.884 221.05L383.888 221.044L383.891 221.038L383.894 221.031L383.897 221.025L383.9 221.019L383.903 221.012L383.906 221.006L383.909 221L383.912 220.993L383.915 220.987L383.918 220.981L383.921 220.974L383.924 220.968L383.927 220.962L383.93 220.955L383.933 220.949L383.936 220.943L383.94 220.936C384.224 220.348 384.403 219.736 384.485 219.122C380.783 218.555 376.587 218.099 372.16 217.733ZM371.814 234.341C371.814 234.341 371.81 234.345 371.8 234.352C371.809 234.345 371.814 234.341 371.814 234.341Z" fill="white"/>
<path fill-rule="evenodd" clip-rule="evenodd" d="M305.077 394.933C303.978 393.727 302.394 392.971 300.633 392.974L300.626 392.974L300.618 392.974L300.61 392.974L300.603 392.974L300.595 392.974L300.588 392.974L300.58 392.974L300.573 392.974L300.565 392.974L300.558 392.974L300.55 392.974L300.543 392.974L300.535 392.974L300.528 392.974L300.52 392.974L300.513 392.974L300.505 392.974L300.497 392.974L300.49 392.974L300.482 392.974L300.475 392.974L300.467 392.974L300.46 392.974L300.452 392.974L300.445 392.974L300.437 392.974L300.43 392.974L300.422 392.974L300.415 392.974L300.407 392.974L300.399 392.974L300.392 392.974L300.384 392.974L300.377 392.974L300.369 392.974L300.362 392.974L300.354 392.974L300.347 392.974L300.339 392.974L300.332 392.974L300.324 392.974L300.317 392.974L300.309 392.974L300.302 392.974L300.294 392.974L300.286 392.974L300.279 392.974L300.271 392.974L300.264 392.974L300.256 392.974L300.249 392.974L300.241 392.974L300.234 392.974L300.226 392.974L300.219 392.974L300.211 392.974L300.204 392.974L300.196 392.974L300.189 392.974L300.181 392.974L300.173 392.974L300.166 392.974L300.158 392.974L300.151 392.974L300.143 392.974L300.136 392.974L300.128 392.974L300.121 392.974L300.113 392.974L300.106 392.974L300.098 392.974L300.091 392.974L300.083 392.974L300.076 392.974L300.068 392.974L300.06 392.974L300.053 392.974L300.045 392.974L300.038 392.974L300.03 392.974L300.023 392.974L300.015 392.974L300.008 392.974L300 392.974L299.993 392.974L299.985 392.974L299.978 392.975L299.97 392.975L299.962 392.975L299.955 392.975L299.947 392.975L299.94 392.975L299.932 392.975L299.925 392.975L299.917 392.975L299.91 392.975L299.902 392.975L299.895 392.975L299.887 392.975L299.88 392.975L299.872 392.975L299.865 392.975L299.857 392.975L299.849 392.975L299.842 392.975L299.834 392.975L299.827 392.975L299.819 392.975L299.812 392.975L299.804 392.975L299.797 392.975L299.789 392.975L299.782 392.975L299.774 392.975L299.767 392.975L299.759 392.975L299.752 392.975L299.744 392.975L299.736 392.975L299.729 392.975L299.721 392.975L299.714 392.975L299.706 392.975L299.699 392.975L299.691 392.975L299.684 392.975L299.676 392.975L299.669 392.975L299.661 392.975L299.654 392.975L299.646 392.975L299.638 392.975L299.631 392.975L299.623 392.975L299.616 392.975L299.608 392.975L299.601 392.975L299.593 392.975L299.586 392.975L299.578 392.975L299.571 392.975L299.563 392.975L299.556 392.975L299.548 392.975L299.541 392.975L299.533 392.975L299.525 392.975L299.518 392.975L299.51 392.975L299.503 392.975L299.495 392.975L299.488 392.975L299.48 392.975L299.473 392.975L299.465 392.975L299.458 392.975L299.45 392.975L299.443 392.975L299.435 392.975L299.428 392.975L299.42 392.975L299.412 392.975L299.405 392.975L299.397 392.975L299.39 392.975L299.382 392.975L299.375 392.975L299.367 392.975L299.36 392.975L299.352 392.975L299.345 392.975L299.337 392.975L299.33 392.975L299.322 392.975L299.315 392.975L299.307 392.976L299.299 392.976L299.292 392.976L299.284 392.976L299.277 392.976L299.269 392.976L299.262 392.976L299.254 392.976L299.247 392.976L299.239 392.976L299.232 392.976L299.224 392.976L299.217 392.976L299.209 392.976L299.201 392.976L299.194 392.976L299.186 392.976L299.179 392.976L299.171 392.976L299.164 392.976L299.156 392.976L299.149 392.976L299.141 392.976L299.134 392.976L299.126 392.976L299.119 392.976L299.111 392.976L299.104 392.976L299.096 392.976L299.088 392.976L299.081 392.976L299.073 392.976L299.066 392.976L299.058 392.976L299.051 392.976L299.043 392.976L299.036 392.976L299.028 392.976L299.021 392.976L299.013 392.976L299.006 392.976L298.998 392.976L298.991 392.976L298.983 392.976L298.975 392.976L298.968 392.976L298.96 392.976L298.953 392.976L298.945 392.976L298.938 392.976L298.93 392.976L298.923 392.976L298.915 392.976L298.908 392.976L298.9 392.976L298.893 392.976L298.885 392.976L298.877 392.976L298.87 392.976L298.862 392.976L298.855 392.976L298.847 392.976L298.84 392.976L298.832 392.976L298.825 392.976L298.817 392.976L298.81 392.976L298.802 392.976L298.795 392.976L298.787 392.976L298.78 392.976L298.772 392.976L298.764 392.976L298.757 392.976L298.749 392.976L298.742 392.976L298.734 392.976L298.727 392.976L298.719 392.976L298.712 392.976L298.704 392.976L298.697 392.976L298.689 392.976L298.682 392.976L298.674 392.976L298.667 392.976L298.659 392.976L298.651 392.976L298.644 392.977L298.636 392.977L298.629 392.977L298.621 392.977L298.614 392.977L298.606 392.977L298.599 392.977L298.591 392.977L298.584 392.977L298.576 392.977L298.569 392.977L298.561 392.977L298.554 392.977L298.546 392.977L298.538 392.977L298.531 392.977L298.523 392.977L298.516 392.977L298.508 392.977L298.501 392.977L298.493 392.977L298.486 392.977L298.478 392.977L298.471 392.977L298.463 392.977L298.456 392.977L298.448 392.977L298.44 392.977L298.433 392.977L298.425 392.977L298.418 392.977L298.41 392.977L298.403 392.977L298.395 392.977L298.388 392.977L298.38 392.977L298.373 392.977L298.365 392.977L298.358 392.977L298.35 392.977L298.343 392.977L298.335 392.977L298.327 392.977L298.32 392.977L298.312 392.977L298.305 392.977L298.297 392.977L298.29 392.977L298.282 392.977L298.275 392.977L298.267 392.977L298.26 392.977L298.252 392.977L298.245 392.977L298.237 392.977L298.23 392.977L298.222 392.977L298.214 392.977L298.207 392.977L298.199 392.977L298.192 392.977L298.184 392.977L298.177 392.977L298.169 392.977L298.162 392.977L298.154 392.977L298.147 392.977L298.139 392.977L298.132 392.977L298.124 392.977L298.116 392.977L298.109 392.977L298.101 392.977L298.094 392.977L298.086 392.977L298.079 392.977L298.071 392.977L298.064 392.977L298.056 392.977L298.049 392.977L298.041 392.977L298.034 392.977L298.026 392.977L298.019 392.977L298.011 392.977L298.003 392.977L297.996 392.977L297.988 392.977L297.981 392.977L297.973 392.978L297.966 392.978L297.958 392.978L297.951 392.978L297.943 392.978L297.936 392.978L297.928 392.978L297.921 392.978L297.913 392.978L297.906 392.978L297.898 392.978L297.89 392.978L297.883 392.978L297.875 392.978L297.868 392.978L297.86 392.978L297.853 392.978L297.845 392.978L297.838 392.978L297.83 392.978L297.823 392.978L297.815 392.978L297.808 392.978L297.8 392.978L297.793 392.978L297.785 392.978L297.777 392.978L297.77 392.978L297.762 392.978L297.755 392.978L297.747 392.978L297.74 392.978L297.732 392.978L297.725 392.978L297.717 392.978L297.71 392.978L297.702 392.978L297.695 392.978L297.687 392.978L297.679 392.978L297.672 392.978L297.664 392.978L297.657 392.978L297.649 392.978L297.642 392.978L297.634 392.978L297.627 392.978L297.619 392.978L297.612 392.978L297.604 392.978L297.597 392.978L297.589 392.978L297.582 392.978L297.574 392.978L297.566 392.978L297.559 392.978L297.551 392.978L297.544 392.978L297.536 392.978L297.529 392.978L297.521 392.978L297.514 392.978L297.506 392.978L297.499 392.978L297.491 392.978L297.484 392.978L297.476 392.978L297.469 392.978L297.461 392.978L297.453 392.978L297.446 392.978L297.438 392.978L297.431 392.978L297.423 392.978L297.416 392.978L297.408 392.978L297.401 392.978L297.393 392.978L297.386 392.978L297.378 392.978L297.371 392.978L297.363 392.978L297.356 392.978L297.348 392.978L297.34 392.978L297.333 392.978L297.325 392.978L297.318 392.978L297.31 392.979L297.303 392.979L297.295 392.979L297.288 392.979L297.28 392.979L297.273 392.979L297.265 392.979L297.258 392.979L297.25 392.979L297.242 392.979L297.235 392.979L297.227 392.979L297.22 392.979L297.212 392.979L297.205 392.979L297.197 392.979L297.19 392.979L297.182 392.979L297.175 392.979L297.167 392.979L297.16 392.979L297.152 392.979L297.145 392.979L297.137 392.979L297.129 392.979L297.122 392.979L297.114 392.979L297.107 392.979L297.099 392.979L297.092 392.979L297.084 392.979L297.077 392.979L297.069 392.979L297.062 392.979L297.054 392.979L297.047 392.979L297.039 392.979L297.032 392.979L297.024 392.979L297.016 392.979L297.009 392.979L297.001 392.979L296.994 392.979L296.986 392.979L296.979 392.979L296.971 392.979L296.964 392.979L296.956 392.979L296.949 392.979L296.941 392.979L296.934 392.979L296.926 392.979L296.918 392.979L296.911 392.979L296.903 392.979L296.896 392.979L296.888 392.979L296.881 392.979L296.873 392.979L296.866 392.979L296.858 392.979L296.851 392.979L296.843 392.979L296.836 392.979L296.828 392.979L296.821 392.979L296.813 392.979L296.805 392.979L296.798 392.979L296.79 392.979L296.783 392.979L296.778 392.979C296.776 392.979 296.755 392.979 296.7 392.977C296.649 392.975 296.609 392.973 296.552 392.971L296.551 392.971L296.416 392.965C296.189 392.955 295.768 392.937 295.299 392.954C294.426 392.984 292.625 393.142 290.88 394.36C289.889 395.051 289.1 395.821 288.558 396.373C288.236 396.701 288.033 396.916 287.869 397.089C287.672 397.297 287.531 397.446 287.307 397.662C285.776 399.136 284.064 399.915 281.646 400.114C281.613 400.094 281.575 400.07 281.533 400.044C281.263 399.872 280.96 399.651 280.486 399.294L280.368 399.206C279.964 398.901 279.394 398.471 278.81 398.087C275.612 395.98 271.371 393.363 266.005 392.755C259.345 392 253.195 393.113 247.272 396.886C246.604 397.311 246.061 397.674 245.575 397.998C244.736 398.557 244.072 399.001 243.243 399.45C242.112 400.063 241.487 400.192 241.135 400.196C239.002 400.218 237.487 399.685 235.277 398.089C233.992 397.161 232.765 396.096 231.286 394.812L231.232 394.765C229.803 393.524 228.124 392.07 226.263 390.763C222.25 387.944 217.831 387.963 215.209 387.974L215.208 387.974C215.079 387.975 214.955 387.975 214.835 387.975C210.79 387.981 207.462 389.287 204.789 390.668C203.495 391.336 202.261 392.074 201.199 392.709L201.155 392.735C200.183 393.316 199.342 393.818 198.515 394.263L198.494 394.263C198.394 394.262 198.282 394.26 198.136 394.256L198.039 394.253L198.037 394.253C197.919 394.25 197.78 394.247 197.644 394.244C197.156 394.234 196.327 394.121 195.434 393.868C194.802 393.69 194.355 393.504 194.091 393.373C193.989 393.162 193.89 392.924 193.703 392.471L193.697 392.457L193.697 392.457C193.534 392.063 193.282 391.455 192.968 390.841C191.911 388.772 189.819 387.579 187.646 387.569C187.096 392.273 186.673 397.436 186.541 402.757C186.665 402.854 186.794 402.949 186.927 403.042C188.582 404.207 190.534 404.954 192.174 405.417C193.861 405.894 195.711 406.206 197.394 406.241C197.461 406.243 197.547 406.247 197.649 406.251L197.65 406.251C198.636 406.295 201.18 406.408 203.666 405.114C204.954 404.444 206.177 403.713 207.228 403.085L207.311 403.035C208.434 402.365 209.368 401.809 210.296 401.329C212.103 400.396 213.473 399.977 214.853 399.975C217.987 399.971 218.73 400.136 219.365 400.582C220.65 401.485 221.887 402.544 223.366 403.828L223.572 404.007C224.933 405.188 226.52 406.567 228.25 407.817C232.005 410.529 235.973 412.251 241.262 412.195C244.385 412.162 247.012 411.057 248.961 410C250.275 409.288 251.72 408.328 252.777 407.626C253.146 407.381 253.468 407.167 253.719 407.007C257.057 404.881 260.389 404.195 264.654 404.679C266.955 404.939 269.125 406.077 272.21 408.109C272.463 408.275 272.74 408.484 273.248 408.866L273.274 408.885C273.73 409.228 274.378 409.715 275.093 410.169C276.493 411.06 278.829 412.283 281.826 412.127C287.024 411.857 291.694 410.098 295.631 406.306C296.005 405.945 296.514 405.414 296.845 405.067L296.846 405.067L296.93 404.979L296.936 404.979L296.944 404.979L296.952 404.979L296.959 404.979L296.967 404.979L296.974 404.979L296.982 404.979L296.989 404.979L296.997 404.979L297.004 404.979L297.012 404.979L297.019 404.979L297.027 404.979L297.034 404.979L297.042 404.979L297.05 404.979L297.057 404.979L297.065 404.979L297.072 404.979L297.08 404.979L297.087 404.979L297.095 404.979L297.102 404.979L297.11 404.979L297.117 404.979L297.125 404.979L297.132 404.979L297.14 404.979L297.147 404.979L297.155 404.979L297.163 404.979L297.17 404.979L297.178 404.979L297.185 404.979L297.193 404.979L297.2 404.979L297.208 404.979L297.215 404.979L297.223 404.979L297.23 404.979L297.238 404.979L297.245 404.979L297.253 404.979L297.26 404.979L297.268 404.979L297.276 404.979L297.283 404.979L297.291 404.979L297.298 404.979L297.306 404.979L297.313 404.979L297.321 404.978L297.328 404.978L297.336 404.978L297.343 404.978L297.351 404.978L297.358 404.978L297.366 404.978L297.373 404.978L297.381 404.978L297.389 404.978L297.396 404.978L297.404 404.978L297.411 404.978L297.419 404.978L297.426 404.978L297.434 404.978L297.441 404.978L297.449 404.978L297.456 404.978L297.464 404.978L297.471 404.978L297.479 404.978L297.487 404.978L297.494 404.978L297.502 404.978L297.509 404.978L297.517 404.978L297.524 404.978L297.532 404.978L297.539 404.978L297.547 404.978L297.554 404.978L297.562 404.978L297.569 404.978L297.577 404.978L297.584 404.978L297.592 404.978L297.6 404.978L297.607 404.978L297.615 404.978L297.622 404.978L297.63 404.978L297.637 404.978L297.645 404.978L297.652 404.978L297.66 404.978L297.667 404.978L297.675 404.978L297.682 404.978L297.69 404.978L297.697 404.978L297.705 404.978L297.713 404.978L297.72 404.978L297.728 404.978L297.735 404.978L297.743 404.978L297.75 404.978L297.758 404.978L297.765 404.978L297.773 404.978L297.78 404.978L297.788 404.978L297.795 404.978L297.803 404.978L297.81 404.978L297.818 404.978L297.826 404.978L297.833 404.978L297.841 404.978L297.848 404.978L297.856 404.978L297.863 404.978L297.871 404.978L297.878 404.978L297.886 404.978L297.893 404.978L297.901 404.978L297.908 404.978L297.916 404.978L297.924 404.978L297.931 404.978L297.939 404.978L297.946 404.978L297.954 404.978L297.961 404.978L297.969 404.978L297.976 404.978L297.984 404.978L297.991 404.977L297.999 404.977L298.006 404.977L298.014 404.977L298.021 404.977L298.029 404.977L298.037 404.977L298.044 404.977L298.052 404.977L298.059 404.977L298.067 404.977L298.074 404.977L298.082 404.977L298.089 404.977L298.097 404.977L298.104 404.977L298.112 404.977L298.119 404.977L298.127 404.977L298.134 404.977L298.142 404.977L298.15 404.977L298.157 404.977L298.165 404.977L298.172 404.977L298.18 404.977L298.187 404.977L298.195 404.977L298.202 404.977L298.21 404.977L298.217 404.977L298.225 404.977L298.232 404.977L298.24 404.977L298.248 404.977L298.255 404.977L298.263 404.977L298.27 404.977L298.278 404.977L298.285 404.977L298.293 404.977L298.3 404.977L298.308 404.977L298.315 404.977L298.323 404.977L298.33 404.977L298.338 404.977L298.345 404.977L298.353 404.977L298.361 404.977L298.368 404.977L298.376 404.977L298.383 404.977L298.391 404.977L298.398 404.977L298.406 404.977L298.413 404.977L298.421 404.977L298.428 404.977L298.436 404.977L298.443 404.977L298.451 404.977L298.458 404.977L298.466 404.977L298.474 404.977L298.481 404.977L298.489 404.977L298.496 404.977L298.504 404.977L298.511 404.977L298.519 404.977L298.526 404.977L298.534 404.977L298.541 404.977L298.549 404.977L298.556 404.977L298.564 404.977L298.571 404.977L298.579 404.977L298.587 404.977L298.594 404.977L298.602 404.977L298.609 404.977L298.617 404.977L298.624 404.977L298.632 404.977L298.639 404.977L298.647 404.977L298.654 404.976L298.662 404.976L298.669 404.976L298.677 404.976L298.685 404.976L298.692 404.976L298.7 404.976L298.707 404.976L298.715 404.976L298.722 404.976L298.73 404.976L298.737 404.976L298.745 404.976L298.752 404.976L298.76 404.976L298.767 404.976L298.775 404.976L298.782 404.976L298.79 404.976L298.798 404.976L298.805 404.976L298.813 404.976L298.82 404.976L298.828 404.976L298.835 404.976L298.843 404.976L298.85 404.976L298.858 404.976L298.865 404.976L298.873 404.976L298.88 404.976L298.888 404.976L298.895 404.976L298.903 404.976L298.911 404.976L298.918 404.976L298.926 404.976L298.933 404.976L298.941 404.976L298.948 404.976L298.956 404.976L298.963 404.976L298.971 404.976L298.978 404.976L298.986 404.976L298.993 404.976L299.001 404.976L299.009 404.976L299.016 404.976L299.024 404.976L299.031 404.976L299.039 404.976L299.046 404.976L299.054 404.976L299.061 404.976L299.069 404.976L299.076 404.976L299.084 404.976L299.091 404.976L299.099 404.976L299.106 404.976L299.114 404.976L299.122 404.976L299.129 404.976L299.137 404.976L299.144 404.976L299.152 404.976L299.159 404.976L299.167 404.976L299.174 404.976L299.182 404.976L299.189 404.976L299.197 404.976L299.204 404.976L299.212 404.976L299.219 404.976L299.227 404.976L299.235 404.976L299.242 404.976L299.25 404.976L299.257 404.976L299.265 404.976L299.272 404.976L299.28 404.976L299.287 404.976L299.295 404.976L299.302 404.976L299.31 404.976L299.317 404.976L299.325 404.975L299.332 404.975L299.34 404.975L299.348 404.975L299.355 404.975L299.363 404.975L299.37 404.975L299.378 404.975L299.385 404.975L299.393 404.975L299.4 404.975L299.408 404.975L299.415 404.975L299.423 404.975L299.43 404.975L299.438 404.975L299.446 404.975L299.453 404.975L299.461 404.975L299.468 404.975L299.476 404.975L299.483 404.975L299.491 404.975L299.498 404.975L299.506 404.975L299.513 404.975L299.521 404.975L299.528 404.975L299.536 404.975L299.543 404.975L299.551 404.975L299.559 404.975L299.566 404.975L299.574 404.975L299.581 404.975L299.589 404.975L299.596 404.975L299.604 404.975L299.611 404.975L299.619 404.975L299.626 404.975L299.634 404.975L299.641 404.975L299.649 404.975L299.656 404.975L299.664 404.975L299.672 404.975L299.679 404.975L299.687 404.975L299.694 404.975L299.702 404.975L299.709 404.975L299.717 404.975L299.724 404.975L299.732 404.975L299.739 404.975L299.747 404.975L299.754 404.975L299.762 404.975L299.77 404.975L299.777 404.975L299.785 404.975L299.792 404.975L299.8 404.975L299.807 404.975L299.815 404.975L299.822 404.975L299.83 404.975L299.837 404.975L299.845 404.975L299.852 404.975L299.86 404.975L299.867 404.975L299.875 404.975L299.883 404.975L299.89 404.975L299.898 404.975L299.905 404.975L299.913 404.975L299.92 404.975L299.928 404.975L299.935 404.975L299.943 404.975L299.95 404.975L299.958 404.975L299.965 404.975L299.973 404.975L299.98 404.975L299.988 404.975L299.996 404.974L300.003 404.974L300.011 404.974L300.018 404.974L300.026 404.974L300.033 404.974L300.041 404.974L300.048 404.974L300.056 404.974L300.063 404.974L300.071 404.974L300.078 404.974L300.086 404.974L300.093 404.974L300.101 404.974L300.109 404.974L300.116 404.974L300.124 404.974L300.131 404.974L300.139 404.974L300.146 404.974L300.154 404.974L300.161 404.974L300.169 404.974L300.176 404.974L300.184 404.974L300.191 404.974L300.199 404.974L300.207 404.974L300.214 404.974L300.222 404.974L300.229 404.974L300.237 404.974L300.244 404.974L300.252 404.974L300.259 404.974L300.267 404.974L300.274 404.974L300.282 404.974L300.289 404.974L300.297 404.974L300.304 404.974L300.312 404.974L300.32 404.974L300.327 404.974L300.335 404.974L300.342 404.974L300.35 404.974L300.357 404.974L300.365 404.974L300.372 404.974L300.38 404.974L300.387 404.974L300.395 404.974L300.402 404.974L300.41 404.974L300.417 404.974L300.425 404.974L300.433 404.974L300.44 404.974L300.448 404.974L300.455 404.974L300.463 404.974L300.47 404.974L300.478 404.974L300.485 404.974L300.493 404.974L300.5 404.974L300.508 404.974L300.515 404.974L300.523 404.974L300.531 404.974L300.538 404.974L300.546 404.974L300.553 404.974L300.561 404.974L300.568 404.974L300.576 404.974L300.583 404.974L300.591 404.974L300.598 404.974L300.606 404.974L300.613 404.974L300.621 404.974L300.628 404.974L300.636 404.974L300.644 404.974L300.651 404.974C302.029 404.971 303.299 404.505 304.31 403.722C304.663 400.874 304.915 397.937 305.077 394.933ZM281.855 400.225C281.855 400.225 281.852 400.224 281.846 400.222C281.852 400.224 281.855 400.225 281.855 400.225Z" fill="white"/>
<path fill-rule="evenodd" clip-rule="evenodd" d="M174.96 383.464C174.958 383.451 174.955 383.437 174.953 383.424C174.298 380.176 171.135 378.072 167.886 378.726C167.21 378.863 166.577 379.043 166.168 379.16L166.152 379.165C165.681 379.3 165.433 379.37 165.205 379.422C164.938 379.296 164.514 379.062 163.982 378.678C163.229 378.135 162.625 377.557 162.313 377.181C162.226 377.075 162.136 376.968 162.06 376.877L161.998 376.803C161.904 376.691 161.833 376.604 161.77 376.527L161.756 376.51C161.592 375.586 161.462 374.615 161.312 373.492L161.305 373.442L161.305 373.441C161.142 372.215 160.952 370.79 160.671 369.361C160.091 366.409 159.044 362.991 156.533 359.819C156.459 359.725 156.382 359.627 156.302 359.525C154.68 357.465 151.948 353.992 147.245 352.602C145.063 351.957 142.881 351.547 141.02 351.199L140.95 351.186C139.025 350.826 137.428 350.527 135.902 350.098C133.278 349.36 131.918 348.504 130.609 346.82C130.393 346.542 130.106 345.973 129.883 344.705C129.719 343.777 129.653 342.981 129.57 341.976L129.57 341.976C129.522 341.394 129.468 340.743 129.385 339.955C128.658 332.971 125.705 327.462 120.973 322.716C117.16 318.891 112.473 317.197 108.835 316.002C108.171 315.784 107.48 315.605 106.99 315.477L106.99 315.477L106.847 315.44C106.274 315.291 105.911 315.191 105.61 315.086C105.562 315.07 105.521 315.055 105.484 315.041C104.136 313.024 103.682 311.199 103.884 309.084C103.914 308.774 103.943 308.571 103.984 308.286C104.017 308.05 104.059 307.758 104.116 307.302C104.211 306.535 104.323 305.438 104.249 304.232C104.118 302.108 103.122 300.6 102.602 299.896C102.324 299.519 102.048 299.2 101.899 299.028L101.811 298.927C101.773 298.883 101.746 298.852 101.713 298.814C101.68 298.775 101.666 298.758 101.664 298.755L101.663 298.754L101.66 298.75L101.655 298.744L101.65 298.738L101.646 298.733L101.641 298.727L101.636 298.721L101.632 298.715L101.627 298.709L101.622 298.703L101.618 298.697L101.613 298.691L101.608 298.685L101.604 298.679L101.599 298.673L101.594 298.668L101.59 298.662L101.585 298.656L101.58 298.65L101.576 298.644L101.571 298.638L101.566 298.632L101.562 298.626L101.557 298.62L101.552 298.614L101.548 298.609L101.543 298.603L101.538 298.597L101.534 298.591L101.529 298.585L101.524 298.579L101.52 298.573L101.515 298.567L101.51 298.561L101.505 298.555L101.501 298.549L101.496 298.544L101.491 298.538L101.487 298.532L101.482 298.526L101.477 298.52L101.473 298.514L101.468 298.508L101.463 298.502L101.459 298.496L101.454 298.49L101.449 298.484L101.445 298.479L101.44 298.473L101.435 298.467L101.431 298.461L101.426 298.455L101.421 298.449L101.417 298.443L101.412 298.437L101.407 298.431L101.403 298.425L101.398 298.419L101.393 298.414L101.389 298.408L101.384 298.402L101.379 298.396L101.375 298.39L101.37 298.384L101.365 298.378L101.361 298.372L101.356 298.366L101.351 298.36L101.346 298.354L101.342 298.349L101.337 298.343L101.332 298.337L101.328 298.331L101.323 298.325L101.318 298.319L101.314 298.313L101.309 298.307L101.304 298.301L101.3 298.295L101.295 298.289L101.29 298.284L101.286 298.278L101.281 298.272L101.276 298.266L101.272 298.26L101.267 298.254L101.262 298.248L101.258 298.242L101.253 298.236L101.248 298.23L101.244 298.224L101.239 298.219L101.234 298.213L101.23 298.207L101.225 298.201L101.22 298.195L101.216 298.189L101.211 298.183L101.206 298.177L101.202 298.171L101.197 298.165L101.192 298.16L101.188 298.154L101.183 298.148L101.178 298.142L101.173 298.136L101.169 298.13L101.164 298.124L101.159 298.118L101.155 298.112L101.15 298.106L101.145 298.1L101.141 298.095L101.136 298.089L101.131 298.083L101.127 298.077L101.122 298.071L101.117 298.065L101.113 298.059L101.108 298.053L101.103 298.047L101.099 298.041L101.094 298.035L101.089 298.03L101.085 298.024L101.08 298.018L101.075 298.012L101.071 298.006L101.066 298L101.061 297.994L101.057 297.988L101.052 297.982L101.047 297.976L101.043 297.97L101.038 297.965L101.033 297.959L101.029 297.953L101.024 297.947L101.019 297.941L101.014 297.935L101.01 297.929L101.005 297.923L101 297.917L100.996 297.911L100.991 297.905L100.986 297.9L100.982 297.894L100.977 297.888L100.972 297.882L100.968 297.876L100.963 297.87L100.958 297.864L100.954 297.858L100.949 297.852L100.944 297.846L100.94 297.84L100.935 297.835L100.93 297.829L100.926 297.823L100.921 297.817L100.916 297.811L100.912 297.805L100.907 297.799L100.902 297.793L100.898 297.787L100.893 297.781L100.888 297.775L100.884 297.77L100.879 297.764L100.874 297.758L100.87 297.752L100.865 297.746L100.86 297.74L100.855 297.734L100.851 297.728L100.846 297.722L100.841 297.716L100.837 297.71L100.832 297.705L100.827 297.699L100.823 297.693L100.818 297.687L100.813 297.681L100.809 297.675L100.804 297.669L100.799 297.663L100.795 297.657L100.79 297.651L100.785 297.646L100.781 297.64L100.776 297.634L100.771 297.628L100.767 297.622L100.762 297.616L100.757 297.61L100.753 297.604L100.748 297.598L100.743 297.592L100.739 297.586L100.734 297.581L100.729 297.575L100.725 297.569L100.72 297.563L100.715 297.557L100.711 297.551L100.706 297.545L100.701 297.539L100.697 297.533L100.692 297.527L100.687 297.521L100.682 297.516L100.678 297.51L100.673 297.504L100.668 297.498L100.664 297.492L100.659 297.486L100.654 297.48L100.65 297.474L100.645 297.468L100.64 297.462L100.636 297.456L100.631 297.451L100.626 297.445L100.622 297.439L100.617 297.433L100.612 297.427L100.608 297.421L100.603 297.415L100.598 297.409L100.594 297.403L100.589 297.397L100.584 297.391L100.58 297.386L100.575 297.38L100.57 297.374L100.566 297.368L100.561 297.362L100.556 297.356L100.552 297.35L100.547 297.344L100.542 297.338L100.538 297.332L100.533 297.326L100.528 297.321L100.523 297.315L100.519 297.309L100.514 297.303L100.509 297.297L100.505 297.291L100.5 297.285L100.495 297.279L100.491 297.273L100.486 297.267L100.481 297.261L100.477 297.256L100.472 297.25L100.467 297.244L100.463 297.238L100.458 297.232L100.453 297.226L100.449 297.22L100.444 297.214L100.439 297.208L100.435 297.202L100.43 297.196L100.425 297.191L100.421 297.185L100.416 297.179L100.411 297.173L100.407 297.167L100.402 297.161L100.397 297.155L100.393 297.149L100.388 297.143L100.383 297.137L100.379 297.132L100.374 297.126L100.369 297.12L100.365 297.114L100.36 297.108L100.355 297.102L100.35 297.096L100.346 297.09L100.341 297.084L100.336 297.078L100.332 297.072L100.327 297.067L100.322 297.061L100.318 297.055L100.313 297.049L100.308 297.043L100.304 297.037L100.299 297.031L100.294 297.025L100.29 297.019L100.285 297.013L100.28 297.007L100.276 297.002L100.271 296.996L100.266 296.99L100.262 296.984L100.257 296.978L100.252 296.972L100.248 296.966L100.243 296.96L100.238 296.954L100.234 296.948L100.229 296.942L100.224 296.937L100.22 296.931L100.215 296.925L100.21 296.919L100.206 296.913L100.201 296.907L100.196 296.901L100.191 296.895L100.187 296.889L100.182 296.883L100.177 296.877L100.173 296.872L100.168 296.866L100.163 296.86L100.159 296.854L100.154 296.848L100.149 296.842L100.145 296.836L100.14 296.83L100.135 296.824L100.131 296.818L100.126 296.812L100.121 296.807L100.117 296.801L100.112 296.795L100.107 296.789L100.103 296.783L100.098 296.777L100.093 296.771L100.089 296.765L100.084 296.759L100.079 296.753L100.075 296.747L100.07 296.742L100.065 296.736L100.061 296.73L100.056 296.724L100.051 296.718L100.047 296.712L100.042 296.706L100.037 296.7L100.032 296.694L100.028 296.688L100.023 296.683L100.018 296.677L100.014 296.671L100.009 296.665L100.004 296.659L99.9998 296.653L99.9951 296.647L99.9904 296.641L99.9857 296.635L99.9811 296.629L99.9764 296.623L99.9717 296.618L99.967 296.612L99.9624 296.606L99.9577 296.6L99.953 296.594L99.9483 296.588L99.9437 296.582L99.939 296.576L99.9343 296.57L99.9296 296.564L99.9249 296.558L99.9203 296.553L99.9156 296.547L99.9109 296.541L99.9062 296.535L99.9016 296.529L99.8969 296.523L99.8922 296.517L99.8875 296.511L99.8829 296.505L99.8782 296.499L99.8735 296.493L99.8688 296.488L99.8642 296.482L99.8595 296.476L99.8548 296.47L99.8501 296.464L99.8455 296.458L99.8408 296.452L99.8361 296.446L99.8314 296.44L99.8267 296.434L99.8221 296.428L99.8174 296.423L99.8127 296.417L99.808 296.411L99.8034 296.405L99.7987 296.399L99.794 296.393L99.7893 296.387L99.7847 296.381L99.78 296.375L99.7753 296.369L99.7706 296.363L99.766 296.358L99.7613 296.352L99.7566 296.346L99.7519 296.34L99.7473 296.334L99.7426 296.328L99.7379 296.322L99.7332 296.316L99.7285 296.31L99.7239 296.304L99.7192 296.298L99.7145 296.293L99.7098 296.287L99.7052 296.281L99.7005 296.275L99.6958 296.269L99.6911 296.263L99.6865 296.257L99.6818 296.251L99.6771 296.245L99.6724 296.239L99.6678 296.233L99.6631 296.228L99.6584 296.222L99.6537 296.216L99.6491 296.21L99.6444 296.204L99.6397 296.198L99.635 296.192L99.6304 296.186L99.6257 296.18L99.621 296.174L99.6163 296.169L99.6116 296.163L99.607 296.157L99.6023 296.151L99.5976 296.145L99.5929 296.139L99.5883 296.133L99.5836 296.127L99.5789 296.121L99.5742 296.115L99.5696 296.109L99.5649 296.104L99.5602 296.098L99.5555 296.092L99.5509 296.086L99.5462 296.08L99.5415 296.074L99.5368 296.068L99.5322 296.062L99.5275 296.056L99.5228 296.05L99.5181 296.044L99.5134 296.039L99.5088 296.033L99.5041 296.027L99.4994 296.021L99.4947 296.015L99.4901 296.009L99.4854 296.003L99.4807 295.997L99.476 295.991L99.4714 295.985L99.4667 295.979L99.462 295.974L99.4573 295.968L99.4527 295.962L99.448 295.956L99.4433 295.95L99.4386 295.944L99.434 295.938L99.4293 295.932L99.4246 295.926L99.4199 295.92L99.4152 295.914L99.4106 295.909L99.4059 295.903L99.4012 295.897L99.3965 295.891L99.3919 295.885L99.3872 295.879L99.3825 295.873L99.3778 295.867L99.3732 295.861L99.3685 295.855L99.3638 295.849L99.3591 295.844L99.3545 295.838L99.3498 295.832L99.3451 295.826L99.3404 295.82L99.3358 295.814L99.3311 295.808L99.3264 295.802L99.3217 295.796L99.3171 295.79L99.3124 295.784L99.3077 295.779L99.303 295.773L99.2983 295.767L99.2937 295.761L99.289 295.755L99.2843 295.749L99.2796 295.743L99.275 295.737L99.2703 295.731C99.0329 295.431 98.7726 295.16 98.4939 294.918C95.547 297.807 92.7814 300.731 90.2524 303.673L90.2537 303.675L90.2584 303.681L90.2631 303.687L90.2678 303.693L90.2724 303.699L90.2771 303.705L90.2818 303.71L90.2865 303.716L90.2911 303.722L90.2958 303.728L90.3005 303.734L90.3052 303.74L90.3098 303.746L90.3145 303.752L90.3192 303.758L90.3239 303.764L90.3285 303.77L90.3332 303.775L90.3379 303.781L90.3426 303.787L90.3473 303.793L90.3519 303.799L90.3566 303.805L90.3613 303.811L90.366 303.817L90.3706 303.823L90.3753 303.829L90.38 303.835L90.3847 303.84L90.3893 303.846L90.394 303.852L90.3987 303.858L90.4034 303.864L90.408 303.87L90.4127 303.876L90.4174 303.882L90.4221 303.888L90.4267 303.894L90.4314 303.9L90.4361 303.905L90.4408 303.911L90.4455 303.917L90.4501 303.923L90.4548 303.929L90.4595 303.935L90.4642 303.941L90.4688 303.947L90.4735 303.953L90.4782 303.959L90.4829 303.964L90.4875 303.97L90.4922 303.976L90.4969 303.982L90.5016 303.988L90.5062 303.994L90.5109 304L90.5156 304.006L90.5203 304.012L90.5249 304.018L90.5296 304.024L90.5343 304.029L90.539 304.035L90.5436 304.041L90.5483 304.047L90.553 304.053L90.5577 304.059L90.5624 304.065L90.567 304.071L90.5717 304.077L90.5764 304.083L90.5811 304.089L90.5857 304.094L90.5904 304.1L90.5951 304.106L90.5998 304.112L90.6044 304.118L90.6091 304.124L90.6138 304.13L90.6185 304.136L90.6231 304.142L90.6278 304.148L90.6325 304.154L90.6372 304.159L90.6418 304.165L90.6465 304.171L90.6512 304.177L90.6559 304.183L90.6606 304.189L90.6652 304.195L90.6699 304.201L90.6746 304.207L90.6793 304.213L90.6839 304.219L90.6886 304.224L90.6933 304.23L90.698 304.236L90.7026 304.242L90.7073 304.248L90.712 304.254L90.7167 304.26L90.7213 304.266L90.726 304.272L90.7307 304.278L90.7354 304.284L90.74 304.289L90.7447 304.295L90.7494 304.301L90.7541 304.307L90.7588 304.313L90.7634 304.319L90.7681 304.325L90.7728 304.331L90.7775 304.337L90.7821 304.343L90.7868 304.349L90.7915 304.354L90.7962 304.36L90.8008 304.366L90.8055 304.372L90.8102 304.378L90.8149 304.384L90.8195 304.39L90.8242 304.396L90.8289 304.402L90.8336 304.408L90.8382 304.414L90.8429 304.419L90.8476 304.425L90.8523 304.431L90.857 304.437L90.8616 304.443L90.8663 304.449L90.871 304.455L90.8757 304.461L90.8803 304.467L90.885 304.473L90.8897 304.478L90.8944 304.484L90.899 304.49L90.9037 304.496L90.9084 304.502L90.9131 304.508L90.9177 304.514L90.9224 304.52L90.9271 304.526L90.9318 304.532L90.9364 304.538L90.9411 304.543L90.9458 304.549L90.9505 304.555L90.9551 304.561L90.9598 304.567L90.9645 304.573L90.9692 304.579L90.9739 304.585L90.9785 304.591L90.9832 304.597L90.9879 304.603L90.9926 304.608L90.9972 304.614L91.0019 304.62L91.0066 304.626L91.0113 304.632L91.0159 304.638L91.0206 304.644L91.0253 304.65L91.03 304.656L91.0346 304.662L91.0393 304.668L91.044 304.673L91.0487 304.679L91.0533 304.685L91.058 304.691L91.0627 304.697L91.0674 304.703L91.0721 304.709L91.0767 304.715L91.0814 304.721L91.0861 304.727L91.0908 304.733L91.0954 304.738L91.1001 304.744L91.1048 304.75L91.1095 304.756L91.1141 304.762L91.1188 304.768L91.1235 304.774L91.1282 304.78L91.1328 304.786L91.1375 304.792L91.1422 304.798L91.1469 304.803L91.1515 304.809L91.1562 304.815L91.1609 304.821L91.1656 304.827L91.1703 304.833L91.1749 304.839L91.1796 304.845L91.1843 304.851L91.189 304.857L91.1936 304.863L91.1983 304.868L91.203 304.874L91.2077 304.88L91.2123 304.886L91.217 304.892L91.2217 304.898L91.2264 304.904L91.231 304.91L91.2357 304.916L91.2404 304.922L91.2451 304.928L91.2497 304.933L91.2544 304.939L91.2591 304.945L91.2638 304.951L91.2685 304.957L91.2731 304.963L91.2778 304.969L91.2825 304.975L91.2872 304.981L91.2918 304.987L91.2965 304.992L91.3012 304.998L91.3059 305.004L91.3105 305.01L91.3152 305.016L91.3199 305.022L91.3246 305.028L91.3292 305.034L91.3339 305.04L91.3386 305.046L91.3433 305.052L91.3479 305.057L91.3526 305.063L91.3573 305.069L91.362 305.075L91.3666 305.081L91.3713 305.087L91.376 305.093L91.3807 305.099L91.3854 305.105L91.39 305.111L91.3947 305.117L91.3994 305.122L91.4041 305.128L91.4087 305.134L91.4134 305.14L91.4181 305.146L91.4228 305.152L91.4274 305.158L91.4321 305.164L91.4368 305.17L91.4415 305.176L91.4461 305.182L91.4508 305.187L91.4555 305.193L91.4602 305.199L91.4648 305.205L91.4695 305.211L91.4742 305.217L91.4789 305.223L91.4836 305.229L91.4882 305.235L91.4929 305.241L91.4976 305.247L91.5023 305.252L91.5069 305.258L91.5116 305.264L91.5163 305.27L91.521 305.276L91.5256 305.282L91.5303 305.288L91.535 305.294L91.5397 305.3L91.5443 305.306L91.549 305.312L91.5537 305.317L91.5584 305.323L91.563 305.329L91.5677 305.335L91.5724 305.341L91.5771 305.347L91.5818 305.353L91.5864 305.359L91.5911 305.365L91.5958 305.371L91.6005 305.377L91.6051 305.382L91.6098 305.388L91.6145 305.394L91.6192 305.4L91.6238 305.406L91.6285 305.412L91.6332 305.418L91.6379 305.424L91.6425 305.43L91.6472 305.436L91.6519 305.441L91.6566 305.447L91.6612 305.453L91.6659 305.459L91.6706 305.465L91.6753 305.471L91.68 305.477L91.6846 305.483L91.6893 305.489L91.694 305.495L91.6987 305.501L91.7033 305.506L91.708 305.512L91.7127 305.518L91.7174 305.524L91.722 305.53L91.7267 305.536L91.7314 305.542L91.7361 305.548L91.7407 305.554L91.7454 305.56L91.7501 305.566L91.7548 305.571L91.7594 305.577L91.7641 305.583L91.7688 305.589L91.7735 305.595L91.7781 305.601L91.7828 305.607L91.7875 305.613L91.7922 305.619L91.7969 305.625L91.8015 305.631L91.8062 305.636L91.8109 305.642L91.8156 305.648L91.8202 305.654L91.8249 305.66L91.8296 305.666L91.8343 305.672L91.8389 305.678L91.8436 305.684L91.8483 305.69L91.853 305.696L91.8576 305.701L91.8623 305.707L91.867 305.713L91.8717 305.719L91.8763 305.725L91.881 305.731L91.8857 305.737L91.8904 305.743L91.8951 305.749L91.8997 305.755L91.9044 305.761L91.9091 305.766L91.9138 305.772L91.9184 305.778L91.9231 305.784L91.9278 305.79L91.9325 305.796L91.9371 305.802L91.9418 305.808L91.9465 305.814L91.9512 305.82L91.9558 305.826L91.9605 305.831L91.9652 305.837L91.9699 305.843L91.9745 305.849L91.9792 305.855L91.9839 305.861L91.9886 305.867L91.9933 305.873L91.9979 305.879L92.0026 305.885L92.0073 305.891L92.012 305.896L92.0166 305.902L92.0213 305.908L92.026 305.914L92.0307 305.92L92.0353 305.926L92.04 305.932L92.0447 305.938L92.0494 305.944L92.054 305.95L92.0587 305.955L92.0634 305.961L92.0681 305.967L92.0727 305.973L92.0774 305.979L92.0821 305.985L92.0868 305.991L92.0914 305.997L92.0961 306.003L92.1008 306.009L92.1055 306.015L92.1102 306.02L92.1148 306.026L92.1195 306.032L92.1242 306.038L92.1289 306.044L92.1335 306.05L92.1382 306.056L92.1429 306.062L92.1476 306.068L92.1522 306.074L92.1569 306.08L92.1616 306.085L92.1663 306.091L92.1706 306.097L92.1541 306.217L92.1541 306.217C92.0889 306.692 91.9887 307.421 91.9391 307.939C91.4175 313.38 92.9426 318.131 95.9636 322.37C97.7054 324.814 100.116 325.883 101.683 326.426C102.484 326.703 103.268 326.908 103.821 327.052L103.851 327.06C104.466 327.221 104.802 327.308 105.09 327.403C108.599 328.555 110.84 329.548 112.474 331.188C115.505 334.228 117.04 337.264 117.45 341.199C117.481 341.496 117.514 341.88 117.551 342.321L117.551 342.322C117.659 343.586 117.806 345.315 118.065 346.786C118.449 348.971 119.217 351.715 121.133 354.182C124.377 358.358 128.194 360.395 132.653 361.65C134.707 362.227 136.774 362.614 138.545 362.944L138.814 362.994C140.738 363.354 142.338 363.665 143.843 364.11C144.588 364.33 145.179 364.809 147.124 367.266C147.98 368.348 148.505 369.682 148.897 371.677C149.098 372.702 149.244 373.78 149.417 375.076L149.43 375.171C149.591 376.385 149.779 377.798 150.055 379.223C150.588 381.975 152.258 383.897 152.906 384.642C152.973 384.72 153.03 384.785 153.073 384.836C154.147 386.133 155.541 387.387 156.964 388.412C158.346 389.409 160.145 390.473 162.086 391.045C163.491 391.459 164.797 391.515 165.907 391.429C169.137 388.812 172.178 386.103 174.96 383.464ZM105.267 314.947C105.267 314.947 105.27 314.949 105.275 314.952C105.27 314.949 105.267 314.947 105.267 314.947Z" fill="white"/>
<path fill-rule="evenodd" clip-rule="evenodd" d="M138.054 223.181C139.043 222.503 139.839 221.523 140.285 220.313L140.285 220.313L140.285 220.313L140.286 220.313L140.286 220.312L140.286 220.312L140.286 220.312L140.286 220.311L140.286 220.311L140.286 220.311L140.287 220.31L140.287 220.309L140.287 220.309L140.287 220.308L140.287 220.307L140.288 220.307L140.288 220.306L140.288 220.305L140.289 220.304L140.289 220.303L140.29 220.302L140.29 220.301L140.29 220.3L140.291 220.298L140.291 220.297L140.292 220.296L140.292 220.295L140.293 220.293L140.293 220.292L140.294 220.29L140.294 220.289L140.295 220.287L140.295 220.286L140.296 220.284L140.297 220.282L140.297 220.281L140.298 220.279L140.299 220.277L140.299 220.275L140.3 220.273L140.301 220.271L140.302 220.269L140.302 220.267L140.303 220.265L140.304 220.263L140.305 220.261L140.306 220.258L140.306 220.256L140.307 220.254L140.308 220.251L140.309 220.249L140.31 220.246L140.311 220.244L140.312 220.241L140.313 220.239L140.314 220.236L140.315 220.233L140.316 220.231L140.317 220.228L140.318 220.225L140.319 220.222L140.32 220.219L140.321 220.216L140.322 220.213L140.323 220.21L140.324 220.207L140.326 220.204L140.327 220.201L140.328 220.198L140.329 220.195L140.33 220.191L140.332 220.188L140.333 220.185L140.334 220.181L140.335 220.178L140.337 220.174L140.338 220.171L140.339 220.167L140.341 220.163L140.342 220.16L140.343 220.156L140.345 220.152L140.346 220.149L140.348 220.145L140.349 220.141L140.35 220.137L140.352 220.133L140.353 220.129L140.355 220.125L140.356 220.121L140.358 220.117L140.359 220.113L140.361 220.109L140.362 220.105L140.364 220.1L140.365 220.096L140.367 220.092L140.369 220.088L140.37 220.083L140.372 220.079L140.374 220.074L140.375 220.07L140.377 220.065L140.379 220.061L140.38 220.056L140.382 220.051L140.384 220.047L140.385 220.042L140.387 220.037L140.389 220.033L140.391 220.028L140.393 220.023L140.394 220.018L140.396 220.013L140.398 220.008L140.4 220.003L140.402 219.998L140.404 219.993L140.405 219.988L140.407 219.983L140.409 219.978L140.411 219.973L140.413 219.967L140.415 219.962L140.417 219.957L140.419 219.951L140.421 219.946L140.423 219.941L140.425 219.935L140.427 219.93L140.429 219.924L140.431 219.919L140.433 219.913L140.435 219.908L140.437 219.902L140.439 219.896L140.441 219.891L140.443 219.885L140.446 219.879L140.448 219.874L140.45 219.868L140.452 219.862L140.454 219.856L140.456 219.85L140.459 219.844L140.461 219.838L140.463 219.832L140.465 219.826L140.467 219.82L140.47 219.814L140.472 219.808L140.474 219.802L140.476 219.796L140.479 219.79L140.481 219.784L140.483 219.777L140.486 219.771L140.488 219.765L140.49 219.758L140.493 219.752L140.495 219.746L140.497 219.739L140.5 219.733L140.502 219.726L140.504 219.72L140.507 219.713L140.509 219.707L140.512 219.7L140.514 219.694L140.517 219.687L140.519 219.68L140.521 219.674L140.524 219.667L140.526 219.66L140.529 219.654L140.531 219.647L140.534 219.64L140.536 219.633L140.539 219.626L140.542 219.62L140.544 219.613L140.547 219.606L140.549 219.599L140.552 219.592L140.554 219.585L140.557 219.578L140.56 219.571L140.562 219.564L140.565 219.557L140.567 219.55L140.57 219.542L140.573 219.535L140.575 219.528L140.578 219.521L140.581 219.514L140.583 219.506L140.586 219.499L140.589 219.492L140.591 219.485L140.594 219.477L140.597 219.47L140.6 219.462L140.602 219.455L140.605 219.448L140.608 219.44L140.611 219.433L140.613 219.425L140.616 219.418L140.619 219.41L140.622 219.403L140.624 219.395L140.627 219.388L140.63 219.38L140.633 219.372L140.636 219.365L140.638 219.357L140.641 219.349L140.644 219.342L140.647 219.334L140.65 219.326L140.653 219.318L140.656 219.311L140.658 219.303L140.661 219.295L140.664 219.287L140.667 219.279L140.67 219.272L140.673 219.264L140.676 219.256L140.679 219.248L140.682 219.24L140.685 219.232L140.688 219.224L140.691 219.216L140.693 219.208L140.696 219.2L140.699 219.192L140.702 219.184L140.705 219.176L140.708 219.168L140.711 219.16L140.714 219.152L140.717 219.144L140.72 219.135L140.723 219.127L140.726 219.119L140.729 219.111L140.732 219.103L140.735 219.095L140.738 219.086L140.742 219.078L140.745 219.07L140.748 219.062L140.751 219.053L140.754 219.045L140.757 219.037L140.76 219.028L140.763 219.02L140.766 219.012L140.769 219.003L140.772 218.995L140.775 218.987L140.778 218.978L140.781 218.97L140.785 218.962L140.788 218.953L140.791 218.945L140.794 218.936L140.797 218.928L140.8 218.919L140.803 218.911L140.806 218.902L140.81 218.894L140.813 218.885L140.816 218.877L140.819 218.868L140.822 218.86L140.825 218.851L140.828 218.843L140.832 218.834L140.835 218.825L140.838 218.817L140.841 218.808L140.844 218.8L140.848 218.791L140.851 218.782L140.854 218.774L140.857 218.765L140.86 218.757L140.863 218.748L140.867 218.739L140.87 218.731L140.873 218.722L140.876 218.713L140.88 218.705L140.883 218.696L140.886 218.687L140.889 218.678L140.892 218.67L140.896 218.661L140.899 218.652L140.902 218.643L140.905 218.635L140.909 218.626L140.912 218.617L140.915 218.608L140.918 218.6L140.921 218.591L140.925 218.582L140.928 218.573L140.931 218.565L140.934 218.556L140.938 218.547L140.941 218.538L140.944 218.529L140.947 218.521L140.951 218.512L140.954 218.503L140.957 218.494L140.96 218.485L140.964 218.477L140.967 218.468L140.97 218.459L140.973 218.45L140.977 218.441L140.98 218.432L140.983 218.424L140.987 218.415L140.99 218.406L140.993 218.397L140.996 218.388L141 218.379L141.003 218.37L141.006 218.362L141.009 218.353L141.013 218.344L141.016 218.335L141.019 218.326L141.022 218.317L141.026 218.308L141.029 218.3L141.032 218.291L141.036 218.282L141.039 218.273L141.042 218.264L141.045 218.255L141.049 218.247L141.052 218.238L141.055 218.229L141.058 218.22L141.062 218.211L141.065 218.202L141.068 218.193L141.072 218.185L141.075 218.176L141.078 218.167L141.081 218.158L141.085 218.149L141.088 218.14L141.091 218.132L141.094 218.123L141.098 218.114L141.101 218.105L141.104 218.096L141.107 218.087L141.111 218.079L141.114 218.07L141.117 218.061L141.12 218.052L141.124 218.043L141.127 218.035L141.13 218.026L141.133 218.017L141.137 218.008L141.14 218L141.143 217.991L141.146 217.982L141.15 217.973L141.153 217.965L141.156 217.956L141.159 217.947L141.162 217.938L141.166 217.93L141.169 217.921L141.172 217.912L141.175 217.904L141.179 217.895L141.182 217.886L141.185 217.877L141.188 217.869L141.191 217.86L141.195 217.851L141.198 217.843L141.201 217.834L141.204 217.826L141.207 217.817L141.211 217.808L141.214 217.8L141.217 217.791L141.22 217.782L141.223 217.774L141.226 217.765L141.23 217.757L141.233 217.748L141.236 217.74L141.239 217.731L141.242 217.723L141.245 217.714L141.248 217.706L141.252 217.697L141.255 217.689L141.258 217.68L141.261 217.672L141.264 217.663L141.267 217.655L141.27 217.646L141.273 217.638L141.277 217.629L141.28 217.621L141.283 217.613L141.286 217.604L141.289 217.596L141.292 217.588L141.295 217.579L141.298 217.571L141.301 217.563L141.304 217.554L141.307 217.546L141.31 217.538L141.313 217.53L141.317 217.521L141.32 217.513L141.323 217.505L141.326 217.497L141.329 217.489L141.332 217.48L141.335 217.472L141.338 217.464L141.341 217.456L141.344 217.448L141.347 217.44L141.35 217.432L141.353 217.424L141.356 217.415L141.359 217.407L141.362 217.399L141.364 217.391L141.367 217.383L141.37 217.375L141.373 217.368L141.376 217.36L141.379 217.352L141.382 217.344L141.385 217.336L141.388 217.328L141.391 217.32L141.394 217.312L141.397 217.305L141.399 217.297L141.402 217.289L141.405 217.281L141.408 217.273L141.411 217.266L141.414 217.258L141.417 217.25L141.419 217.243L141.422 217.235L141.425 217.227L141.428 217.22L141.431 217.212L141.434 217.205L141.436 217.197L141.439 217.189L141.442 217.182L141.445 217.174L141.447 217.167L141.45 217.16L141.453 217.152L141.456 217.145L141.458 217.137L141.461 217.13L141.464 217.123L141.466 217.115L141.469 217.108L141.472 217.101L141.475 217.093L141.477 217.086L141.48 217.079L141.483 217.072L141.485 217.065L141.488 217.057L141.49 217.05L141.493 217.043L141.496 217.036L141.498 217.029L141.501 217.022L141.503 217.015L141.506 217.008L141.509 217.001L141.511 216.994L141.514 216.987L141.516 216.98L141.519 216.974L141.521 216.967L141.524 216.96L141.526 216.953L141.529 216.946L141.531 216.94L141.534 216.933L141.536 216.926L141.539 216.92L141.539 216.919C141.541 216.915 141.547 216.898 141.562 216.863C141.569 216.845 141.576 216.829 141.583 216.813C141.592 216.79 141.602 216.767 141.614 216.738L141.664 216.619C141.748 216.422 141.907 216.043 142.051 215.607C142.321 214.794 142.795 213.065 142.251 211.02C141.949 209.887 141.51 208.915 141.193 208.252C140.999 207.848 140.874 207.597 140.774 207.398C140.656 207.162 140.574 206.997 140.456 206.732C139.694 205.016 139.553 203.379 140.099 201.335C140.326 201.166 140.609 200.98 141.075 200.684L141.193 200.61C141.595 200.355 142.175 199.988 142.718 199.593C145.642 197.47 149.435 194.55 151.78 189.926C154.67 184.228 155.706 178.345 154.257 171.789C154.142 171.268 153.994 170.656 153.864 170.117L153.864 170.117L153.864 170.116C153.797 169.837 153.734 169.578 153.683 169.361C153.508 168.614 153.376 167.989 153.292 167.42C153.119 166.249 153.218 165.734 153.296 165.516C153.934 163.739 154.835 162.642 156.934 161.253C158.168 160.435 159.506 159.712 161.142 158.828L161.192 158.801C162.764 157.952 164.625 156.945 166.417 155.725C170.349 153.045 171.818 149.032 172.664 146.718C172.707 146.601 172.748 146.488 172.788 146.38C174.138 142.724 174.055 139.288 173.694 136.448C173.519 135.076 173.263 133.735 173.045 132.593L173.035 132.542C172.843 131.534 172.678 130.667 172.553 129.834C172.578 129.77 172.607 129.698 172.642 129.611L172.676 129.527L172.676 129.527C172.717 129.424 172.767 129.3 172.814 129.179C172.967 128.793 173.319 128.132 173.819 127.451C174.056 127.129 174.287 126.856 174.489 126.647C174.515 126.619 174.541 126.594 174.565 126.57C174.754 126.556 174.983 126.548 175.374 126.535L175.392 126.534C175.795 126.52 176.428 126.499 177.089 126.424C179.456 126.154 181.345 124.544 182.083 122.438C178.991 119.57 175.942 116.932 173.025 114.669C171.718 114.817 169.877 115.201 168.07 116.429C166.443 117.536 165.107 119.047 164.143 120.361C163.15 121.713 162.247 123.271 161.649 124.782C161.628 124.837 161.598 124.907 161.561 124.993L161.561 124.993C161.203 125.836 160.221 128.148 160.578 130.885C160.756 132.251 161.01 133.579 161.226 134.71L161.243 134.803C161.475 136.015 161.663 137.01 161.785 137.971C162.023 139.841 161.942 141.111 161.526 142.236C161.031 143.577 160.737 144.332 160.391 144.943C160.107 145.445 159.885 145.662 159.66 145.816C158.453 146.638 157.119 147.371 155.49 148.251L155.259 148.376L155.259 148.376C153.764 149.183 152.003 150.134 150.309 151.255C146.617 153.7 143.714 156.691 141.996 161.476C140.971 164.332 141.107 167.088 141.416 169.182C141.625 170.592 142.016 172.216 142.297 173.379L142.297 173.38C142.393 173.778 142.476 174.123 142.534 174.386C143.318 177.93 142.858 180.993 141.073 184.511C140.137 186.355 138.486 187.845 135.667 189.892C135.444 190.053 135.176 190.224 134.658 190.553L134.657 190.553L134.645 190.561C134.191 190.849 133.534 191.267 132.882 191.756C131.609 192.712 129.672 194.431 128.792 197.249C127.304 202.008 127.35 206.801 129.481 211.604C129.655 211.996 129.834 212.362 129.979 212.656C130.024 212.748 130.066 212.831 130.104 212.908L130.108 212.918L130.175 213.052L130.175 213.053L130.172 213.061L130.169 213.068L130.166 213.076L130.163 213.083L130.16 213.091L130.158 213.099L130.155 213.106L130.152 213.114L130.149 213.122L130.146 213.129L130.143 213.137L130.141 213.145L130.138 213.153L130.135 213.161L130.132 213.168L130.129 213.176L130.126 213.184L130.123 213.192L130.12 213.2L130.117 213.208L130.114 213.216L130.112 213.224L130.109 213.232L130.106 213.239L130.103 213.247L130.1 213.255L130.097 213.264L130.094 213.272L130.091 213.28L130.088 213.288L130.085 213.296L130.082 213.304L130.079 213.312L130.076 213.32L130.073 213.328L130.07 213.336L130.067 213.345L130.064 213.353L130.061 213.361L130.058 213.369L130.055 213.377L130.052 213.386L130.049 213.394L130.046 213.402L130.043 213.41L130.039 213.419L130.036 213.427L130.033 213.435L130.03 213.444L130.027 213.452L130.024 213.46L130.021 213.469L130.018 213.477L130.015 213.486L130.012 213.494L130.009 213.502L130.005 213.511L130.002 213.519L129.999 213.528L129.996 213.536L129.993 213.545L129.99 213.553L129.987 213.562L129.984 213.57L129.98 213.579L129.977 213.587L129.974 213.596L129.971 213.604L129.968 213.613L129.965 213.621L129.961 213.63L129.958 213.639L129.955 213.647L129.952 213.656L129.949 213.664L129.946 213.673L129.942 213.682L129.939 213.69L129.936 213.699L129.933 213.707L129.93 213.716L129.926 213.725L129.923 213.733L129.92 213.742L129.917 213.751L129.914 213.76L129.91 213.768L129.907 213.777L129.904 213.786L129.901 213.794L129.897 213.803L129.894 213.812L129.891 213.821L129.888 213.829L129.885 213.838L129.881 213.847L129.878 213.856L129.875 213.864L129.872 213.873L129.868 213.882L129.865 213.891L129.862 213.9L129.859 213.908L129.855 213.917L129.852 213.926L129.849 213.935L129.846 213.944L129.842 213.952L129.839 213.961L129.836 213.97L129.833 213.979L129.829 213.988L129.826 213.996L129.823 214.005L129.82 214.014L129.816 214.023L129.813 214.032L129.81 214.041L129.806 214.049L129.803 214.058L129.8 214.067L129.797 214.076L129.793 214.085L129.79 214.094L129.787 214.103L129.784 214.111L129.78 214.12L129.777 214.129L129.774 214.138L129.771 214.147L129.767 214.156L129.764 214.165L129.761 214.173L129.757 214.182L129.754 214.191L129.751 214.2L129.748 214.209L129.744 214.218L129.741 214.226L129.738 214.235L129.735 214.244L129.731 214.253L129.728 214.262L129.725 214.271L129.722 214.28L129.718 214.288L129.715 214.297L129.712 214.306L129.708 214.315L129.705 214.324L129.702 214.333L129.699 214.341L129.695 214.35L129.692 214.359L129.689 214.368L129.686 214.377L129.682 214.385L129.679 214.394L129.676 214.403L129.673 214.412L129.669 214.421L129.666 214.429L129.663 214.438L129.66 214.447L129.656 214.456L129.653 214.465L129.65 214.473L129.647 214.482L129.643 214.491L129.64 214.5L129.637 214.508L129.634 214.517L129.631 214.526L129.627 214.534L129.624 214.543L129.621 214.552L129.618 214.561L129.615 214.569L129.611 214.578L129.608 214.587L129.605 214.595L129.602 214.604L129.599 214.613L129.595 214.621L129.592 214.63L129.589 214.638L129.586 214.647L129.583 214.656L129.579 214.664L129.576 214.673L129.573 214.682L129.57 214.69L129.567 214.699L129.564 214.707L129.56 214.716L129.557 214.724L129.554 214.733L129.551 214.741L129.548 214.75L129.545 214.758L129.542 214.767L129.538 214.775L129.535 214.784L129.532 214.792L129.529 214.801L129.526 214.809L129.523 214.818L129.52 214.826L129.517 214.834L129.513 214.843L129.51 214.851L129.507 214.859L129.504 214.868L129.501 214.876L129.498 214.885L129.495 214.893L129.492 214.901L129.489 214.909L129.486 214.918L129.483 214.926L129.48 214.934L129.477 214.942L129.474 214.951L129.471 214.959L129.468 214.967L129.465 214.975L129.462 214.983L129.459 214.992L129.456 215L129.453 215.008L129.45 215.016L129.447 215.024L129.444 215.032L129.441 215.04L129.438 215.048L129.435 215.056L129.432 215.064L129.429 215.072L129.426 215.08L129.423 215.088L129.42 215.096L129.417 215.104L129.414 215.112L129.411 215.12L129.408 215.128L129.405 215.135L129.402 215.143L129.4 215.151L129.397 215.159L129.394 215.167L129.391 215.175L129.388 215.182L129.385 215.19L129.382 215.198L129.38 215.205L129.377 215.213L129.374 215.221L129.371 215.228L129.368 215.236L129.365 215.244L129.363 215.251L129.36 215.259L129.357 215.266L129.354 215.274L129.352 215.281L129.349 215.289L129.346 215.296L129.343 215.304L129.341 215.311L129.338 215.318L129.335 215.326L129.332 215.333L129.33 215.341L129.327 215.348L129.324 215.355L129.322 215.362L129.319 215.37L129.316 215.377L129.314 215.384L129.311 215.391L129.308 215.398L129.306 215.406L129.303 215.413L129.3 215.42L129.298 215.427L129.295 215.434L129.293 215.441L129.29 215.448L129.287 215.455L129.285 215.462L129.282 215.469L129.28 215.476L129.277 215.482L129.275 215.489L129.272 215.496L129.27 215.503L129.267 215.51L129.265 215.516L129.262 215.523L129.26 215.53L129.257 215.537L129.255 215.543L129.252 215.55L129.25 215.556L129.247 215.563L129.245 215.569L129.243 215.576L129.24 215.582L129.238 215.589L129.236 215.595L129.233 215.602L129.231 215.608L129.228 215.614L129.226 215.621L129.224 215.627L129.221 215.633L129.219 215.64L129.217 215.646L129.215 215.652L129.212 215.658L129.21 215.664L129.208 215.67L129.206 215.676L129.203 215.682L129.201 215.688L129.199 215.694L129.197 215.7L129.195 215.706L129.192 215.712L129.19 215.718L129.188 215.724L129.186 215.73L129.184 215.735L129.182 215.741L129.18 215.747L129.177 215.753L129.175 215.758L129.173 215.764L129.171 215.769L129.169 215.775L129.167 215.78L129.165 215.786L129.163 215.791L129.161 215.797L129.159 215.802L129.157 215.808L129.155 215.813L129.153 215.818L129.151 215.823L129.149 215.829L129.147 215.834L129.146 215.839L129.144 215.844L129.142 215.849L129.14 215.854L129.138 215.859L129.136 215.864L129.134 215.869L129.133 215.874L129.131 215.879L129.129 215.884L129.127 215.889L129.125 215.893L129.124 215.898L129.122 215.903L129.12 215.907L129.119 215.912L129.117 215.917L129.115 215.921L129.113 215.926L129.112 215.93L129.11 215.935L129.109 215.939L129.107 215.944L129.105 215.948L129.104 215.952L129.102 215.956L129.101 215.961L129.099 215.965L129.098 215.969L129.096 215.973L129.094 215.977L129.093 215.981L129.092 215.985L129.09 215.989L129.089 215.993L129.087 215.997L129.086 216.001L129.084 216.005L129.083 216.008L129.082 216.012L129.08 216.016L129.079 216.02L129.078 216.023L129.076 216.027L129.075 216.03L129.074 216.034L129.072 216.037L129.071 216.041L129.07 216.044L129.069 216.047L129.067 216.051L129.066 216.054L129.065 216.057L129.064 216.06L129.063 216.063L129.062 216.066L129.06 216.069L129.059 216.072L129.058 216.075L129.057 216.078L129.056 216.081L129.055 216.084L129.054 216.087L129.053 216.089L129.052 216.092L129.051 216.095L129.05 216.097L129.049 216.1L129.048 216.102L129.047 216.105L129.046 216.107L129.046 216.11L129.045 216.112L129.044 216.114L129.043 216.117L129.042 216.119L129.041 216.121L129.041 216.123L129.04 216.125L129.039 216.127L129.038 216.129L129.038 216.131L129.037 216.133L129.036 216.135L129.036 216.137L129.035 216.138L129.034 216.14L129.034 216.142L129.033 216.143L129.033 216.145L129.032 216.146L129.031 216.148L129.031 216.149L129.03 216.151L129.03 216.152L129.029 216.153L129.029 216.155L129.029 216.156L129.028 216.157L129.028 216.158L129.027 216.159L129.027 216.16L129.027 216.161L129.026 216.162L129.026 216.163L129.026 216.163L129.025 216.164L129.025 216.165L129.025 216.165L129.025 216.166L129.025 216.167L129.024 216.167L129.024 216.167L129.024 216.168L129.024 216.168L129.024 216.168L129.024 216.169L129.024 216.169L129.024 216.169L129.024 216.169L134.654 218.241L129.024 216.169C128.561 217.421 128.543 218.728 128.889 219.918C130.622 220.709 132.411 221.42 134.254 222.046C135.267 222.39 136.554 222.772 138.054 223.181ZM139.863 201.53C139.863 201.53 139.868 201.526 139.875 201.518C139.871 201.522 139.868 201.525 139.866 201.527C139.864 201.529 139.863 201.53 139.863 201.53Z" fill="white"/>
</svg>
