<svg width="1920" height="69" viewBox="0 0 1920 69" fill="none" xmlns="http://www.w3.org/2000/svg">
<path d="M38.64 3.00179C56.4015 3.24442 58.4088 29.4002 76.16 28.7486C93.0211 28.1297 93.9997 3.00179 110.88 3.00179C127.76 3.00178 128.72 28.6197 145.6 28.7486C162.656 28.8789 163.843 2.17798 180.88 3.00179C196.877 3.77531 196.785 28.6128 212.8 28.7486C228.985 28.8859 229.102 3.52285 245.28 3.00179C262.152 2.45838 263.14 29.5812 280 28.7486C295.826 27.967 295.517 3.27348 311.36 3.00179C327.544 2.72425 327.659 28.3537 343.84 28.7486C360.54 29.1562 361.297 2.72313 378 3.00179C394.343 3.27445 394.664 28.1754 411 28.7486C428.115 29.3492 429.374 3.00179 446.5 3.00179C463.626 3.00179 464.906 27.7011 482 28.7486C500.707 29.895 503.761 2.67905 522.5 3.00179C540.747 3.31606 543.257 28.2339 561.5 28.7486C580.565 29.2865 583.969 1.75231 603 3.00179C620.247 4.13413 621.716 28.6361 639 28.7486C656.443 28.8622 658.087 4.03119 675.5 3.00179C694.539 1.87627 697.948 29.6328 717 28.7486C734.745 27.9251 736.747 3.63033 754.5 3.00179C773.23 2.33866 776.258 28.7486 795 28.7486C813.742 28.7486 816.822 4.54581 835.5 3.00179C857.043 1.22093 863.004 31.0281 884.5 28.7486C902.487 26.8413 904.935 3.90457 923 3.00179C942.548 2.02488 946.431 28.3607 966 28.7486C986.243 29.1499 990.781 1.94495 1011 3.00179C1029.55 3.97148 1032.47 27.4353 1051 28.7486C1071.88 30.2282 1077.15 1.15651 1098 3.00179C1116.02 4.59659 1118.42 28.2294 1136.5 28.7486C1155.4 29.2913 1158.6 2.57147 1177.5 3.00179C1195.75 3.41716 1198.26 28.1363 1216.5 28.7486C1235.73 29.3941 1239.27 3.39625 1258.5 3.00179C1278.4 2.59359 1282.59 28.7486 1302.5 28.7486C1322.41 28.7486 1326.59 2.90233 1346.5 3.00179C1366.24 3.1004 1370.26 29.0548 1390 28.7486C1409.24 28.4502 1412.78 3.76474 1432 3.00179C1452.57 2.18538 1457.45 29.9009 1478 28.7486C1496.71 27.6996 1499.76 2.78854 1518.5 3.00179C1536.91 3.2113 1539.6 28.1416 1558 28.7486C1577.39 29.3884 1581.1 2.47337 1600.5 3.00179C1619.07 3.50766 1621.93 28.3404 1640.5 28.7486C1659.73 29.1714 1663.27 2.57905 1682.5 3.00179C1701.07 3.40999 1703.94 28.0524 1722.5 28.7486C1742.23 29.4884 1746.26 2.90148 1766 3.00179C1785.57 3.10124 1789.46 29.7908 1809 28.7486C1828.05 27.7328 1829.42 0.22608 1848.5 3.06948e-05C1867.89 -0.229776 1869.77 31.2713 1889 28.7486C1905.37 26.6011 1920 3.06948e-05 1920 3.06948e-05V46.7391C1920 46.7391 1903.58 66.2756 1889 68C1871.26 70.0984 1866.36 46.554 1848.5 46.7391C1830.98 46.9206 1826.51 67.3942 1809 68C1790.28 68.6479 1784.73 46.8248 1766 46.7391C1747.09 46.6525 1741.4 68.6415 1722.5 68C1704.82 67.3998 1700.19 47.0918 1682.5 46.7391C1664.12 46.3725 1658.88 68.3666 1640.5 68C1622.81 67.6473 1618.19 47.1759 1600.5 46.7391C1581.95 46.2808 1576.55 68.5553 1558 68C1540.49 67.4759 1536.02 46.9206 1518.5 46.7391C1500.64 46.554 1495.84 67.0989 1478 68C1458.24 68.9984 1451.78 46.0336 1432 46.7391C1413.63 47.3945 1408.38 67.7428 1390 68C1371.09 68.2646 1365.41 46.824 1346.5 46.7391C1327.42 46.6533 1321.58 68 1302.5 68C1283.42 68 1277.58 46.3863 1258.5 46.7391C1240.12 47.0789 1234.88 68.5608 1216.5 68C1199.16 67.4709 1194.84 47.0986 1177.5 46.7391C1159.47 46.3652 1154.53 68.472 1136.5 68C1119.33 67.5506 1115.12 48.1072 1098 46.7391C1077.92 45.1344 1071.1 69.2831 1051 68C1033.35 66.8733 1028.67 47.5732 1011 46.7391C991.585 45.8226 985.433 68.3462 966 68C947.27 67.6664 941.714 45.8895 923 46.7391C905.842 47.518 901.598 66.3679 884.5 68C863.735 69.9823 856.302 45.1962 835.5 46.7391C817.686 48.0604 812.863 68 795 68C777.137 68 772.354 46.1612 754.5 46.7391C737.674 47.2836 733.82 67.2878 717 68C698.806 68.7705 693.683 45.7563 675.5 46.7391C659.028 47.6294 655.496 68.0993 639 68C622.673 67.9017 619.298 47.7184 603 46.7391C584.823 45.6468 579.704 68.4673 561.5 68C544.159 67.5549 539.844 47.0114 522.5 46.7391C504.639 46.4587 499.835 69.0033 482 68C465.866 67.0924 462.66 46.7391 446.5 46.7391C430.34 46.7391 427.151 68.5288 411 68C395.678 67.4984 393.329 46.9784 378 46.7391C362.289 46.4937 359.549 68.3594 343.84 68C328.684 67.6533 326.518 46.4936 311.36 46.7391C296.566 46.9786 294.78 67.3148 280 68C264.118 68.7364 261.172 46.26 245.28 46.7391C230.127 47.1959 227.96 68.1213 212.8 68C197.823 67.8803 195.842 47.4164 180.88 46.7391C164.81 46.0117 161.686 68.1142 145.6 68C129.701 67.8872 126.779 46.7391 110.88 46.7391C94.9808 46.7391 92.0501 67.4609 76.16 68C59.3283 68.5711 55.4747 46.95 38.64 46.7391C21.4233 46.5234 0 68 0 68V28.7486C0 28.7486 20.5161 2.75421 38.64 3.00179Z" fill="#08603A"/>
</svg>
