<svg width="1524" height="922" viewBox="0 0 1524 922" fill="none" xmlns="http://www.w3.org/2000/svg">
<rect width="1523.35" height="921.221" rx="38" fill="#E8E2E4"/>
<rect y="64.9001" width="1523.35" height="59.4918" fill="#FF0000"/>
<rect y="169.462" width="1523.35" height="57.689" fill="#FF0000"/>
<rect y="274.023" width="1523.35" height="57.689" fill="#FF0000"/>
<rect y="692.268" width="1523.35" height="57.689" fill="#FF0000"/>
<rect y="796.829" width="1523.35" height="57.689" fill="#FF0000"/>
<rect y="378.584" width="1523.35" height="57.689" fill="#FF0000"/>
<rect y="483.146" width="1523.35" height="57.689" fill="#FF0000"/>
<rect y="585.904" width="1523.35" height="59.4918" fill="#FF0000"/>
<rect x="57.6885" y="921.221" width="921.221" height="59.4918" transform="rotate(-90 57.6885 921.221)" fill="#FF0000"/>
<rect x="162.25" y="921.221" width="921.221" height="57.689" transform="rotate(-90 162.25 921.221)" fill="#FF0000"/>
<rect x="266.811" y="921.221" width="921.221" height="57.689" transform="rotate(-90 266.811 921.221)" fill="#FF0000"/>
<rect x="685.057" y="921.221" width="921.221" height="57.689" transform="rotate(-90 685.057 921.221)" fill="#FF0000"/>
<rect x="789.617" y="921.221" width="921.221" height="57.689" transform="rotate(-90 789.617 921.221)" fill="#FF0000"/>
<rect x="371.372" y="921.221" width="921.221" height="57.689" transform="rotate(-90 371.372 921.221)" fill="#FF0000"/>
<rect x="475.934" y="921.221" width="921.221" height="57.689" transform="rotate(-90 475.934 921.221)" fill="#FF0000"/>
<rect x="578.692" y="921.221" width="921.221" height="59.4918" transform="rotate(-90 578.692 921.221)" fill="#FF0000"/>
<rect x="892.377" y="921.221" width="921.221" height="59.4918" transform="rotate(-90 892.377 921.221)" fill="#FF0000"/>
<rect x="996.938" y="921.221" width="921.221" height="57.689" transform="rotate(-90 996.938 921.221)" fill="#FF0000"/>
<rect x="1101.5" y="921.221" width="921.221" height="57.689" transform="rotate(-90 1101.5 921.221)" fill="#FF0000"/>
<rect x="1206.06" y="921.221" width="921.221" height="57.689" transform="rotate(-90 1206.06 921.221)" fill="#FF0000"/>
<rect x="1310.62" y="921.221" width="921.221" height="57.689" transform="rotate(-90 1310.62 921.221)" fill="#FF0000"/>
<rect x="1406.17" y="921.221" width="921.221" height="59.4918" transform="rotate(-90 1406.17 921.221)" fill="#FF0000"/>
<rect x="28.8447" y="27.0417" width="1467.46" height="865.335" rx="20" fill="#BEF1FF"/>
</svg>
