<svg width="169" height="169" viewBox="0 0 169 169" fill="none" xmlns="http://www.w3.org/2000/svg">
<g clip-path="url(#clip0_18_12699)">
<path d="M94.6784 157.562L86.1992 98.7744" stroke="#195CC7" stroke-miterlimit="10"/>
<path d="M70.24 157.025L81.3077 98.6656" stroke="#195CC7" stroke-miterlimit="10"/>
<path d="M47.3146 148.579L76.7265 96.9778" stroke="#195CC7" stroke-miterlimit="10"/>
<path d="M28.3635 133.139L72.9378 93.8854" stroke="#195CC7" stroke-miterlimit="10"/>
<path d="M15.4477 112.385L70.3514 89.7415" stroke="#195CC7" stroke-miterlimit="10"/>
<path d="M9.97168 88.5703L69.2631 84.9797" stroke="#195CC7" stroke-miterlimit="10"/>
<path d="M12.5283 64.2736L69.7671 80.115" stroke="#195CC7" stroke-miterlimit="10"/>
<path d="M22.8398 42.106L71.8256 75.6821" stroke="#195CC7" stroke-miterlimit="10"/>
<path d="M39.7852 24.5031L75.2211 72.1668" stroke="#195CC7" stroke-miterlimit="10"/>
<path d="M61.5332 13.348L79.5641 69.9326" stroke="#195CC7" stroke-miterlimit="10"/>
<path d="M85.7197 9.85949L84.4036 69.2345" stroke="#195CC7" stroke-miterlimit="10"/>
<path d="M109.733 14.4143L89.2107 70.1491" stroke="#195CC7" stroke-miterlimit="10"/>
<path d="M130.964 26.5107L93.4524 72.5627" stroke="#195CC7" stroke-miterlimit="10"/>
<path d="M147.118 44.8612L96.689 76.232" stroke="#195CC7" stroke-miterlimit="10"/>
<path d="M156.437 67.445L98.5477 80.7558" stroke="#195CC7" stroke-miterlimit="10"/>
<path d="M157.915 91.8473L98.8486 85.6312" stroke="#195CC7" stroke-miterlimit="10"/>
<path d="M151.389 115.394L97.54 90.3474" stroke="#195CC7" stroke-miterlimit="10"/>
<path d="M137.573 135.56L94.7783 94.3741" stroke="#195CC7" stroke-miterlimit="10"/>
<path d="M117.96 150.142L90.8516 97.2889" stroke="#195CC7" stroke-miterlimit="10"/>
<circle cx="84.0804" cy="84.0802" r="20.2478" transform="rotate(-8.20739 84.0804 84.0802)" fill="#195CC7"/>
</g>
<defs>
<clipPath id="clip0_18_12699">
<rect width="148.484" height="148.484" fill="white" transform="translate(0 21.1971) rotate(-8.20739)"/>
</clipPath>
</defs>
</svg>
