<svg width="151" height="186" viewBox="0 0 151 186" fill="none" xmlns="http://www.w3.org/2000/svg">
<g clip-path="url(#clip0_18_13072)">
<path d="M38.2235 70.999C38.7308 75.4352 39.4786 78.2223 42.3009 81.6829C45.0636 85.0689 47.3752 87.106 51.6974 87.7617C55.8033 88.3829 58.4233 87.2323 62.0004 85.1194C65.426 83.0944 67.2585 81.3225 69.0698 77.7783C70.3876 75.1963 70.9745 70.6025 70.9745 70.6025C70.9745 70.6025 71.104 70.1145 71.3179 69.3571L39.5195 60.9168C38.6015 64.501 37.7658 66.9933 38.2235 70.999Z" fill="#B40406"/>
<path d="M122.257 75.9336L90.6092 68.6907C90.4099 69.3932 90.2547 69.8333 90.2547 69.8333L83.1548 88.9035L116.682 96.5788C119.026 89.0228 120.846 83.8807 122.256 75.936L122.257 75.9336Z" fill="#E8E2E4"/>
<path d="M58.5907 154.883C58.5907 154.883 57.2638 159.92 57.9625 163.037C58.8004 166.778 60.4554 168.723 63.3362 171.249C66.5015 174.025 68.9769 175.368 73.1771 175.653C77.8703 175.972 80.928 174.735 84.5786 171.766C86.642 170.089 88.9166 166.517 88.9166 166.517C88.9166 166.517 92.4249 159.029 97.0636 148.344L63.8544 140.743L58.5907 154.883Z" fill="#B40406"/>
<path d="M86.8507 20.919C79.7531 20.5431 75.406 20.6567 68.8079 23.2991C62.8571 25.6832 60.0409 28.3154 55.3164 32.6483C53.0661 34.7114 51.3144 36.3818 49.7418 38.1971L76.2525 57.8184C77.0983 56.8216 78.1625 55.957 79.5969 55.4825C81.2755 54.9269 82.668 54.6872 84.1199 54.9087L89.6826 21.1022C88.7796 21.0315 87.8398 20.9741 86.8501 20.9213L86.8507 20.919Z" fill="#B40406"/>
<path d="M45.2079 44.6877C42.1605 49.9855 41.2855 53.4557 39.8926 59.4077C39.7883 59.8486 39.685 60.2667 39.5813 60.677L71.3844 69.1185C72.0069 66.9179 73.2126 62.8672 74.1127 61.1935L74.154 61.1148C74.6858 60.1242 75.2866 59.0086 76.0946 58.0094L49.5791 38.3868C48.0538 40.1686 46.695 42.1046 45.2073 44.6901L45.2079 44.6877Z" fill="#E8E2E4"/>
<path d="M90.8792 60.2823C91.9821 62.6772 91.2193 66.4383 90.6728 68.4491L122.298 75.6887C122.404 75.0791 122.508 74.454 122.61 73.8101C123.828 66.0962 125.134 61.6268 124.189 53.8737C123.482 48.0786 122.989 44.4452 120.297 39.5289L94.1129 57.9964L90.8768 60.2817L90.8792 60.2823Z" fill="#B40406"/>
<path d="M86.4688 55.6396C88.6638 56.6498 89.7493 57.9237 90.7738 60.0545L90.7932 60.0392L93.9341 57.8234L120.17 39.2876C120.076 39.1194 119.978 38.9475 119.881 38.7756C116.3 32.5763 112.787 29.7336 106.587 26.1574C100.616 22.7137 96.1704 21.6259 89.9343 21.1202L84.3665 54.9459C85.04 55.0709 85.73 55.2975 86.4718 55.6378L86.4688 55.6396Z" fill="#E8E2E4"/>
<path d="M73.0413 116.066L70.1845 123.742L86.7495 127.586L103.602 131.445C103.595 131.461 103.589 131.477 103.582 131.493L104.103 131.613C105.12 129.113 106.134 126.566 107.133 124.007L73.1737 116.127C73.1737 116.127 73.1788 116.108 73.1813 116.098L73.0413 116.066Z" fill="#E8E2E4"/>
<path d="M108.511 120.447L74.3242 112.622L73.1288 115.833L107.226 123.775C107.658 122.668 108.088 121.559 108.51 120.45L108.511 120.447Z" fill="#B40406"/>
<path d="M70.293 124.076L70.3112 124.027L70.0964 123.977L63.9414 140.51L97.1625 148.114C99.2869 143.217 101.644 137.656 104.008 131.847L86.6828 127.827L70.2907 124.075L70.293 124.076Z" fill="#E8E2E4"/>
<path d="M110.716 114.549L76.7853 106.783L76.8727 106.55L110.803 114.317C112.692 109.141 114.415 104.078 115.821 99.4051C116.091 98.5061 116.355 97.6468 116.612 96.8137L83.0692 89.137L74.4111 112.39L108.6 120.215C109.323 118.32 110.03 116.429 110.716 114.549Z" fill="#B40406"/>
<path d="M39.52 60.9168L71.3159 69.3564C71.3362 69.2799 71.3572 69.2009 71.3842 69.1185L39.5811 60.677C39.5601 60.7559 39.5385 60.8373 39.52 60.9168Z" fill="#E8E2E4"/>
<path d="M122.298 75.6911L90.6724 68.4515C90.6502 68.5353 90.6293 68.6142 90.6066 68.6901L122.254 75.933C122.268 75.8521 122.284 75.7719 122.299 75.6887L122.298 75.6911Z" fill="#E8E2E4"/>
<path d="M116.683 96.5764L83.1554 88.9011L83.0679 89.134L116.61 96.8107C116.634 96.73 116.66 96.6523 116.683 96.574L116.683 96.5764Z" fill="#E8E2E4"/>
<path d="M108.6 120.215L74.4114 112.39L74.324 112.622L108.511 120.447C108.541 120.371 108.57 120.291 108.6 120.215Z" fill="#B40406"/>
<path d="M63.8537 140.743L97.0628 148.344C97.0957 148.268 97.1293 148.19 97.1628 148.112L63.9417 140.508L63.8543 140.741L63.8537 140.743Z" fill="#E8E2E4"/>
<path d="M70.0584 124.372L86.6075 128.227L103.649 132.023C103.727 131.823 103.809 131.622 103.888 131.421L86.8732 127.457L70.2887 123.765L70.0584 124.372Z" fill="#E8E2E4"/>
<path d="M103.503 131.677L86.6856 127.828L104.01 131.847C104.041 131.769 104.074 131.693 104.105 131.616L103.584 131.496C103.557 131.558 103.531 131.618 103.505 131.677L103.503 131.677Z" fill="#E8E2E4"/>
<path d="M70.381 123.84L86.7486 127.588L70.1843 123.742L70.0962 123.977L70.311 124.027L70.381 123.84Z" fill="#E8E2E4"/>
<path d="M120.3 39.5296L120.369 39.4813C120.369 39.4813 120.357 39.468 120.352 39.4589L120.286 39.5054C120.286 39.5054 120.295 39.5205 120.3 39.5296Z" fill="#E8E2E4"/>
<path d="M94.1157 57.9971L120.3 39.5296C120.3 39.5296 120.291 39.5144 120.286 39.5054L94.1133 57.9964L94.1157 57.9971Z" fill="#E8E2E4"/>
<path d="M90.7907 60.0385L90.7925 60.0416L93.9316 57.8227L90.7907 60.0385Z" fill="#E8E2E4"/>
<path d="M76.7859 106.783L110.717 114.549C110.745 114.47 110.773 114.393 110.802 114.316L76.8709 106.549L76.7835 106.782L76.7859 106.783Z" fill="#B40406"/>
<path d="M49.5799 38.3844L76.0955 58.0071C76.148 57.9442 76.1988 57.8783 76.2537 57.8161L49.7429 38.1947C49.688 38.2569 49.6355 38.3198 49.5806 38.3821L49.5799 38.3844Z" fill="#E8E2E4"/>
<path d="M89.9282 21.1214C89.8455 21.1148 89.7627 21.1082 89.68 21.1016L84.1173 54.908C84.1987 54.9194 84.2796 54.9332 84.3628 54.9476L89.9306 21.122L89.9282 21.1214Z" fill="#E8E2E4"/>
<path d="M90.8797 60.2823L94.1159 57.9971L90.9247 60.2482C90.8836 60.1809 90.8378 60.1124 90.7926 60.0416L90.7731 60.0569C90.8058 60.127 90.8414 60.1953 90.8733 60.2678C90.8769 60.2739 90.878 60.2793 90.8791 60.2847L90.8797 60.2823Z" fill="#E8E2E4"/>
<path d="M120.181 39.3112C120.181 39.3112 120.172 39.296 120.167 39.2869L93.931 57.8227L120.181 39.3112Z" fill="#E8E2E4"/>
<path d="M120.352 39.4589C120.306 39.4006 120.262 39.3453 120.214 39.2864L120.179 39.3105C120.216 39.3765 120.25 39.4394 120.286 39.5054L120.352 39.4589Z" fill="#E8E2E4"/>
<path d="M90.7926 60.0416C90.8378 60.1124 90.8836 60.1809 90.9247 60.2482L94.1159 57.9971L120.289 39.506C120.252 39.44 120.218 39.3771 120.182 39.3112L93.9318 57.8227L90.7926 60.0416Z" fill="#E8E2E4"/>
<path d="M73.1805 116.101L107.132 124.009C107.164 123.93 107.194 123.854 107.225 123.777L73.2387 115.891C73.219 115.965 73.2006 116.034 73.1828 116.101L73.1805 116.101Z" fill="#E8E2E4"/>
<path d="M73.2398 115.888L107.226 123.775L73.1289 115.833L73.0415 116.066L73.1815 116.098C73.1999 116.029 73.2183 115.96 73.2374 115.888L73.2398 115.888Z" fill="#E8E2E4"/>
</g>
<defs>
<clipPath id="clip0_18_13072">
<rect width="112.634" height="162" fill="white" transform="translate(41.5605) rotate(14.8652)"/>
</clipPath>
</defs>
</svg>
