<svg width="172" height="195" viewBox="0 0 172 195" fill="none" xmlns="http://www.w3.org/2000/svg">
<g clip-path="url(#clip0_18_12964)">
<path d="M53.3026 69.1761C52.9859 73.6299 53.2087 76.507 55.3468 80.4274C57.4401 84.2635 59.3379 86.6908 63.4658 88.1297C67.3876 89.4951 70.1745 88.8456 74.079 87.4262C77.8185 86.0654 79.9454 84.6605 82.3773 81.5095C84.1472 79.2138 85.5685 74.8061 85.5685 74.8061C85.5685 74.8061 85.7855 74.3502 86.1349 73.645L56.4297 59.5039C54.8685 62.8583 53.589 65.1545 53.3026 69.1761Z" fill="#B40406"/>
<path d="M134.996 89.4722L105.219 76.5357C104.894 77.1896 104.66 77.5937 104.66 77.5937L94.1759 95.034L125.721 108.741C129.414 101.744 132.149 97.0246 134.995 89.4744L134.996 89.4722Z" fill="#E8E2E4"/>
<path d="M57.9035 155.374C57.9035 155.374 55.6733 160.082 55.7871 163.274C55.9232 167.105 57.1925 169.321 59.5599 172.334C62.1611 175.644 64.3474 177.419 68.4236 178.472C72.9782 179.648 76.2112 178.994 80.3453 176.747C82.6819 175.477 85.5743 172.384 85.5743 172.384C85.5743 172.384 90.3991 165.669 96.9227 156.018L65.6764 142.443L57.9035 155.374Z" fill="#B40406"/>
<path d="M110.305 28.8871C103.398 27.2131 99.1039 26.5257 92.1325 27.9104C85.8449 29.16 82.5929 31.2298 77.1525 34.6205C74.5613 36.2348 72.5324 37.5548 70.6529 39.0501L93.1055 63.2099C94.1202 62.3856 95.3252 61.7313 96.8223 61.5285C98.5744 61.2909 99.9873 61.3112 101.374 61.7958L113.055 29.5877C112.181 29.3523 111.268 29.1231 110.304 28.8893L110.305 28.8871Z" fill="#B40406"/>
<path d="M65.0029 44.5968C61.0336 49.2442 59.5357 52.4944 57.0725 58.089C56.889 58.5032 56.7106 58.8952 56.5332 59.2794L86.2429 73.4226C87.2593 71.3739 89.189 67.6139 90.3814 66.1341L90.4365 66.0644C91.1413 65.1884 91.9369 64.2022 92.9148 63.3686L70.4577 39.2066C68.6309 40.6777 66.9394 42.331 65.0018 44.599L65.0029 44.5968Z" fill="#E8E2E4"/>
<path d="M107.03 68.3203C107.674 70.8771 106.233 74.4339 105.326 76.31L135.082 89.2391C135.298 88.6594 135.515 88.064 135.734 87.4499C138.349 80.0912 140.455 75.9381 140.95 68.1433C141.32 62.3169 141.504 58.6549 139.761 53.3276L110.629 66.6677L107.028 68.3192L107.03 68.3203Z" fill="#B40406"/>
<path d="M103.548 62.9459C105.52 64.3424 106.353 65.7941 106.968 68.0769L106.99 68.0654L110.485 66.4646L139.681 53.0669C139.62 52.8843 139.555 52.6974 139.491 52.5104C137.111 45.7587 134.179 42.3185 128.743 37.6638C123.506 33.1813 119.336 31.2949 113.299 29.6516L101.609 61.8776C102.248 62.1243 102.885 62.4739 103.552 62.9447L103.548 62.9459Z" fill="#E8E2E4"/>
<path d="M79.2427 119.875L75.0238 126.895L90.6 133.718L106.456 140.609C106.447 140.623 106.437 140.638 106.427 140.652L106.918 140.867C108.377 138.596 109.842 136.278 111.294 133.946L79.3617 119.959C79.3617 119.959 79.3702 119.941 79.3745 119.932L79.2427 119.875Z" fill="#E8E2E4"/>
<path d="M113.303 130.701L81.1368 116.726L79.3715 119.662L111.428 133.736C112.056 132.727 112.683 131.716 113.302 130.703L113.303 130.701Z" fill="#B40406"/>
<path d="M75.0691 127.243L75.096 127.198L74.8939 127.11L65.805 142.23L97.0624 155.811C100.051 151.387 103.389 146.354 106.781 141.078L90.4902 133.943L75.0669 127.242L75.0691 127.243Z" fill="#E8E2E4"/>
<path d="M116.555 125.309L84.6296 111.438L84.7583 111.225L116.683 125.096C119.491 120.356 122.115 115.696 124.357 111.361C124.787 110.527 125.204 109.731 125.61 108.959L94.0498 95.2479L81.2653 116.513L113.434 130.489C114.493 128.759 115.535 127.03 116.555 125.309Z" fill="#B40406"/>
<path d="M56.4291 59.5039L86.1321 73.6439C86.1661 73.5724 86.2012 73.4987 86.2429 73.4226L56.5332 59.2794C56.4981 59.3531 56.4619 59.4291 56.4291 59.5039Z" fill="#E8E2E4"/>
<path d="M135.081 89.2414L105.325 76.3123C105.288 76.3905 105.253 76.4642 105.217 76.5347L134.994 89.4711C135.022 89.3942 135.053 89.3183 135.082 89.2391L135.081 89.2414Z" fill="#E8E2E4"/>
<path d="M125.723 108.739L94.1779 95.0318L94.0491 95.2446L125.609 108.956C125.647 108.881 125.687 108.809 125.724 108.737L125.723 108.739Z" fill="#E8E2E4"/>
<path d="M113.433 130.489L81.265 116.513L81.1363 116.726L113.302 130.701C113.346 130.631 113.389 130.559 113.433 130.489Z" fill="#B40406"/>
<path d="M65.6764 142.443L96.9227 156.018C96.969 155.95 97.0163 155.879 97.0636 155.808L65.8062 142.228L65.6775 142.44L65.6764 142.443Z" fill="#E8E2E4"/>
<path d="M74.7839 127.491L90.3425 134.322L106.396 141.186C106.509 141.004 106.626 140.821 106.741 140.638L90.7451 133.615L75.1219 126.936L74.7839 127.491Z" fill="#E8E2E4"/>
<path d="M106.315 140.818L90.4921 133.944L106.783 141.08C106.828 141.008 106.874 140.939 106.918 140.87L106.428 140.656C106.39 140.712 106.354 140.766 106.317 140.82L106.315 140.818Z" fill="#E8E2E4"/>
<path d="M75.1994 127.028L90.5993 133.72L75.0241 126.895L74.8943 127.11L75.0964 127.198L75.1994 127.028Z" fill="#E8E2E4"/>
<path d="M139.764 53.3287L139.841 53.294C139.841 53.294 139.832 53.2787 139.828 53.2688L139.755 53.3023C139.755 53.3023 139.761 53.3188 139.764 53.3287Z" fill="#E8E2E4"/>
<path d="M110.631 66.6688L139.764 53.3287C139.764 53.3287 139.758 53.3122 139.755 53.3023L110.629 66.6677L110.631 66.6688Z" fill="#E8E2E4"/>
<path d="M106.988 68.0643L106.989 68.0676L110.483 66.4636L106.988 68.0643Z" fill="#E8E2E4"/>
<path d="M84.63 111.438L116.555 125.309C116.598 125.236 116.64 125.166 116.682 125.095L84.7565 111.224L84.6278 111.437L84.63 111.438Z" fill="#B40406"/>
<path d="M70.4589 39.2044L92.9159 63.3664C92.9791 63.3142 93.0412 63.2588 93.1066 63.2077L70.654 39.0479C70.5886 39.0989 70.5254 39.1511 70.4599 39.2022L70.4589 39.2044Z" fill="#E8E2E4"/>
<path d="M113.293 29.6517C113.213 29.6301 113.133 29.6084 113.053 29.5867L101.371 61.7947C101.449 61.8209 101.526 61.8493 101.605 61.8788L113.296 29.6528L113.293 29.6517Z" fill="#E8E2E4"/>
<path d="M107.03 68.3203L110.631 66.6688L107.081 68.295C107.053 68.2214 107.02 68.1456 106.989 68.0676L106.967 68.0791C106.986 68.154 107.009 68.2277 107.027 68.3049C107.029 68.3115 107.029 68.317 107.029 68.3225L107.03 68.3203Z" fill="#E8E2E4"/>
<path d="M139.688 53.0922C139.688 53.0922 139.682 53.0757 139.678 53.0658L110.483 66.4636L139.688 53.0922Z" fill="#E8E2E4"/>
<path d="M139.828 53.2688C139.794 53.2031 139.761 53.1406 139.724 53.0738L139.685 53.0911C139.709 53.1626 139.731 53.2308 139.755 53.3023L139.828 53.2688Z" fill="#E8E2E4"/>
<path d="M106.989 68.0676C107.02 68.1456 107.053 68.2214 107.081 68.295L110.631 66.6688L139.757 53.3034C139.733 53.2319 139.711 53.1637 139.687 53.0922L110.482 66.4636L106.989 68.0676Z" fill="#E8E2E4"/>
<path d="M79.3736 119.935L111.294 133.949C111.339 133.877 111.383 133.808 111.427 133.738L79.4695 119.739C79.4365 119.808 79.4057 119.873 79.3759 119.936L79.3736 119.935Z" fill="#E8E2E4"/>
<path d="M79.4702 119.737L111.428 133.736L79.3713 119.662L79.2426 119.875L79.3743 119.932C79.4052 119.868 79.436 119.803 79.4679 119.736L79.4702 119.737Z" fill="#E8E2E4"/>
</g>
<defs>
<clipPath id="clip0_18_12964">
<rect width="112.634" height="162" fill="white" transform="translate(69.6318) rotate(25.4566)"/>
</clipPath>
</defs>
</svg>
