<svg width="169" height="169" viewBox="0 0 169 169" fill="none" xmlns="http://www.w3.org/2000/svg">
<g clip-path="url(#clip0_18_12722)">
<path d="M94.6784 157.562L86.1992 98.7743" stroke="#113380" stroke-miterlimit="10"/>
<path d="M70.24 157.025L81.3077 98.6654" stroke="#113380" stroke-miterlimit="10"/>
<path d="M47.3146 148.579L76.7265 96.9777" stroke="#113380" stroke-miterlimit="10"/>
<path d="M28.3635 133.139L72.9378 93.8853" stroke="#113380" stroke-miterlimit="10"/>
<path d="M15.4477 112.385L70.3514 89.7414" stroke="#113380" stroke-miterlimit="10"/>
<path d="M9.97168 88.5702L69.2631 84.9795" stroke="#113380" stroke-miterlimit="10"/>
<path d="M12.5283 64.2734L69.7671 80.1149" stroke="#113380" stroke-miterlimit="10"/>
<path d="M22.8398 42.1058L71.8256 75.682" stroke="#113380" stroke-miterlimit="10"/>
<path d="M39.7852 24.5029L75.2211 72.1667" stroke="#113380" stroke-miterlimit="10"/>
<path d="M61.5332 13.3479L79.5641 69.9324" stroke="#113380" stroke-miterlimit="10"/>
<path d="M85.7197 9.85937L84.4036 69.2344" stroke="#113380" stroke-miterlimit="10"/>
<path d="M109.733 14.4142L89.2107 70.149" stroke="#113380" stroke-miterlimit="10"/>
<path d="M130.964 26.5106L93.4524 72.5626" stroke="#113380" stroke-miterlimit="10"/>
<path d="M147.118 44.861L96.689 76.2319" stroke="#113380" stroke-miterlimit="10"/>
<path d="M156.437 67.4449L98.5477 80.7557" stroke="#113380" stroke-miterlimit="10"/>
<path d="M157.915 91.8472L98.8486 85.6311" stroke="#113380" stroke-miterlimit="10"/>
<path d="M151.389 115.394L97.54 90.3473" stroke="#113380" stroke-miterlimit="10"/>
<path d="M137.573 135.56L94.7783 94.374" stroke="#113380" stroke-miterlimit="10"/>
<path d="M117.96 150.142L90.8516 97.2888" stroke="#113380" stroke-miterlimit="10"/>
<circle cx="84.0804" cy="84.0801" r="20.2478" transform="rotate(-8.20739 84.0804 84.0801)" fill="#113380"/>
</g>
<defs>
<clipPath id="clip0_18_12722">
<rect width="148.484" height="148.484" fill="white" transform="translate(0 21.197) rotate(-8.20739)"/>
</clipPath>
</defs>
</svg>
