<svg width="600" height="797" viewBox="0 0 600 797" fill="none" xmlns="http://www.w3.org/2000/svg">
<rect x="45" y="119" width="510" height="678" rx="20" fill="#391C13"/>
<rect x="116" y="189" width="369" height="268.031" rx="25" fill="#391C13" stroke="#34170F" stroke-width="10"/>
<rect x="116" y="502" width="369" height="268.031" rx="25" stroke="#34170F" stroke-width="10"/>
<path d="M91.092 456.794C83.8118 456.794 76.1972 459.244 75.9579 467.619C75.7287 475.642 73.6456 482.395 78.0599 489.9C83.4048 498.986 106.226 499.063 106.226 486.116" stroke="#34170F" stroke-width="10" stroke-linecap="round"/>
<path fill-rule="evenodd" clip-rule="evenodd" d="M300.132 426C352.672 426 395.264 383.408 395.264 330.868C395.264 278.328 352.672 235.736 300.132 235.736C247.592 235.736 205 278.328 205 330.868C205 383.408 247.592 426 300.132 426ZM299.93 391.664C333.395 391.664 360.524 364.535 360.524 331.07C360.524 297.605 333.395 270.476 299.93 270.476C266.465 270.476 239.336 297.605 239.336 331.07C239.336 364.535 266.465 391.664 299.93 391.664Z" fill="#39B64B"/>
<path d="M299.189 220C299.189 220 303.166 223.655 304.98 226.546C306.512 228.989 307.818 230.405 308.001 233.282C308.192 236.269 306.05 240.647 306.05 240.647L303.469 247.319H297.489L294.342 240.584C294.342 240.584 291.746 236.297 291.824 233.282C291.896 230.475 293.023 229.026 294.342 226.546C295.835 223.738 299.189 220 299.189 220Z" fill="#FF0000"/>
<path d="M274.648 231.664C274.648 231.664 280.03 231.204 283.387 231.823C286.222 232.346 288.149 232.34 290.393 234.15C292.722 236.03 294.5 240.567 294.5 240.567L297.672 246.98L293.629 251.386L286.538 249.152C286.538 249.152 281.625 248.166 279.455 246.07C277.436 244.119 277.13 242.309 276.195 239.661C275.135 236.662 274.648 231.664 274.648 231.664Z" fill="#FF0000"/>
<path d="M268.73 254.255C268.73 254.255 272.422 250.312 275.331 248.526C277.788 247.017 279.216 245.724 282.095 245.568C285.083 245.406 289.441 247.589 289.441 247.589L296.088 250.233L296.032 256.213L289.267 259.296C289.267 259.296 284.956 261.851 281.941 261.745C279.135 261.646 277.697 260.505 275.23 259.163C272.436 257.643 268.73 254.255 268.73 254.255Z" fill="#FF0000"/>
<path d="M332.194 254.003C332.194 254.003 328.502 250.06 325.593 248.274C323.136 246.766 321.708 245.473 318.829 245.317C315.84 245.155 311.483 247.338 311.483 247.338L304.836 249.982L304.892 255.961L311.657 259.045C311.657 259.045 315.968 261.599 318.982 261.493C321.789 261.395 323.227 260.254 325.694 258.912C328.488 257.392 332.194 254.003 332.194 254.003Z" fill="#FF0000"/>
<path d="M299.189 286.783C299.189 286.783 303.166 283.128 304.98 280.237C306.512 277.794 307.818 276.378 308.001 273.501C308.192 270.514 306.05 266.137 306.05 266.137L303.469 259.464H297.489L294.342 266.2C294.342 266.2 291.746 270.486 291.824 273.501C291.896 276.309 293.023 277.757 294.342 280.237C295.835 283.045 299.189 286.783 299.189 286.783Z" fill="#FF0000"/>
<path d="M274.648 275.623C274.648 275.623 280.03 276.083 283.387 275.464C286.222 274.941 288.149 274.947 290.393 273.137C292.722 271.257 294.5 266.72 294.5 266.72L297.672 260.307L293.629 255.901L286.538 258.135C286.538 258.135 281.625 259.121 279.455 261.217C277.436 263.168 277.13 264.978 276.195 267.626C275.135 270.625 274.648 275.623 274.648 275.623Z" fill="#FF0000"/>
<path d="M324.971 232.041C324.971 232.041 319.589 231.582 316.232 232.2C313.397 232.723 311.47 232.718 309.226 234.528C306.897 236.407 305.119 240.945 305.119 240.945L301.948 247.357L305.991 251.764L313.081 249.529C313.081 249.529 317.994 248.543 320.164 246.448C322.183 244.497 322.489 242.686 323.424 240.039C324.484 237.039 324.971 232.041 324.971 232.041Z" fill="#FF0000"/>
<path d="M324.971 275.623C324.971 275.623 319.589 276.083 316.232 275.464C313.397 274.941 311.47 274.947 309.226 273.137C306.897 271.257 305.119 266.72 305.119 266.72L301.948 260.307L305.991 255.901L313.081 258.135C313.081 258.135 317.994 259.121 320.164 261.217C322.183 263.168 322.489 264.978 323.424 267.626C324.484 270.625 324.971 275.623 324.971 275.623Z" fill="#FF0000"/>
<path d="M299.532 232.463C299.532 232.463 302.811 235.478 304.306 237.863C305.568 239.878 306.645 241.046 306.796 243.419C306.953 245.883 305.188 249.494 305.188 249.494L303.06 254.998H298.132L295.538 249.443C295.538 249.443 293.398 245.907 293.462 243.419C293.522 241.104 294.451 239.909 295.538 237.863C296.769 235.547 299.532 232.463 299.532 232.463Z" fill="#FA3838"/>
<path d="M282.215 240.62C282.215 240.62 286.659 240.24 289.432 240.751C291.773 241.183 293.364 241.179 295.217 242.674C297.141 244.225 298.609 247.973 298.609 247.973L301.228 253.269L297.889 256.908L292.034 255.062C292.034 255.062 287.976 254.248 286.185 252.518C284.517 250.906 284.264 249.411 283.492 247.225C282.617 244.748 282.215 240.62 282.215 240.62Z" fill="#FA3838"/>
<path d="M317.547 240.62C317.547 240.62 313.102 240.24 310.33 240.751C307.989 241.183 306.398 241.179 304.545 242.674C302.621 244.225 301.153 247.973 301.153 247.973L298.533 253.269L301.872 256.908L307.728 255.062C307.728 255.062 311.786 254.248 313.577 252.518C315.245 250.906 315.497 249.411 316.27 247.225C317.145 244.748 317.547 240.62 317.547 240.62Z" fill="#FA3838"/>
<path d="M299.532 274.26C299.532 274.26 302.811 271.245 304.306 268.86C305.568 266.846 306.645 265.677 306.796 263.304C306.953 260.84 305.188 257.229 305.188 257.229L303.06 251.725H298.132L295.538 257.281C295.538 257.281 293.398 260.817 293.462 263.304C293.522 265.62 294.451 266.815 295.538 268.86C296.769 271.177 299.532 274.26 299.532 274.26Z" fill="#FA3838"/>
<path d="M282.215 266.134C282.215 266.134 286.659 266.514 289.432 266.003C291.773 265.571 293.364 265.576 295.217 264.081C297.141 262.529 298.609 258.781 298.609 258.781L301.228 253.485L297.889 249.847L292.034 251.692C292.034 251.692 287.976 252.506 286.185 254.237C284.517 255.848 284.264 257.343 283.492 259.53C282.617 262.007 282.215 266.134 282.215 266.134Z" fill="#FA3838"/>
<path d="M317.547 266.134C317.547 266.134 313.102 266.514 310.33 266.003C307.989 265.571 306.398 265.576 304.545 264.081C302.621 262.529 301.153 258.781 301.153 258.781L298.533 253.485L301.872 249.847L307.728 251.692C307.728 251.692 311.786 252.506 313.577 254.237C315.245 255.848 315.497 257.343 316.27 259.53C317.145 262.007 317.547 266.134 317.547 266.134Z" fill="#FA3838"/>
<path d="M103.741 86L202.954 120.169L103.741 209.089L0 120.169L103.741 86Z" fill="#122E4F"/>
<path d="M300.518 86L399.731 120.169L300.518 209.089L196.777 120.169L300.518 86Z" fill="#122E4F"/>
<path d="M500.591 86L599.803 120.169L500.591 209.089L396.85 120.169L500.591 86Z" fill="#122E4F"/>
<path d="M139 35H457L600 120H0L139 35Z" fill="#122E4F"/>
<path d="M411.575 34.5829C411.575 12.9959 460.845 25.0617 506.786 25.0617C552.728 25.0617 589.971 42.5614 589.971 64.1484C589.971 85.7354 552.728 103.235 506.786 103.235C460.845 103.235 411.575 56.1698 411.575 34.5829Z" fill="#E8E2E4"/>
<path d="M201.396 31.8827C201.396 10.2957 152.126 22.3616 106.184 22.3615C60.243 22.3615 23 39.8612 23 61.4482C23 83.0352 60.243 100.535 106.184 100.535C152.126 100.535 201.396 53.4697 201.396 31.8827Z" fill="#E8E2E4"/>
<path d="M263.198 54.0031C258.179 33.0075 308.904 33.2887 353.587 22.6083C398.27 11.9279 438.561 20.29 443.579 41.2855C448.598 62.281 416.443 87.9594 371.761 98.6398C327.078 109.32 268.216 74.9986 263.198 54.0031Z" fill="#E8E2E4"/>
<path d="M141.922 46.9394C138.703 25.815 189.21 30.2 234.627 23.2791C280.044 16.3582 319.472 27.8723 322.691 48.9967C325.91 70.121 291.702 92.8561 246.284 99.777C200.867 106.698 145.141 68.0637 141.922 46.9394Z" fill="#E8E2E4"/>
</svg>
