<svg width="25" height="25" viewBox="0 0 25 25" fill="none" xmlns="http://www.w3.org/2000/svg">
<path d="M6.56833 9.99881C5.71714 11.2048 5.23682 13.4516 6.02859 14.8247C6.53616 15.705 6.9388 17.0576 7.97166 17.4873C9.23319 18.0121 10.5535 19.3003 11.9658 19.3594C15.5436 19.5093 17.2579 17.5907 18.6586 14.5543C19.9662 11.7196 19.9948 9.42974 17.9461 7.09703C16.1638 5.0676 11.8383 4.84047 9.76361 6.629C8.63522 7.60174 8.70572 9.05723 8.70572 10.3732C8.70572 11.3468 9.97549 14.0461 11.1346 14.2943C11.6896 14.4131 12.3017 14.606 12.8833 14.4815C13.7848 14.2885 15.2062 12.5025 15.7008 11.7877C16.57 10.5315 16.6919 8.87972 14.9236 8.50112C14.522 8.41515 11.2317 7.59909 11.2317 8.41791C11.2317 9.47091 10.6488 10.5086 10.6488 11.5797C10.6488 12.3513 12.0911 11.4247 12.3544 11.2677C13.7071 10.4609 14.4348 9.10882 13.6066 7.75227C12.9188 6.62572 11.5904 6.52978 10.5516 5.97376C9.92296 5.63724 8.88608 5.94681 8.42505 6.43138C8.00509 6.87279 8.14519 7.2565 7.82054 7.65866C7.52147 8.02914 7.49263 8.46603 7.23761 8.78194C6.91376 9.18311 6.96055 10.5431 7.15125 9.62439" stroke="black" stroke-width="9.76372" stroke-linecap="round"/>
</svg>
