<svg width="833" height="79" viewBox="0 0 833 79" fill="none" xmlns="http://www.w3.org/2000/svg">
<path d="M50.5378 47.6266C51.1699 46.613 51.8839 45.6896 52.7059 44.7876L48.5712 49.4578C49.6329 48.3698 50.7503 47.4181 52.0031 46.533L46.6162 50.1699C48.4567 48.957 50.4086 48.0166 52.5239 47.211L46.1239 49.6057C48.6688 48.7257 51.2447 48.1421 53.9311 47.7626L46.7841 48.6831C50.2506 48.27 53.6952 48.2226 57.1986 48.5398L50.029 47.8163C54.2609 48.2605 58.2037 49.2112 62.1781 50.504L55.7147 48.2862C66.9649 52.151 76.8731 58.2496 87.939 62.4138C102.955 68.0767 118.396 71.3129 134.95 71.4278C149.056 71.5307 163.151 68.916 176.391 64.8514C187.997 61.2889 199.351 57.0218 211.573 55.2551L204.426 56.1755C209.235 55.5613 213.997 55.3816 218.848 55.7945L211.678 55.0709C216.934 55.6381 221.931 56.8712 226.879 58.4931L220.415 56.2754C234.586 61.1506 247.598 67.8459 262.164 72.0762C276.73 76.3065 293.149 78.2731 308.757 78.0585C324.311 77.8446 339.888 75.3237 354.606 71.0332C367.742 67.1984 380.543 62.5004 394.297 60.5298L387.15 61.4503C393.41 60.6562 399.599 60.5254 405.879 61.147L398.71 60.4235C411.407 61.8704 423.305 65.8633 435.279 69.5354C449.686 73.9506 463.989 76.6772 479.37 77.5619C508.193 79.2437 537.552 72.902 564.71 65.0604C579.482 60.792 594 55.6821 609.503 53.6647L602.356 54.5852C607.919 53.9377 613.461 53.7473 619.066 54.2183L611.896 53.4948C616.505 53.9795 620.906 54.9238 625.232 56.3488L618.768 54.1311C625.801 56.6151 632.228 60.0894 638.944 63.1031C645.661 66.1167 653.315 68.7977 660.721 71.071C674.209 75.2019 688.501 77.1065 702.777 77.8922C731.626 79.4823 760.694 73.5557 786.436 62.559C800.591 56.5178 813.665 48.139 824.784 38.5768C834.706 30.0358 835.111 14.4546 824.34 6.28959C813.569 -1.87539 796.848 -2.30773 786.288 6.81294C782.857 9.76059 779.261 12.5278 775.475 15.1377L780.862 11.5009C772.061 17.4228 762.412 22.3059 752.129 26.1471L758.529 23.7524C747.495 27.7867 735.959 30.5717 724.084 32.1054L731.231 31.1849C719.354 32.65 707.379 32.8376 695.466 31.6996L702.636 32.4232C691.504 31.2745 680.652 29.0029 670.241 25.4691L676.705 27.6869C663.263 23.0072 651.403 15.8849 637.671 11.666C620.994 6.55124 602.44 7.85698 585.449 11.288C571.627 14.1045 558.421 18.7853 544.934 22.5335C531.447 26.2818 517.119 29.5848 502.799 31.4718L509.946 30.5513C497.693 32.0673 485.372 32.5337 473.083 31.3781L480.252 32.1017C466.909 30.6865 454.53 26.9514 441.988 23.0587C427.905 18.7076 413.727 15.2713 398.596 14.9769C369.546 14.4173 344.572 28.3952 316.55 32.1378L323.697 31.2173C313.325 32.5019 302.91 32.6223 292.507 31.6463L299.677 32.3699C289.758 31.3187 280.093 29.2591 270.765 26.1901L277.229 28.4079C267.304 25.0044 258.115 20.3348 248.269 16.8389C235.151 12.1548 221.512 8.7796 207.049 10.0976C194.414 11.2306 182.88 14.1298 171.036 17.924C160.879 21.1925 150.75 24.4835 139.95 25.911L147.097 24.9905C139.922 25.82 132.763 25.9184 125.568 25.2866L132.738 26.0101C125.11 25.2244 117.713 23.6589 110.575 21.2677L117.038 23.4855C99.4847 17.3094 84.041 6.01128 64.7367 3.65038C53.9792 2.33669 43.0484 2.12161 32.5677 5.2804C20.5062 8.96338 9.99127 15.5027 3.74563 25.2035C-3.00001 35.7333 0.758566 50.6864 13.8365 56.3303C26.6438 61.8637 43.3172 58.8481 50.5378 47.6266Z" fill="#3CB54B"/>
</svg>
