<svg width="236" height="272" viewBox="0 0 236 272" fill="none" xmlns="http://www.w3.org/2000/svg">
<path d="M72.9009 53.3057C73.8122 66.0665 87.4811 90.6675 87.4811 90.6675C87.4811 90.6675 37.4103 66.6538 24.2722 70.2532C14.1996 73.0127 9.45147 79.4238 5.13572 88.9341C-0.929911 102.3 -2.45134 115.919 5.13461 128.485C13.2739 141.967 27.7762 149.623 43.4087 147.71C50.9951 146.782 78.3115 139.509 78.3115 139.509C78.3115 139.509 34.923 195.704 37.0299 226.99C38.0319 241.87 37.0353 253.808 48.4206 263.441C62.1403 275.048 78.6548 272.032 94.4393 263.441C112.002 253.881 119.499 218.789 119.499 218.789C119.499 218.789 127.522 258.817 147.748 267.086C162.958 273.304 176.899 273.785 189.666 263.441C201.43 253.908 201.55 242.073 202.879 226.99C205.689 195.117 153.946 139.509 153.946 139.509C153.946 139.509 181.605 146.651 189.666 147.71C207.111 150.004 219.582 146 229.125 131.219C237.138 118.807 238.275 102.241 231.859 88.9341C225.523 75.7932 217.441 69.3715 202.879 70.2532C191.511 70.9415 149.447 90.6675 149.447 90.6675C149.447 90.6675 159.015 66.5221 160.382 53.3057C162.122 36.4848 163.008 22.0066 149.447 10.9351C137.94 1.54039 129.855 -0.000326585 115.275 0C102.256 0.000291621 90.4613 3.76361 82.0135 13.6689C70.0433 27.7044 71.6029 35.1298 72.9009 53.3057Z" fill="#CF7C38"/>
<path d="M114.918 105.125C113.649 107.522 113.245 110.105 113 112.798C112.896 113.948 113.733 114.072 114.642 114.455C115.507 114.819 116.228 113.424 116.698 112.859C117.576 111.806 117.68 110.985 117.68 109.698C117.68 107.871 116.201 106.782 114.366 106.782C113.752 106.782 112.859 108.244 112.724 108.854C112.49 109.906 112.708 111.221 112.708 112.291C112.708 114.229 115.882 114.865 117.389 115.054C119.891 115.366 119.89 112.366 119.89 110.649C119.89 108.368 119.547 107.568 118.095 105.954C116.78 104.493 114.419 103.5 113.261 105.34C112.23 106.977 111.227 114.793 114.504 114.793C115.16 114.793 115.823 115.111 116.576 115.069C117.258 115.031 118.282 113.972 118.847 113.565C120.47 112.396 120.995 109.661 120.995 107.749C120.995 104.995 115.679 103.965 114.028 105.616C112.983 106.661 112.545 106.898 112.171 108.578C111.839 110.074 112.495 111.648 113.813 112.307" stroke="white" stroke-width="9.41798" stroke-linecap="round"/>
<path d="M115.237 156.226C113.968 158.623 113.563 161.205 113.318 163.899C113.214 165.049 114.051 165.173 114.96 165.556C115.825 165.92 116.546 164.525 117.017 163.96C117.895 162.906 117.999 162.086 117.999 160.799C117.999 158.971 116.519 157.883 114.684 157.883C114.071 157.883 113.178 159.345 113.042 159.955C112.808 161.007 113.027 162.322 113.027 163.392C113.027 165.33 116.201 165.966 117.707 166.154C120.21 166.467 120.209 163.466 120.209 161.75C120.209 159.469 119.866 158.669 118.413 157.055C117.098 155.594 114.738 154.601 113.579 156.441C112.549 158.078 111.546 165.894 114.822 165.894C115.479 165.894 116.141 166.212 116.894 166.17C117.576 166.132 118.601 165.072 119.165 164.666C120.789 163.497 121.313 160.762 121.313 158.85C121.313 156.096 115.998 155.066 114.347 156.717C113.301 157.762 112.863 157.999 112.49 159.679C112.157 161.175 112.814 162.749 114.132 163.408" stroke="white" stroke-width="9.41798" stroke-linecap="round"/>
<path d="M115.237 130.711C113.968 133.108 113.563 135.69 113.318 138.384C113.214 139.534 114.051 139.658 114.96 140.041C115.825 140.405 116.546 139.01 117.017 138.445C117.895 137.391 117.999 136.57 117.999 135.284C117.999 133.456 116.519 132.368 114.684 132.368C114.071 132.368 113.178 133.83 113.042 134.44C112.808 135.491 113.027 136.806 113.027 137.877C113.027 139.815 116.201 140.451 117.707 140.639C120.21 140.952 120.209 137.951 120.209 136.235C120.209 133.954 119.866 133.154 118.413 131.539C117.098 130.078 114.738 129.086 113.579 130.926C112.549 132.563 111.546 140.378 114.822 140.378C115.479 140.378 116.141 140.696 116.894 140.655C117.576 140.617 118.601 139.557 119.165 139.151C120.789 137.982 121.313 135.247 121.313 133.335C121.313 130.58 115.998 129.551 114.347 131.202C113.301 132.247 112.863 132.483 112.49 134.164C112.157 135.66 112.814 137.233 114.132 137.892" stroke="white" stroke-width="9.41798" stroke-linecap="round"/>
<path d="M98.416 54.4957C98.459 54.9257 98.775 55.1602 98.9969 55.4961C99.6372 56.4657 100.279 57.3094 101.03 58.2068C102.908 60.4503 104.772 62.6043 106.903 64.6124C107.496 65.1711 108.006 65.8314 108.613 66.3711C109.421 67.0891 110.514 67.4828 111.485 67.92C112.747 68.4882 114.172 68.6756 115.551 68.7187C116.861 68.7596 118.305 68.8648 119.585 68.5493C121.431 68.094 123.361 67.3878 125.071 66.5485C126.971 65.6158 128.679 64.283 130 62.6197C130.931 61.4475 132.07 60.5012 132.687 59.1103C133.536 57.1932 133.885 55.063 134.647 53.1162C134.97 52.2907 135.23 51.4362 135.446 50.575" stroke="white" stroke-width="7.33868" stroke-linecap="round"/>
<path d="M102.973 35.0114C102.973 36.1602 104.682 36.4669 105.587 36.8185C106.487 37.1685 107.368 36.405 107.587 35.5277C107.783 34.746 107.801 33.5251 107.176 32.9784C106.645 32.5142 105.313 32.1929 104.602 32.4298C103.13 32.9207 102.909 34.5903 103.521 35.8827C104.174 37.2606 104.687 37.3348 106.167 37.3348" stroke="white" stroke-width="7.33868" stroke-linecap="round"/>
<path d="M123.932 35.0114C123.932 36.1602 125.641 36.4669 126.546 36.8185C127.445 37.1685 128.327 36.405 128.546 35.5277C128.742 34.746 128.76 33.5251 128.135 32.9784C127.604 32.5142 126.272 32.1929 125.561 32.4298C124.089 32.9207 123.868 34.5903 124.48 35.8827C125.133 37.2606 125.646 37.3348 127.126 37.3348" stroke="white" stroke-width="7.33868" stroke-linecap="round"/>
<path fill-rule="evenodd" clip-rule="evenodd" d="M185.953 74.9132V74.9171V74.9219V74.9267V74.9315V74.9363V74.9411V74.9459V74.9507V74.9555V74.9603V74.9651V74.9699V74.9747V74.9795V74.9843V74.989V74.9938V74.9986V75.0034V75.0082V75.013V75.0178V75.0226V75.0274V75.0322V75.037V75.0418V75.0466V75.0514V75.0562V75.061V75.0658V75.0705V75.0753V75.0801V75.0849V75.0897V75.0945V75.0993V75.1041V75.1089V75.1137V75.1185V75.1233V75.1281V75.1329V75.1377V75.1425V75.1473V75.1521V75.1568V75.1616V75.1664V75.1712V75.176V75.1808V75.1856V75.1904V75.1952V75.2V75.2048V75.2096V75.2144V75.2192V75.224V75.2288V75.2336V75.2383V75.2431V75.2479V75.2527V75.2575V75.2623V75.2671V75.2719V75.2767V75.2815V75.2863V75.2911V75.2959V75.3007V75.3055V75.3103V75.3151V75.3198V75.3246V75.3294V75.3342V75.339V75.3438V75.3486V75.3534V75.3582V75.363V75.3678V75.3726V75.3774V75.3822V75.387V75.3918V75.3966V75.4014V75.4061V75.4109V75.4157V75.4205V75.4253V75.4301V75.4349V75.4397V75.4445V75.4493V75.4541V75.4589V75.4637V75.4685V75.4733V75.4781V75.4829V75.4876V75.4924V75.4972V75.502V75.5068V75.5116V75.5164V75.5212V75.526V75.5308V75.5356V75.5404V75.5452V75.55V75.5548V75.5596V75.5644V75.5691V75.5739V75.5787V75.5835V75.5883V75.5931V75.5979L185.953 75.5978C185.952 75.5978 185.952 75.6148 185.948 75.6957C185.947 75.7201 185.946 75.7504 185.944 75.7877C185.937 75.9343 185.924 76.2353 185.935 76.5745C185.957 77.2065 186.072 78.5707 187.011 79.8968C187.506 80.5956 188.051 81.1435 188.419 81.4989C188.657 81.7289 188.796 81.859 188.904 81.959L188.904 81.959C189.024 82.0709 189.104 82.1452 189.235 82.2796C189.967 83.0276 190.381 83.8335 190.529 84.9914C190.452 85.097 190.354 85.2277 190.218 85.4045L190.161 85.4791C189.965 85.7335 189.668 86.1188 189.402 86.5149C188.031 88.5523 186.212 91.4104 185.784 95.0702C185.266 99.5051 186.018 103.645 188.584 107.615C188.783 107.923 189.031 108.29 189.243 108.606L189.244 108.606C189.351 108.765 189.449 108.912 189.528 109.03C189.813 109.459 190.033 109.808 190.208 110.126C190.381 110.441 190.476 110.665 190.527 110.822C190.551 110.897 190.562 110.948 190.568 110.979C190.571 110.995 190.572 111.006 190.573 111.012L190.573 111.019L190.573 111.022C190.583 112.121 190.336 112.891 189.383 114.183C188.804 114.968 188.136 115.722 187.288 116.678L187.288 116.678L187.276 116.692C186.474 117.597 185.501 118.696 184.621 119.921C182.612 122.722 182.624 125.813 182.631 127.479C182.631 127.569 182.632 127.655 182.632 127.736C182.632 130.527 183.547 132.802 184.473 134.569C184.918 135.419 185.407 136.225 185.814 136.897L185.836 136.933C186.161 137.467 186.437 137.925 186.684 138.362L186.683 138.401L186.683 138.401C186.68 138.476 186.678 138.569 186.676 138.659C186.671 138.872 186.614 139.317 186.468 139.822C186.422 139.98 186.374 140.121 186.327 140.243C186.255 140.272 186.169 140.307 186.06 140.351L186.044 140.358C185.791 140.46 185.372 140.63 184.946 140.843C182.807 141.913 181.837 144.391 182.6 146.591C185.119 147.116 187.269 147.518 188.754 147.713C189.756 147.845 190.741 147.956 191.711 148.045C192.405 147.602 193.177 146.97 193.836 146.054C194.674 144.888 195.197 143.537 195.515 142.436C195.844 141.3 196.065 140.041 196.091 138.873C196.092 138.841 196.094 138.796 196.097 138.738C196.128 138.144 196.227 136.252 195.259 134.418C194.814 133.574 194.329 132.774 193.926 132.109L193.926 132.109L193.89 132.05C193.454 131.331 193.109 130.76 192.815 130.198C192.246 129.113 192.05 128.397 192.05 127.736C192.05 126.758 192.061 126.265 192.127 125.859C192.177 125.551 192.237 125.462 192.274 125.411C192.829 124.637 193.487 123.883 194.324 122.939L194.445 122.802C195.208 121.943 196.126 120.907 196.962 119.774C198.806 117.275 200.024 114.558 199.991 110.935C199.97 108.723 199.177 106.89 198.461 105.588C197.978 104.71 197.309 103.718 196.855 103.044L196.855 103.044L196.855 103.044C196.707 102.825 196.582 102.639 196.493 102.502C195.248 100.575 194.844 98.6794 195.138 96.1636C195.281 94.9457 195.9 93.7282 197.216 91.7718C197.307 91.6367 197.425 91.4827 197.687 91.1409C197.909 90.8522 198.245 90.4148 198.562 89.927C199.178 88.9788 200.098 87.2891 199.985 85.0839C199.804 81.5645 198.586 78.3726 195.97 75.6962C195.757 75.4781 195.549 75.2798 195.385 75.1258L195.371 75.1118V75.1089V75.1041V75.0993V75.0945V75.0897V75.0849V75.0801V75.0753V75.0705V75.0658V75.061V75.0562V75.0514V75.0466V75.0418V75.037V75.0322V75.0274V75.0226V75.0178V75.013V75.0082V75.0034V74.9986V74.9938V74.989V74.9843V74.9795V74.9747V74.9699V74.9651V74.9603V74.9555V74.9507V74.9459V74.9411V74.9363V74.9315V74.9267V74.9219V74.9171V74.9123V74.9075V74.9028V74.898V74.8932V74.8884V74.8836V74.8788V74.874V74.8692V74.8644V74.8596V74.8548V74.85V74.8452V74.8404V74.8356V74.8308V74.826V74.8212V74.8165V74.8117V74.8069V74.8021V74.7973V74.7925V74.7877V74.7829V74.7781V74.7733V74.7685V74.7637V74.7589V74.7541V74.7493V74.7445V74.7397V74.735V74.7302V74.7254V74.7206V74.7158V74.711V74.7062V74.7014V74.6966V74.6918V74.687V74.6822V74.6774V74.6726V74.6678V74.663V74.6582V74.6535V74.6487V74.6439V74.6391V74.6343V74.6295V74.6247V74.6199V74.6151V74.6103V74.6055V74.6007V74.5959V74.5911V74.5863V74.5815V74.5767V74.5719V74.5672V74.5624V74.5576V74.5528V74.548V74.5432V74.5384V74.5336V74.5288V74.524V74.5192V74.5144V74.5096V74.5048V74.5V74.4952V74.4904V74.4857V74.4809V74.4761V74.4713V74.4665V74.4617V74.4569V74.4521V74.4473V74.4425V74.4377V74.4329V74.4281V74.4233V74.4185V74.4137V74.4089V74.4042V74.3994V74.3946V74.3898V74.385V74.3802V74.3754V74.3706V74.3658V74.361V74.3562V74.3514V74.3466V74.3418V74.337V74.3322V74.3274V74.3226V74.3179V74.3131V74.3083V74.3035V74.2987V74.2939V74.2891V74.2843V74.2795V74.2747V74.2699V74.2651V74.2603V74.2555V74.2507V74.2459V74.2411V74.2364V74.2316V74.2268V74.222V74.2172V74.2124V74.2076V74.2028V74.198V74.1932V74.1884V74.1836V74.1788V74.174V74.1692V74.1644V74.1596V74.1549V74.1501V74.1453V74.1405V74.1357V74.1309V74.1261V74.1213V74.1165V74.1117V74.1069V74.1021V74.0973V74.0925V74.0877V74.0829V74.0781V74.0733V74.0686V74.0638V74.059V74.0542V74.0494V74.0446V74.0398V74.035V74.0302V74.0254V74.0206V74.0158V74.011V74.0062V74.0014V73.9966V73.9918V73.9871V73.9823V73.9775V73.9727V73.9679V73.9631V73.9583V73.9535V73.9487V73.9439V73.9391V73.9343V73.9295V73.9247V73.9199V73.9151V73.9103V73.9056V73.9008V73.896V73.8912V73.8864V73.8816V73.8768V73.872V73.8672V73.8624V73.8576V73.8528V73.848V73.8432V73.8384V73.8336V73.8288V73.824V73.8193V73.8145V73.8097V73.8049V73.8001V73.7953V73.7905V73.7857V73.7809V73.7761V73.7713V73.7665V73.7617V73.7569V73.7521V73.7473V73.7425V73.7378V73.733V73.7282V73.7234V73.7186V73.7138V73.709V73.7042V73.6994V73.6946V73.6898V73.685V73.6802V73.6754V73.6706V73.6658V73.661V73.6563V73.6515V73.6467V73.6419V73.6371V73.6323V73.6275V73.6227V73.6179V73.6131V73.6083V73.6035V73.5987V73.5939V73.5891V73.5843V73.5795V73.5747V73.57V73.5652V73.5604V73.5556V73.5508V73.546V73.5412V73.5364V73.5316V73.5268V73.522V73.5172V73.5124V73.5076V73.5028V73.498V73.4932V73.4885V73.4837V73.4789V73.4741V73.4693V73.4645V73.4597V73.4549V73.4501V73.4453V73.4405V73.4357V73.4309V73.4261V73.4213V73.4165V73.4117V73.407V73.4022V73.3974V73.3926V73.3878V73.383V73.3782V73.3734V73.3686V73.3638V73.359V73.3542V73.3494V73.3446V73.3398V73.335V73.3302V73.3254V73.3207V73.3159V73.3111V73.3063V73.3015V73.2967V73.2919V73.2871V73.2823V73.2775V73.2727V73.2679V73.2631V73.2583V73.2535V73.2487V73.2439V73.2392V73.2344V73.2296V73.2248V73.22V73.2152V73.2104V73.2056V73.2008V73.196V73.1912V73.1864V73.1816V73.1768V73.172V73.1672V73.1624V73.1576V73.1529V73.1481C195.371 72.6405 195.29 72.1517 195.142 71.6936C192.376 72.5174 189.234 73.6372 185.953 74.9132ZM190.729 84.6873C190.729 84.6871 190.726 84.6941 190.718 84.7084C190.724 84.6946 190.728 84.6874 190.729 84.6873ZM186.674 140.088C186.674 140.088 186.672 140.089 186.667 140.092C186.672 140.089 186.674 140.088 186.674 140.088Z" fill="white"/>
<path fill-rule="evenodd" clip-rule="evenodd" d="M197.596 202.534C196.545 202.255 195.393 202.337 194.338 202.849L194.333 202.851L194.328 202.853L194.324 202.856L194.319 202.858L194.314 202.86L194.31 202.862L194.305 202.865L194.301 202.867L194.296 202.869L194.291 202.871L194.287 202.874L194.282 202.876L194.277 202.878L194.273 202.88L194.268 202.883L194.264 202.885L194.259 202.887L194.254 202.889L194.25 202.891L194.245 202.894L194.241 202.896L194.236 202.898L194.231 202.9L194.227 202.903L194.222 202.905L194.217 202.907L194.213 202.909L194.208 202.912L194.204 202.914L194.199 202.916L194.194 202.918L194.19 202.921L194.185 202.923L194.18 202.925L194.176 202.927L194.171 202.93L194.167 202.932L194.162 202.934L194.157 202.936L194.153 202.939L194.148 202.941L194.143 202.943L194.139 202.945L194.134 202.947L194.13 202.95L194.125 202.952L194.12 202.954L194.116 202.956L194.111 202.959L194.107 202.961L194.102 202.963L194.097 202.965L194.093 202.968L194.088 202.97L194.083 202.972L194.079 202.974L194.074 202.977L194.07 202.979L194.065 202.981L194.06 202.983L194.056 202.986L194.051 202.988L194.046 202.99L194.042 202.992L194.037 202.995L194.033 202.997L194.028 202.999L194.023 203.001L194.019 203.003L194.014 203.006L194.009 203.008L194.005 203.01L194 203.012L193.996 203.015L193.991 203.017L193.986 203.019L193.982 203.021L193.977 203.024L193.973 203.026L193.968 203.028L193.963 203.03L193.959 203.033L193.954 203.035L193.949 203.037L193.945 203.039L193.94 203.042L193.936 203.044L193.931 203.046L193.926 203.048L193.922 203.05L193.917 203.053L193.912 203.055L193.908 203.057L193.903 203.059L193.899 203.062L193.894 203.064L193.889 203.066L193.885 203.068L193.88 203.071L193.875 203.073L193.871 203.075L193.866 203.077L193.862 203.08L193.857 203.082L193.852 203.084L193.848 203.086L193.843 203.089L193.839 203.091L193.834 203.093L193.829 203.095L193.825 203.098L193.82 203.1L193.815 203.102L193.811 203.104L193.806 203.106L193.802 203.109L193.797 203.111L193.792 203.113L193.788 203.115L193.783 203.118L193.778 203.12L193.774 203.122L193.769 203.124L193.765 203.127L193.76 203.129L193.755 203.131L193.751 203.133L193.746 203.136L193.742 203.138L193.737 203.14L193.732 203.142L193.728 203.145L193.723 203.147L193.718 203.149L193.714 203.151L193.709 203.154L193.705 203.156L193.7 203.158L193.695 203.16L193.691 203.162L193.686 203.165L193.681 203.167L193.677 203.169L193.672 203.171L193.668 203.174L193.663 203.176L193.658 203.178L193.654 203.18L193.649 203.183L193.644 203.185L193.64 203.187L193.635 203.189L193.631 203.192L193.626 203.194L193.621 203.196L193.617 203.198L193.612 203.201L193.608 203.203L193.603 203.205L193.598 203.207L193.594 203.21L193.589 203.212L193.584 203.214L193.58 203.216L193.575 203.218L193.571 203.221L193.566 203.223L193.561 203.225L193.557 203.227L193.552 203.23L193.547 203.232L193.543 203.234L193.538 203.236L193.534 203.239L193.529 203.241L193.524 203.243L193.52 203.245L193.515 203.248L193.51 203.25L193.506 203.252L193.501 203.254L193.497 203.257L193.492 203.259L193.487 203.261L193.483 203.263L193.478 203.266L193.474 203.268L193.469 203.27L193.464 203.272L193.46 203.274L193.455 203.277L193.45 203.279L193.446 203.281L193.441 203.283L193.437 203.286L193.432 203.288L193.427 203.29L193.423 203.292L193.418 203.295L193.413 203.297L193.409 203.299L193.404 203.301L193.4 203.304L193.395 203.306L193.39 203.308L193.386 203.31L193.381 203.313L193.377 203.315L193.372 203.317L193.367 203.319L193.363 203.322L193.358 203.324L193.353 203.326L193.349 203.328L193.344 203.33L193.34 203.333L193.335 203.335L193.33 203.337L193.326 203.339L193.321 203.342L193.316 203.344L193.312 203.346L193.307 203.348L193.303 203.351L193.298 203.353L193.293 203.355L193.289 203.357L193.284 203.36L193.279 203.362L193.275 203.364L193.27 203.366L193.266 203.369L193.261 203.371L193.256 203.373L193.252 203.375L193.247 203.378L193.243 203.38L193.238 203.382L193.233 203.384L193.229 203.386L193.224 203.389L193.219 203.391L193.215 203.393L193.21 203.395L193.206 203.398L193.201 203.4L193.196 203.402L193.192 203.404L193.187 203.407L193.182 203.409L193.178 203.411L193.173 203.413L193.169 203.416L193.164 203.418L193.159 203.42L193.155 203.422L193.15 203.425L193.145 203.427L193.141 203.429L193.136 203.431L193.132 203.433L193.127 203.436L193.122 203.438L193.118 203.44L193.113 203.442L193.109 203.445L193.104 203.447L193.099 203.449L193.095 203.451L193.09 203.454L193.085 203.456L193.081 203.458L193.076 203.46L193.072 203.463L193.067 203.465L193.062 203.467L193.058 203.469L193.053 203.472L193.048 203.474L193.044 203.476L193.039 203.478L193.035 203.481L193.03 203.483L193.025 203.485L193.021 203.487L193.016 203.489L193.012 203.492L193.007 203.494L193.002 203.496L192.998 203.498L192.993 203.501L192.988 203.503L192.984 203.505L192.979 203.507L192.975 203.51L192.97 203.512L192.965 203.514L192.961 203.516L192.956 203.519L192.951 203.521L192.947 203.523L192.942 203.525L192.938 203.528L192.933 203.53L192.928 203.532L192.924 203.534L192.919 203.537L192.914 203.539L192.91 203.541L192.905 203.543L192.901 203.545L192.896 203.548L192.891 203.55L192.887 203.552L192.882 203.554L192.878 203.557L192.873 203.559L192.868 203.561L192.864 203.563L192.859 203.566L192.854 203.568L192.85 203.57L192.845 203.572L192.841 203.575L192.836 203.577L192.831 203.579L192.827 203.581L192.822 203.584L192.817 203.586L192.813 203.588L192.808 203.59L192.804 203.593L192.799 203.595L192.794 203.597L192.79 203.599L192.785 203.601L192.78 203.604L192.776 203.606L192.771 203.608L192.767 203.61L192.762 203.613L192.757 203.615L192.753 203.617L192.748 203.619L192.744 203.622L192.739 203.624L192.734 203.626L192.73 203.628L192.725 203.631L192.72 203.633L192.716 203.635L192.711 203.637L192.707 203.64L192.702 203.642L192.697 203.644L192.693 203.646L192.688 203.649L192.683 203.651L192.679 203.653L192.674 203.655L192.67 203.657L192.665 203.66L192.66 203.662L192.656 203.664L192.651 203.666L192.646 203.669L192.642 203.671L192.637 203.673L192.633 203.675L192.628 203.678L192.623 203.68L192.619 203.682L192.614 203.684L192.61 203.687L192.605 203.689L192.6 203.691L192.596 203.693L192.591 203.696L192.586 203.698L192.582 203.7L192.577 203.702L192.573 203.705L192.568 203.707L192.563 203.709L192.559 203.711L192.554 203.713L192.549 203.716L192.545 203.718L192.54 203.72L192.536 203.722L192.531 203.725L192.526 203.727L192.522 203.729L192.517 203.731L192.513 203.734L192.508 203.736L192.503 203.738L192.499 203.74L192.494 203.743L192.489 203.745L192.485 203.747L192.48 203.749L192.476 203.752L192.471 203.754L192.466 203.756L192.462 203.758L192.457 203.76L192.452 203.763L192.448 203.765L192.443 203.767L192.439 203.769L192.434 203.772L192.429 203.774L192.425 203.776L192.42 203.778L192.415 203.781L192.411 203.783L192.406 203.785L192.402 203.787L192.397 203.79L192.392 203.792L192.388 203.794L192.383 203.796L192.379 203.799L192.374 203.801L192.369 203.803L192.365 203.805L192.36 203.808L192.355 203.81L192.351 203.812L192.346 203.814L192.342 203.816L192.337 203.819L192.332 203.821L192.328 203.823L192.323 203.825L192.318 203.828L192.314 203.83L192.309 203.832L192.305 203.834L192.3 203.837L192.295 203.839L192.291 203.841L192.286 203.843L192.281 203.846L192.277 203.848L192.272 203.85L192.268 203.852L192.263 203.855L192.258 203.857L192.254 203.859L192.249 203.861L192.245 203.864L192.24 203.866L192.235 203.868L192.231 203.87L192.226 203.872L192.221 203.875L192.217 203.877L192.212 203.879L192.208 203.881L192.203 203.884L192.198 203.886L192.194 203.888L192.189 203.89L192.184 203.893L192.18 203.895L192.175 203.897L192.171 203.899L192.166 203.902L192.161 203.904L192.157 203.906L192.152 203.908L192.148 203.911L192.143 203.913L192.138 203.915L192.134 203.917L192.129 203.92L192.124 203.922L192.12 203.924L192.115 203.926L192.111 203.928L192.106 203.931L192.101 203.933L192.097 203.935L192.092 203.937L192.087 203.94L192.083 203.942L192.078 203.944L192.074 203.946L192.069 203.949L192.064 203.951L192.06 203.953L192.055 203.955L192.05 203.958L192.046 203.96L192.041 203.962L192.037 203.964L192.032 203.967L192.027 203.969L192.023 203.971L192.018 203.973L192.014 203.976L192.009 203.978L192.004 203.98L192 203.982L191.995 203.984L191.99 203.987L191.986 203.989L191.981 203.991L191.979 203.992C191.975 203.994 191.965 203.999 191.947 204.007C191.917 204.02 191.895 204.029 191.861 204.044L191.86 204.044L191.772 204.082C191.629 204.144 191.346 204.266 191.04 204.427C190.473 204.726 189.29 205.426 188.493 206.845C188.062 207.613 187.791 208.363 187.618 208.873C187.51 209.194 187.449 209.387 187.401 209.538L187.401 209.538C187.346 209.71 187.309 209.827 187.238 210.018C186.811 211.173 186.138 212.026 184.935 212.774C184.766 212.749 184.556 212.71 184.238 212.648L184.14 212.628C183.803 212.561 183.306 212.463 182.814 212.397C180.22 212.051 176.712 211.679 173.089 212.949C168.66 214.501 165.095 217.09 162.495 221.295C162.291 221.625 162.055 222.023 161.849 222.37L161.849 222.371C161.744 222.548 161.647 222.712 161.566 222.846C161.282 223.319 161.041 223.7 160.806 224.026C160.322 224.698 160.048 224.872 159.961 224.915C158.806 225.488 157.858 225.611 156.126 225.303C155.09 225.119 154.045 224.836 152.743 224.482L152.743 224.482L152.714 224.474C151.472 224.137 149.982 223.734 148.416 223.477C144.917 222.903 142.05 224.306 140.449 225.089C140.364 225.13 140.283 225.17 140.206 225.207C137.601 226.47 135.875 228.342 134.614 230.022C134.006 230.831 133.458 231.663 132.997 232.364L132.974 232.399C132.585 232.991 132.25 233.498 131.917 233.966L131.835 234.003L131.776 234.029L131.776 234.03C131.702 234.063 131.613 234.103 131.527 234.142C131.28 234.255 130.791 234.418 130.21 234.52C129.966 234.563 129.747 234.588 129.565 234.599C129.487 234.532 129.391 234.445 129.254 234.324L129.242 234.313L129.242 234.313C129.026 234.121 128.676 233.808 128.282 233.509C126.849 232.424 124.996 232.282 123.47 232.983C124.637 236.405 126.078 240.16 127.81 243.909C129.236 244.128 130.692 243.999 131.847 243.795C133.066 243.579 134.345 243.21 135.445 242.707C135.48 242.691 135.528 242.67 135.588 242.645C136.189 242.389 137.947 241.641 139.199 239.963C139.802 239.156 140.344 238.331 140.801 237.637L140.801 237.637L140.841 237.578C141.332 236.831 141.731 236.229 142.145 235.677C142.947 234.61 143.592 234.032 144.314 233.682C145.251 233.228 145.762 232.992 146.222 232.854C146.589 232.743 146.763 232.75 146.892 232.771C147.912 232.938 148.956 233.213 150.247 233.564L150.432 233.614C151.613 233.935 153.02 234.317 154.48 234.576C157.685 235.145 160.772 235.026 164.147 233.352C166.181 232.343 167.537 230.796 168.449 229.53C169.062 228.678 169.694 227.61 170.135 226.866L170.135 226.866L170.135 226.866C170.283 226.617 170.409 226.404 170.506 226.247C171.84 224.088 173.56 222.764 176.203 221.837C177.542 221.368 179.081 221.401 181.569 221.732C181.754 221.757 181.968 221.799 182.414 221.887C182.795 221.963 183.358 222.074 183.959 222.144C185.132 222.281 187.082 222.352 189.041 221.278C192.267 219.508 194.721 216.935 196.071 213.286C196.181 212.988 196.275 212.703 196.348 212.477L196.401 212.315L196.404 212.314L196.408 212.311L196.413 212.309L196.417 212.307L196.422 212.305L196.427 212.302L196.431 212.3L196.436 212.298L196.441 212.296L196.445 212.293L196.45 212.291L196.454 212.289L196.459 212.287L196.464 212.284L196.468 212.282L196.473 212.28L196.477 212.278L196.482 212.276L196.487 212.273L196.491 212.271L196.496 212.269L196.501 212.267L196.505 212.264L196.51 212.262L196.514 212.26L196.519 212.258L196.524 212.255L196.528 212.253L196.533 212.251L196.538 212.249L196.542 212.246L196.547 212.244L196.551 212.242L196.556 212.24L196.561 212.237L196.565 212.235L196.57 212.233L196.575 212.231L196.579 212.228L196.584 212.226L196.588 212.224L196.593 212.222L196.598 212.22L196.602 212.217L196.607 212.215L196.611 212.213L196.616 212.211L196.621 212.208L196.625 212.206L196.63 212.204L196.635 212.202L196.639 212.199L196.644 212.197L196.648 212.195L196.653 212.193L196.658 212.19L196.662 212.188L196.667 212.186L196.672 212.184L196.676 212.181L196.681 212.179L196.685 212.177L196.69 212.175L196.695 212.173L196.699 212.17L196.704 212.168L196.709 212.166L196.713 212.164L196.718 212.161L196.722 212.159L196.727 212.157L196.732 212.155L196.736 212.152L196.741 212.15L196.745 212.148L196.75 212.146L196.755 212.143L196.759 212.141L196.764 212.139L196.769 212.137L196.773 212.134L196.778 212.132L196.782 212.13L196.787 212.128L196.792 212.125L196.796 212.123L196.801 212.121L196.806 212.119L196.81 212.117L196.815 212.114L196.819 212.112L196.824 212.11L196.829 212.108L196.833 212.105L196.838 212.103L196.842 212.101L196.847 212.099L196.852 212.096L196.856 212.094L196.861 212.092L196.866 212.09L196.87 212.087L196.875 212.085L196.879 212.083L196.884 212.081L196.889 212.078L196.893 212.076L196.898 212.074L196.903 212.072L196.907 212.069L196.912 212.067L196.916 212.065L196.921 212.063L196.926 212.061L196.93 212.058L196.935 212.056L196.94 212.054L196.944 212.052L196.949 212.049L196.953 212.047L196.958 212.045L196.963 212.043L196.967 212.04L196.972 212.038L196.976 212.036L196.981 212.034L196.986 212.031L196.99 212.029L196.995 212.027L197 212.025L197.004 212.022L197.009 212.02L197.013 212.018L197.018 212.016L197.023 212.013L197.027 212.011L197.032 212.009L197.037 212.007L197.041 212.005L197.046 212.002L197.05 212L197.055 211.998L197.06 211.996L197.064 211.993L197.069 211.991L197.074 211.989L197.078 211.987L197.083 211.984L197.087 211.982L197.092 211.98L197.097 211.978L197.101 211.975L197.106 211.973L197.11 211.971L197.115 211.969L197.12 211.966L197.124 211.964L197.129 211.962L197.134 211.96L197.138 211.957L197.143 211.955L197.147 211.953L197.152 211.951L197.157 211.949L197.161 211.946L197.166 211.944L197.171 211.942L197.175 211.94L197.18 211.937L197.184 211.935L197.189 211.933L197.194 211.931L197.198 211.928L197.203 211.926L197.208 211.924L197.212 211.922L197.217 211.919L197.221 211.917L197.226 211.915L197.231 211.913L197.235 211.91L197.24 211.908L197.244 211.906L197.249 211.904L197.254 211.901L197.258 211.899L197.263 211.897L197.268 211.895L197.272 211.893L197.277 211.89L197.281 211.888L197.286 211.886L197.291 211.884L197.295 211.881L197.3 211.879L197.305 211.877L197.309 211.875L197.314 211.872L197.318 211.87L197.323 211.868L197.328 211.866L197.332 211.863L197.337 211.861L197.341 211.859L197.346 211.857L197.351 211.854L197.355 211.852L197.36 211.85L197.365 211.848L197.369 211.845L197.374 211.843L197.378 211.841L197.383 211.839L197.388 211.837L197.392 211.834L197.397 211.832L197.402 211.83L197.406 211.828L197.411 211.825L197.415 211.823L197.42 211.821L197.425 211.819L197.429 211.816L197.434 211.814L197.439 211.812L197.443 211.81L197.448 211.807L197.452 211.805L197.457 211.803L197.462 211.801L197.466 211.798L197.471 211.796L197.475 211.794L197.48 211.792L197.485 211.79L197.489 211.787L197.494 211.785L197.499 211.783L197.503 211.781L197.508 211.778L197.512 211.776L197.517 211.774L197.522 211.772L197.526 211.769L197.531 211.767L197.536 211.765L197.54 211.763L197.545 211.76L197.549 211.758L197.554 211.756L197.559 211.754L197.563 211.751L197.568 211.749L197.573 211.747L197.577 211.745L197.582 211.742L197.586 211.74L197.591 211.738L197.596 211.736L197.6 211.734L197.605 211.731L197.609 211.729L197.614 211.727L197.619 211.725L197.623 211.722L197.628 211.72L197.633 211.718L197.637 211.716L197.642 211.713L197.646 211.711L197.651 211.709L197.656 211.707L197.66 211.704L197.665 211.702L197.67 211.7L197.674 211.698L197.679 211.695L197.683 211.693L197.688 211.691L197.693 211.689L197.697 211.686L197.702 211.684L197.706 211.682L197.711 211.68L197.716 211.678L197.72 211.675L197.725 211.673L197.73 211.671L197.734 211.669L197.739 211.666L197.743 211.664L197.748 211.662L197.753 211.66L197.757 211.657L197.762 211.655L197.767 211.653L197.771 211.651L197.776 211.648L197.78 211.646L197.785 211.644L197.79 211.642L197.794 211.639L197.799 211.637L197.804 211.635L197.808 211.633L197.813 211.63L197.817 211.628L197.822 211.626L197.827 211.624L197.831 211.622L197.836 211.619L197.84 211.617L197.845 211.615L197.85 211.613L197.854 211.61L197.859 211.608L197.864 211.606L197.868 211.604L197.873 211.601L197.877 211.599L197.882 211.597L197.887 211.595L197.891 211.592L197.896 211.59L197.901 211.588L197.905 211.586L197.91 211.583L197.914 211.581L197.919 211.579L197.924 211.577L197.928 211.574L197.933 211.572L197.938 211.57L197.942 211.568L197.947 211.566L197.951 211.563L197.956 211.561L197.961 211.559L197.965 211.557L197.97 211.554L197.974 211.552L197.979 211.55L197.984 211.548L197.988 211.545L197.993 211.543L197.998 211.541L198.002 211.539L198.007 211.536L198.011 211.534L198.016 211.532L198.021 211.53L198.025 211.527L198.03 211.525L198.035 211.523L198.039 211.521L198.044 211.518L198.048 211.516L198.053 211.514L198.058 211.512L198.062 211.51L198.067 211.507L198.071 211.505L198.076 211.503L198.081 211.501L198.085 211.498L198.09 211.496L198.095 211.494L198.099 211.492L198.104 211.489L198.108 211.487L198.113 211.485L198.118 211.483L198.122 211.48L198.127 211.478L198.132 211.476L198.136 211.474L198.141 211.471L198.145 211.469L198.15 211.467L198.155 211.465L198.159 211.463L198.164 211.46L198.169 211.458L198.173 211.456L198.178 211.454L198.182 211.451L198.187 211.449L198.192 211.447L198.196 211.445L198.201 211.442L198.205 211.44L198.21 211.438L198.215 211.436L198.219 211.433L198.224 211.431L198.229 211.429L198.233 211.427L198.238 211.424L198.242 211.422L198.247 211.42L198.252 211.418L198.256 211.415L198.261 211.413L198.266 211.411L198.27 211.409L198.275 211.407L198.279 211.404L198.284 211.402L198.289 211.4L198.293 211.398L198.298 211.395L198.303 211.393L198.307 211.391L198.312 211.389L198.316 211.386L198.321 211.384L198.326 211.382L198.33 211.38L198.335 211.377L198.339 211.375L198.344 211.373L198.349 211.371L198.353 211.368L198.358 211.366L198.363 211.364L198.367 211.362L198.372 211.359L198.376 211.357L198.381 211.355L198.386 211.353L198.39 211.351L198.395 211.348L198.4 211.346L198.404 211.344L198.409 211.342L198.413 211.339L198.418 211.337L198.423 211.335L198.427 211.333L198.432 211.33L198.437 211.328L198.441 211.326L198.446 211.324C199.23 210.943 199.862 210.374 200.312 209.697C199.544 207.345 198.63 204.951 197.596 202.534ZM185.206 212.802C185.218 212.803 185.223 212.802 185.223 212.802C185.223 212.802 185.221 212.802 185.218 212.802C185.215 212.802 185.211 212.802 185.206 212.802Z" fill="white"/>
<path fill-rule="evenodd" clip-rule="evenodd" d="M114.923 234.142C113.307 232.311 110.528 232.01 108.55 233.509C108.156 233.808 107.805 234.12 107.59 234.312L107.589 234.313L107.578 234.323C107.441 234.445 107.344 234.531 107.267 234.598C107.085 234.588 106.866 234.563 106.622 234.52C106.041 234.417 105.551 234.255 105.305 234.142C105.218 234.102 105.129 234.062 105.056 234.029L104.997 234.002L104.915 233.965C104.582 233.497 104.247 232.99 103.857 232.398L103.835 232.364L103.835 232.364C103.373 231.663 102.826 230.831 102.218 230.022C100.957 228.342 99.2303 226.469 96.6255 225.207C96.5491 225.17 96.4692 225.13 96.3859 225.09L96.3832 225.088C94.7819 224.305 91.9147 222.903 88.4159 223.476C86.8501 223.733 85.36 224.137 84.1182 224.474L84.0889 224.482L84.0887 224.482C82.7867 224.835 81.7416 225.119 80.7053 225.303C78.9733 225.61 78.0261 225.488 76.8703 224.915C76.7832 224.871 76.5097 224.698 76.0254 224.025C75.7906 223.699 75.5495 223.319 75.2654 222.846C75.185 222.712 75.0883 222.549 74.9836 222.372L74.9827 222.37L74.9823 222.37C74.7769 222.023 74.5408 221.624 74.3367 221.294C71.737 217.089 68.1713 214.501 63.7432 212.949C60.1197 211.679 56.612 212.051 54.018 212.397C53.5253 212.462 53.0284 212.561 52.6922 212.628L52.6921 212.628L52.5938 212.647C52.2761 212.71 52.0655 212.749 51.8972 212.773C50.6941 212.026 50.0208 211.172 49.5937 210.018C49.523 209.827 49.4859 209.71 49.431 209.537C49.3832 209.386 49.322 209.193 49.2134 208.872C49.041 208.362 48.7701 207.612 48.3388 206.844C47.5422 205.425 46.3591 204.725 45.7917 204.426C45.4859 204.265 45.2028 204.143 45.0593 204.081L44.9718 204.044C44.9374 204.029 44.9147 204.019 44.8849 204.006C44.8667 203.998 44.8566 203.993 44.8527 203.992L44.8506 203.991L44.8459 203.988L44.8413 203.986L44.8367 203.984L44.8321 203.982L44.8275 203.979L44.8228 203.977L44.8182 203.975L44.8136 203.973L44.809 203.97L44.8044 203.968L44.7997 203.966L44.7951 203.964L44.7905 203.962L44.7859 203.959L44.7813 203.957L44.7766 203.955L44.772 203.953L44.7674 203.95L44.7628 203.948L44.7582 203.946L44.7535 203.944L44.7489 203.941L44.7443 203.939L44.7397 203.937L44.735 203.935L44.7304 203.932L44.7258 203.93L44.7212 203.928L44.7166 203.926L44.7119 203.923L44.7073 203.921L44.7027 203.919L44.6981 203.917L44.6935 203.914L44.6888 203.912L44.6842 203.91L44.6796 203.908L44.675 203.906L44.6704 203.903L44.6657 203.901L44.6611 203.899L44.6565 203.897L44.6519 203.894L44.6473 203.892L44.6426 203.89L44.638 203.888L44.6334 203.885L44.6288 203.883L44.6242 203.881L44.6195 203.879L44.6149 203.876L44.6103 203.874L44.6057 203.872L44.6011 203.87L44.5964 203.867L44.5918 203.865L44.5872 203.863L44.5826 203.861L44.578 203.858L44.5733 203.856L44.5687 203.854L44.5641 203.852L44.5595 203.85L44.5549 203.847L44.5502 203.845L44.5456 203.843L44.541 203.841L44.5364 203.838L44.5318 203.836L44.5271 203.834L44.5225 203.832L44.5179 203.829L44.5133 203.827L44.5087 203.825L44.504 203.823L44.4994 203.82L44.4948 203.818L44.4902 203.816L44.4856 203.814L44.4809 203.811L44.4763 203.809L44.4717 203.807L44.4671 203.805L44.4625 203.802L44.4578 203.8L44.4532 203.798L44.4486 203.796L44.444 203.794L44.4393 203.791L44.4347 203.789L44.4301 203.787L44.4255 203.785L44.4209 203.782L44.4162 203.78L44.4116 203.778L44.407 203.776L44.4024 203.773L44.3978 203.771L44.3931 203.769L44.3885 203.767L44.3839 203.764L44.3793 203.762L44.3747 203.76L44.37 203.758L44.3654 203.755L44.3608 203.753L44.3562 203.751L44.3516 203.749L44.3469 203.746L44.3423 203.744L44.3377 203.742L44.3331 203.74L44.3285 203.738L44.3238 203.735L44.3192 203.733L44.3146 203.731L44.31 203.729L44.3054 203.726L44.3007 203.724L44.2961 203.722L44.2915 203.72L44.2869 203.717L44.2823 203.715L44.2776 203.713L44.273 203.711L44.2684 203.708L44.2638 203.706L44.2592 203.704L44.2545 203.702L44.2499 203.699L44.2453 203.697L44.2407 203.695L44.2361 203.693L44.2314 203.691L44.2268 203.688L44.2222 203.686L44.2176 203.684L44.213 203.682L44.2083 203.679L44.2037 203.677L44.1991 203.675L44.1945 203.673L44.1899 203.67L44.1852 203.668L44.1806 203.666L44.176 203.664L44.1714 203.661L44.1668 203.659L44.1621 203.657L44.1575 203.655L44.1529 203.652L44.1483 203.65L44.1437 203.648L44.139 203.646L44.1344 203.643L44.1298 203.641L44.1252 203.639L44.1205 203.637L44.1159 203.635L44.1113 203.632L44.1067 203.63L44.1021 203.628L44.0974 203.626L44.0928 203.623L44.0882 203.621L44.0836 203.619L44.079 203.617L44.0743 203.614L44.0697 203.612L44.0651 203.61L44.0605 203.608L44.0559 203.605L44.0512 203.603L44.0466 203.601L44.042 203.599L44.0374 203.596L44.0328 203.594L44.0281 203.592L44.0235 203.59L44.0189 203.587L44.0143 203.585L44.0097 203.583L44.005 203.581L44.0004 203.579L43.9958 203.576L43.9912 203.574L43.9866 203.572L43.9819 203.57L43.9773 203.567L43.9727 203.565L43.9681 203.563L43.9635 203.561L43.9588 203.558L43.9542 203.556L43.9496 203.554L43.945 203.552L43.9404 203.549L43.9357 203.547L43.9311 203.545L43.9265 203.543L43.9219 203.54L43.9173 203.538L43.9126 203.536L43.908 203.534L43.9034 203.531L43.8988 203.529L43.8942 203.527L43.8895 203.525L43.8849 203.523L43.8803 203.52L43.8757 203.518L43.8711 203.516L43.8664 203.514L43.8618 203.511L43.8572 203.509L43.8526 203.507L43.848 203.505L43.8433 203.502L43.8387 203.5L43.8341 203.498L43.8295 203.496L43.8249 203.493L43.8202 203.491L43.8156 203.489L43.811 203.487L43.8064 203.484L43.8017 203.482L43.7971 203.48L43.7925 203.478L43.7879 203.475L43.7833 203.473L43.7786 203.471L43.774 203.469L43.7694 203.467L43.7648 203.464L43.7602 203.462L43.7555 203.46L43.7509 203.458L43.7463 203.455L43.7417 203.453L43.7371 203.451L43.7324 203.449L43.7278 203.446L43.7232 203.444L43.7186 203.442L43.714 203.44L43.7093 203.437L43.7047 203.435L43.7001 203.433L43.6955 203.431L43.6909 203.428L43.6862 203.426L43.6816 203.424L43.677 203.422L43.6724 203.419L43.6678 203.417L43.6631 203.415L43.6585 203.413L43.6539 203.411L43.6493 203.408L43.6447 203.406L43.64 203.404L43.6354 203.402L43.6308 203.399L43.6262 203.397L43.6216 203.395L43.6169 203.393L43.6123 203.39L43.6077 203.388L43.6031 203.386L43.5985 203.384L43.5938 203.381L43.5892 203.379L43.5846 203.377L43.58 203.375L43.5754 203.372L43.5707 203.37L43.5661 203.368L43.5615 203.366L43.5569 203.364L43.5523 203.361L43.5476 203.359L43.543 203.357L43.5384 203.355L43.5338 203.352L43.5292 203.35L43.5245 203.348L43.5199 203.346L43.5153 203.343L43.5107 203.341L43.5061 203.339L43.5014 203.337L43.4968 203.334L43.4922 203.332L43.4876 203.33L43.4829 203.328L43.4783 203.325L43.4737 203.323L43.4691 203.321L43.4645 203.319L43.4598 203.316L43.4552 203.314L43.4506 203.312L43.446 203.31L43.4414 203.308L43.4367 203.305L43.4321 203.303L43.4275 203.301L43.4229 203.299L43.4183 203.296L43.4136 203.294L43.409 203.292L43.4044 203.29L43.3998 203.287L43.3952 203.285L43.3905 203.283L43.3859 203.281L43.3813 203.278L43.3767 203.276L43.3721 203.274L43.3674 203.272L43.3628 203.269L43.3582 203.267L43.3536 203.265L43.349 203.263L43.3443 203.26L43.3397 203.258L43.3351 203.256L43.3305 203.254L43.3259 203.252L43.3212 203.249L43.3166 203.247L43.312 203.245L43.3074 203.243L43.3028 203.24L43.2981 203.238L43.2935 203.236L43.2889 203.234L43.2843 203.231L43.2797 203.229L43.275 203.227L43.2704 203.225L43.2658 203.222L43.2612 203.22L43.2566 203.218L43.2519 203.216L43.2473 203.213L43.2427 203.211L43.2381 203.209L43.2335 203.207L43.2288 203.204L43.2242 203.202L43.2196 203.2L43.215 203.198L43.2104 203.196L43.2057 203.193L43.2011 203.191L43.1965 203.189L43.1919 203.187L43.1873 203.184L43.1826 203.182L43.178 203.18L43.1734 203.178L43.1688 203.175L43.1641 203.173L43.1595 203.171L43.1549 203.169L43.1503 203.166L43.1457 203.164L43.141 203.162L43.1364 203.16L43.1318 203.157L43.1272 203.155L43.1226 203.153L43.1179 203.151L43.1133 203.148L43.1087 203.146L43.1041 203.144L43.0995 203.142L43.0948 203.14L43.0902 203.137L43.0856 203.135L43.081 203.133L43.0764 203.131L43.0717 203.128L43.0671 203.126L43.0625 203.124L43.0579 203.122L43.0533 203.119L43.0486 203.117L43.044 203.115L43.0394 203.113L43.0348 203.11L43.0302 203.108L43.0255 203.106L43.0209 203.104L43.0163 203.101L43.0117 203.099L43.0071 203.097L43.0024 203.095L42.9978 203.092L42.9932 203.09L42.9886 203.088L42.984 203.086L42.9793 203.084L42.9747 203.081L42.9701 203.079L42.9655 203.077L42.9609 203.075L42.9562 203.072L42.9516 203.07L42.947 203.068L42.9424 203.066L42.9378 203.063L42.9331 203.061L42.9285 203.059L42.9239 203.057L42.9193 203.054L42.9147 203.052L42.91 203.05L42.9054 203.048L42.9008 203.045L42.8962 203.043L42.8916 203.041L42.8869 203.039L42.8823 203.036L42.8777 203.034L42.8731 203.032L42.8684 203.03L42.8638 203.028L42.8592 203.025L42.8546 203.023L42.85 203.021L42.8453 203.019L42.8407 203.016L42.8361 203.014L42.8315 203.012L42.8269 203.01L42.8222 203.007L42.8176 203.005L42.813 203.003L42.8084 203.001L42.8038 202.998L42.7991 202.996L42.7945 202.994L42.7899 202.992L42.7853 202.989L42.7807 202.987L42.776 202.985L42.7714 202.983L42.7668 202.981L42.7622 202.978L42.7576 202.976L42.7529 202.974L42.7483 202.972L42.7437 202.969L42.7391 202.967L42.7345 202.965L42.7298 202.963L42.7252 202.96L42.7206 202.958L42.716 202.956L42.7114 202.954L42.7067 202.951L42.7021 202.949L42.6975 202.947L42.6929 202.945L42.6883 202.942L42.6836 202.94L42.679 202.938L42.6744 202.936L42.6698 202.933L42.6652 202.931L42.6605 202.929L42.6559 202.927L42.6513 202.925L42.6467 202.922L42.6421 202.92L42.6374 202.918L42.6328 202.916L42.6282 202.913L42.6236 202.911L42.619 202.909L42.6143 202.907L42.6097 202.904L42.6051 202.902L42.6005 202.9L42.5959 202.898L42.5912 202.895L42.5866 202.893L42.582 202.891L42.5774 202.889L42.5728 202.886L42.5681 202.884L42.5635 202.882L42.5589 202.88L42.5543 202.877L42.5496 202.875L42.545 202.873L42.5404 202.871L42.5358 202.869L42.5312 202.866L42.5265 202.864L42.5219 202.862L42.5173 202.86L42.5127 202.857L42.5081 202.855L42.5034 202.853L42.4988 202.851L42.4942 202.848C42.2406 202.725 41.9814 202.627 41.7193 202.553C40.6002 205.61 39.6401 208.628 38.8838 211.564L38.885 211.565L38.8896 211.567L38.8942 211.569L38.8988 211.572L38.9035 211.574L38.9081 211.576L38.9127 211.578L38.9173 211.581L38.9219 211.583L38.9266 211.585L38.9312 211.587L38.9358 211.59L38.9404 211.592L38.945 211.594L38.9497 211.596L38.9543 211.599L38.9589 211.601L38.9635 211.603L38.9681 211.605L38.9728 211.608L38.9774 211.61L38.982 211.612L38.9866 211.614L38.9913 211.616L38.9959 211.619L39.0005 211.621L39.0051 211.623L39.0097 211.625L39.0144 211.628L39.019 211.63L39.0236 211.632L39.0282 211.634L39.0328 211.637L39.0375 211.639L39.0421 211.641L39.0467 211.643L39.0513 211.646L39.0559 211.648L39.0606 211.65L39.0652 211.652L39.0698 211.655L39.0744 211.657L39.079 211.659L39.0837 211.661L39.0883 211.664L39.0929 211.666L39.0975 211.668L39.1021 211.67L39.1068 211.672L39.1114 211.675L39.116 211.677L39.1206 211.679L39.1252 211.681L39.1299 211.684L39.1345 211.686L39.1391 211.688L39.1437 211.69L39.1483 211.693L39.153 211.695L39.1576 211.697L39.1622 211.699L39.1668 211.702L39.1714 211.704L39.1761 211.706L39.1807 211.708L39.1853 211.711L39.1899 211.713L39.1945 211.715L39.1992 211.717L39.2038 211.72L39.2084 211.722L39.213 211.724L39.2176 211.726L39.2223 211.728L39.2269 211.731L39.2315 211.733L39.2361 211.735L39.2407 211.737L39.2454 211.74L39.25 211.742L39.2546 211.744L39.2592 211.746L39.2638 211.749L39.2685 211.751L39.2731 211.753L39.2777 211.755L39.2823 211.758L39.2869 211.76L39.2916 211.762L39.2962 211.764L39.3008 211.767L39.3054 211.769L39.3101 211.771L39.3147 211.773L39.3193 211.776L39.3239 211.778L39.3285 211.78L39.3332 211.782L39.3378 211.784L39.3424 211.787L39.347 211.789L39.3516 211.791L39.3563 211.793L39.3609 211.796L39.3655 211.798L39.3701 211.8L39.3747 211.802L39.3794 211.805L39.384 211.807L39.3886 211.809L39.3932 211.811L39.3978 211.814L39.4025 211.816L39.4071 211.818L39.4117 211.82L39.4163 211.823L39.4209 211.825L39.4256 211.827L39.4302 211.829L39.4348 211.832L39.4394 211.834L39.444 211.836L39.4487 211.838L39.4533 211.84L39.4579 211.843L39.4625 211.845L39.4671 211.847L39.4718 211.849L39.4764 211.852L39.481 211.854L39.4856 211.856L39.4902 211.858L39.4949 211.861L39.4995 211.863L39.5041 211.865L39.5087 211.867L39.5133 211.87L39.518 211.872L39.5226 211.874L39.5272 211.876L39.5318 211.879L39.5364 211.881L39.5411 211.883L39.5457 211.885L39.5503 211.887L39.5549 211.89L39.5595 211.892L39.5642 211.894L39.5688 211.896L39.5734 211.899L39.578 211.901L39.5826 211.903L39.5873 211.905L39.5919 211.908L39.5965 211.91L39.6011 211.912L39.6057 211.914L39.6104 211.917L39.615 211.919L39.6196 211.921L39.6242 211.923L39.6289 211.926L39.6335 211.928L39.6381 211.93L39.6427 211.932L39.6473 211.935L39.652 211.937L39.6566 211.939L39.6612 211.941L39.6658 211.943L39.6704 211.946L39.6751 211.948L39.6797 211.95L39.6843 211.952L39.6889 211.955L39.6935 211.957L39.6982 211.959L39.7028 211.961L39.7074 211.964L39.712 211.966L39.7166 211.968L39.7213 211.97L39.7259 211.973L39.7305 211.975L39.7351 211.977L39.7397 211.979L39.7444 211.982L39.749 211.984L39.7536 211.986L39.7582 211.988L39.7628 211.991L39.7675 211.993L39.7721 211.995L39.7767 211.997L39.7813 211.999L39.7859 212.002L39.7906 212.004L39.7952 212.006L39.7998 212.008L39.8044 212.011L39.809 212.013L39.8137 212.015L39.8183 212.017L39.8229 212.02L39.8275 212.022L39.8321 212.024L39.8368 212.026L39.8414 212.029L39.846 212.031L39.8506 212.033L39.8552 212.035L39.8599 212.038L39.8645 212.04L39.8691 212.042L39.8737 212.044L39.8783 212.047L39.883 212.049L39.8876 212.051L39.8922 212.053L39.8968 212.055L39.9014 212.058L39.9061 212.06L39.9107 212.062L39.9153 212.064L39.9199 212.067L39.9246 212.069L39.9292 212.071L39.9338 212.073L39.9384 212.076L39.943 212.078L39.9477 212.08L39.9523 212.082L39.9569 212.085L39.9615 212.087L39.9661 212.089L39.9708 212.091L39.9754 212.094L39.98 212.096L39.9846 212.098L39.9892 212.1L39.9939 212.103L39.9985 212.105L40.0031 212.107L40.0077 212.109L40.0123 212.111L40.017 212.114L40.0216 212.116L40.0262 212.118L40.0308 212.12L40.0354 212.123L40.0401 212.125L40.0447 212.127L40.0493 212.129L40.0539 212.132L40.0585 212.134L40.0632 212.136L40.0678 212.138L40.0724 212.141L40.077 212.143L40.0816 212.145L40.0863 212.147L40.0909 212.15L40.0955 212.152L40.1001 212.154L40.1047 212.156L40.1094 212.159L40.114 212.161L40.1186 212.163L40.1232 212.165L40.1278 212.167L40.1325 212.17L40.1371 212.172L40.1417 212.174L40.1463 212.176L40.1509 212.179L40.1556 212.181L40.1602 212.183L40.1648 212.185L40.1694 212.188L40.174 212.19L40.1787 212.192L40.1833 212.194L40.1879 212.197L40.1925 212.199L40.1971 212.201L40.2018 212.203L40.2064 212.206L40.211 212.208L40.2156 212.21L40.2202 212.212L40.2249 212.214L40.2295 212.217L40.2341 212.219L40.2387 212.221L40.2434 212.223L40.248 212.226L40.2526 212.228L40.2572 212.23L40.2618 212.232L40.2665 212.235L40.2711 212.237L40.2757 212.239L40.2803 212.241L40.2849 212.244L40.2896 212.246L40.2942 212.248L40.2988 212.25L40.3034 212.253L40.308 212.255L40.3127 212.257L40.3173 212.259L40.3219 212.262L40.3265 212.264L40.3311 212.266L40.3358 212.268L40.3404 212.27L40.345 212.273L40.3496 212.275L40.3542 212.277L40.3589 212.279L40.3635 212.282L40.3681 212.284L40.3727 212.286L40.3773 212.288L40.382 212.291L40.3866 212.293L40.3912 212.295L40.3958 212.297L40.4004 212.3L40.4051 212.302L40.4097 212.304L40.4143 212.306L40.4189 212.309L40.4235 212.311L40.4282 212.313L40.4308 212.314L40.4832 212.476C40.5565 212.702 40.6505 212.987 40.7607 213.285C42.1108 216.935 44.5649 219.508 47.7903 221.277C49.7495 222.352 51.6992 222.281 52.8726 222.143C53.4734 222.073 54.0371 221.962 54.4178 221.887C54.8636 221.799 55.0779 221.757 55.2627 221.732C57.7505 221.4 59.2896 221.368 60.6284 221.837C63.2716 222.763 64.9914 224.088 66.3261 226.247C66.4228 226.403 66.5488 226.616 66.6962 226.865L66.6964 226.865L66.6965 226.865C67.1373 227.61 67.7698 228.678 68.3832 229.53C69.2947 230.795 70.6504 232.342 72.6851 233.352C76.06 235.026 79.1465 235.145 82.3514 234.576C83.8115 234.316 85.2188 233.934 86.3993 233.613L86.5846 233.563C87.8757 233.213 88.9195 232.938 89.9394 232.77C90.0688 232.749 90.2423 232.743 90.6099 232.853C91.0694 232.991 91.5807 233.227 92.5173 233.681C93.2393 234.031 93.8851 234.609 94.6868 235.677C95.1008 236.228 95.4994 236.83 95.9911 237.577L96.0303 237.636L96.0304 237.637C96.4873 238.331 97.0301 239.155 97.6327 239.963C98.885 241.641 100.643 242.389 101.244 242.644C101.303 242.67 101.352 242.69 101.387 242.706C102.486 243.209 103.766 243.579 104.984 243.794C106.165 244.003 107.661 244.133 109.117 243.893C109.839 243.774 110.478 243.561 111.033 243.31C112.538 240.205 113.831 237.077 114.923 234.142ZM51.6143 212.802C51.6103 212.802 51.6085 212.802 51.6086 212.802C51.6088 212.801 51.6148 212.801 51.6262 212.802C51.6211 212.802 51.6171 212.802 51.6143 212.802Z" fill="white"/>
<path fill-rule="evenodd" clip-rule="evenodd" d="M45.2918 147.246C45.6026 146.535 45.7419 145.737 45.6622 144.91L40.9755 145.368L45.6622 144.91L45.6622 144.91L45.6622 144.91L45.6622 144.91L45.6622 144.91L45.6622 144.91L45.6621 144.909L45.6621 144.909L45.6621 144.909L45.6621 144.908L45.662 144.908L45.662 144.908L45.6619 144.907L45.6619 144.907L45.6618 144.906L45.6618 144.906L45.6617 144.905L45.6617 144.904L45.6616 144.904L45.6615 144.903L45.6614 144.902L45.6614 144.901L45.6613 144.901L45.6612 144.9L45.6611 144.899L45.661 144.898L45.6609 144.897L45.6609 144.896L45.6608 144.895L45.6607 144.894L45.6605 144.893L45.6604 144.892L45.6603 144.89L45.6602 144.889L45.6601 144.888L45.66 144.887L45.6598 144.886L45.6597 144.884L45.6596 144.883L45.6594 144.881L45.6593 144.88L45.6592 144.879L45.659 144.877L45.6589 144.875L45.6587 144.874L45.6586 144.872L45.6584 144.871L45.6583 144.869L45.6581 144.867L45.6579 144.866L45.6578 144.864L45.6576 144.862L45.6574 144.86L45.6572 144.858L45.657 144.857L45.6569 144.855L45.6567 144.853L45.6565 144.851L45.6563 144.849L45.6561 144.847L45.6559 144.845L45.6557 144.842L45.6555 144.84L45.6553 144.838L45.6551 144.836L45.6549 144.834L45.6546 144.831L45.6544 144.829L45.6542 144.827L45.654 144.825L45.6537 144.822L45.6535 144.82L45.6533 144.817L45.653 144.815L45.6528 144.812L45.6526 144.81L45.6523 144.807L45.6521 144.805L45.6518 144.802L45.6516 144.799L45.6513 144.797L45.651 144.794L45.6508 144.791L45.6505 144.789L45.6502 144.786L45.65 144.783L45.6497 144.78L45.6494 144.777L45.6491 144.774L45.6489 144.772L45.6486 144.769L45.6483 144.766L45.648 144.763L45.6477 144.76L45.6474 144.757L45.6471 144.753L45.6468 144.75L45.6465 144.747L45.6462 144.744L45.6459 144.741L45.6456 144.738L45.6453 144.734L45.645 144.731L45.6446 144.728L45.6443 144.724L45.644 144.721L45.6437 144.718L45.6433 144.714L45.643 144.711L45.6427 144.707L45.6423 144.704L45.642 144.7L45.6417 144.697L45.6413 144.693L45.641 144.69L45.6406 144.686L45.6403 144.683L45.6399 144.679L45.6396 144.675L45.6392 144.672L45.6389 144.668L45.6385 144.664L45.6381 144.66L45.6378 144.656L45.6374 144.653L45.637 144.649L45.6367 144.645L45.6363 144.641L45.6359 144.637L45.6355 144.633L45.6351 144.629L45.6348 144.625L45.6344 144.621L45.634 144.617L45.6336 144.613L45.6332 144.609L45.6328 144.605L45.6324 144.601L45.632 144.597L45.6316 144.593L45.6312 144.588L45.6308 144.584L45.6304 144.58L45.63 144.576L45.6296 144.571L45.6292 144.567L45.6287 144.563L45.6283 144.558L45.6279 144.554L45.6275 144.55L45.627 144.545L45.6266 144.541L45.6262 144.536L45.6258 144.532L45.6253 144.527L45.6249 144.523L45.6245 144.518L45.624 144.514L45.6236 144.509L45.6231 144.505L45.6227 144.5L45.6222 144.495L45.6218 144.491L45.6213 144.486L45.6209 144.481L45.6204 144.477L45.62 144.472L45.6195 144.467L45.6191 144.462L45.6186 144.458L45.6181 144.453L45.6177 144.448L45.6172 144.443L45.6167 144.438L45.6163 144.433L45.6158 144.429L45.6153 144.424L45.6149 144.419L45.6144 144.414L45.6139 144.409L45.6134 144.404L45.6129 144.399L45.6125 144.394L45.612 144.389L45.6115 144.384L45.611 144.379L45.6105 144.374L45.61 144.368L45.6095 144.363L45.609 144.358L45.6085 144.353L45.608 144.348L45.6075 144.343L45.607 144.337L45.6065 144.332L45.606 144.327L45.6055 144.322L45.605 144.316L45.6045 144.311L45.604 144.306L45.6035 144.301L45.603 144.295L45.6024 144.29L45.6019 144.284L45.6014 144.279L45.6009 144.274L45.6004 144.268L45.5998 144.263L45.5993 144.257L45.5988 144.252L45.5983 144.247L45.5977 144.241L45.5972 144.236L45.5967 144.23L45.5961 144.225L45.5956 144.219L45.5951 144.213L45.5945 144.208L45.594 144.202L45.5935 144.197L45.5929 144.191L45.5924 144.185L45.5918 144.18L45.5913 144.174L45.5907 144.169L45.5902 144.163L45.5897 144.157L45.5891 144.151L45.5886 144.146L45.588 144.14L45.5875 144.134L45.5869 144.129L45.5863 144.123L45.5858 144.117L45.5852 144.111L45.5847 144.105L45.5841 144.1L45.5835 144.094L45.583 144.088L45.5824 144.082L45.5819 144.076L45.5813 144.07L45.5807 144.065L45.5802 144.059L45.5796 144.053L45.579 144.047L45.5785 144.041L45.5779 144.035L45.5773 144.029L45.5767 144.023L45.5762 144.017L45.5756 144.011L45.575 144.005L45.5744 143.999L45.5739 143.993L45.5733 143.987L45.5727 143.981L45.5721 143.975L45.5715 143.969L45.571 143.963L45.5704 143.957L45.5698 143.951L45.5692 143.945L45.5686 143.939L45.568 143.933L45.5675 143.927L45.5669 143.921L45.5663 143.915L45.5657 143.909L45.5651 143.902L45.5645 143.896L45.5639 143.89L45.5633 143.884L45.5627 143.878L45.5621 143.872L45.5615 143.866L45.5609 143.859L45.5604 143.853L45.5598 143.847L45.5592 143.841L45.5586 143.835L45.558 143.828L45.5574 143.822L45.5568 143.816L45.5562 143.81L45.5556 143.803L45.555 143.797L45.5544 143.791L45.5538 143.785L45.5532 143.778L45.5526 143.772L45.5519 143.766L45.5513 143.76L45.5507 143.753L45.5501 143.747L45.5495 143.741L45.5489 143.735L45.5483 143.728L45.5477 143.722L45.5471 143.716L45.5465 143.709L45.5459 143.703L45.5453 143.697L45.5447 143.69L45.5441 143.684L45.5434 143.678L45.5428 143.671L45.5422 143.665L45.5416 143.659L45.541 143.652L45.5404 143.646L45.5398 143.64L45.5392 143.633L45.5385 143.627L45.5379 143.621L45.5373 143.614L45.5367 143.608L45.5361 143.601L45.5355 143.595L45.5349 143.589L45.5342 143.582L45.5336 143.576L45.533 143.569L45.5324 143.563L45.5318 143.557L45.5312 143.55L45.5306 143.544L45.5299 143.538L45.5293 143.531L45.5287 143.525L45.5281 143.518L45.5275 143.512L45.5269 143.506L45.5262 143.499L45.5256 143.493L45.525 143.486L45.5244 143.48L45.5238 143.474L45.5232 143.467L45.5225 143.461L45.5219 143.454L45.5213 143.448L45.5207 143.442L45.5201 143.435L45.5195 143.429L45.5188 143.422L45.5182 143.416L45.5176 143.41L45.517 143.403L45.5164 143.397L45.5157 143.39L45.5151 143.384L45.5145 143.378L45.5139 143.371L45.5133 143.365L45.5127 143.358L45.5121 143.352L45.5114 143.346L45.5108 143.339L45.5102 143.333L45.5096 143.326L45.509 143.32L45.5084 143.314L45.5077 143.307L45.5071 143.301L45.5065 143.295L45.5059 143.288L45.5053 143.282L45.5047 143.275L45.5041 143.269L45.5035 143.263L45.5028 143.256L45.5022 143.25L45.5016 143.244L45.501 143.237L45.5004 143.231L45.4998 143.225L45.4992 143.218L45.4986 143.212L45.498 143.206L45.4974 143.199L45.4967 143.193L45.4961 143.187L45.4955 143.18L45.4949 143.174L45.4943 143.168L45.4937 143.162L45.4931 143.155L45.4925 143.149L45.4919 143.143L45.4913 143.137L45.4907 143.13L45.4901 143.124L45.4895 143.118L45.4889 143.112L45.4883 143.105L45.4877 143.099L45.4871 143.093L45.4865 143.087L45.4859 143.08L45.4853 143.074L45.4847 143.068L45.4841 143.062L45.4835 143.056L45.4829 143.049L45.4823 143.043L45.4817 143.037L45.4811 143.031L45.4805 143.025L45.4799 143.019L45.4793 143.012L45.4787 143.006L45.4782 143L45.4776 142.994L45.477 142.988L45.4764 142.982L45.4758 142.976L45.4752 142.97L45.4746 142.964L45.474 142.958L45.4735 142.952L45.4729 142.946L45.4723 142.939L45.4717 142.933L45.4711 142.927L45.4706 142.921L45.47 142.915L45.4694 142.909L45.4688 142.903L45.4683 142.898L45.4677 142.892L45.4671 142.886L45.4665 142.88L45.466 142.874L45.4654 142.868L45.4648 142.862L45.4643 142.856L45.4637 142.85L45.4631 142.844L45.4626 142.838L45.462 142.833L45.4614 142.827L45.4609 142.821L45.4603 142.815L45.4597 142.809L45.4592 142.803L45.4586 142.798L45.4581 142.792L45.4575 142.786L45.457 142.78L45.4564 142.775L45.4559 142.769L45.4553 142.763L45.4548 142.757L45.4542 142.752L45.4537 142.746L45.4531 142.74L45.4526 142.735L45.452 142.729L45.4515 142.723L45.4509 142.718L45.4504 142.712L45.4499 142.707L45.4493 142.701L45.4488 142.696L45.4483 142.69L45.4477 142.684L45.4472 142.679L45.4467 142.673L45.4461 142.668L45.4456 142.662L45.4451 142.657L45.4446 142.652L45.444 142.646L45.4435 142.641L45.443 142.635L45.4425 142.63L45.4419 142.625L45.4414 142.619L45.4409 142.614L45.4404 142.609L45.4399 142.603L45.4394 142.598L45.4389 142.593L45.4384 142.587L45.4379 142.582L45.4374 142.577L45.4369 142.572L45.4364 142.566L45.4359 142.561L45.4354 142.556L45.4349 142.551L45.4344 142.546L45.4339 142.541L45.4334 142.536L45.4329 142.531L45.4324 142.525L45.4319 142.52L45.4314 142.515L45.4309 142.51L45.4305 142.505L45.43 142.5L45.4295 142.495L45.429 142.49L45.4286 142.486L45.4281 142.481L45.4276 142.476L45.4271 142.471L45.4267 142.466L45.4262 142.461L45.4257 142.456L45.4257 142.455C45.4257 142.455 45.4255 142.451 45.4248 142.436C45.4236 142.412 45.421 142.362 45.4159 142.263C45.4084 142.115 45.3929 141.815 45.349 141.478C45.2675 140.853 45.0234 139.509 43.9675 138.281C43.4091 137.631 42.8153 137.136 42.4151 136.816C42.1566 136.609 42.0049 136.492 41.8882 136.402L41.8881 136.402L41.8878 136.402C41.7571 136.301 41.6703 136.235 41.5264 136.113C40.7176 135.427 40.221 134.647 39.9604 133.478C40.0279 133.362 40.1161 133.217 40.2395 133.018L40.2894 132.938C40.4598 132.664 40.7174 132.25 40.9439 131.828C42.1121 129.653 43.6415 126.622 43.7137 122.929C43.8013 118.449 42.657 114.388 39.726 110.669C39.4981 110.38 39.2167 110.036 38.9747 109.741L38.9745 109.741L38.9744 109.741C38.8522 109.591 38.7399 109.454 38.6496 109.343C38.3242 108.941 38.0711 108.612 37.8656 108.309C37.4395 107.682 37.4085 107.436 37.4071 107.423C37.2892 106.307 37.4664 105.501 38.2922 104.111C38.7933 103.268 39.3864 102.447 40.137 101.407L40.1371 101.407L40.1487 101.391C40.8596 100.407 41.7214 99.213 42.4775 97.9012C44.1996 94.9134 43.8909 91.8338 43.7237 90.1667C43.7147 90.0768 43.7061 89.991 43.6983 89.9096C43.4301 87.1272 42.3045 84.9455 41.2136 83.2675C40.6892 82.4609 40.1251 81.7013 39.655 81.0682L39.6299 81.0343C39.2525 80.5261 38.93 80.0909 38.6403 79.6728L38.6366 79.619L38.6366 79.6188C38.6314 79.543 38.6251 79.4503 38.6185 79.3602C38.6023 79.1401 38.617 78.6843 38.7142 78.1607C38.7456 77.9916 38.7811 77.8399 38.8173 77.7102C38.8862 77.6735 38.9698 77.6295 39.075 77.5742L39.0896 77.5665L39.0898 77.5664C39.3325 77.4388 39.7329 77.2282 40.1371 76.973C41.6363 76.0264 42.4202 74.3743 42.329 72.7219C39.033 71.6912 35.8619 70.8379 32.9796 70.2654C32.2596 70.7869 31.4231 71.5536 30.7735 72.6784C30.054 73.9241 29.6652 75.3227 29.4555 76.4523C29.2391 77.6189 29.1411 78.8963 29.227 80.0631C29.2294 80.0958 29.2315 80.1418 29.234 80.1998C29.2608 80.8004 29.3449 82.6889 30.4771 84.4193C31.0015 85.2207 31.5605 85.9735 32.0264 86.6007L32.0678 86.6565C32.5709 87.334 32.9694 87.8738 33.3172 88.4088C33.9895 89.4429 34.2597 90.1492 34.3248 90.8244C34.4191 91.8029 34.4562 92.3031 34.429 92.7218C34.4082 93.0425 34.3552 93.1442 34.3207 93.2041C33.8419 94.0348 33.2589 94.855 32.5177 95.8811L32.4099 96.0304L32.4099 96.0304C31.7339 96.9656 30.9201 98.0915 30.1985 99.306C28.6066 101.985 27.6609 104.814 28.0424 108.424C28.2749 110.624 29.2362 112.374 30.0734 113.607C30.6374 114.438 31.397 115.365 31.9138 115.995L31.9139 115.995L31.914 115.995C32.083 116.201 32.226 116.376 32.3277 116.505C33.76 118.323 34.3487 120.194 34.2986 122.756C34.2742 124.004 33.7698 125.292 32.6494 127.378C32.5714 127.523 32.4683 127.69 32.2402 128.058C32.0473 128.368 31.756 128.838 31.4883 129.356C30.9672 130.365 30.2207 132.135 30.5435 134.315C31.0607 137.808 32.5746 140.878 35.4327 143.301C35.6658 143.499 35.8921 143.677 36.0694 143.815L36.0972 143.837L36.0977 143.842L36.0983 143.848L36.0989 143.854L36.0994 143.86L36.1 143.866L36.1006 143.872L36.1012 143.879L36.1018 143.885L36.1024 143.891L36.103 143.897L36.1035 143.903L36.1041 143.909L36.1047 143.915L36.1053 143.921L36.1059 143.927L36.1065 143.933L36.1071 143.94L36.1077 143.946L36.1083 143.952L36.1089 143.958L36.1095 143.964L36.1101 143.97L36.1106 143.977L36.1112 143.983L36.1118 143.989L36.1124 143.995L36.113 144.001L36.1136 144.008L36.1142 144.014L36.1148 144.02L36.1154 144.026L36.116 144.033L36.1166 144.039L36.1172 144.045L36.1179 144.051L36.1185 144.058L36.1191 144.064L36.1197 144.07L36.1203 144.076L36.1209 144.083L36.1215 144.089L36.1221 144.095L36.1227 144.102L36.1233 144.108L36.1239 144.114L36.1245 144.121L36.1251 144.127L36.1257 144.133L36.1264 144.14L36.127 144.146L36.1276 144.152L36.1282 144.159L36.1288 144.165L36.1294 144.171L36.13 144.178L36.1306 144.184L36.1312 144.19L36.1319 144.197L36.1325 144.203L36.1331 144.209L36.1337 144.216L36.1343 144.222L36.1349 144.229L36.1355 144.235L36.1362 144.241L36.1368 144.248L36.1374 144.254L36.138 144.26L36.1386 144.267L36.1392 144.273L36.1398 144.28L36.1405 144.286L36.1411 144.292L36.1417 144.299L36.1423 144.305L36.1429 144.312L36.1435 144.318L36.1442 144.324L36.1448 144.331L36.1454 144.337L36.146 144.344L36.1466 144.35L36.1472 144.356L36.1479 144.363L36.1485 144.369L36.1491 144.376L36.1497 144.382L36.1503 144.388L36.1509 144.395L36.1516 144.401L36.1522 144.408L36.1528 144.414L36.1534 144.42L36.154 144.427L36.1547 144.433L36.1553 144.44L36.1559 144.446L36.1565 144.452L36.1571 144.459L36.1577 144.465L36.1583 144.472L36.159 144.478L36.1596 144.484L36.1602 144.491L36.1608 144.497L36.1614 144.503L36.162 144.51L36.1627 144.516L36.1633 144.523L36.1639 144.529L36.1645 144.535L36.1651 144.542L36.1657 144.548L36.1663 144.554L36.1669 144.561L36.1676 144.567L36.1682 144.574L36.1688 144.58L36.1694 144.586L36.17 144.593L36.1706 144.599L36.1712 144.605L36.1718 144.612L36.1724 144.618L36.1731 144.624L36.1737 144.63L36.1743 144.637L36.1749 144.643L36.1755 144.649L36.1761 144.656L36.1767 144.662L36.1773 144.668L36.1779 144.675L36.1785 144.681L36.1791 144.687L36.1797 144.693L36.1803 144.7L36.1809 144.706L36.1815 144.712L36.1821 144.718L36.1827 144.725L36.1833 144.731L36.1839 144.737L36.1845 144.743L36.1851 144.749L36.1857 144.756L36.1863 144.762L36.1869 144.768L36.1875 144.774L36.1881 144.78L36.1887 144.787L36.1893 144.793L36.1899 144.799L36.1905 144.805L36.1911 144.811L36.1917 144.817L36.1923 144.823L36.1928 144.83L36.1934 144.836L36.194 144.842L36.1946 144.848L36.1952 144.854L36.1958 144.86L36.1964 144.866L36.1969 144.872L36.1975 144.878L36.1981 144.884L36.1987 144.89L36.1993 144.896L36.1999 144.902L36.2004 144.908L36.201 144.914L36.2016 144.92L36.2022 144.926L36.2027 144.932L36.2033 144.938L36.2039 144.944L36.2045 144.95L36.205 144.956L36.2056 144.962L36.2062 144.968L36.2067 144.974L36.2073 144.979L36.2079 144.985L36.2084 144.991L36.209 144.997L36.2096 145.003L36.2101 145.009L36.2107 145.015L36.2112 145.02L36.2118 145.026L36.2123 145.032L36.2129 145.038L36.2135 145.043L36.214 145.049L36.2146 145.055L36.2151 145.061L36.2157 145.066L36.2162 145.072L36.2168 145.078L36.2173 145.083L36.2179 145.089L36.2184 145.095L36.2189 145.1L36.2195 145.106L36.22 145.112L36.2206 145.117L36.2211 145.123L36.2216 145.128L36.2222 145.134L36.2227 145.139L36.2232 145.145L36.2238 145.15L36.2243 145.156L36.2248 145.161L36.2254 145.167L36.2259 145.172L36.2264 145.178L36.2269 145.183L36.2274 145.189L36.228 145.194L36.2285 145.199L36.229 145.205L36.2295 145.21L36.23 145.215L36.2305 145.221L36.2311 145.226L36.2316 145.231L36.2321 145.237L36.2326 145.242L36.2331 145.247L36.2336 145.252L36.2341 145.257L36.2346 145.263L36.2351 145.268L36.2356 145.273L36.2361 145.278L36.2366 145.283L36.2371 145.288L36.2376 145.293L36.238 145.299L36.2385 145.304L36.239 145.309L36.2395 145.314L36.24 145.319L36.2405 145.324L36.2409 145.329L36.2414 145.334L36.2419 145.338L36.2424 145.343L36.2428 145.348L36.2433 145.353L36.2438 145.358L36.2442 145.363L36.2447 145.368L36.2452 145.372L36.2456 145.377L36.2461 145.382L36.2465 145.387L36.247 145.392L36.2475 145.396L36.2479 145.401L36.2484 145.406L36.2488 145.41L36.2493 145.415L36.2497 145.419L36.2501 145.424L36.2506 145.429L36.251 145.433L36.2515 145.438L36.2519 145.442L36.2523 145.447L36.2528 145.451L36.2532 145.456L36.2536 145.46L36.254 145.464L36.2545 145.469L36.2549 145.473L36.2553 145.478L36.2557 145.482L36.2561 145.486L36.2565 145.49L36.257 145.495L36.2574 145.499L36.2578 145.503L36.2582 145.507L36.2586 145.512L36.259 145.516L36.2594 145.52L36.2598 145.524L36.2602 145.528L36.2605 145.532L36.2609 145.536L36.2613 145.54L36.2617 145.544L36.2621 145.548L36.2625 145.552L36.2628 145.556L36.2632 145.56L36.2636 145.564L36.264 145.568L36.2643 145.571L36.2647 145.575L36.2651 145.579L36.2654 145.583L36.2658 145.586L36.2661 145.59L36.2665 145.594L36.2668 145.597L36.2672 145.601L36.2675 145.605L36.2679 145.608L36.2682 145.612L36.2686 145.615L36.2689 145.619L36.2692 145.622L36.2696 145.626L36.2699 145.629L36.2702 145.633L36.2706 145.636L36.2709 145.639L36.2712 145.643L36.2715 145.646L36.2718 145.649L36.2722 145.652L36.2725 145.656L36.2728 145.659L36.2731 145.662L36.2734 145.665L36.2737 145.668L36.274 145.671L36.2743 145.674L36.2746 145.677L36.2748 145.68L36.2751 145.683L36.2754 145.686L36.2757 145.689L36.276 145.692L36.2763 145.695L36.2765 145.698L36.2768 145.701L36.2771 145.703L36.2773 145.706L36.2776 145.709L36.2779 145.712L36.2781 145.714L36.2784 145.717L36.2786 145.72L36.2789 145.722L36.2791 145.725L36.2794 145.727L36.2796 145.73L36.2798 145.732L36.2801 145.735L36.2803 145.737L36.2805 145.739L36.2808 145.742L36.281 145.744L36.2812 145.746L36.2814 145.749L36.2816 145.751L36.2818 145.753L36.2821 145.755L36.2823 145.757L36.2825 145.759L36.2827 145.761L36.2829 145.764L36.283 145.766L36.2832 145.768L36.2834 145.769L36.2836 145.771L36.2838 145.773L36.284 145.775L36.2841 145.777L36.2843 145.779L36.2845 145.78L36.2847 145.782L36.2848 145.784L36.285 145.786L36.2851 145.787L36.2853 145.789L36.2854 145.79L36.2856 145.792L36.2857 145.793L36.2859 145.795L36.286 145.796L36.2861 145.798L36.2863 145.799L36.2864 145.8L36.2865 145.802L36.2867 145.803L36.2868 145.804L36.2869 145.805L36.287 145.807L36.2871 145.808L36.2872 145.809L36.2873 145.81L36.2874 145.811L36.2875 145.812L36.2876 145.813L36.2877 145.814L36.2878 145.815L36.2879 145.815L36.2879 145.816L36.288 145.817L36.2881 145.818L36.2882 145.818L36.2882 145.819L36.2883 145.82L36.2883 145.82L36.2884 145.821L36.2884 145.822L36.2885 145.822L36.2885 145.822L36.2886 145.823L36.2886 145.823L36.2886 145.824L36.2887 145.824L36.2887 145.824L36.2887 145.824L36.2887 145.825L36.2888 145.825L36.2888 145.825L36.2888 145.825L36.2888 145.825L40.9755 145.368L36.2888 145.825C36.3713 146.682 36.6785 147.462 37.1463 148.114C38.7012 148.113 40.2731 148.017 41.8565 147.822C42.7523 147.712 43.9232 147.512 45.2918 147.246ZM38.4906 77.8968C38.4906 77.8968 38.4926 77.8953 38.4971 77.8923L38.4906 77.8968ZM39.7981 133.791C39.7977 133.791 39.8001 133.784 39.8064 133.769C39.8015 133.783 39.7984 133.79 39.7981 133.791Z" fill="white"/>
</svg>
