<svg width="271" height="284" viewBox="0 0 271 284" fill="none" xmlns="http://www.w3.org/2000/svg">
<path d="M131.259 65.1643C127.393 74.8832 128.71 97.8551 128.71 97.8551C128.71 97.8551 100.384 62.3735 89.4316 60.3524C81.0347 58.8029 75.2596 61.8348 68.7009 67.3022C59.483 74.9864 53.5211 84.4718 54.6384 96.4204C55.8373 109.241 63.7927 120.033 75.9817 124.183C81.897 126.197 104.594 130.554 104.594 130.554C104.594 130.554 52.671 156.5 43.0987 180.283C38.546 191.595 33.568 200.029 38.5255 211.169C44.4994 224.593 57.7302 228.244 72.406 227.53C88.7353 226.736 106.731 203.566 106.731 203.566C106.731 203.566 98.4068 235.889 110.358 249.167C119.345 259.153 129.438 264.464 142.515 261.387C154.565 258.552 158.861 249.88 165.203 239.249C178.603 216.781 160.279 157.445 160.279 157.445C160.279 157.445 178.103 172.536 183.661 176.182C195.69 184.073 206.294 185.56 218.576 178.07C228.888 171.781 235.615 159.988 235.622 147.91C235.63 135.983 231.963 128.382 220.928 123.854C212.314 120.319 174.331 119.886 174.331 119.886C174.331 119.886 189.96 105.511 195.666 96.267C202.927 84.5014 208.727 74.1571 202.679 61.1845C197.547 50.1765 192.143 46.1677 181.408 40.9842C171.823 36.3559 161.802 34.9331 152.06 39.2222C138.257 45.2998 136.766 51.3212 131.259 65.1643Z" fill="#CF7C38"/>
<path d="M143.77 118.254C141.983 119.568 140.768 121.325 139.63 123.221C139.144 124.031 139.716 124.42 140.249 125.025C140.757 125.601 141.783 124.83 142.331 124.581C143.352 124.118 143.72 123.55 144.178 122.603C144.827 121.258 144.125 119.93 142.774 119.278C142.322 119.06 141.145 119.819 140.828 120.219C140.282 120.911 139.976 121.956 139.595 122.745C138.906 124.171 141.017 125.768 142.059 126.442C143.79 127.562 144.856 125.353 145.466 124.089C146.277 122.409 146.31 121.699 145.814 119.994C145.365 118.45 143.98 116.881 142.473 117.823C141.132 118.662 137.615 124.06 140.028 125.225C140.511 125.458 140.885 125.928 141.455 126.164C141.971 126.379 143.101 125.963 143.661 125.865C145.272 125.581 146.631 123.754 147.311 122.347C148.29 120.319 144.743 117.671 142.94 118.299C141.799 118.697 141.392 118.715 140.52 119.82C139.743 120.803 139.667 122.195 140.403 123.149" stroke="white" stroke-width="7.7" stroke-linecap="round"/>
<path d="M125.836 155.99C124.05 157.303 122.834 159.061 121.696 160.957C121.21 161.766 121.782 162.155 122.316 162.761C122.823 163.336 123.85 162.565 124.397 162.317C125.418 161.853 125.787 161.286 126.244 160.339C126.894 158.993 126.191 157.666 124.84 157.013C124.389 156.795 123.211 157.554 122.895 157.955C122.349 158.646 122.042 159.692 121.661 160.48C120.973 161.907 123.083 163.503 124.125 164.178C125.856 165.298 126.922 163.088 127.533 161.825C128.344 160.145 128.376 159.434 127.88 157.729C127.432 156.186 126.047 154.616 124.54 155.559C123.199 156.397 119.682 161.795 122.094 162.96C122.577 163.193 122.952 163.663 123.521 163.9C124.037 164.115 125.168 163.699 125.728 163.6C127.339 163.317 128.698 161.49 129.377 160.082C130.357 158.054 126.809 155.406 125.006 156.035C123.865 156.433 123.459 156.451 122.586 157.555C121.81 158.539 121.733 159.93 122.469 160.884" stroke="white" stroke-width="7.7" stroke-linecap="round"/>
<path d="M134.908 137.204C133.121 138.518 131.905 140.276 130.767 142.171C130.281 142.981 130.854 143.37 131.387 143.975C131.894 144.551 132.921 143.78 133.468 143.531C134.489 143.068 134.858 142.501 135.315 141.553C135.965 140.208 135.263 138.881 133.912 138.228C133.46 138.01 132.283 138.769 131.966 139.17C131.42 139.861 131.113 140.907 130.733 141.695C130.044 143.121 132.154 144.718 133.197 145.393C134.928 146.513 135.994 144.303 136.604 143.039C137.415 141.36 137.447 140.649 136.952 138.944C136.503 137.401 135.118 135.831 133.611 136.773C132.27 137.612 128.753 143.01 131.165 144.175C131.649 144.408 132.023 144.878 132.592 145.115C133.108 145.329 134.239 144.914 134.799 144.815C136.41 144.532 137.769 142.704 138.449 141.297C139.428 139.269 135.88 136.621 134.078 137.25C132.937 137.647 132.53 137.666 131.658 138.77C130.881 139.753 130.805 141.145 131.541 142.099" stroke="white" stroke-width="7.7" stroke-linecap="round"/>
<path d="M149.622 75.1121C149.5 75.444 149.65 75.7289 149.694 76.0551C149.82 76.9966 149.993 77.8458 150.227 78.7736C150.812 81.0932 151.418 83.3416 152.273 85.5777C152.511 86.2 152.652 86.8674 152.907 87.4806C153.247 88.2965 153.912 88.975 154.471 89.6421C155.198 90.5091 156.18 91.1536 157.18 91.6757C158.13 92.1715 159.156 92.7625 160.21 92.9852C161.732 93.3064 163.404 93.4726 164.961 93.4626C166.691 93.4514 168.423 93.0775 169.987 92.3225C171.089 91.7905 172.264 91.4989 173.212 90.694C174.519 89.5845 175.534 88.1403 176.787 86.9779C177.318 86.4849 177.813 85.9484 178.278 85.3909" stroke="white" stroke-width="6" stroke-linecap="round"/>
<path d="M159.903 62.3869C159.495 63.2327 160.645 64.0664 161.185 64.6467C161.723 65.2243 162.644 64.9756 163.117 64.4077C163.539 63.9016 163.986 63.0092 163.721 62.3845C163.495 61.8541 162.629 61.1439 162.021 61.0656C160.762 60.9035 160.006 62.0543 159.997 63.2234C159.988 64.4699 160.339 64.7069 161.429 65.2333" stroke="white" stroke-width="6" stroke-linecap="round"/>
<path d="M175.334 69.8386C174.926 70.6844 176.075 71.5181 176.616 72.0984C177.154 72.676 178.074 72.4273 178.548 71.8594C178.97 71.3533 179.417 70.4609 179.151 69.8362C178.926 69.3058 178.059 68.5956 177.452 68.5173C176.193 68.3552 175.437 69.5059 175.428 70.6751C175.419 71.9216 175.77 72.1586 176.86 72.685" stroke="white" stroke-width="6" stroke-linecap="round"/>
<path fill-rule="evenodd" clip-rule="evenodd" d="M206.809 121.267L206.807 121.269L206.806 121.273L206.804 121.276L206.802 121.28L206.8 121.283L206.799 121.287L206.797 121.29L206.795 121.294L206.794 121.297L206.792 121.301L206.79 121.304L206.789 121.308L206.787 121.312L206.785 121.315L206.783 121.319L206.782 121.322L206.78 121.326L206.778 121.329L206.777 121.333L206.775 121.336L206.773 121.34L206.772 121.343L206.77 121.347L206.768 121.35L206.766 121.354L206.765 121.357L206.763 121.361L206.761 121.364L206.76 121.368L206.758 121.372L206.756 121.375L206.754 121.379L206.753 121.382L206.751 121.386L206.749 121.389L206.748 121.393L206.746 121.396L206.744 121.4L206.743 121.403L206.741 121.407L206.739 121.41L206.737 121.414L206.736 121.417L206.734 121.421L206.732 121.425L206.731 121.428L206.729 121.432L206.727 121.435L206.725 121.439L206.724 121.442L206.722 121.446L206.72 121.449L206.719 121.453L206.717 121.456L206.715 121.46L206.714 121.463L206.712 121.467L206.71 121.47L206.708 121.474L206.707 121.477L206.705 121.481L206.703 121.485L206.702 121.488L206.7 121.492L206.698 121.495L206.697 121.499L206.695 121.502L206.693 121.506L206.691 121.509L206.69 121.513L206.688 121.516L206.686 121.52L206.685 121.523L206.683 121.527L206.681 121.53L206.679 121.534L206.678 121.537L206.676 121.541L206.674 121.545L206.673 121.548L206.671 121.552L206.669 121.555L206.668 121.559L206.666 121.562L206.664 121.566L206.662 121.569L206.661 121.573L206.659 121.576L206.657 121.58L206.656 121.583L206.654 121.587L206.652 121.59L206.65 121.594L206.649 121.597L206.647 121.601L206.645 121.605L206.644 121.608L206.642 121.612L206.64 121.615L206.639 121.619L206.637 121.622L206.635 121.626L206.633 121.629L206.632 121.633L206.63 121.636L206.628 121.64L206.627 121.643L206.625 121.647L206.623 121.65L206.622 121.654L206.62 121.657L206.618 121.661L206.616 121.665L206.615 121.668L206.613 121.672L206.611 121.675L206.61 121.679L206.608 121.682L206.606 121.686L206.604 121.689L206.603 121.693L206.601 121.696L206.599 121.7L206.598 121.703L206.596 121.707L206.594 121.71L206.593 121.714L206.591 121.717L206.589 121.721L206.587 121.725L206.586 121.728L206.584 121.732L206.582 121.735L206.581 121.739L206.579 121.742L206.577 121.746L206.576 121.749L206.574 121.753L206.572 121.756L206.57 121.76L206.569 121.763L206.567 121.767L206.565 121.77L206.565 121.77C206.565 121.77 206.559 121.782 206.527 121.841C206.518 121.858 206.506 121.88 206.491 121.907C206.434 122.013 206.317 122.229 206.205 122.483C205.996 122.956 205.596 124.002 205.816 125.312C205.932 126.002 206.139 126.599 206.283 126.992C206.376 127.246 206.433 127.391 206.477 127.503C206.525 127.628 206.558 127.711 206.607 127.857C206.879 128.668 206.897 129.408 206.595 130.313C206.501 130.364 206.382 130.425 206.219 130.507L206.15 130.541C205.916 130.659 205.56 130.837 205.223 131.034C203.49 132.047 201.134 133.504 199.518 136.047C197.56 139.127 196.642 142.443 197.119 146.278C197.157 146.576 197.208 146.934 197.253 147.242C197.275 147.398 197.295 147.54 197.311 147.656C197.369 148.073 197.407 148.408 197.422 148.704C197.438 148.997 197.428 149.196 197.41 149.33C197.401 149.393 197.391 149.435 197.384 149.46C197.38 149.473 197.377 149.481 197.376 149.486C197.374 149.491 197.373 149.494 197.373 149.494C196.989 150.306 196.533 150.786 195.372 151.398C194.667 151.77 193.907 152.087 192.943 152.49L192.929 152.496C192.017 152.877 190.91 153.34 189.827 153.929C187.352 155.277 186.262 157.557 185.674 158.786L185.674 158.786C185.642 158.852 185.612 158.916 185.583 158.975C184.591 161.03 184.456 163.031 184.51 164.661C184.535 165.445 184.609 166.213 184.67 166.852L184.673 166.886C184.722 167.395 184.763 167.83 184.788 168.24L184.774 168.267C184.746 168.322 184.711 168.389 184.677 168.455C184.598 168.61 184.398 168.917 184.111 169.237C184.021 169.337 183.935 169.425 183.858 169.497C183.794 169.493 183.718 169.488 183.622 169.482L183.608 169.481L183.608 169.481C183.385 169.467 183.017 169.443 182.627 169.448C180.672 169.475 179.077 170.955 178.856 172.846C180.524 174.129 181.965 175.189 182.988 175.86C183.679 176.313 184.365 176.745 185.047 177.156C185.716 177.077 186.509 176.886 187.319 176.446C188.352 175.885 189.217 175.076 189.842 174.379C190.488 173.659 191.098 172.811 191.533 171.96C191.545 171.937 191.563 171.904 191.586 171.863C191.82 171.437 192.565 170.079 192.505 168.385C192.477 167.605 192.404 166.844 192.343 166.211L192.338 166.154C192.273 165.47 192.222 164.927 192.205 164.409C192.173 163.407 192.282 162.81 192.517 162.324C192.865 161.604 193.049 161.245 193.242 160.969C193.388 160.76 193.464 160.716 193.509 160.692C194.193 160.319 194.946 159.998 195.897 159.601L196.035 159.543C196.902 159.181 197.947 158.745 198.964 158.209C201.21 157.024 203.074 155.457 204.337 152.778C205.109 151.142 205.176 149.51 205.112 148.297C205.068 147.479 204.929 146.511 204.834 145.854L204.834 145.854C204.803 145.639 204.777 145.458 204.76 145.326C204.528 143.464 204.905 141.925 206.016 140.177C206.554 139.331 207.443 138.655 209.107 137.683C209.222 137.616 209.364 137.544 209.679 137.386C209.945 137.252 210.347 137.049 210.754 136.803C211.545 136.324 212.823 135.407 213.524 133.743C214.642 131.088 214.88 128.305 213.906 125.404C213.826 125.168 213.743 124.948 213.678 124.777L213.672 124.761L213.673 124.759L213.675 124.755L213.676 124.752L213.678 124.748L213.68 124.745L213.681 124.741L213.683 124.738L213.685 124.734L213.687 124.731L213.688 124.727L213.69 124.724L213.692 124.72L213.693 124.716L213.695 124.713L213.697 124.709L213.699 124.706L213.7 124.702L213.702 124.699L213.704 124.695L213.705 124.692L213.707 124.688L213.709 124.685L213.71 124.681L213.712 124.678L213.714 124.674L213.716 124.671L213.717 124.667L213.719 124.664L213.721 124.66L213.722 124.656L213.724 124.653L213.726 124.649L213.728 124.646L213.729 124.642L213.731 124.639L213.733 124.635L213.734 124.632L213.736 124.628L213.738 124.625L213.739 124.621L213.741 124.618L213.743 124.614L213.745 124.611L213.746 124.607L213.748 124.604L213.75 124.6L213.751 124.596L213.753 124.593L213.755 124.589L213.756 124.586L213.758 124.582L213.76 124.579L213.762 124.575L213.763 124.572L213.765 124.568L213.767 124.565L213.768 124.561L213.77 124.558L213.772 124.554L213.774 124.551L213.775 124.547L213.777 124.543L213.779 124.54L213.78 124.536L213.782 124.533L213.784 124.529L213.785 124.526L213.787 124.522L213.789 124.519L213.791 124.515L213.792 124.512L213.794 124.508L213.796 124.505L213.797 124.501L213.799 124.498L213.801 124.494L213.803 124.491L213.804 124.487L213.806 124.483L213.808 124.48L213.809 124.476L213.811 124.473L213.813 124.469L213.814 124.466L213.816 124.462L213.818 124.459L213.82 124.455L213.821 124.452L213.823 124.448L213.825 124.445L213.826 124.441L213.828 124.438L213.83 124.434L213.831 124.431L213.833 124.427L213.835 124.423L213.837 124.42L213.838 124.416L213.84 124.413L213.842 124.409L213.843 124.406L213.845 124.402L213.847 124.399L213.849 124.395L213.85 124.392L213.852 124.388L213.854 124.385L213.855 124.381L213.857 124.378L213.859 124.374L213.86 124.371L213.862 124.367L213.864 124.363L213.866 124.36L213.867 124.356L213.869 124.353L213.871 124.349L213.872 124.346L213.874 124.342L213.876 124.339L213.878 124.335L213.879 124.332L213.881 124.328L213.883 124.325L213.884 124.321L213.886 124.318L213.888 124.314L213.889 124.311L213.891 124.307L213.893 124.303L213.895 124.3L213.896 124.296L213.898 124.293L213.9 124.289L213.901 124.286L213.903 124.282L213.905 124.279L213.906 124.275L213.908 124.272L213.91 124.268L213.912 124.265L213.913 124.261L213.915 124.258L213.917 124.254L213.918 124.251L213.92 124.247L213.922 124.243L213.924 124.24L213.925 124.236L213.927 124.233L213.929 124.229L213.93 124.226L213.932 124.222L213.934 124.219L213.935 124.215L213.937 124.212L213.939 124.208L213.941 124.205L213.942 124.201L213.944 124.198L213.946 124.194L213.947 124.191L213.949 124.187L213.951 124.183L213.953 124.18L213.954 124.176L213.956 124.173L213.958 124.169L213.959 124.166L213.961 124.162L213.963 124.159L213.964 124.155L213.966 124.152L213.968 124.148L213.97 124.145L213.971 124.141L213.973 124.138L213.975 124.134L213.976 124.131L213.978 124.127L213.98 124.123L213.981 124.12L213.983 124.116L213.985 124.113L213.987 124.109L213.988 124.106L213.99 124.102L213.992 124.099L213.993 124.095L213.995 124.092L213.997 124.088L213.999 124.085L214 124.081L214.002 124.078L214.004 124.074L214.005 124.071L214.007 124.067L214.009 124.063L214.01 124.06L214.012 124.056L214.014 124.053L214.016 124.049L214.017 124.046L214.019 124.042L214.021 124.039L214.022 124.035L214.024 124.032L214.026 124.028L214.028 124.025L214.029 124.021L214.031 124.018L214.033 124.014L214.034 124.011L214.036 124.007L214.038 124.003L214.039 124L214.041 123.996L214.043 123.993L214.045 123.989L214.046 123.986L214.048 123.982L214.05 123.979L214.051 123.975L214.053 123.972L214.055 123.968L214.056 123.965L214.058 123.961L214.06 123.958L214.062 123.954L214.063 123.951L214.065 123.947L214.067 123.943L214.068 123.94L214.07 123.936L214.072 123.933L214.074 123.929L214.075 123.926L214.077 123.922L214.079 123.919L214.08 123.915L214.082 123.912L214.084 123.908L214.085 123.905L214.087 123.901L214.089 123.898L214.091 123.894L214.092 123.891L214.094 123.887L214.096 123.883L214.097 123.88L214.099 123.876L214.101 123.873L214.103 123.869L214.104 123.866L214.106 123.862L214.108 123.859L214.109 123.855L214.111 123.852L214.113 123.848L214.114 123.845L214.116 123.841L214.118 123.838L214.12 123.834L214.121 123.831L214.123 123.827L214.125 123.823L214.126 123.82L214.128 123.816L214.13 123.813L214.131 123.809L214.133 123.806L214.135 123.802L214.137 123.799L214.138 123.795L214.14 123.792L214.142 123.788L214.143 123.785L214.145 123.781L214.147 123.778L214.149 123.774L214.15 123.77L214.152 123.767L214.154 123.763L214.155 123.76L214.157 123.756L214.159 123.753L214.16 123.749L214.162 123.746L214.164 123.742L214.166 123.739L214.167 123.735L214.169 123.732L214.171 123.728L214.172 123.725L214.174 123.721L214.176 123.718L214.178 123.714L214.179 123.71L214.181 123.707L214.183 123.703L214.184 123.7L214.186 123.696L214.188 123.693L214.189 123.689L214.191 123.686L214.193 123.682L214.195 123.679L214.196 123.675L214.198 123.672L214.2 123.668L214.201 123.665L214.203 123.661L214.205 123.658L214.206 123.654L214.208 123.65L214.21 123.647L214.212 123.643L214.213 123.64L214.215 123.636L214.217 123.633L214.218 123.629L214.22 123.626L214.222 123.622L214.224 123.619L214.225 123.615L214.227 123.612L214.229 123.608L214.23 123.605L214.232 123.601L214.234 123.598L214.235 123.594L214.237 123.59L214.239 123.587L214.241 123.583L214.242 123.58L214.244 123.576L214.246 123.573L214.247 123.569L214.249 123.566L214.251 123.562L214.253 123.559L214.254 123.555L214.256 123.552L214.258 123.548L214.259 123.545L214.261 123.541L214.263 123.538L214.264 123.534L214.266 123.53L214.268 123.527L214.27 123.523L214.271 123.52L214.273 123.516L214.275 123.513L214.276 123.509L214.278 123.506L214.28 123.502L214.281 123.499L214.283 123.495L214.285 123.492L214.287 123.488L214.288 123.485L214.29 123.481L214.292 123.478L214.293 123.474L214.295 123.47L214.297 123.467L214.299 123.463L214.3 123.46L214.302 123.456L214.304 123.453L214.305 123.449L214.307 123.446L214.309 123.442L214.31 123.439L214.312 123.435L214.314 123.432L214.316 123.428L214.317 123.425L214.319 123.421L214.321 123.418L214.322 123.414L214.324 123.41L214.326 123.407L214.328 123.403L214.329 123.4L214.331 123.396L214.333 123.393L214.334 123.389L214.336 123.386L214.338 123.382L214.339 123.379L214.341 123.375L214.343 123.372L214.345 123.368L214.346 123.365L214.348 123.361L214.35 123.358L214.351 123.354L214.353 123.35L214.355 123.347L214.356 123.343L214.358 123.34L214.36 123.336L214.362 123.333L214.363 123.329L214.365 123.326L214.367 123.322L214.368 123.319L214.37 123.315C214.551 122.942 214.665 122.553 214.719 122.163C212.39 121.786 209.678 121.494 206.809 121.267ZM206.85 130.16C206.85 130.16 206.845 130.164 206.834 130.172C206.844 130.164 206.85 130.16 206.85 130.16Z" fill="white"/>
<path fill-rule="evenodd" clip-rule="evenodd" d="M170.008 219.365C169.333 218.786 168.456 218.437 167.497 218.438L167.493 218.438L167.488 218.438L167.484 218.438L167.48 218.438L167.476 218.438L167.472 218.438L167.467 218.438L167.463 218.438L167.459 218.438L167.455 218.438L167.451 218.438L167.446 218.438L167.442 218.438L167.438 218.438L167.434 218.438L167.43 218.438L167.425 218.438L167.421 218.438L167.417 218.438L167.413 218.438L167.409 218.438L167.404 218.438L167.4 218.438L167.396 218.438L167.392 218.438L167.388 218.438L167.383 218.438L167.379 218.438L167.375 218.438L167.371 218.438L167.367 218.438L167.362 218.438L167.358 218.438L167.354 218.438L167.35 218.438L167.346 218.438L167.341 218.439L167.337 218.439L167.333 218.439L167.329 218.439L167.325 218.439L167.32 218.439L167.316 218.439L167.312 218.439L167.308 218.439L167.304 218.439L167.299 218.439L167.295 218.439L167.291 218.439L167.287 218.439L167.283 218.439L167.278 218.439L167.274 218.439L167.27 218.439L167.266 218.439L167.262 218.439L167.257 218.439L167.253 218.439L167.249 218.439L167.245 218.439L167.241 218.439L167.236 218.439L167.232 218.439L167.228 218.439L167.224 218.439L167.22 218.439L167.215 218.439L167.211 218.439L167.207 218.439L167.203 218.439L167.199 218.439L167.194 218.439L167.19 218.439L167.186 218.439L167.182 218.439L167.178 218.439L167.174 218.439L167.169 218.439L167.165 218.439L167.161 218.439L167.157 218.439L167.153 218.439L167.148 218.439L167.144 218.439L167.14 218.439L167.136 218.439L167.132 218.439L167.127 218.439L167.123 218.439L167.119 218.439L167.115 218.439L167.111 218.439L167.106 218.439L167.102 218.439L167.098 218.439L167.094 218.439L167.09 218.439L167.085 218.439L167.081 218.439L167.077 218.439L167.073 218.439L167.069 218.439L167.064 218.439L167.06 218.439L167.056 218.439L167.052 218.439L167.048 218.439L167.043 218.439L167.039 218.439L167.035 218.439L167.031 218.439L167.027 218.439L167.022 218.439L167.018 218.439L167.014 218.439L167.01 218.439L167.006 218.439L167.001 218.439L166.997 218.439L166.993 218.439L166.989 218.439L166.985 218.439L166.98 218.439L166.976 218.439L166.972 218.439L166.968 218.439L166.964 218.439L166.959 218.439L166.955 218.439L166.951 218.439L166.947 218.439L166.943 218.439L166.938 218.439L166.934 218.439L166.93 218.439L166.926 218.439L166.922 218.439L166.917 218.439L166.913 218.439L166.909 218.439L166.905 218.439L166.901 218.439L166.896 218.439L166.892 218.439L166.888 218.439L166.884 218.439L166.88 218.439L166.875 218.439L166.871 218.439L166.867 218.439L166.863 218.439L166.859 218.439L166.854 218.439L166.85 218.439L166.846 218.439L166.842 218.439L166.838 218.439L166.833 218.439L166.829 218.439L166.825 218.439L166.821 218.439L166.817 218.439L166.812 218.439L166.808 218.439L166.804 218.439L166.8 218.439L166.796 218.439L166.791 218.439L166.787 218.439L166.783 218.439L166.779 218.439L166.775 218.439L166.771 218.439L166.766 218.439L166.762 218.439L166.758 218.439L166.754 218.439L166.75 218.439L166.745 218.439L166.741 218.439L166.737 218.439L166.733 218.439L166.729 218.439L166.724 218.439L166.72 218.439L166.716 218.439L166.712 218.439L166.708 218.439L166.703 218.439L166.699 218.439L166.695 218.439L166.691 218.439L166.687 218.439L166.682 218.439L166.678 218.44L166.674 218.44L166.67 218.44L166.666 218.44L166.661 218.44L166.657 218.44L166.653 218.44L166.649 218.44L166.645 218.44L166.64 218.44L166.636 218.44L166.632 218.44L166.628 218.44L166.624 218.44L166.619 218.44L166.615 218.44L166.611 218.44L166.607 218.44L166.603 218.44L166.598 218.44L166.594 218.44L166.59 218.44L166.586 218.44L166.582 218.44L166.577 218.44L166.573 218.44L166.569 218.44L166.565 218.44L166.561 218.44L166.556 218.44L166.552 218.44L166.548 218.44L166.544 218.44L166.54 218.44L166.535 218.44L166.531 218.44L166.527 218.44L166.523 218.44L166.519 218.44L166.514 218.44L166.51 218.44L166.506 218.44L166.502 218.44L166.498 218.44L166.493 218.44L166.489 218.44L166.485 218.44L166.481 218.44L166.477 218.44L166.472 218.44L166.468 218.44L166.464 218.44L166.46 218.44L166.456 218.44L166.451 218.44L166.447 218.44L166.443 218.44L166.439 218.44L166.435 218.44L166.43 218.44L166.426 218.44L166.422 218.44L166.418 218.44L166.414 218.44L166.409 218.44L166.405 218.44L166.401 218.44L166.397 218.44L166.393 218.44L166.388 218.44L166.384 218.44L166.38 218.44L166.376 218.44L166.372 218.44L166.367 218.44L166.363 218.44L166.359 218.44L166.355 218.44L166.351 218.44L166.347 218.44L166.342 218.44L166.338 218.44L166.334 218.44L166.33 218.44L166.326 218.44L166.321 218.44L166.317 218.44L166.313 218.44L166.309 218.44L166.305 218.44L166.3 218.44L166.296 218.44L166.292 218.44L166.288 218.44L166.284 218.44L166.279 218.44L166.275 218.44L166.271 218.44L166.267 218.44L166.263 218.44L166.258 218.44L166.254 218.44L166.25 218.44L166.246 218.44L166.242 218.44L166.237 218.44L166.233 218.44L166.229 218.44L166.225 218.44L166.221 218.44L166.216 218.44L166.212 218.44L166.208 218.44L166.204 218.44L166.2 218.44L166.195 218.44L166.191 218.44L166.187 218.44L166.183 218.44L166.179 218.44L166.174 218.44L166.17 218.44L166.166 218.44L166.162 218.44L166.158 218.44L166.153 218.44L166.149 218.44L166.145 218.44L166.141 218.44L166.137 218.44L166.132 218.44L166.128 218.44L166.124 218.44L166.12 218.44L166.116 218.44L166.111 218.44L166.107 218.44L166.103 218.44L166.099 218.44L166.095 218.44L166.09 218.44L166.086 218.44L166.082 218.44L166.078 218.44L166.074 218.44L166.069 218.44L166.065 218.44L166.061 218.44L166.057 218.44L166.053 218.44L166.048 218.44L166.044 218.44L166.04 218.44L166.036 218.44L166.032 218.44L166.027 218.44L166.023 218.44L166.019 218.44L166.015 218.44L166.011 218.441L166.006 218.441L166.002 218.441L165.998 218.441L165.994 218.441L165.99 218.441L165.985 218.441L165.981 218.441L165.977 218.441L165.973 218.441L165.969 218.441L165.965 218.441L165.96 218.441L165.956 218.441L165.952 218.441L165.948 218.441L165.944 218.441L165.939 218.441L165.935 218.441L165.931 218.441L165.927 218.441L165.923 218.441L165.918 218.441L165.914 218.441L165.91 218.441L165.906 218.441L165.902 218.441L165.897 218.441L165.893 218.441L165.889 218.441L165.885 218.441L165.881 218.441L165.876 218.441L165.872 218.441L165.868 218.441L165.864 218.441L165.86 218.441L165.855 218.441L165.851 218.441L165.847 218.441L165.843 218.441L165.839 218.441L165.834 218.441L165.83 218.441L165.826 218.441L165.822 218.441L165.818 218.441L165.813 218.441L165.809 218.441L165.805 218.441L165.801 218.441L165.797 218.441L165.792 218.441L165.788 218.441L165.784 218.441L165.78 218.441L165.776 218.441L165.771 218.441L165.767 218.441L165.763 218.441L165.759 218.441L165.755 218.441L165.75 218.441L165.746 218.441L165.742 218.441L165.738 218.441L165.734 218.441L165.729 218.441L165.725 218.441L165.721 218.441L165.717 218.441L165.713 218.441L165.708 218.441L165.704 218.441L165.7 218.441L165.696 218.441L165.692 218.441L165.687 218.441L165.683 218.441L165.679 218.441L165.675 218.441L165.671 218.441L165.666 218.441L165.662 218.441L165.658 218.441L165.654 218.441L165.65 218.441L165.645 218.441L165.641 218.441L165.637 218.441L165.633 218.441L165.629 218.441L165.624 218.441L165.62 218.441L165.616 218.441L165.612 218.441L165.608 218.441L165.603 218.441L165.599 218.441L165.595 218.441L165.591 218.441L165.587 218.441L165.582 218.441L165.578 218.441L165.574 218.441L165.57 218.441L165.566 218.441L165.561 218.441L165.557 218.441L165.553 218.441L165.549 218.441L165.545 218.441L165.541 218.441L165.536 218.441L165.532 218.441L165.528 218.441L165.524 218.441L165.52 218.441L165.515 218.441L165.511 218.441L165.507 218.441L165.503 218.441L165.499 218.441L165.494 218.441L165.49 218.441L165.486 218.441L165.482 218.441L165.478 218.441L165.473 218.441L165.469 218.441L165.465 218.441L165.461 218.441L165.457 218.441L165.452 218.441L165.448 218.441L165.444 218.441L165.44 218.441L165.436 218.441L165.431 218.441L165.427 218.441L165.423 218.441L165.419 218.441L165.415 218.441L165.41 218.441L165.406 218.441L165.402 218.441L165.398 218.441L165.394 218.441L165.389 218.441L165.385 218.441L165.381 218.441L165.377 218.441L165.373 218.441L165.368 218.441L165.364 218.441L165.36 218.441L165.356 218.441L165.354 218.441L165.325 218.441C165.298 218.44 165.278 218.439 165.248 218.437L165.17 218.434C165.042 218.428 164.79 218.418 164.508 218.428C163.984 218.446 162.864 218.541 161.773 219.302C161.182 219.714 160.716 220.17 160.408 220.484C160.214 220.682 160.1 220.802 160.012 220.896L160.011 220.896C159.91 221.004 159.841 221.077 159.721 221.193C158.996 221.891 158.197 222.28 157.045 222.402C156.93 222.324 156.789 222.221 156.577 222.062L156.512 222.012C156.288 221.844 155.957 221.594 155.618 221.371C153.831 220.194 151.381 218.673 148.261 218.32C144.45 217.888 140.904 218.526 137.495 220.697C137.227 220.868 136.912 221.078 136.637 221.26L136.637 221.26C136.496 221.354 136.367 221.44 136.26 221.51C135.882 221.757 135.57 221.951 135.281 222.108C134.685 222.431 134.422 222.461 134.343 222.462C133.288 222.473 132.547 222.227 131.381 221.384C130.684 220.881 130.015 220.3 129.182 219.577L129.163 219.561C128.369 218.871 127.415 218.044 126.354 217.299C123.982 215.632 121.372 215.645 119.915 215.653C119.838 215.653 119.764 215.653 119.694 215.654C117.328 215.657 115.391 216.422 113.865 217.21C113.13 217.59 112.431 218.008 111.842 218.36L111.813 218.377C111.316 218.674 110.889 218.929 110.477 219.155L110.404 219.153L110.351 219.152L110.35 219.152C110.284 219.15 110.205 219.148 110.127 219.146C109.906 219.142 109.488 219.087 109.023 218.956C108.829 218.901 108.658 218.842 108.521 218.785C108.488 218.708 108.447 218.61 108.39 218.472L108.385 218.46L108.385 218.46C108.294 218.241 108.148 217.887 107.963 217.526C107.295 216.218 105.981 215.455 104.607 215.428C104.25 218.362 103.976 221.639 103.919 225.015C104.891 225.683 106.009 226.106 106.932 226.366C107.905 226.641 108.979 226.824 109.967 226.845C109.999 226.845 110.042 226.847 110.095 226.85C110.627 226.875 112.188 226.95 113.706 226.159C114.437 225.779 115.13 225.365 115.713 225.017L115.713 225.016L115.763 224.987C116.391 224.612 116.898 224.31 117.399 224.051C118.369 223.55 119.05 223.355 119.706 223.354C120.557 223.352 121.017 223.36 121.405 223.422C121.715 223.471 121.84 223.538 121.928 223.599C122.619 224.085 123.29 224.659 124.116 225.376L124.234 225.479C124.989 226.135 125.89 226.916 126.872 227.626C129.03 229.185 131.344 230.194 134.424 230.162C136.281 230.142 137.829 229.485 138.95 228.877C139.705 228.468 140.55 227.907 141.139 227.515L141.14 227.515C141.337 227.384 141.505 227.273 141.632 227.192C143.382 226.077 145.119 225.713 147.395 225.971C148.547 226.101 149.669 226.673 151.382 227.801C151.51 227.885 151.652 227.992 151.949 228.216C152.203 228.406 152.578 228.689 152.996 228.954C153.811 229.472 155.221 230.218 157.046 230.123C160.049 229.967 162.771 228.946 165.062 226.739C165.249 226.558 165.42 226.382 165.554 226.242L165.65 226.141L165.653 226.141L165.657 226.141L165.661 226.141L165.665 226.141L165.67 226.141L165.674 226.141L165.678 226.141L165.682 226.141L165.686 226.141L165.691 226.141L165.695 226.141L165.699 226.141L165.703 226.141L165.707 226.141L165.712 226.141L165.716 226.141L165.72 226.141L165.724 226.141L165.728 226.141L165.733 226.141L165.737 226.141L165.741 226.141L165.745 226.141L165.749 226.141L165.754 226.141L165.758 226.141L165.762 226.141L165.766 226.141L165.77 226.141L165.775 226.141L165.779 226.141L165.783 226.141L165.787 226.141L165.791 226.141L165.796 226.141L165.8 226.141L165.804 226.141L165.808 226.141L165.812 226.141L165.817 226.141L165.821 226.141L165.825 226.141L165.829 226.141L165.833 226.141L165.838 226.141L165.842 226.141L165.846 226.141L165.85 226.141L165.854 226.141L165.859 226.141L165.863 226.141L165.867 226.141L165.871 226.141L165.875 226.141L165.879 226.141L165.884 226.141L165.888 226.141L165.892 226.141L165.896 226.141L165.9 226.141L165.905 226.141L165.909 226.141L165.913 226.141L165.917 226.141L165.921 226.141L165.926 226.141L165.93 226.141L165.934 226.141L165.938 226.141L165.942 226.141L165.947 226.141L165.951 226.141L165.955 226.141L165.959 226.141L165.963 226.141L165.968 226.141L165.972 226.141L165.976 226.141L165.98 226.141L165.984 226.141L165.989 226.141L165.993 226.141L165.997 226.141L166.001 226.141L166.005 226.141L166.01 226.141L166.014 226.141L166.018 226.14L166.022 226.14L166.026 226.14L166.031 226.14L166.035 226.14L166.039 226.14L166.043 226.14L166.047 226.14L166.052 226.14L166.056 226.14L166.06 226.14L166.064 226.14L166.068 226.14L166.073 226.14L166.077 226.14L166.081 226.14L166.085 226.14L166.089 226.14L166.094 226.14L166.098 226.14L166.102 226.14L166.106 226.14L166.11 226.14L166.115 226.14L166.119 226.14L166.123 226.14L166.127 226.14L166.131 226.14L166.136 226.14L166.14 226.14L166.144 226.14L166.148 226.14L166.152 226.14L166.157 226.14L166.161 226.14L166.165 226.14L166.169 226.14L166.173 226.14L166.178 226.14L166.182 226.14L166.186 226.14L166.19 226.14L166.194 226.14L166.199 226.14L166.203 226.14L166.207 226.14L166.211 226.14L166.215 226.14L166.22 226.14L166.224 226.14L166.228 226.14L166.232 226.14L166.236 226.14L166.241 226.14L166.245 226.14L166.249 226.14L166.253 226.14L166.257 226.14L166.262 226.14L166.266 226.14L166.27 226.14L166.274 226.14L166.278 226.14L166.282 226.14L166.287 226.14L166.291 226.14L166.295 226.14L166.299 226.14L166.303 226.14L166.308 226.14L166.312 226.14L166.316 226.14L166.32 226.14L166.324 226.14L166.329 226.14L166.333 226.14L166.337 226.14L166.341 226.14L166.345 226.14L166.35 226.14L166.354 226.14L166.358 226.14L166.362 226.14L166.366 226.14L166.371 226.14L166.375 226.14L166.379 226.14L166.383 226.14L166.387 226.14L166.392 226.14L166.396 226.14L166.4 226.14L166.404 226.14L166.408 226.14L166.413 226.14L166.417 226.14L166.421 226.14L166.425 226.14L166.429 226.14L166.434 226.14L166.438 226.14L166.442 226.14L166.446 226.14L166.45 226.14L166.455 226.14L166.459 226.14L166.463 226.14L166.467 226.14L166.471 226.14L166.476 226.14L166.48 226.14L166.484 226.14L166.488 226.14L166.492 226.14L166.497 226.14L166.501 226.14L166.505 226.14L166.509 226.14L166.513 226.14L166.518 226.14L166.522 226.14L166.526 226.14L166.53 226.14L166.534 226.14L166.539 226.14L166.543 226.14L166.547 226.14L166.551 226.14L166.555 226.14L166.56 226.14L166.564 226.14L166.568 226.14L166.572 226.14L166.576 226.14L166.581 226.14L166.585 226.14L166.589 226.14L166.593 226.14L166.597 226.14L166.602 226.14L166.606 226.14L166.61 226.14L166.614 226.14L166.618 226.14L166.623 226.14L166.627 226.14L166.631 226.14L166.635 226.14L166.639 226.14L166.644 226.14L166.648 226.14L166.652 226.14L166.656 226.14L166.66 226.14L166.665 226.14L166.669 226.14L166.673 226.14L166.677 226.14L166.681 226.14L166.685 226.139L166.69 226.139L166.694 226.139L166.698 226.139L166.702 226.139L166.706 226.139L166.711 226.139L166.715 226.139L166.719 226.139L166.723 226.139L166.727 226.139L166.732 226.139L166.736 226.139L166.74 226.139L166.744 226.139L166.748 226.139L166.753 226.139L166.757 226.139L166.761 226.139L166.765 226.139L166.769 226.139L166.774 226.139L166.778 226.139L166.782 226.139L166.786 226.139L166.79 226.139L166.795 226.139L166.799 226.139L166.803 226.139L166.807 226.139L166.811 226.139L166.816 226.139L166.82 226.139L166.824 226.139L166.828 226.139L166.832 226.139L166.837 226.139L166.841 226.139L166.845 226.139L166.849 226.139L166.853 226.139L166.858 226.139L166.862 226.139L166.866 226.139L166.87 226.139L166.874 226.139L166.879 226.139L166.883 226.139L166.887 226.139L166.891 226.139L166.895 226.139L166.9 226.139L166.904 226.139L166.908 226.139L166.912 226.139L166.916 226.139L166.921 226.139L166.925 226.139L166.929 226.139L166.933 226.139L166.937 226.139L166.942 226.139L166.946 226.139L166.95 226.139L166.954 226.139L166.958 226.139L166.963 226.139L166.967 226.139L166.971 226.139L166.975 226.139L166.979 226.139L166.984 226.139L166.988 226.139L166.992 226.139L166.996 226.139L167 226.139L167.005 226.139L167.009 226.139L167.013 226.139L167.017 226.139L167.021 226.139L167.026 226.139L167.03 226.139L167.034 226.139L167.038 226.139L167.042 226.139L167.047 226.139L167.051 226.139L167.055 226.139L167.059 226.139L167.063 226.139L167.068 226.139L167.072 226.139L167.076 226.139L167.08 226.139L167.084 226.139L167.088 226.139L167.093 226.139L167.097 226.139L167.101 226.139L167.105 226.139L167.109 226.139L167.114 226.139L167.118 226.139L167.122 226.139L167.126 226.139L167.13 226.139L167.135 226.139L167.139 226.139L167.143 226.139L167.147 226.139L167.151 226.139L167.156 226.139L167.16 226.139L167.164 226.139L167.168 226.139L167.172 226.139L167.177 226.139L167.181 226.139L167.185 226.139L167.189 226.139L167.193 226.139L167.198 226.139L167.202 226.139L167.206 226.139L167.21 226.139L167.214 226.139L167.219 226.139L167.223 226.139L167.227 226.139L167.231 226.139L167.235 226.139L167.24 226.139L167.244 226.139L167.248 226.139L167.252 226.139L167.256 226.139L167.261 226.139L167.265 226.139L167.269 226.139L167.273 226.139L167.277 226.139L167.282 226.139L167.286 226.139L167.29 226.139L167.294 226.139L167.298 226.139L167.303 226.139L167.307 226.139L167.311 226.139L167.315 226.139L167.319 226.139L167.324 226.139L167.328 226.139L167.332 226.139L167.336 226.139L167.34 226.139L167.345 226.139L167.349 226.139L167.353 226.138L167.357 226.138L167.361 226.138L167.366 226.138L167.37 226.138L167.374 226.138L167.378 226.138L167.382 226.138L167.387 226.138L167.391 226.138L167.395 226.138L167.399 226.138L167.403 226.138L167.408 226.138L167.412 226.138L167.416 226.138L167.42 226.138L167.424 226.138L167.429 226.138L167.433 226.138L167.437 226.138L167.441 226.138L167.445 226.138L167.45 226.138L167.454 226.138L167.458 226.138L167.462 226.138L167.466 226.138L167.471 226.138L167.475 226.138L167.479 226.138L167.483 226.138L167.487 226.138L167.491 226.138L167.496 226.138L167.5 226.138L167.504 226.138L167.508 226.138C168.221 226.137 168.888 225.943 169.46 225.604C169.731 223.599 169.909 221.511 170.008 219.365ZM157.248 222.526C157.248 222.526 157.244 222.524 157.235 222.52C157.243 222.523 157.248 222.526 157.248 222.526Z" fill="white"/>
<path fill-rule="evenodd" clip-rule="evenodd" d="M97.9037 213.242C97.3653 211.32 95.4261 210.11 93.4374 210.51C93.0406 210.59 92.6717 210.696 92.4444 210.761L92.4319 210.764C92.2882 210.805 92.1861 210.835 92.1053 210.857C91.9752 210.784 91.8228 210.688 91.6586 210.569C91.2673 210.287 90.9644 209.993 90.8231 209.823C90.8064 209.803 90.7895 209.782 90.7729 209.762C90.74 209.723 90.7079 209.685 90.6797 209.651L90.6459 209.611L90.5987 209.554C90.5198 209.091 90.4538 208.599 90.3773 208.025L90.3729 207.991L90.3728 207.991C90.2823 207.311 90.1749 206.504 90.0153 205.692C89.6838 204.007 89.0786 202.014 87.6099 200.159C87.5665 200.104 87.5212 200.046 87.474 199.986L87.4735 199.985C86.573 198.84 84.9606 196.788 82.1808 195.966C80.9367 195.598 79.6961 195.366 78.6621 195.172L78.6377 195.168C77.5534 194.965 76.6831 194.802 75.8547 194.569C74.4703 194.18 73.8163 193.753 73.1692 192.92C73.1205 192.857 72.9808 192.632 72.8633 191.965C72.8063 191.641 72.7642 191.275 72.7232 190.826C72.7115 190.699 72.6984 190.544 72.6841 190.376L72.6841 190.376C72.6561 190.047 72.624 189.669 72.5911 189.354C72.1721 185.334 70.4673 182.16 67.7588 179.443C65.5426 177.22 62.8279 176.247 60.7951 175.579C60.409 175.452 60.0081 175.348 59.7368 175.278L59.6575 175.257C59.4014 175.19 59.2324 175.144 59.0998 175.102C58.4799 174.124 58.2875 173.256 58.3836 172.255C58.3995 172.089 58.4137 171.989 58.4348 171.843L58.4348 171.843C58.4531 171.715 58.4767 171.551 58.5109 171.276C58.5652 170.839 58.6324 170.191 58.588 169.472C58.506 168.144 57.8839 167.208 57.5724 166.786C57.4045 166.559 57.2395 166.368 57.1559 166.272L57.1049 166.213C57.0848 166.19 57.0715 166.175 57.0542 166.154L57.0356 166.132L57.0344 166.131L57.0318 166.128L57.0292 166.124L57.0266 166.121L57.024 166.118L57.0214 166.114L57.0187 166.111L57.0161 166.108L57.0135 166.105L57.0109 166.101L57.0083 166.098L57.0057 166.095L57.0031 166.091L57.0005 166.088L56.9979 166.085L56.9953 166.081L56.9927 166.078L56.9901 166.075L56.9875 166.072L56.9849 166.068L56.9823 166.065L56.9797 166.062L56.9771 166.058L56.9745 166.055L56.9719 166.052L56.9692 166.049L56.9666 166.045L56.964 166.042L56.9614 166.039L56.9588 166.035L56.9562 166.032L56.9536 166.029L56.951 166.026L56.9484 166.022L56.9458 166.019L56.9432 166.016L56.9406 166.012L56.938 166.009L56.9354 166.006L56.9328 166.002L56.9302 165.999L56.9276 165.996L56.925 165.993L56.9224 165.989L56.9197 165.986L56.9171 165.983L56.9145 165.979L56.9119 165.976L56.9093 165.973L56.9067 165.97L56.9041 165.966L56.9015 165.963L56.8989 165.96L56.8963 165.956L56.8937 165.953L56.8911 165.95L56.8885 165.947L56.8859 165.943L56.8833 165.94L56.8807 165.937L56.8781 165.933L56.8755 165.93L56.8729 165.927L56.8702 165.923L56.8676 165.92L56.865 165.917L56.8624 165.914L56.8598 165.91L56.8572 165.907L56.8546 165.904L56.852 165.9L56.8494 165.897L56.8468 165.894L56.8442 165.891L56.8416 165.887L56.839 165.884L56.8364 165.881L56.8338 165.877L56.8312 165.874L56.8286 165.871L56.826 165.868L56.8234 165.864L56.8207 165.861L56.8181 165.858L56.8155 165.854L56.8129 165.851L56.8103 165.848L56.8077 165.844L56.8051 165.841L56.8025 165.838L56.7999 165.835L56.7973 165.831L56.7947 165.828L56.7921 165.825L56.7895 165.821L56.7869 165.818L56.7843 165.815L56.7817 165.812L56.7791 165.808L56.7765 165.805L56.7739 165.802L56.7712 165.798L56.7686 165.795L56.766 165.792L56.7634 165.789L56.7608 165.785L56.7582 165.782L56.7556 165.779L56.753 165.775L56.7504 165.772L56.7478 165.769L56.7452 165.765L56.7426 165.762L56.74 165.759L56.7374 165.756L56.7348 165.752L56.7322 165.749L56.7296 165.746L56.727 165.742L56.7243 165.739L56.7217 165.736L56.7191 165.733L56.7165 165.729L56.7139 165.726L56.7113 165.723L56.7087 165.719L56.7061 165.716L56.7035 165.713L56.7009 165.71L56.6983 165.706L56.6957 165.703L56.6931 165.7L56.6905 165.696L56.6879 165.693L56.6853 165.69L56.6827 165.686L56.6801 165.683L56.6775 165.68L56.6748 165.677L56.6722 165.673L56.6696 165.67L56.667 165.667L56.6644 165.663L56.6618 165.66L56.6592 165.657L56.6566 165.654L56.654 165.65L56.6514 165.647L56.6488 165.644L56.6462 165.64L56.6436 165.637L56.641 165.634L56.6384 165.631L56.6358 165.627L56.6332 165.624L56.6306 165.621L56.628 165.617L56.6253 165.614L56.6227 165.611L56.6201 165.607L56.6175 165.604L56.6149 165.601L56.6123 165.598L56.6097 165.594L56.6071 165.591L56.6045 165.588L56.6019 165.584L56.5993 165.581L56.5967 165.578L56.5941 165.575L56.5915 165.571L56.5889 165.568L56.5863 165.565L56.5837 165.561L56.5811 165.558L56.5785 165.555L56.5758 165.552L56.5732 165.548L56.5706 165.545L56.568 165.542L56.5654 165.538L56.5628 165.535L56.5602 165.532L56.5576 165.528L56.555 165.525L56.5524 165.522L56.5498 165.519L56.5472 165.515L56.5446 165.512L56.542 165.509L56.5394 165.505L56.5368 165.502L56.5342 165.499L56.5316 165.496L56.529 165.492L56.5263 165.489L56.5237 165.486L56.5211 165.482L56.5185 165.479L56.5159 165.476L56.5133 165.473L56.5107 165.469L56.5081 165.466L56.5055 165.463L56.5029 165.459L56.5003 165.456L56.4977 165.453L56.4951 165.449L56.4925 165.446L56.4899 165.443L56.4873 165.44L56.4847 165.436L56.4821 165.433L56.4795 165.43L56.4768 165.426L56.4742 165.423L56.4716 165.42L56.469 165.417L56.4664 165.413L56.4638 165.41L56.4612 165.407L56.4586 165.403L56.456 165.4L56.4534 165.397L56.4508 165.394L56.4482 165.39L56.4456 165.387L56.443 165.384L56.4404 165.38L56.4378 165.377L56.4352 165.374L56.4326 165.37L56.4299 165.367L56.4273 165.364L56.4247 165.361L56.4221 165.357L56.4195 165.354L56.4169 165.351L56.4143 165.347L56.4117 165.344L56.4091 165.341L56.4065 165.338L56.4039 165.334L56.4013 165.331L56.3987 165.328L56.3961 165.324L56.3935 165.321L56.3909 165.318L56.3883 165.315L56.3857 165.311L56.3831 165.308L56.3804 165.305L56.3778 165.301L56.3752 165.298L56.3726 165.295L56.37 165.291L56.3674 165.288L56.3648 165.285L56.3622 165.282L56.3596 165.278L56.357 165.275L56.3544 165.272L56.3518 165.268L56.3492 165.265L56.3466 165.262L56.344 165.259L56.3414 165.255L56.3388 165.252L56.3362 165.249L56.3336 165.245L56.3309 165.242L56.3283 165.239L56.3257 165.236L56.3231 165.232L56.3205 165.229L56.3179 165.226L56.3153 165.222L56.3127 165.219L56.3101 165.216L56.3075 165.212L56.3049 165.209L56.3023 165.206L56.2997 165.203L56.2971 165.199L56.2945 165.196L56.2919 165.193L56.2893 165.189L56.2867 165.186L56.2841 165.183L56.2814 165.18L56.2788 165.176L56.2762 165.173L56.2736 165.17L56.271 165.166L56.2684 165.163L56.2658 165.16L56.2632 165.157L56.2606 165.153L56.258 165.15L56.2554 165.147L56.2528 165.143L56.2502 165.14L56.2476 165.137L56.245 165.133L56.2424 165.13L56.2398 165.127L56.2372 165.124L56.2346 165.12L56.2319 165.117L56.2293 165.114L56.2267 165.11L56.2241 165.107L56.2215 165.104L56.2189 165.101L56.2163 165.097L56.2137 165.094L56.2111 165.091L56.2085 165.087L56.2059 165.084L56.2033 165.081L56.2007 165.078L56.1981 165.074L56.1955 165.071L56.1929 165.068L56.1903 165.064L56.1877 165.061L56.185 165.058L56.1824 165.054L56.1798 165.051L56.1772 165.048L56.1746 165.045L56.172 165.041L56.1694 165.038L56.1668 165.035L56.1642 165.031L56.1616 165.028L56.159 165.025L56.1564 165.022L56.1538 165.018L56.1512 165.015L56.1486 165.012L56.146 165.008L56.1434 165.005L56.1408 165.002L56.1382 164.999L56.1355 164.995L56.1329 164.992L56.1303 164.989L56.1277 164.985L56.1251 164.982L56.1225 164.979L56.1199 164.975L56.1173 164.972L56.1147 164.969L56.1121 164.966L56.1095 164.962L56.1069 164.959L56.1043 164.956L56.1017 164.952L56.0991 164.949L56.0965 164.946L56.0939 164.943L56.0913 164.939L56.0887 164.936L56.086 164.933L56.0834 164.929L56.0808 164.926L56.0782 164.923L56.0756 164.92L56.073 164.916L56.0704 164.913L56.0678 164.91L56.0652 164.906L56.0626 164.903L56.06 164.9L56.0574 164.896L56.0548 164.893L56.0522 164.89L56.0496 164.887L56.047 164.883L56.0444 164.88L56.0418 164.877L56.0392 164.873L56.0365 164.87L56.0339 164.867L56.0313 164.864L56.0287 164.86L56.0261 164.857L56.0235 164.854L56.0209 164.85L56.0183 164.847L56.0157 164.844L56.0131 164.841L56.0105 164.837L56.0079 164.834L56.0053 164.831L56.0027 164.827L56.0001 164.824L55.9975 164.821L55.9949 164.817L55.9923 164.814L55.9897 164.811L55.987 164.808L55.9844 164.804L55.9818 164.801L55.9792 164.798L55.9766 164.794L55.974 164.791L55.9714 164.788L55.9688 164.785L55.9662 164.781L55.9636 164.778L55.961 164.775L55.9584 164.771L55.9558 164.768L55.9532 164.765L55.9506 164.762L55.948 164.758L55.9454 164.755L55.9428 164.752L55.9402 164.748L55.9375 164.745L55.9349 164.742L55.9323 164.738L55.9297 164.735L55.9271 164.732L55.9245 164.729L55.9219 164.725L55.9193 164.722L55.9167 164.719L55.9141 164.715L55.9115 164.712L55.9089 164.709L55.9063 164.706L55.9037 164.702L55.9011 164.699L55.8985 164.696L55.8959 164.692L55.8933 164.689L55.8906 164.686L55.888 164.683L55.8854 164.679L55.8828 164.676L55.8802 164.673L55.8776 164.669L55.875 164.666L55.8724 164.663L55.8698 164.659L55.8672 164.656L55.8646 164.653L55.862 164.65L55.8594 164.646L55.8568 164.643L55.8542 164.64L55.8516 164.636L55.849 164.633L55.8464 164.63L55.8438 164.627L55.8411 164.623L55.8385 164.62L55.8359 164.617L55.8333 164.613L55.8307 164.61L55.8281 164.607L55.8255 164.604L55.8229 164.6L55.8203 164.597L55.8177 164.594L55.8151 164.59L55.8125 164.587L55.8099 164.584L55.8073 164.58L55.8047 164.577L55.8021 164.574L55.7995 164.571L55.7969 164.567L55.7943 164.564L55.7916 164.561L55.789 164.557L55.7864 164.554L55.7838 164.551L55.7812 164.548L55.7786 164.544L55.776 164.541L55.7734 164.538L55.7708 164.534L55.7682 164.531L55.7656 164.528L55.763 164.525L55.7604 164.521L55.7578 164.518L55.7552 164.515L55.7526 164.511L55.75 164.508L55.7474 164.505L55.7448 164.501L55.7421 164.498L55.7395 164.495L55.7369 164.492L55.7343 164.488L55.7317 164.485L55.7291 164.482L55.7265 164.478L55.7239 164.475L55.7213 164.472L55.7187 164.469L55.7161 164.465L55.7135 164.462L55.7109 164.459L55.7083 164.455L55.7057 164.452C55.5626 164.271 55.4065 164.107 55.2399 163.959C53.329 165.812 51.5494 167.692 49.9485 169.585L49.9494 169.586L49.952 169.59L49.9546 169.593L49.9572 169.596L49.9598 169.6L49.9624 169.603L49.965 169.606L49.9676 169.609L49.9702 169.613L49.9728 169.616L49.9754 169.619L49.978 169.623L49.9806 169.626L49.9832 169.629L49.9859 169.632L49.9885 169.636L49.9911 169.639L49.9937 169.642L49.9963 169.646L49.9989 169.649L50.0015 169.652L50.0041 169.655L50.0067 169.659L50.0093 169.662L50.0119 169.665L50.0145 169.669L50.0171 169.672L50.0197 169.675L50.0223 169.679L50.0249 169.682L50.0275 169.685L50.0301 169.688L50.0327 169.692L50.0354 169.695L50.038 169.698L50.0406 169.702L50.0432 169.705L50.0458 169.708L50.0484 169.711L50.051 169.715L50.0536 169.718L50.0562 169.721L50.0588 169.725L50.0614 169.728L50.064 169.731L50.0666 169.734L50.0692 169.738L50.0718 169.741L50.0744 169.744L50.077 169.748L50.0796 169.751L50.0822 169.754L50.0849 169.758L50.0875 169.761L50.0901 169.764L50.0927 169.767L50.0953 169.771L50.0979 169.774L50.1005 169.777L50.1031 169.781L50.1057 169.784L50.1083 169.787L50.1109 169.79L50.1135 169.794L50.1161 169.797L50.1187 169.8L50.1213 169.804L50.1239 169.807L50.1265 169.81L50.1291 169.813L50.1317 169.817L50.1344 169.82L50.137 169.823L50.1396 169.827L50.1422 169.83L50.1448 169.833L50.1474 169.837L50.15 169.84L50.1526 169.843L50.1552 169.846L50.1578 169.85L50.1604 169.853L50.163 169.856L50.1656 169.86L50.1682 169.863L50.1708 169.866L50.1734 169.869L50.176 169.873L50.1786 169.876L50.1812 169.879L50.1839 169.883L50.1865 169.886L50.1891 169.889L50.1917 169.892L50.1943 169.896L50.1969 169.899L50.1995 169.902L50.2021 169.906L50.2047 169.909L50.2073 169.912L50.2099 169.916L50.2125 169.919L50.2151 169.922L50.2177 169.925L50.2203 169.929L50.2229 169.932L50.2255 169.935L50.2281 169.939L50.2308 169.942L50.2334 169.945L50.236 169.948L50.2386 169.952L50.2412 169.955L50.2438 169.958L50.2464 169.962L50.249 169.965L50.2516 169.968L50.2542 169.971L50.2568 169.975L50.2594 169.978L50.262 169.981L50.2646 169.985L50.2672 169.988L50.2698 169.991L50.2724 169.995L50.275 169.998L50.2776 170.001L50.2803 170.004L50.2829 170.008L50.2855 170.011L50.2881 170.014L50.2907 170.018L50.2933 170.021L50.2959 170.024L50.2985 170.027L50.3011 170.031L50.3037 170.034L50.3063 170.037L50.3089 170.041L50.3115 170.044L50.3141 170.047L50.3167 170.05L50.3193 170.054L50.3219 170.057L50.3245 170.06L50.3271 170.064L50.3298 170.067L50.3324 170.07L50.335 170.074L50.3376 170.077L50.3402 170.08L50.3428 170.083L50.3454 170.087L50.348 170.09L50.3506 170.093L50.3532 170.097L50.3558 170.1L50.3584 170.103L50.361 170.106L50.3636 170.11L50.3662 170.113L50.3688 170.116L50.3714 170.12L50.374 170.123L50.3766 170.126L50.3793 170.129L50.3819 170.133L50.3845 170.136L50.3871 170.139L50.3897 170.143L50.3923 170.146L50.3949 170.149L50.3975 170.153L50.4001 170.156L50.4027 170.159L50.4053 170.162L50.4079 170.166L50.4105 170.169L50.4131 170.172L50.4157 170.176L50.4183 170.179L50.4209 170.182L50.4235 170.185L50.4261 170.189L50.4288 170.192L50.4314 170.195L50.434 170.199L50.4366 170.202L50.4392 170.205L50.4418 170.208L50.4444 170.212L50.447 170.215L50.4496 170.218L50.4522 170.222L50.4548 170.225L50.4574 170.228L50.46 170.232L50.4626 170.235L50.4652 170.238L50.4678 170.241L50.4704 170.245L50.473 170.248L50.4756 170.251L50.4783 170.255L50.4809 170.258L50.4835 170.261L50.4861 170.264L50.4887 170.268L50.4913 170.271L50.4939 170.274L50.4965 170.278L50.4991 170.281L50.5017 170.284L50.5043 170.287L50.5069 170.291L50.5095 170.294L50.5121 170.297L50.5147 170.301L50.5173 170.304L50.5199 170.307L50.5225 170.311L50.5252 170.314L50.5278 170.317L50.5304 170.32L50.533 170.324L50.5356 170.327L50.5382 170.33L50.5408 170.334L50.5434 170.337L50.546 170.34L50.5486 170.343L50.5512 170.347L50.5538 170.35L50.5564 170.353L50.559 170.357L50.5616 170.36L50.5642 170.363L50.5668 170.366L50.5694 170.37L50.572 170.373L50.5747 170.376L50.5773 170.38L50.5799 170.383L50.5825 170.386L50.5851 170.39L50.5877 170.393L50.5903 170.396L50.5929 170.399L50.5955 170.403L50.5981 170.406L50.6007 170.409L50.6033 170.413L50.6059 170.416L50.6085 170.419L50.6111 170.422L50.6137 170.426L50.6163 170.429L50.6189 170.432L50.6215 170.436L50.6242 170.439L50.6268 170.442L50.6294 170.445L50.632 170.449L50.6346 170.452L50.6372 170.455L50.6398 170.459L50.6424 170.462L50.645 170.465L50.6476 170.469L50.6502 170.472L50.6528 170.475L50.6554 170.478L50.658 170.482L50.6606 170.485L50.6632 170.488L50.6658 170.492L50.6684 170.495L50.671 170.498L50.6737 170.501L50.6763 170.505L50.6789 170.508L50.6815 170.511L50.6841 170.515L50.6867 170.518L50.6893 170.521L50.6919 170.524L50.6945 170.528L50.6971 170.531L50.6997 170.534L50.7023 170.538L50.7049 170.541L50.7075 170.544L50.7101 170.548L50.7127 170.551L50.7153 170.554L50.7179 170.557L50.7205 170.561L50.7232 170.564L50.7258 170.567L50.7284 170.571L50.731 170.574L50.7336 170.577L50.7362 170.58L50.7388 170.584L50.7414 170.587L50.744 170.59L50.7466 170.594L50.7492 170.597L50.7518 170.6L50.7544 170.603L50.757 170.607L50.7596 170.61L50.7622 170.613L50.7648 170.617L50.7674 170.62L50.7701 170.623L50.7727 170.627L50.7753 170.63L50.7779 170.633L50.7805 170.636L50.7831 170.64L50.7857 170.643L50.7883 170.646L50.7909 170.65L50.7935 170.653L50.7961 170.656L50.7987 170.659L50.8013 170.663L50.8039 170.666L50.8065 170.669L50.8091 170.673L50.8117 170.676L50.8143 170.679L50.8169 170.682L50.8196 170.686L50.821 170.688L50.802 170.826C50.7757 171.018 50.7435 171.261 50.7187 171.52C50.4151 174.687 51.3071 177.454 53.0528 179.903C54.1131 181.391 55.5738 182.032 56.4866 182.348C56.9539 182.509 57.4084 182.628 57.7154 182.708C58.0749 182.802 58.2477 182.847 58.3925 182.894C60.342 183.535 61.4868 184.058 62.3057 184.879C63.9223 186.501 64.7175 188.088 64.9326 190.152C64.9482 190.301 64.9653 190.503 64.9853 190.738L64.9853 190.739C65.0452 191.444 65.1311 192.455 65.28 193.3C65.5011 194.556 65.9491 196.177 67.0883 197.644C68.9778 200.076 71.2079 201.261 73.7698 201.981C74.9368 202.31 76.1088 202.529 77.092 202.712L77.2464 202.741C78.3215 202.942 79.1878 203.111 79.9981 203.35C80.1009 203.381 80.2309 203.437 80.4623 203.65C80.7514 203.915 81.0441 204.27 81.5722 204.937C81.9793 205.452 82.2493 206.107 82.46 207.178C82.5688 207.731 82.6482 208.316 82.7446 209.041L82.7523 209.098L82.7523 209.098C82.8419 209.772 82.9484 210.572 83.105 211.381C83.4304 213.061 84.4589 214.237 84.8102 214.639C84.8451 214.679 84.8734 214.711 84.8935 214.735C85.5242 215.496 86.3347 216.224 87.1553 216.815C87.9505 217.389 89.0053 218.016 90.1627 218.357C90.7365 218.526 91.2822 218.597 91.7807 218.609C93.9924 216.858 96.0569 215.015 97.9037 213.242ZM58.8772 175.021C58.877 175.021 58.8811 175.023 58.8902 175.027C58.882 175.022 58.8775 175.02 58.8772 175.021Z" fill="white"/>
<path fill-rule="evenodd" clip-rule="evenodd" d="M77.5338 124.511C78.0155 124.098 78.4017 123.56 78.6371 122.923L75.0239 121.593L78.6371 122.923L78.6371 122.923L78.6371 122.923L78.6371 122.923L78.6372 122.922L78.6372 122.922L78.6373 122.922L78.6374 122.922L78.6375 122.922L78.6376 122.921L78.6377 122.921L78.6378 122.921L78.6379 122.92L78.6381 122.92L78.6382 122.92L78.6384 122.919L78.6386 122.919L78.6388 122.918L78.6389 122.918L78.6391 122.917L78.6394 122.917L78.6396 122.916L78.6398 122.915L78.6401 122.915L78.6403 122.914L78.6406 122.913L78.6408 122.913L78.6411 122.912L78.6414 122.911L78.6417 122.91L78.642 122.909L78.6424 122.908L78.6427 122.908L78.643 122.907L78.6434 122.906L78.6437 122.905L78.6441 122.904L78.6445 122.903L78.6449 122.902L78.6453 122.901L78.6457 122.899L78.6461 122.898L78.6465 122.897L78.647 122.896L78.6474 122.895L78.6479 122.894L78.6483 122.892L78.6488 122.891L78.6493 122.89L78.6498 122.888L78.6503 122.887L78.6508 122.886L78.6513 122.884L78.6518 122.883L78.6524 122.881L78.6529 122.88L78.6535 122.878L78.654 122.877L78.6546 122.875L78.6552 122.874L78.6558 122.872L78.6564 122.871L78.657 122.869L78.6576 122.867L78.6582 122.866L78.6588 122.864L78.6595 122.862L78.6601 122.86L78.6608 122.859L78.6615 122.857L78.6621 122.855L78.6628 122.853L78.6635 122.851L78.6642 122.849L78.6649 122.847L78.6656 122.845L78.6664 122.843L78.6671 122.841L78.6678 122.839L78.6686 122.837L78.6694 122.835L78.6701 122.833L78.6709 122.831L78.6717 122.829L78.6725 122.827L78.6733 122.825L78.6741 122.823L78.6749 122.82L78.6757 122.818L78.6765 122.816L78.6774 122.814L78.6782 122.811L78.6791 122.809L78.6799 122.807L78.6808 122.804L78.6817 122.802L78.6826 122.8L78.6835 122.797L78.6844 122.795L78.6853 122.792L78.6862 122.79L78.6871 122.787L78.6881 122.785L78.689 122.782L78.6899 122.78L78.6909 122.777L78.6919 122.774L78.6928 122.772L78.6938 122.769L78.6948 122.766L78.6958 122.764L78.6968 122.761L78.6978 122.758L78.6988 122.756L78.6998 122.753L78.7008 122.75L78.7019 122.747L78.7029 122.745L78.704 122.742L78.705 122.739L78.7061 122.736L78.7071 122.733L78.7082 122.73L78.7093 122.727L78.7104 122.724L78.7115 122.721L78.7126 122.718L78.7137 122.715L78.7148 122.712L78.7159 122.709L78.717 122.706L78.7182 122.703L78.7193 122.7L78.7205 122.697L78.7216 122.694L78.7228 122.691L78.724 122.688L78.7251 122.684L78.7263 122.681L78.7275 122.678L78.7287 122.675L78.7299 122.671L78.7311 122.668L78.7323 122.665L78.7335 122.662L78.7347 122.658L78.736 122.655L78.7372 122.652L78.7384 122.648L78.7397 122.645L78.741 122.641L78.7422 122.638L78.7435 122.635L78.7447 122.631L78.746 122.628L78.7473 122.624L78.7486 122.621L78.7499 122.617L78.7512 122.614L78.7525 122.61L78.7538 122.607L78.7551 122.603L78.7565 122.6L78.7578 122.596L78.7591 122.592L78.7605 122.589L78.7618 122.585L78.7632 122.581L78.7645 122.578L78.7659 122.574L78.7672 122.57L78.7686 122.567L78.77 122.563L78.7714 122.559L78.7728 122.555L78.7742 122.552L78.7756 122.548L78.777 122.544L78.7784 122.54L78.7798 122.536L78.7812 122.533L78.7826 122.529L78.784 122.525L78.7855 122.521L78.7869 122.517L78.7884 122.513L78.7898 122.509L78.7913 122.505L78.7927 122.501L78.7942 122.497L78.7957 122.493L78.7971 122.489L78.7986 122.485L78.8001 122.481L78.8016 122.477L78.8031 122.473L78.8046 122.469L78.8061 122.465L78.8076 122.461L78.8091 122.457L78.8106 122.453L78.8121 122.449L78.8136 122.445L78.8152 122.441L78.8167 122.436L78.8182 122.432L78.8198 122.428L78.8213 122.424L78.8228 122.42L78.8244 122.416L78.826 122.411L78.8275 122.407L78.8291 122.403L78.8306 122.399L78.8322 122.394L78.8338 122.39L78.8354 122.386L78.837 122.382L78.8385 122.377L78.8401 122.373L78.8417 122.369L78.8433 122.364L78.8449 122.36L78.8465 122.356L78.8481 122.351L78.8498 122.347L78.8514 122.343L78.853 122.338L78.8546 122.334L78.8563 122.329L78.8579 122.325L78.8595 122.32L78.8612 122.316L78.8628 122.312L78.8644 122.307L78.8661 122.303L78.8677 122.298L78.8694 122.294L78.8711 122.289L78.8727 122.285L78.8744 122.28L78.876 122.276L78.8777 122.271L78.8794 122.267L78.8811 122.262L78.8827 122.258L78.8844 122.253L78.8861 122.248L78.8878 122.244L78.8895 122.239L78.8912 122.235L78.8929 122.23L78.8946 122.226L78.8963 122.221L78.898 122.216L78.8997 122.212L78.9014 122.207L78.9031 122.202L78.9048 122.198L78.9066 122.193L78.9083 122.188L78.91 122.184L78.9117 122.179L78.9135 122.174L78.9152 122.17L78.9169 122.165L78.9187 122.16L78.9204 122.156L78.9221 122.151L78.9239 122.146L78.9256 122.141L78.9274 122.137L78.9291 122.132L78.9309 122.127L78.9326 122.123L78.9344 122.118L78.9361 122.113L78.9379 122.108L78.9397 122.104L78.9414 122.099L78.9432 122.094L78.9449 122.089L78.9467 122.084L78.9485 122.08L78.9503 122.075L78.952 122.07L78.9538 122.065L78.9556 122.06L78.9574 122.056L78.9591 122.051L78.9609 122.046L78.9627 122.041L78.9645 122.036L78.9663 122.031L78.9681 122.027L78.9699 122.022L78.9717 122.017L78.9735 122.012L78.9752 122.007L78.977 122.002L78.9788 121.997L78.9806 121.993L78.9824 121.988L78.9842 121.983L78.986 121.978L78.9878 121.973L78.9896 121.968L78.9914 121.963L78.9933 121.958L78.9951 121.954L78.9969 121.949L78.9987 121.944L79.0005 121.939L79.0023 121.934L79.0041 121.929L79.0059 121.924L79.0077 121.919L79.0095 121.914L79.0114 121.909L79.0132 121.904L79.015 121.9L79.0168 121.895L79.0186 121.89L79.0204 121.885L79.0223 121.88L79.0241 121.875L79.0259 121.87L79.0277 121.865L79.0295 121.86L79.0314 121.855L79.0332 121.85L79.035 121.845L79.0368 121.84L79.0386 121.836L79.0405 121.831L79.0423 121.826L79.0441 121.821L79.0459 121.816L79.0477 121.811L79.0496 121.806L79.0514 121.801L79.0532 121.796L79.055 121.791L79.0569 121.786L79.0587 121.781L79.0605 121.776L79.0623 121.771L79.0641 121.766L79.066 121.762L79.0678 121.757L79.0696 121.752L79.0714 121.747L79.0732 121.742L79.0751 121.737L79.0769 121.732L79.0787 121.727L79.0805 121.722L79.0823 121.717L79.0842 121.712L79.086 121.707L79.0878 121.702L79.0896 121.698L79.0914 121.693L79.0932 121.688L79.0951 121.683L79.0969 121.678L79.0987 121.673L79.1005 121.668L79.1023 121.663L79.1041 121.658L79.1059 121.653L79.1077 121.648L79.1095 121.644L79.1113 121.639L79.1131 121.634L79.1149 121.629L79.1167 121.624L79.1185 121.619L79.1203 121.614L79.1221 121.609L79.1239 121.605L79.1257 121.6L79.1275 121.595L79.1293 121.59L79.1311 121.585L79.1329 121.58L79.1347 121.575L79.1365 121.571L79.1383 121.566L79.1401 121.561L79.1418 121.556L79.1436 121.551L79.1454 121.546L79.1472 121.542L79.149 121.537L79.1507 121.532L79.1525 121.527L79.1543 121.522L79.156 121.518L79.1578 121.513L79.1596 121.508L79.1613 121.503L79.1631 121.499L79.1649 121.494L79.1666 121.489L79.1684 121.484L79.1701 121.479L79.1719 121.475L79.1736 121.47L79.1754 121.465L79.1771 121.461L79.1789 121.456L79.1806 121.451L79.1824 121.446L79.1841 121.442L79.1858 121.437L79.1876 121.432L79.1893 121.428L79.191 121.423L79.1927 121.418L79.1945 121.414L79.1962 121.409L79.1979 121.404L79.1996 121.4L79.2013 121.395L79.203 121.39L79.2048 121.386L79.2065 121.381L79.2082 121.377L79.2099 121.372L79.2116 121.367L79.2132 121.363L79.2149 121.358L79.2166 121.354L79.2183 121.349L79.22 121.345L79.2217 121.34L79.2233 121.335L79.225 121.331L79.2267 121.326L79.2284 121.322L79.23 121.317L79.2317 121.313L79.2333 121.308L79.235 121.304L79.2366 121.299L79.2383 121.295L79.2399 121.291L79.2416 121.286L79.2432 121.282L79.2448 121.277L79.2465 121.273L79.2481 121.268L79.2497 121.264L79.2513 121.26L79.253 121.255L79.2546 121.251L79.2562 121.247L79.2578 121.242L79.2594 121.238L79.261 121.234L79.2626 121.229L79.2642 121.225L79.2657 121.221L79.2673 121.216L79.2689 121.212L79.2705 121.208L79.2721 121.204L79.2736 121.199L79.2752 121.195L79.2767 121.191L79.2783 121.187L79.2798 121.182L79.2814 121.178L79.2829 121.174L79.2845 121.17L79.286 121.166L79.2875 121.162L79.2891 121.158L79.2906 121.153L79.2921 121.149L79.2936 121.145L79.2951 121.141L79.2966 121.137L79.2981 121.133L79.2996 121.129L79.3011 121.125L79.3026 121.121L79.3041 121.117L79.3055 121.113L79.307 121.109L79.3085 121.105L79.3099 121.101L79.3114 121.097L79.3128 121.093L79.3143 121.089L79.3157 121.085L79.3172 121.081L79.3186 121.078L79.32 121.074L79.3215 121.07L79.3229 121.066L79.3243 121.062L79.3257 121.058L79.3271 121.055L79.3285 121.051L79.3299 121.047L79.3313 121.043L79.3326 121.039L79.334 121.036L79.3354 121.032L79.3357 121.031C79.3358 121.031 79.3445 121.011 79.397 120.886C79.4438 120.775 79.5394 120.548 79.6266 120.285C79.7888 119.796 80.0869 118.719 79.7464 117.439C79.5663 116.762 79.3052 116.187 79.1244 115.809C79.0076 115.565 78.9374 115.425 78.8834 115.317L78.8834 115.317C78.8228 115.196 78.7826 115.116 78.72 114.975C78.3683 114.183 78.28 113.432 78.5038 112.479C78.5948 112.417 78.7112 112.342 78.8728 112.239L78.9381 112.198L78.9382 112.198C79.1611 112.057 79.4978 111.844 79.8145 111.614C81.4479 110.427 83.6515 108.74 85.0177 106.046C86.6748 102.78 87.2762 99.3829 86.4407 95.6025C86.3757 95.3086 86.2907 94.9559 86.2175 94.6524L86.2174 94.652C86.1804 94.4986 86.1464 94.3579 86.1196 94.2436C86.0231 93.8318 85.9536 93.4997 85.9099 93.2038C85.8193 92.5904 85.8838 92.3984 85.8874 92.3884C86.1973 91.5249 86.6145 90.9943 87.7166 90.2646C88.3854 89.8219 89.1139 89.4282 90.036 88.93L90.0361 88.93L90.0504 88.9223C90.9237 88.4504 91.9827 87.8778 93.0057 87.1808C95.3359 85.5934 96.2035 83.2163 96.6731 81.9295L96.6734 81.9287C96.6987 81.8596 96.7227 81.7936 96.7458 81.7311C97.5376 79.5873 97.4846 77.5808 97.278 75.9576C97.1788 75.1773 97.0335 74.4176 96.9125 73.7843L96.906 73.7504C96.8088 73.2421 96.7262 72.807 96.6615 72.3962L96.6779 72.3553C96.7011 72.2976 96.7294 72.2271 96.7566 72.1583C96.8229 71.9904 96.9958 71.6601 97.2535 71.3092C97.3367 71.1958 97.4168 71.0968 97.4896 71.0142C97.5534 71.0117 97.6306 71.009 97.7277 71.0056L97.7412 71.0052C97.9653 70.9975 98.335 70.9849 98.7234 70.9407C100.164 70.7768 101.328 69.839 101.849 68.5899C99.7886 66.6593 97.7573 64.9037 95.8389 63.4575C95.1233 63.5854 94.2348 63.8525 93.3565 64.4497C92.3839 65.111 91.6004 66.0025 91.0444 66.7597C90.4702 67.5415 89.944 68.4472 89.5924 69.3368C89.5825 69.3617 89.5677 69.3963 89.5489 69.4399C89.3551 69.8916 88.7456 71.3119 88.9639 72.9884C89.0651 73.7649 89.209 74.5179 89.329 75.1453L89.3397 75.2011C89.4692 75.8788 89.5707 76.4178 89.6365 76.9354C89.7638 77.9357 89.7117 78.5518 89.5195 79.0721C89.2411 79.826 89.0905 80.2075 88.9216 80.506C88.7923 80.7347 88.7171 80.7908 88.6704 80.8226C88.0226 81.264 87.3018 81.6606 86.3912 82.1525L86.2588 82.224C85.4287 82.6722 84.4292 83.2118 83.4661 83.8494C81.3415 85.256 79.6394 87.0027 78.6368 89.7959C78.0258 91.4984 78.1113 93.1287 78.2893 94.3342C78.4092 95.1461 78.639 96.0986 78.7954 96.7465C78.8465 96.9584 78.8898 97.1377 78.9188 97.2689C79.3271 99.1164 79.0951 100.704 78.1475 102.572C77.6859 103.482 76.8564 104.251 75.2898 105.389C75.1808 105.468 75.0456 105.554 74.747 105.743C74.4945 105.904 74.113 106.146 73.7317 106.432C72.9894 106.99 71.8105 108.027 71.2731 109.747C70.4119 112.503 70.4351 115.301 71.6779 118.101C71.7792 118.329 71.8825 118.541 71.9638 118.706L71.9766 118.732L71.975 118.736L71.9733 118.741L71.9716 118.745L71.9699 118.75L71.9682 118.755L71.9664 118.759L71.9647 118.764L71.963 118.769L71.9613 118.773L71.9595 118.778L71.9578 118.783L71.9561 118.787L71.9543 118.792L71.9526 118.797L71.9508 118.801L71.9491 118.806L71.9473 118.811L71.9456 118.816L71.9438 118.82L71.9421 118.825L71.9403 118.83L71.9386 118.835L71.9368 118.839L71.935 118.844L71.9333 118.849L71.9315 118.854L71.9297 118.859L71.928 118.863L71.9262 118.868L71.9244 118.873L71.9227 118.878L71.9209 118.883L71.9191 118.887L71.9173 118.892L71.9155 118.897L71.9138 118.902L71.912 118.907L71.9102 118.912L71.9084 118.916L71.9066 118.921L71.9048 118.926L71.903 118.931L71.9012 118.936L71.8994 118.941L71.8976 118.946L71.8958 118.95L71.894 118.955L71.8922 118.96L71.8904 118.965L71.8886 118.97L71.8868 118.975L71.885 118.98L71.8832 118.985L71.8814 118.989L71.8796 118.994L71.8778 118.999L71.876 119.004L71.8742 119.009L71.8724 119.014L71.8706 119.019L71.8687 119.024L71.8669 119.029L71.8651 119.034L71.8633 119.038L71.8615 119.043L71.8597 119.048L71.8579 119.053L71.856 119.058L71.8542 119.063L71.8524 119.068L71.8506 119.073L71.8488 119.078L71.8469 119.083L71.8451 119.088L71.8433 119.093L71.8415 119.098L71.8397 119.102L71.8378 119.107L71.836 119.112L71.8342 119.117L71.8324 119.122L71.8306 119.127L71.8287 119.132L71.8269 119.137L71.8251 119.142L71.8233 119.147L71.8214 119.152L71.8196 119.157L71.8178 119.162L71.816 119.167L71.8142 119.172L71.8123 119.176L71.8105 119.181L71.8087 119.186L71.8069 119.191L71.805 119.196L71.8032 119.201L71.8014 119.206L71.7996 119.211L71.7978 119.216L71.796 119.221L71.7941 119.226L71.7923 119.231L71.7905 119.236L71.7887 119.24L71.7869 119.245L71.7851 119.25L71.7832 119.255L71.7814 119.26L71.7796 119.265L71.7778 119.27L71.776 119.275L71.7742 119.28L71.7724 119.285L71.7706 119.29L71.7688 119.294L71.7669 119.299L71.7651 119.304L71.7633 119.309L71.7615 119.314L71.7597 119.319L71.7579 119.324L71.7561 119.329L71.7543 119.334L71.7525 119.338L71.7507 119.343L71.7489 119.348L71.7471 119.353L71.7454 119.358L71.7436 119.363L71.7418 119.368L71.74 119.372L71.7382 119.377L71.7364 119.382L71.7346 119.387L71.7328 119.392L71.7311 119.397L71.7293 119.401L71.7275 119.406L71.7257 119.411L71.724 119.416L71.7222 119.421L71.7204 119.425L71.7186 119.43L71.7169 119.435L71.7151 119.44L71.7133 119.444L71.7116 119.449L71.7098 119.454L71.7081 119.459L71.7063 119.464L71.7046 119.468L71.7028 119.473L71.7011 119.478L71.6993 119.482L71.6976 119.487L71.6958 119.492L71.6941 119.497L71.6924 119.501L71.6906 119.506L71.6889 119.511L71.6872 119.515L71.6854 119.52L71.6837 119.525L71.682 119.529L71.6803 119.534L71.6785 119.539L71.6768 119.543L71.6751 119.548L71.6734 119.553L71.6717 119.557L71.67 119.562L71.6683 119.566L71.6666 119.571L71.6649 119.576L71.6632 119.58L71.6615 119.585L71.6598 119.589L71.6581 119.594L71.6564 119.599L71.6548 119.603L71.6531 119.608L71.6514 119.612L71.6497 119.617L71.6481 119.621L71.6464 119.626L71.6447 119.63L71.6431 119.635L71.6414 119.639L71.6398 119.644L71.6381 119.648L71.6365 119.653L71.6348 119.657L71.6332 119.661L71.6316 119.666L71.6299 119.67L71.6283 119.675L71.6267 119.679L71.6251 119.683L71.6235 119.688L71.6218 119.692L71.6202 119.697L71.6186 119.701L71.617 119.705L71.6154 119.71L71.6138 119.714L71.6122 119.718L71.6107 119.723L71.6091 119.727L71.6075 119.731L71.6059 119.735L71.6043 119.74L71.6028 119.744L71.6012 119.748L71.5996 119.752L71.5981 119.757L71.5965 119.761L71.595 119.765L71.5935 119.769L71.5919 119.773L71.5904 119.777L71.5888 119.782L71.5873 119.786L71.5858 119.79L71.5843 119.794L71.5828 119.798L71.5813 119.802L71.5798 119.806L71.5783 119.81L71.5768 119.814L71.5753 119.818L71.5738 119.822L71.5723 119.826L71.5708 119.83L71.5694 119.834L71.5679 119.838L71.5664 119.842L71.565 119.846L71.5635 119.85L71.5621 119.854L71.5606 119.858L71.5592 119.862L71.5577 119.866L71.5563 119.87L71.5549 119.873L71.5535 119.877L71.5521 119.881L71.5506 119.885L71.5492 119.889L71.5478 119.893L71.5465 119.896L71.5451 119.9L71.5437 119.904L71.5423 119.908L71.5409 119.911L71.5396 119.915L71.5382 119.919L71.5368 119.922L71.5355 119.926L71.5342 119.93L71.5328 119.933L71.5315 119.937L71.5301 119.94L71.5288 119.944L71.5275 119.948L71.5262 119.951L71.5249 119.955L71.5236 119.958L71.5223 119.962L71.521 119.965L71.5197 119.969L71.5184 119.972L71.5172 119.976L71.5159 119.979L71.5146 119.982L71.5134 119.986L71.5121 119.989L71.5109 119.993L71.5097 119.996L71.5084 119.999L71.5072 120.003L71.506 120.006L71.5048 120.009L71.5036 120.012L71.5024 120.016L71.5012 120.019L71.5 120.022L71.4988 120.025L71.4976 120.028L71.4965 120.032L71.4953 120.035L71.4942 120.038L71.493 120.041L71.4919 120.044L71.4907 120.047L71.4896 120.05L71.4885 120.053L71.4874 120.056L71.4863 120.059L71.4852 120.062L71.4841 120.065L71.483 120.068L71.4819 120.071L71.4808 120.074L71.4798 120.077L71.4787 120.08L71.4776 120.083L71.4766 120.085L71.4756 120.088L71.4745 120.091L71.4735 120.094L71.4725 120.097L71.4715 120.099L71.4705 120.102L71.4695 120.105L71.4685 120.107L71.4675 120.11L71.4665 120.113L71.4656 120.115L71.4646 120.118L71.4636 120.121L71.4627 120.123L71.4618 120.126L71.4608 120.128L71.4599 120.131L71.459 120.133L71.4581 120.136L71.4572 120.138L71.4563 120.14L71.4554 120.143L71.4545 120.145L71.4536 120.148L71.4528 120.15L71.4519 120.152L71.4511 120.155L71.4502 120.157L71.4494 120.159L71.4486 120.161L71.4478 120.164L71.447 120.166L71.4462 120.168L71.4454 120.17L71.4446 120.172L71.4438 120.174L71.443 120.176L71.4423 120.178L71.4415 120.18L71.4408 120.182L71.4401 120.184L71.4393 120.186L71.4386 120.188L71.4379 120.19L71.4372 120.192L71.4365 120.194L71.4358 120.196L71.4352 120.198L71.4345 120.199L71.4338 120.201L71.4332 120.203L71.4325 120.205L71.4319 120.206L71.4313 120.208L71.4307 120.21L71.4301 120.211L71.4295 120.213L71.4289 120.215L71.4283 120.216L71.4277 120.218L71.4271 120.219L71.4266 120.221L71.426 120.222L71.4255 120.224L71.425 120.225L71.4245 120.227L71.424 120.228L71.4235 120.229L71.423 120.231L71.4225 120.232L71.422 120.233L71.4216 120.234L71.4211 120.236L71.4207 120.237L71.4202 120.238L71.4198 120.239L71.4194 120.24L71.419 120.241L71.4186 120.243L71.4182 120.244L71.4178 120.245L71.4174 120.246L71.4171 120.247L71.4167 120.248L71.4164 120.248L71.4161 120.249L71.4157 120.25L71.4154 120.251L71.4151 120.252L71.4148 120.253L71.4145 120.253L71.4143 120.254L71.414 120.255L71.4138 120.256L71.4135 120.256L71.4133 120.257L71.4131 120.257L71.4128 120.258L71.4126 120.259L71.4124 120.259L71.4123 120.26L71.4121 120.26L71.4119 120.261L71.4118 120.261L71.4116 120.261L71.4115 120.262L71.4114 120.262L71.4113 120.262L71.4112 120.263L71.4111 120.263L71.411 120.263L71.4109 120.263L71.4109 120.263L71.4108 120.264L71.4108 120.264L71.4108 120.264L71.4108 120.264L75.0239 121.593L71.4107 120.264C71.167 120.924 71.1156 121.607 71.2282 122.254C72.3736 122.806 73.5652 123.294 74.8004 123.713C75.4991 123.951 76.4319 124.22 77.5338 124.511ZM97.1828 71.0354C97.1827 71.0354 97.1848 71.035 97.1891 71.0344L97.1828 71.0354ZM78.2731 112.651C78.2728 112.651 78.277 112.647 78.2867 112.639C78.2783 112.647 78.2734 112.651 78.2731 112.651Z" fill="white"/>
</svg>
