<svg width="193" height="222" viewBox="0 0 193 222" fill="none" xmlns="http://www.w3.org/2000/svg">
<path d="M59.6027 43.582C60.3477 54.015 71.5233 74.1284 71.5233 74.1284C71.5233 74.1284 30.5861 54.4952 19.8446 57.438C11.6094 59.6941 7.72738 64.9357 4.19889 72.7112C-0.760281 83.6393 -2.00418 94.7735 4.19798 105.047C10.8526 116.071 22.7094 122.329 35.4903 120.766C41.6928 120.007 64.0264 114.061 64.0264 114.061C64.0264 114.061 28.5526 160.004 30.2751 185.584C31.0943 197.749 30.2795 207.51 39.588 215.385C50.805 224.876 64.307 222.41 77.2122 215.385C91.5713 207.569 97.7006 178.879 97.7006 178.879C97.7006 178.879 104.261 211.605 120.797 218.365C133.232 223.449 144.63 223.843 155.068 215.385C164.686 207.592 164.784 197.915 165.871 185.584C168.168 159.524 125.864 114.061 125.864 114.061C125.864 114.061 148.477 119.899 155.068 120.766C169.331 122.641 179.527 119.368 187.329 107.282C193.881 97.1353 194.81 83.5908 189.565 72.7112C184.385 61.9674 177.777 56.7171 165.871 57.438C156.577 58.0008 122.186 74.1284 122.186 74.1284C122.186 74.1284 130.008 54.3875 131.126 43.582C132.548 29.8295 133.273 17.9923 122.186 8.94041C112.777 1.2594 106.167 -0.000267011 94.2468 0C83.6031 0.000238425 73.9598 3.07707 67.0531 11.1755C57.2664 22.6507 58.5415 28.7217 59.6027 43.582Z" fill="#CF7C38"/>
<path d="M93.9553 85.9489C92.9178 87.9086 92.5872 90.02 92.387 92.222C92.3015 93.1623 92.986 93.2639 93.7295 93.577C94.4366 93.8747 95.0258 92.734 95.4107 92.2722C96.1285 91.4107 96.2136 90.7397 96.2136 89.6876C96.2136 88.1936 95.0041 87.3039 93.5036 87.3039C93.0019 87.3039 92.272 88.499 92.1612 88.9976C91.9701 89.8575 92.1486 90.9326 92.1486 91.808C92.1486 93.392 94.7434 93.9123 95.9752 94.0663C98.0211 94.322 98.0203 91.8686 98.0203 90.4655C98.0203 88.6002 97.7401 87.9461 96.5524 86.6264C95.4772 85.4318 93.5473 84.6205 92.6003 86.1245C91.7576 87.4629 90.9376 93.853 93.6165 93.853C94.1532 93.853 94.6947 94.113 95.3103 94.0788C95.8683 94.0478 96.7056 93.1816 97.1671 92.8493C98.4945 91.8936 98.9236 89.6572 98.9236 88.0943C98.9236 85.8423 94.5775 85.0005 93.2276 86.3504C92.3731 87.2049 92.0148 87.3981 91.7095 88.7718C91.4377 89.9951 91.9744 91.2817 93.052 91.8205" stroke="white" stroke-width="7.7" stroke-linecap="round"/>
<path d="M94.216 127.728C93.1785 129.688 92.8479 131.799 92.6478 134.001C92.5623 134.942 93.2467 135.043 93.9902 135.356C94.6973 135.654 95.2865 134.513 95.6714 134.051C96.3893 133.19 96.4744 132.519 96.4744 131.467C96.4744 129.973 95.2648 129.083 93.7644 129.083C93.2627 129.083 92.5327 130.278 92.4219 130.777C92.2308 131.637 92.4094 132.712 92.4094 133.587C92.4094 135.171 95.0041 135.692 96.236 135.846C98.2819 136.101 98.281 133.648 98.281 132.245C98.281 130.379 98.0008 129.725 96.8131 128.406C95.738 127.211 93.8081 126.4 92.861 127.904C92.0184 129.242 91.1984 135.632 93.8773 135.632C94.4139 135.632 94.9555 135.892 95.571 135.858C96.129 135.827 96.9664 134.961 97.4279 134.629C98.7552 133.673 99.1843 131.437 99.1843 129.874C99.1843 127.622 94.8383 126.78 93.4884 128.13C92.6338 128.984 92.2755 129.177 91.9703 130.551C91.6984 131.774 92.2351 133.061 93.3127 133.6" stroke="white" stroke-width="7.7" stroke-linecap="round"/>
<path d="M94.216 106.867C93.1785 108.827 92.8479 110.938 92.6478 113.14C92.5623 114.081 93.2467 114.182 93.9902 114.495C94.6973 114.793 95.2865 113.652 95.6714 113.191C96.3893 112.329 96.4744 111.658 96.4744 110.606C96.4744 109.112 95.2648 108.222 93.7644 108.222C93.2627 108.222 92.5327 109.417 92.4219 109.916C92.2308 110.776 92.4094 111.851 92.4094 112.726C92.4094 114.31 95.0041 114.831 96.236 114.985C98.2819 115.24 98.281 112.787 98.281 111.384C98.281 109.519 98.0008 108.865 96.8131 107.545C95.738 106.35 93.8081 105.539 92.861 107.043C92.0184 108.381 91.1984 114.771 93.8773 114.771C94.4139 114.771 94.9555 115.031 95.571 114.997C96.129 114.966 96.9664 114.1 97.4279 113.768C98.7552 112.812 99.1843 110.576 99.1843 109.013C99.1843 106.761 94.8383 105.919 93.4884 107.269C92.6338 108.123 92.2755 108.317 91.9703 109.69C91.6984 110.914 92.2351 112.2 93.3127 112.739" stroke="white" stroke-width="7.7" stroke-linecap="round"/>
<path d="M80.4639 44.5549C80.499 44.9065 80.7574 45.0982 80.9388 45.3728C81.4623 46.1656 81.9867 46.8553 82.6009 47.589C84.1366 49.4233 85.6602 51.1844 87.4027 52.8261C87.8876 53.283 88.3046 53.8228 88.801 54.264C89.4615 54.8511 90.3553 55.173 91.1491 55.5304C92.1809 55.995 93.3458 56.1482 94.4734 56.1834C95.5443 56.2169 96.7251 56.3029 97.7714 56.0449C99.281 55.6727 100.859 55.0953 102.257 54.4091C103.81 53.6465 105.207 52.5568 106.287 51.197C107.048 50.2386 107.979 49.4649 108.483 48.3278C109.177 46.7604 109.463 45.0188 110.086 43.4271C110.35 42.7521 110.563 42.0535 110.739 41.3494" stroke="white" stroke-width="6" stroke-linecap="round"/>
<path d="M84.1885 28.6248C84.1885 29.564 85.5864 29.8148 86.3255 30.1022C87.0614 30.3884 87.782 29.7641 87.9613 29.0469C88.1211 28.4077 88.1358 27.4096 87.6249 26.9626C87.1911 26.5831 86.102 26.3204 85.5208 26.5141C84.3169 26.9154 84.1365 28.2805 84.637 29.3371C85.1706 30.4637 85.5899 30.5244 86.8004 30.5244" stroke="white" stroke-width="6" stroke-linecap="round"/>
<path d="M101.324 28.6248C101.324 29.564 102.722 29.8148 103.461 30.1022C104.197 30.3884 104.918 29.7641 105.097 29.0469C105.257 28.4077 105.272 27.4096 104.761 26.9626C104.327 26.5831 103.238 26.3204 102.657 26.5141C101.453 26.9154 101.272 28.2805 101.773 29.3371C102.306 30.4637 102.726 30.5244 103.936 30.5244" stroke="white" stroke-width="6" stroke-linecap="round"/>
<path fill-rule="evenodd" clip-rule="evenodd" d="M152.032 61.2484V61.2513V61.2552V61.2591V61.2631V61.267V61.2709V61.2748V61.2787V61.2827V61.2866V61.2905V61.2944V61.2983V61.3023V61.3062V61.3101V61.314V61.3179V61.3219V61.3258V61.3297V61.3336V61.3375V61.3415V61.3454V61.3493V61.3532V61.3571V61.3611V61.365V61.3689V61.3728V61.3767V61.3807V61.3846V61.3885V61.3924V61.3963V61.4003V61.4042V61.4081V61.412V61.4159V61.4199V61.4238V61.4277V61.4316V61.4355V61.4395V61.4434V61.4473V61.4512V61.4551V61.459V61.463V61.4669V61.4708V61.4747V61.4786V61.4826V61.4865V61.4904V61.4943V61.4982V61.5022V61.5061V61.51V61.5139V61.5178V61.5218V61.5257V61.5296V61.5335V61.5374V61.5414V61.5453V61.5492V61.5531V61.557V61.561V61.5649V61.5688V61.5727V61.5766V61.5806V61.5845V61.5884V61.5923V61.5962V61.6002V61.6041V61.608V61.6119V61.6158V61.6198V61.6237V61.6276V61.6315V61.6354V61.6394V61.6433V61.6472V61.6511V61.655V61.659V61.6629V61.6668V61.6707V61.6746V61.6786V61.6825V61.6864V61.6903V61.6942V61.6982V61.7021V61.706V61.7099V61.7138V61.7177V61.7217V61.7256V61.7295V61.7334V61.7373V61.7413V61.7452V61.7491V61.753V61.7569V61.7609V61.7648V61.7687V61.7726V61.7765V61.7805V61.7844V61.7883V61.7922V61.7961V61.8001V61.804V61.8079L152.032 61.8078C152.032 61.8078 152.031 61.8217 152.028 61.8879C152.028 61.9079 152.026 61.9326 152.025 61.9631C152.02 62.0829 152.009 62.329 152.018 62.6063C152.036 63.1231 152.13 64.2384 152.898 65.3226C153.303 65.894 153.748 66.3419 154.048 66.6324C154.243 66.8205 154.357 66.9269 154.445 67.0086C154.544 67.1001 154.609 67.1608 154.716 67.2707C155.314 67.8823 155.653 68.5412 155.774 69.4879C155.711 69.5742 155.63 69.6811 155.519 69.8257L155.473 69.8866C155.312 70.0946 155.07 70.4096 154.852 70.7335C153.732 72.3992 152.244 74.736 151.894 77.7282C151.47 81.354 152.086 84.7386 154.183 87.9843C154.346 88.2364 154.549 88.5369 154.723 88.795C154.811 88.9252 154.891 89.0447 154.956 89.1417C155.189 89.4925 155.368 89.7776 155.511 90.0375C155.653 90.2948 155.73 90.4782 155.772 90.6064C155.792 90.6676 155.801 90.7097 155.806 90.7353C155.808 90.7481 155.809 90.7569 155.81 90.7623C155.81 90.7676 155.81 90.7701 155.81 90.7702C155.818 91.6686 155.616 92.2986 154.837 93.3547C154.363 93.9964 153.817 94.6129 153.124 95.3944L153.114 95.4061C152.458 96.1458 151.663 97.0439 150.944 98.046C149.301 100.336 149.311 102.863 149.316 104.225L149.316 104.225C149.317 104.299 149.317 104.369 149.317 104.435C149.317 106.717 150.066 108.577 150.823 110.022C151.187 110.717 151.586 111.376 151.919 111.925L151.937 111.955C152.202 112.392 152.429 112.766 152.63 113.123L152.629 113.154C152.627 113.216 152.625 113.292 152.623 113.366C152.62 113.54 152.573 113.903 152.453 114.316C152.416 114.446 152.377 114.561 152.338 114.66C152.28 114.684 152.209 114.713 152.12 114.749L152.107 114.754L152.107 114.755C151.899 114.839 151.558 114.977 151.209 115.151C149.46 116.026 148.668 118.052 149.291 119.851C151.351 120.28 153.109 120.609 154.323 120.768C155.142 120.876 155.948 120.967 156.74 121.04C157.308 120.678 157.939 120.161 158.477 119.412C159.163 118.458 159.591 117.354 159.851 116.454C160.119 115.525 160.3 114.496 160.321 113.54C160.322 113.514 160.324 113.477 160.326 113.431C160.352 112.944 160.433 111.398 159.641 109.898C159.277 109.208 158.881 108.555 158.551 108.011L158.521 107.962C158.165 107.374 157.884 106.907 157.643 106.448C157.178 105.561 157.017 104.976 157.017 104.435C157.017 103.636 157.026 103.232 157.08 102.9C157.122 102.648 157.171 102.576 157.2 102.534C157.654 101.902 158.192 101.285 158.876 100.514L158.976 100.401C159.599 99.6986 160.35 98.8517 161.033 97.9258C162.541 95.8824 163.537 93.6612 163.51 90.6989C163.493 88.8903 162.844 87.392 162.259 86.3273C161.864 85.6098 161.317 84.7982 160.946 84.2477L160.946 84.2477C160.825 84.0681 160.722 83.9162 160.65 83.8045C159.632 82.2285 159.302 80.679 159.542 78.6221C159.659 77.6264 160.165 76.631 161.241 75.0315C161.315 74.921 161.412 74.7951 161.626 74.5156C161.808 74.2796 162.082 73.922 162.341 73.5231C162.845 72.7479 163.597 71.3665 163.505 69.5635C163.357 66.6861 162.362 64.0764 160.222 61.8882C160.048 61.7099 159.878 61.5478 159.744 61.4219L159.732 61.4104V61.4081V61.4042V61.4003V61.3963V61.3924V61.3885V61.3846V61.3807V61.3767V61.3728V61.3689V61.365V61.3611V61.3571V61.3532V61.3493V61.3454V61.3415V61.3375V61.3336V61.3297V61.3258V61.3219V61.3179V61.314V61.3101V61.3062V61.3023V61.2983V61.2944V61.2905V61.2866V61.2827V61.2787V61.2748V61.2709V61.267V61.2631V61.2591V61.2552V61.2513V61.2474V61.2435V61.2395V61.2356V61.2317V61.2278V61.2239V61.2199V61.216V61.2121V61.2082V61.2043V61.2003V61.1964V61.1925V61.1886V61.1847V61.1808V61.1768V61.1729V61.169V61.1651V61.1612V61.1572V61.1533V61.1494V61.1455V61.1416V61.1376V61.1337V61.1298V61.1259V61.122V61.118V61.1141V61.1102V61.1063V61.1024V61.0984V61.0945V61.0906V61.0867V61.0828V61.0788V61.0749V61.071V61.0671V61.0632V61.0592V61.0553V61.0514V61.0475V61.0436V61.0396V61.0357V61.0318V61.0279V61.024V61.02V61.0161V61.0122V61.0083V61.0044V61.0004V60.9965V60.9926V60.9887V60.9848V60.9808V60.9769V60.973V60.9691V60.9652V60.9612V60.9573V60.9534V60.9495V60.9456V60.9416V60.9377V60.9338V60.9299V60.926V60.9221V60.9181V60.9142V60.9103V60.9064V60.9025V60.8985V60.8946V60.8907V60.8868V60.8829V60.8789V60.875V60.8711V60.8672V60.8633V60.8593V60.8554V60.8515V60.8476V60.8437V60.8397V60.8358V60.8319V60.828V60.8241V60.8201V60.8162V60.8123V60.8084V60.8045V60.8005V60.7966V60.7927V60.7888V60.7849V60.7809V60.777V60.7731V60.7692V60.7653V60.7613V60.7574V60.7535V60.7496V60.7457V60.7417V60.7378V60.7339V60.73V60.7261V60.7221V60.7182V60.7143V60.7104V60.7065V60.7025V60.6986V60.6947V60.6908V60.6869V60.6829V60.679V60.6751V60.6712V60.6673V60.6634V60.6594V60.6555V60.6516V60.6477V60.6438V60.6398V60.6359V60.632V60.6281V60.6242V60.6202V60.6163V60.6124V60.6085V60.6046V60.6006V60.5967V60.5928V60.5889V60.585V60.581V60.5771V60.5732V60.5693V60.5654V60.5614V60.5575V60.5536V60.5497V60.5458V60.5418V60.5379V60.534V60.5301V60.5262V60.5222V60.5183V60.5144V60.5105V60.5066V60.5026V60.4987V60.4948V60.4909V60.487V60.483V60.4791V60.4752V60.4713V60.4674V60.4634V60.4595V60.4556V60.4517V60.4478V60.4438V60.4399V60.436V60.4321V60.4282V60.4242V60.4203V60.4164V60.4125V60.4086V60.4047V60.4007V60.3968V60.3929V60.389V60.3851V60.3811V60.3772V60.3733V60.3694V60.3655V60.3615V60.3576V60.3537V60.3498V60.3459V60.3419V60.338V60.3341V60.3302V60.3263V60.3223V60.3184V60.3145V60.3106V60.3067V60.3027V60.2988V60.2949V60.291V60.2871V60.2831V60.2792V60.2753V60.2714V60.2675V60.2635V60.2596V60.2557V60.2518V60.2479V60.2439V60.24V60.2361V60.2322V60.2283V60.2243V60.2204V60.2165V60.2126V60.2087V60.2047V60.2008V60.1969V60.193V60.1891V60.1851V60.1812V60.1773V60.1734V60.1695V60.1655V60.1616V60.1577V60.1538V60.1499V60.146V60.142V60.1381V60.1342V60.1303V60.1264V60.1224V60.1185V60.1146V60.1107V60.1068V60.1028V60.0989V60.095V60.0911V60.0872V60.0832V60.0793V60.0754V60.0715V60.0676V60.0636V60.0597V60.0558V60.0519V60.048V60.044V60.0401V60.0362V60.0323V60.0284V60.0244V60.0205V60.0166V60.0127V60.0088V60.0048V60.0009V59.997V59.9931V59.9892V59.9852V59.9813V59.9774V59.9735V59.9696V59.9656V59.9617V59.9578V59.9539V59.95V59.946V59.9421V59.9382V59.9343V59.9304V59.9264V59.9225V59.9186V59.9147V59.9108V59.9068V59.9029V59.899V59.8951V59.8912V59.8873V59.8833V59.8794V59.8755V59.8716V59.8677V59.8637V59.8598V59.8559V59.852V59.8481V59.8441V59.8402V59.8363V59.8324V59.8285V59.8245V59.8206V59.8167V59.8128V59.8089V59.8049C159.732 59.39 159.667 58.9904 159.545 58.616C157.284 59.2895 154.715 60.205 152.032 61.2484ZM155.937 69.2392C155.937 69.2391 155.935 69.2448 155.928 69.2565C155.933 69.2452 155.937 69.2393 155.937 69.2392Z" fill="white"/>
<path fill-rule="evenodd" clip-rule="evenodd" d="M161.551 165.589C160.692 165.361 159.75 165.428 158.887 165.846L158.883 165.848L158.88 165.85L158.876 165.852L158.872 165.854L158.868 165.856L158.864 165.857L158.861 165.859L158.857 165.861L158.853 165.863L158.849 165.865L158.846 165.867L158.842 165.868L158.838 165.87L158.834 165.872L158.83 165.874L158.827 165.876L158.823 165.878L158.819 165.879L158.815 165.881L158.812 165.883L158.808 165.885L158.804 165.887L158.8 165.889L158.796 165.89L158.793 165.892L158.789 165.894L158.785 165.896L158.781 165.898L158.778 165.9L158.774 165.901L158.77 165.903L158.766 165.905L158.762 165.907L158.759 165.909L158.755 165.911L158.751 165.912L158.747 165.914L158.744 165.916L158.74 165.918L158.736 165.92L158.732 165.922L158.728 165.923L158.725 165.925L158.721 165.927L158.717 165.929L158.713 165.931L158.71 165.933L158.706 165.934L158.702 165.936L158.698 165.938L158.694 165.94L158.691 165.942L158.687 165.943L158.683 165.945L158.679 165.947L158.676 165.949L158.672 165.951L158.668 165.953L158.664 165.954L158.66 165.956L158.657 165.958L158.653 165.96L158.649 165.962L158.645 165.964L158.642 165.965L158.638 165.967L158.634 165.969L158.63 165.971L158.626 165.973L158.623 165.975L158.619 165.976L158.615 165.978L158.611 165.98L158.608 165.982L158.604 165.984L158.6 165.986L158.596 165.987L158.592 165.989L158.589 165.991L158.585 165.993L158.581 165.995L158.577 165.997L158.574 165.998L158.57 166L158.566 166.002L158.562 166.004L158.558 166.006L158.555 166.008L158.551 166.009L158.547 166.011L158.543 166.013L158.54 166.015L158.536 166.017L158.532 166.019L158.528 166.02L158.524 166.022L158.521 166.024L158.517 166.026L158.513 166.028L158.509 166.03L158.506 166.031L158.502 166.033L158.498 166.035L158.494 166.037L158.49 166.039L158.487 166.041L158.483 166.042L158.479 166.044L158.475 166.046L158.472 166.048L158.468 166.05L158.464 166.052L158.46 166.053L158.456 166.055L158.453 166.057L158.449 166.059L158.445 166.061L158.441 166.063L158.438 166.064L158.434 166.066L158.43 166.068L158.426 166.07L158.422 166.072L158.419 166.074L158.415 166.075L158.411 166.077L158.407 166.079L158.404 166.081L158.4 166.083L158.396 166.084L158.392 166.086L158.388 166.088L158.385 166.09L158.381 166.092L158.377 166.094L158.373 166.095L158.37 166.097L158.366 166.099L158.362 166.101L158.358 166.103L158.354 166.105L158.351 166.106L158.347 166.108L158.343 166.11L158.339 166.112L158.336 166.114L158.332 166.116L158.328 166.117L158.324 166.119L158.32 166.121L158.317 166.123L158.313 166.125L158.309 166.127L158.305 166.128L158.302 166.13L158.298 166.132L158.294 166.134L158.29 166.136L158.286 166.138L158.283 166.139L158.279 166.141L158.275 166.143L158.271 166.145L158.268 166.147L158.264 166.149L158.26 166.15L158.256 166.152L158.252 166.154L158.249 166.156L158.245 166.158L158.241 166.16L158.237 166.161L158.234 166.163L158.23 166.165L158.226 166.167L158.222 166.169L158.218 166.171L158.215 166.172L158.211 166.174L158.207 166.176L158.203 166.178L158.2 166.18L158.196 166.182L158.192 166.183L158.188 166.185L158.184 166.187L158.181 166.189L158.177 166.191L158.173 166.193L158.169 166.194L158.166 166.196L158.162 166.198L158.158 166.2L158.154 166.202L158.15 166.204L158.147 166.205L158.143 166.207L158.139 166.209L158.135 166.211L158.132 166.213L158.128 166.215L158.124 166.216L158.12 166.218L158.116 166.22L158.113 166.222L158.109 166.224L158.105 166.225L158.101 166.227L158.098 166.229L158.094 166.231L158.09 166.233L158.086 166.235L158.082 166.236L158.079 166.238L158.075 166.24L158.071 166.242L158.067 166.244L158.064 166.246L158.06 166.247L158.056 166.249L158.052 166.251L158.048 166.253L158.045 166.255L158.041 166.257L158.037 166.258L158.033 166.26L158.03 166.262L158.026 166.264L158.022 166.266L158.018 166.268L158.014 166.269L158.011 166.271L158.007 166.273L158.003 166.275L157.999 166.277L157.996 166.279L157.992 166.28L157.988 166.282L157.984 166.284L157.98 166.286L157.977 166.288L157.973 166.29L157.969 166.291L157.965 166.293L157.962 166.295L157.958 166.297L157.954 166.299L157.95 166.301L157.946 166.302L157.943 166.304L157.939 166.306L157.935 166.308L157.931 166.31L157.928 166.312L157.924 166.313L157.92 166.315L157.916 166.317L157.912 166.319L157.909 166.321L157.905 166.323L157.901 166.324L157.897 166.326L157.894 166.328L157.89 166.33L157.886 166.332L157.882 166.334L157.878 166.335L157.875 166.337L157.871 166.339L157.867 166.341L157.863 166.343L157.86 166.345L157.856 166.346L157.852 166.348L157.848 166.35L157.844 166.352L157.841 166.354L157.837 166.356L157.833 166.357L157.829 166.359L157.826 166.361L157.822 166.363L157.818 166.365L157.814 166.366L157.81 166.368L157.807 166.37L157.803 166.372L157.799 166.374L157.795 166.376L157.792 166.377L157.788 166.379L157.784 166.381L157.78 166.383L157.776 166.385L157.773 166.387L157.769 166.388L157.765 166.39L157.761 166.392L157.758 166.394L157.754 166.396L157.75 166.398L157.746 166.399L157.742 166.401L157.739 166.403L157.735 166.405L157.731 166.407L157.727 166.409L157.724 166.41L157.72 166.412L157.716 166.414L157.712 166.416L157.708 166.418L157.705 166.42L157.701 166.421L157.697 166.423L157.693 166.425L157.69 166.427L157.686 166.429L157.682 166.431L157.678 166.432L157.674 166.434L157.671 166.436L157.667 166.438L157.663 166.44L157.659 166.442L157.656 166.443L157.652 166.445L157.648 166.447L157.644 166.449L157.64 166.451L157.637 166.453L157.633 166.454L157.629 166.456L157.625 166.458L157.622 166.46L157.618 166.462L157.614 166.464L157.61 166.465L157.606 166.467L157.603 166.469L157.599 166.471L157.595 166.473L157.591 166.475L157.588 166.476L157.584 166.478L157.58 166.48L157.576 166.482L157.572 166.484L157.569 166.486L157.565 166.487L157.561 166.489L157.557 166.491L157.554 166.493L157.55 166.495L157.546 166.497L157.542 166.498L157.539 166.5L157.535 166.502L157.531 166.504L157.527 166.506L157.523 166.507L157.52 166.509L157.516 166.511L157.512 166.513L157.508 166.515L157.505 166.517L157.501 166.518L157.497 166.52L157.493 166.522L157.489 166.524L157.486 166.526L157.482 166.528L157.478 166.529L157.474 166.531L157.471 166.533L157.467 166.535L157.463 166.537L157.459 166.539L157.455 166.54L157.452 166.542L157.448 166.544L157.444 166.546L157.44 166.548L157.437 166.55L157.433 166.551L157.429 166.553L157.425 166.555L157.421 166.557L157.418 166.559L157.414 166.561L157.41 166.562L157.406 166.564L157.403 166.566L157.399 166.568L157.395 166.57L157.391 166.572L157.387 166.573L157.384 166.575L157.38 166.577L157.376 166.579L157.372 166.581L157.369 166.583L157.365 166.584L157.361 166.586L157.357 166.588L157.353 166.59L157.35 166.592L157.346 166.594L157.342 166.595L157.338 166.597L157.335 166.599L157.331 166.601L157.327 166.603L157.323 166.605L157.319 166.606L157.316 166.608L157.312 166.61L157.308 166.612L157.304 166.614L157.301 166.616L157.297 166.617L157.293 166.619L157.289 166.621L157.285 166.623L157.282 166.625L157.278 166.627L157.274 166.628L157.27 166.63L157.267 166.632L157.263 166.634L157.259 166.636L157.255 166.638L157.251 166.639L157.248 166.641L157.244 166.643L157.24 166.645L157.236 166.647L157.233 166.648L157.229 166.65L157.225 166.652L157.221 166.654L157.217 166.656L157.214 166.658L157.21 166.659L157.206 166.661L157.202 166.663L157.199 166.665L157.195 166.667L157.191 166.669L157.187 166.67L157.183 166.672L157.18 166.674L157.176 166.676L157.172 166.678L157.168 166.68L157.165 166.681L157.161 166.683L157.157 166.685L157.153 166.687L157.149 166.689L157.146 166.691L157.142 166.692L157.138 166.694L157.134 166.696L157.131 166.698L157.127 166.7L157.123 166.702L157.119 166.703L157.115 166.705L157.112 166.707L157.108 166.709L157.104 166.711L157.1 166.713L157.097 166.714L157.093 166.716L157.089 166.718L157.085 166.72L157.081 166.722L157.078 166.724L157.074 166.725L157.07 166.727L157.066 166.729L157.063 166.731L157.059 166.733L157.055 166.735L157.051 166.736L157.047 166.738L157.044 166.74L157.04 166.742L157.036 166.744L157.032 166.746L157.029 166.747L157.025 166.749L157.021 166.751L157.017 166.753L157.013 166.755L157.01 166.757L157.006 166.758L157.002 166.76L156.998 166.762L156.995 166.764L156.991 166.766L156.987 166.768L156.983 166.769L156.979 166.771L156.976 166.773L156.972 166.775L156.968 166.777L156.964 166.779L156.961 166.78L156.959 166.781L156.932 166.793C156.908 166.804 156.89 166.812 156.861 166.824L156.79 166.854C156.673 166.905 156.441 167.005 156.191 167.136C155.727 167.381 154.76 167.953 154.109 169.113C153.756 169.742 153.535 170.355 153.394 170.771C153.305 171.034 153.255 171.192 153.216 171.315L153.216 171.315C153.171 171.456 153.14 171.552 153.083 171.708C152.733 172.652 152.183 173.35 151.199 173.961C151.062 173.941 150.889 173.909 150.63 173.858L150.549 173.842C150.275 173.787 149.868 173.707 149.465 173.653C147.345 173.37 144.477 173.066 141.514 174.104C137.894 175.373 134.979 177.49 132.853 180.927C132.686 181.197 132.493 181.524 132.325 181.807L132.325 181.808C132.239 181.953 132.16 182.086 132.094 182.196C131.862 182.583 131.664 182.894 131.472 183.16C131.076 183.71 130.853 183.852 130.782 183.887C129.837 184.356 129.062 184.456 127.646 184.205C126.799 184.054 125.944 183.822 124.88 183.534L124.856 183.527C123.841 183.252 122.622 182.921 121.342 182.712C118.482 182.243 116.137 183.389 114.828 184.03C114.759 184.063 114.693 184.096 114.63 184.126C112.5 185.159 111.089 186.689 110.058 188.063C109.561 188.725 109.113 189.405 108.736 189.978L108.717 190.006C108.399 190.49 108.125 190.904 107.853 191.287L107.786 191.317L107.738 191.339L107.737 191.34C107.677 191.367 107.604 191.399 107.534 191.432C107.333 191.524 106.932 191.657 106.457 191.74C106.258 191.776 106.078 191.796 105.93 191.805C105.867 191.75 105.787 191.679 105.676 191.58L105.666 191.571L105.666 191.571C105.49 191.414 105.203 191.158 104.881 190.914C103.71 190.026 102.195 189.911 100.946 190.484C101.901 193.281 103.078 196.351 104.495 199.416C105.661 199.595 106.852 199.49 107.796 199.323C108.792 199.147 109.838 198.845 110.737 198.434C110.766 198.42 110.806 198.404 110.854 198.383C111.345 198.174 112.783 197.563 113.807 196.191C114.299 195.53 114.743 194.856 115.117 194.289L115.117 194.289L115.149 194.24C115.551 193.629 115.877 193.137 116.215 192.686C116.871 191.814 117.399 191.341 117.989 191.055C118.755 190.684 119.173 190.491 119.548 190.378C119.849 190.288 119.991 190.293 120.097 190.31C120.93 190.447 121.784 190.672 122.839 190.958L122.991 190.999C123.956 191.262 125.107 191.574 126.3 191.786C128.921 192.251 131.444 192.154 134.203 190.785C135.867 189.96 136.975 188.695 137.721 187.661C138.222 186.964 138.739 186.091 139.1 185.482L139.1 185.482C139.22 185.278 139.323 185.104 139.402 184.977C140.494 183.212 141.9 182.128 144.061 181.371C145.155 180.987 146.414 181.014 148.448 181.285C148.599 181.305 148.774 181.34 149.139 181.412C149.45 181.473 149.911 181.564 150.402 181.622C151.361 181.734 152.955 181.792 154.557 180.913C157.194 179.467 159.201 177.363 160.304 174.38C160.394 174.136 160.471 173.903 160.531 173.718L160.574 173.586L160.576 173.585L160.58 173.583L160.584 173.581L160.588 173.579L160.591 173.577L160.595 173.575L160.599 173.574L160.603 173.572L160.606 173.57L160.61 173.568L160.614 173.566L160.618 173.564L160.622 173.563L160.625 173.561L160.629 173.559L160.633 173.557L160.637 173.555L160.64 173.553L160.644 173.552L160.648 173.55L160.652 173.548L160.656 173.546L160.659 173.544L160.663 173.543L160.667 173.541L160.671 173.539L160.674 173.537L160.678 173.535L160.682 173.533L160.686 173.532L160.69 173.53L160.693 173.528L160.697 173.526L160.701 173.524L160.705 173.522L160.708 173.521L160.712 173.519L160.716 173.517L160.72 173.515L160.724 173.513L160.727 173.511L160.731 173.51L160.735 173.508L160.739 173.506L160.742 173.504L160.746 173.502L160.75 173.5L160.754 173.499L160.758 173.497L160.761 173.495L160.765 173.493L160.769 173.491L160.773 173.489L160.776 173.488L160.78 173.486L160.784 173.484L160.788 173.482L160.792 173.48L160.795 173.478L160.799 173.477L160.803 173.475L160.807 173.473L160.81 173.471L160.814 173.469L160.818 173.467L160.822 173.466L160.826 173.464L160.829 173.462L160.833 173.46L160.837 173.458L160.841 173.456L160.844 173.455L160.848 173.453L160.852 173.451L160.856 173.449L160.86 173.447L160.863 173.445L160.867 173.444L160.871 173.442L160.875 173.44L160.878 173.438L160.882 173.436L160.886 173.434L160.89 173.433L160.894 173.431L160.897 173.429L160.901 173.427L160.905 173.425L160.909 173.423L160.912 173.422L160.916 173.42L160.92 173.418L160.924 173.416L160.928 173.414L160.931 173.412L160.935 173.411L160.939 173.409L160.943 173.407L160.946 173.405L160.95 173.403L160.954 173.402L160.958 173.4L160.962 173.398L160.965 173.396L160.969 173.394L160.973 173.392L160.977 173.391L160.98 173.389L160.984 173.387L160.988 173.385L160.992 173.383L160.996 173.381L160.999 173.38L161.003 173.378L161.007 173.376L161.011 173.374L161.014 173.372L161.018 173.37L161.022 173.369L161.026 173.367L161.03 173.365L161.033 173.363L161.037 173.361L161.041 173.359L161.045 173.358L161.048 173.356L161.052 173.354L161.056 173.352L161.06 173.35L161.064 173.348L161.067 173.347L161.071 173.345L161.075 173.343L161.079 173.341L161.082 173.339L161.086 173.337L161.09 173.336L161.094 173.334L161.098 173.332L161.101 173.33L161.105 173.328L161.109 173.326L161.113 173.325L161.116 173.323L161.12 173.321L161.124 173.319L161.128 173.317L161.132 173.315L161.135 173.314L161.139 173.312L161.143 173.31L161.147 173.308L161.15 173.306L161.154 173.304L161.158 173.303L161.162 173.301L161.166 173.299L161.169 173.297L161.173 173.295L161.177 173.293L161.181 173.292L161.184 173.29L161.188 173.288L161.192 173.286L161.196 173.284L161.2 173.282L161.203 173.281L161.207 173.279L161.211 173.277L161.215 173.275L161.218 173.273L161.222 173.271L161.226 173.27L161.23 173.268L161.234 173.266L161.237 173.264L161.241 173.262L161.245 173.261L161.249 173.259L161.252 173.257L161.256 173.255L161.26 173.253L161.264 173.251L161.268 173.25L161.271 173.248L161.275 173.246L161.279 173.244L161.283 173.242L161.286 173.24L161.29 173.239L161.294 173.237L161.298 173.235L161.302 173.233L161.305 173.231L161.309 173.229L161.313 173.228L161.317 173.226L161.32 173.224L161.324 173.222L161.328 173.22L161.332 173.218L161.336 173.217L161.339 173.215L161.343 173.213L161.347 173.211L161.351 173.209L161.354 173.207L161.358 173.206L161.362 173.204L161.366 173.202L161.37 173.2L161.373 173.198L161.377 173.196L161.381 173.195L161.385 173.193L161.388 173.191L161.392 173.189L161.396 173.187L161.4 173.185L161.403 173.184L161.407 173.182L161.411 173.18L161.415 173.178L161.419 173.176L161.422 173.174L161.426 173.173L161.43 173.171L161.434 173.169L161.437 173.167L161.441 173.165L161.445 173.163L161.449 173.162L161.453 173.16L161.456 173.158L161.46 173.156L161.464 173.154L161.468 173.152L161.471 173.151L161.475 173.149L161.479 173.147L161.483 173.145L161.487 173.143L161.49 173.141L161.494 173.14L161.498 173.138L161.502 173.136L161.505 173.134L161.509 173.132L161.513 173.13L161.517 173.129L161.521 173.127L161.524 173.125L161.528 173.123L161.532 173.121L161.536 173.12L161.539 173.118L161.543 173.116L161.547 173.114L161.551 173.112L161.555 173.11L161.558 173.109L161.562 173.107L161.566 173.105L161.57 173.103L161.573 173.101L161.577 173.099L161.581 173.098L161.585 173.096L161.589 173.094L161.592 173.092L161.596 173.09L161.6 173.088L161.604 173.087L161.607 173.085L161.611 173.083L161.615 173.081L161.619 173.079L161.623 173.077L161.626 173.076L161.63 173.074L161.634 173.072L161.638 173.07L161.641 173.068L161.645 173.066L161.649 173.065L161.653 173.063L161.657 173.061L161.66 173.059L161.664 173.057L161.668 173.055L161.672 173.054L161.675 173.052L161.679 173.05L161.683 173.048L161.687 173.046L161.691 173.044L161.694 173.043L161.698 173.041L161.702 173.039L161.706 173.037L161.709 173.035L161.713 173.033L161.717 173.032L161.721 173.03L161.725 173.028L161.728 173.026L161.732 173.024L161.736 173.022L161.74 173.021L161.743 173.019L161.747 173.017L161.751 173.015L161.755 173.013L161.759 173.011L161.762 173.01L161.766 173.008L161.77 173.006L161.774 173.004L161.777 173.002L161.781 173L161.785 172.999L161.789 172.997L161.793 172.995L161.796 172.993L161.8 172.991L161.804 172.989L161.808 172.988L161.811 172.986L161.815 172.984L161.819 172.982L161.823 172.98L161.827 172.979L161.83 172.977L161.834 172.975L161.838 172.973L161.842 172.971L161.845 172.969L161.849 172.968L161.853 172.966L161.857 172.964L161.861 172.962L161.864 172.96L161.868 172.958L161.872 172.957L161.876 172.955L161.879 172.953L161.883 172.951L161.887 172.949L161.891 172.947L161.895 172.946L161.898 172.944L161.902 172.942L161.906 172.94L161.91 172.938L161.913 172.936L161.917 172.935L161.921 172.933L161.925 172.931L161.929 172.929L161.932 172.927L161.936 172.925L161.94 172.924L161.944 172.922L161.947 172.92L161.951 172.918L161.955 172.916L161.959 172.914L161.963 172.913L161.966 172.911L161.97 172.909L161.974 172.907L161.978 172.905L161.981 172.903L161.985 172.902L161.989 172.9L161.993 172.898L161.997 172.896L162 172.894L162.004 172.892L162.008 172.891L162.012 172.889L162.015 172.887L162.019 172.885L162.023 172.883L162.027 172.881L162.031 172.88L162.034 172.878L162.038 172.876L162.042 172.874L162.046 172.872L162.049 172.87L162.053 172.869L162.057 172.867L162.061 172.865L162.065 172.863L162.068 172.861L162.072 172.859L162.076 172.858L162.08 172.856L162.083 172.854L162.087 172.852L162.091 172.85L162.095 172.848L162.099 172.847L162.102 172.845L162.106 172.843L162.11 172.841L162.114 172.839L162.117 172.838L162.121 172.836L162.125 172.834L162.129 172.832L162.133 172.83L162.136 172.828L162.14 172.827L162.144 172.825L162.148 172.823L162.151 172.821L162.155 172.819L162.159 172.817L162.163 172.816L162.167 172.814L162.17 172.812L162.174 172.81L162.178 172.808L162.182 172.806L162.185 172.805L162.189 172.803L162.193 172.801L162.197 172.799L162.201 172.797L162.204 172.795L162.208 172.794L162.212 172.792L162.216 172.79L162.219 172.788L162.223 172.786L162.227 172.784L162.231 172.783L162.235 172.781L162.238 172.779L162.242 172.777L162.246 172.775C162.887 172.464 163.403 171.999 163.771 171.445C163.143 169.522 162.396 167.565 161.551 165.589ZM151.435 173.984C151.435 173.984 151.431 173.984 151.421 173.984C151.43 173.984 151.435 173.984 151.435 173.984Z" fill="white"/>
<path fill-rule="evenodd" clip-rule="evenodd" d="M93.9593 191.431C92.6386 189.934 90.3661 189.688 88.7494 190.913C88.4269 191.158 88.1405 191.413 87.9641 191.571L87.9544 191.579C87.8429 191.679 87.7636 191.749 87.7004 191.804C87.5517 191.796 87.3725 191.775 87.1732 191.74C86.6982 191.656 86.2977 191.523 86.0962 191.431C86.0724 191.42 86.0484 191.409 86.0248 191.398C85.978 191.377 85.9324 191.357 85.8924 191.339L85.8444 191.317L85.7773 191.286C85.5048 190.904 85.2314 190.489 84.9128 190.005L84.8942 189.977L84.8942 189.977C84.517 189.404 84.0692 188.724 83.5724 188.062C82.5411 186.689 81.1297 185.158 79.0001 184.126C78.9373 184.095 78.8715 184.063 78.8028 184.029L78.802 184.029C77.4928 183.389 75.1486 182.242 72.2881 182.711C71.0079 182.921 69.7896 183.251 68.7743 183.526L68.7503 183.533C67.6858 183.822 66.8313 184.054 65.984 184.204C64.5679 184.455 63.7935 184.356 62.8485 183.887C62.7774 183.852 62.5537 183.71 62.1578 183.16C61.9658 182.893 61.7687 182.582 61.5364 182.195C61.4705 182.086 61.3913 181.952 61.3055 181.807L61.3053 181.807C61.1373 181.523 60.9441 181.197 60.7771 180.927C58.6516 177.489 55.7364 175.373 52.116 174.104C49.1535 173.066 46.2856 173.37 44.1648 173.652C43.762 173.706 43.3557 173.787 43.0808 173.841L43.0004 173.857C42.7407 173.908 42.5685 173.94 42.4309 173.96C41.4473 173.349 40.8968 172.651 40.5476 171.707C40.4898 171.551 40.4594 171.456 40.4146 171.314L40.4146 171.314C40.3755 171.191 40.3254 171.033 40.2367 170.771C40.0957 170.354 39.8742 169.741 39.5216 169.113C38.8703 167.953 37.9031 167.38 37.4391 167.136C37.1891 167.004 36.9576 166.904 36.8403 166.854L36.7688 166.823C36.7407 166.811 36.7221 166.803 36.6977 166.792L36.6714 166.781L36.6697 166.78L36.6659 166.778L36.6621 166.776L36.6583 166.774L36.6546 166.772L36.6508 166.771L36.647 166.769L36.6432 166.767L36.6394 166.765L36.6357 166.763L36.6319 166.761L36.6281 166.76L36.6243 166.758L36.6206 166.756L36.6168 166.754L36.613 166.752L36.6092 166.75L36.6054 166.749L36.6017 166.747L36.5979 166.745L36.5941 166.743L36.5903 166.741L36.5866 166.739L36.5828 166.738L36.579 166.736L36.5752 166.734L36.5714 166.732L36.5677 166.73L36.5639 166.728L36.5601 166.727L36.5563 166.725L36.5526 166.723L36.5488 166.721L36.545 166.719L36.5412 166.717L36.5375 166.716L36.5337 166.714L36.5299 166.712L36.5261 166.71L36.5223 166.708L36.5186 166.706L36.5148 166.705L36.511 166.703L36.5072 166.701L36.5035 166.699L36.4997 166.697L36.4959 166.696L36.4921 166.694L36.4883 166.692L36.4846 166.69L36.4808 166.688L36.477 166.686L36.4732 166.685L36.4695 166.683L36.4657 166.681L36.4619 166.679L36.4581 166.677L36.4543 166.675L36.4506 166.674L36.4468 166.672L36.443 166.67L36.4392 166.668L36.4355 166.666L36.4317 166.664L36.4279 166.663L36.4241 166.661L36.4204 166.659L36.4166 166.657L36.4128 166.655L36.409 166.653L36.4052 166.652L36.4015 166.65L36.3977 166.648L36.3939 166.646L36.3901 166.644L36.3864 166.642L36.3826 166.641L36.3788 166.639L36.375 166.637L36.3712 166.635L36.3675 166.633L36.3637 166.631L36.3599 166.63L36.3561 166.628L36.3524 166.626L36.3486 166.624L36.3448 166.622L36.341 166.62L36.3372 166.619L36.3335 166.617L36.3297 166.615L36.3259 166.613L36.3221 166.611L36.3184 166.609L36.3146 166.608L36.3108 166.606L36.307 166.604L36.3032 166.602L36.2995 166.6L36.2957 166.598L36.2919 166.597L36.2881 166.595L36.2844 166.593L36.2806 166.591L36.2768 166.589L36.273 166.587L36.2693 166.586L36.2655 166.584L36.2617 166.582L36.2579 166.58L36.2541 166.578L36.2504 166.576L36.2466 166.575L36.2428 166.573L36.239 166.571L36.2353 166.569L36.2315 166.567L36.2277 166.565L36.2239 166.564L36.2201 166.562L36.2164 166.56L36.2126 166.558L36.2088 166.556L36.205 166.555L36.2013 166.553L36.1975 166.551L36.1937 166.549L36.1899 166.547L36.1861 166.545L36.1824 166.544L36.1786 166.542L36.1748 166.54L36.171 166.538L36.1673 166.536L36.1635 166.534L36.1597 166.533L36.1559 166.531L36.1521 166.529L36.1484 166.527L36.1446 166.525L36.1408 166.523L36.137 166.522L36.1333 166.52L36.1295 166.518L36.1257 166.516L36.1219 166.514L36.1182 166.512L36.1144 166.511L36.1106 166.509L36.1068 166.507L36.103 166.505L36.0993 166.503L36.0955 166.501L36.0917 166.5L36.0879 166.498L36.0842 166.496L36.0804 166.494L36.0766 166.492L36.0728 166.49L36.069 166.489L36.0653 166.487L36.0615 166.485L36.0577 166.483L36.0539 166.481L36.0502 166.479L36.0464 166.478L36.0426 166.476L36.0388 166.474L36.035 166.472L36.0313 166.47L36.0275 166.468L36.0237 166.467L36.0199 166.465L36.0162 166.463L36.0124 166.461L36.0086 166.459L36.0048 166.457L36.001 166.456L35.9973 166.454L35.9935 166.452L35.9897 166.45L35.9859 166.448L35.9822 166.446L35.9784 166.445L35.9746 166.443L35.9708 166.441L35.9671 166.439L35.9633 166.437L35.9595 166.435L35.9557 166.434L35.9519 166.432L35.9482 166.43L35.9444 166.428L35.9406 166.426L35.9368 166.424L35.9331 166.423L35.9293 166.421L35.9255 166.419L35.9217 166.417L35.9179 166.415L35.9142 166.414L35.9104 166.412L35.9066 166.41L35.9028 166.408L35.8991 166.406L35.8953 166.404L35.8915 166.403L35.8877 166.401L35.8839 166.399L35.8802 166.397L35.8764 166.395L35.8726 166.393L35.8688 166.392L35.8651 166.39L35.8613 166.388L35.8575 166.386L35.8537 166.384L35.8499 166.382L35.8462 166.381L35.8424 166.379L35.8386 166.377L35.8348 166.375L35.8311 166.373L35.8273 166.371L35.8235 166.37L35.8197 166.368L35.816 166.366L35.8122 166.364L35.8084 166.362L35.8046 166.36L35.8008 166.359L35.7971 166.357L35.7933 166.355L35.7895 166.353L35.7857 166.351L35.782 166.349L35.7782 166.348L35.7744 166.346L35.7706 166.344L35.7668 166.342L35.7631 166.34L35.7593 166.338L35.7555 166.337L35.7517 166.335L35.748 166.333L35.7442 166.331L35.7404 166.329L35.7366 166.327L35.7328 166.326L35.7291 166.324L35.7253 166.322L35.7215 166.32L35.7177 166.318L35.714 166.316L35.7102 166.315L35.7064 166.313L35.7026 166.311L35.6989 166.309L35.6951 166.307L35.6913 166.305L35.6875 166.304L35.6837 166.302L35.68 166.3L35.6762 166.298L35.6724 166.296L35.6686 166.294L35.6649 166.293L35.6611 166.291L35.6573 166.289L35.6535 166.287L35.6497 166.285L35.646 166.283L35.6422 166.282L35.6384 166.28L35.6346 166.278L35.6309 166.276L35.6271 166.274L35.6233 166.273L35.6195 166.271L35.6157 166.269L35.612 166.267L35.6082 166.265L35.6044 166.263L35.6006 166.262L35.5969 166.26L35.5931 166.258L35.5893 166.256L35.5855 166.254L35.5817 166.252L35.578 166.251L35.5742 166.249L35.5704 166.247L35.5666 166.245L35.5629 166.243L35.5591 166.241L35.5553 166.24L35.5515 166.238L35.5478 166.236L35.544 166.234L35.5402 166.232L35.5364 166.23L35.5326 166.229L35.5289 166.227L35.5251 166.225L35.5213 166.223L35.5175 166.221L35.5138 166.219L35.51 166.218L35.5062 166.216L35.5024 166.214L35.4986 166.212L35.4949 166.21L35.4911 166.208L35.4873 166.207L35.4835 166.205L35.4798 166.203L35.476 166.201L35.4722 166.199L35.4684 166.197L35.4646 166.196L35.4609 166.194L35.4571 166.192L35.4533 166.19L35.4495 166.188L35.4458 166.186L35.442 166.185L35.4382 166.183L35.4344 166.181L35.4306 166.179L35.4269 166.177L35.4231 166.175L35.4193 166.174L35.4155 166.172L35.4118 166.17L35.408 166.168L35.4042 166.166L35.4004 166.164L35.3967 166.163L35.3929 166.161L35.3891 166.159L35.3853 166.157L35.3815 166.155L35.3778 166.153L35.374 166.152L35.3702 166.15L35.3664 166.148L35.3627 166.146L35.3589 166.144L35.3551 166.142L35.3513 166.141L35.3475 166.139L35.3438 166.137L35.34 166.135L35.3362 166.133L35.3324 166.132L35.3287 166.13L35.3249 166.128L35.3211 166.126L35.3173 166.124L35.3135 166.122L35.3098 166.121L35.306 166.119L35.3022 166.117L35.2984 166.115L35.2947 166.113L35.2909 166.111L35.2871 166.11L35.2833 166.108L35.2795 166.106L35.2758 166.104L35.272 166.102L35.2682 166.1L35.2644 166.099L35.2607 166.097L35.2569 166.095L35.2531 166.093L35.2493 166.091L35.2456 166.089L35.2418 166.088L35.238 166.086L35.2342 166.084L35.2304 166.082L35.2267 166.08L35.2229 166.078L35.2191 166.077L35.2153 166.075L35.2116 166.073L35.2078 166.071L35.204 166.069L35.2002 166.067L35.1964 166.066L35.1927 166.064L35.1889 166.062L35.1851 166.06L35.1813 166.058L35.1776 166.056L35.1738 166.055L35.17 166.053L35.1662 166.051L35.1624 166.049L35.1587 166.047L35.1549 166.045L35.1511 166.044L35.1473 166.042L35.1436 166.04L35.1398 166.038L35.136 166.036L35.1322 166.034L35.1284 166.033L35.1247 166.031L35.1209 166.029L35.1171 166.027L35.1133 166.025L35.1096 166.023L35.1058 166.022L35.102 166.02L35.0982 166.018L35.0945 166.016L35.0907 166.014L35.0869 166.012L35.0831 166.011L35.0793 166.009L35.0756 166.007L35.0718 166.005L35.068 166.003L35.0642 166.001L35.0605 166L35.0567 165.998L35.0529 165.996L35.0491 165.994L35.0453 165.992L35.0416 165.991L35.0378 165.989L35.034 165.987L35.0302 165.985L35.0265 165.983L35.0227 165.981L35.0189 165.98L35.0151 165.978L35.0113 165.976L35.0076 165.974L35.0038 165.972L35 165.97L34.9962 165.969L34.9925 165.967L34.9887 165.965L34.9849 165.963L34.9811 165.961L34.9774 165.959L34.9736 165.958L34.9698 165.956L34.966 165.954L34.9622 165.952L34.9585 165.95L34.9547 165.948L34.9509 165.947L34.9471 165.945L34.9434 165.943L34.9396 165.941L34.9358 165.939L34.932 165.937L34.9282 165.936L34.9245 165.934L34.9207 165.932L34.9169 165.93L34.9131 165.928L34.9094 165.926L34.9056 165.925L34.9018 165.923L34.898 165.921L34.8942 165.919L34.8905 165.917L34.8867 165.915L34.8829 165.914L34.8791 165.912L34.8754 165.91L34.8716 165.908L34.8678 165.906L34.864 165.904L34.8602 165.903L34.8565 165.901L34.8527 165.899L34.8489 165.897L34.8451 165.895L34.8414 165.893L34.8376 165.892L34.8338 165.89L34.83 165.888L34.8263 165.886L34.8225 165.884L34.8187 165.882L34.8149 165.881L34.8111 165.879L34.8074 165.877L34.8036 165.875L34.7998 165.873L34.796 165.871L34.7923 165.87L34.7885 165.868L34.7847 165.866L34.7809 165.864L34.7771 165.862L34.7734 165.86L34.7696 165.859L34.7658 165.857L34.762 165.855L34.7583 165.853L34.7545 165.851L34.7507 165.85L34.7469 165.848L34.7431 165.846C34.5357 165.745 34.3236 165.665 34.1093 165.604C33.1943 168.104 32.4094 170.571 31.791 172.972L31.7923 172.972L31.7961 172.974L31.7999 172.976L31.8036 172.978L31.8074 172.98L31.8112 172.982L31.815 172.983L31.8187 172.985L31.8225 172.987L31.8263 172.989L31.8301 172.991L31.8339 172.993L31.8376 172.994L31.8414 172.996L31.8452 172.998L31.849 173L31.8527 173.002L31.8565 173.004L31.8603 173.005L31.8641 173.007L31.8678 173.009L31.8716 173.011L31.8754 173.013L31.8792 173.015L31.883 173.016L31.8867 173.018L31.8905 173.02L31.8943 173.022L31.8981 173.024L31.9018 173.026L31.9056 173.027L31.9094 173.029L31.9132 173.031L31.917 173.033L31.9207 173.035L31.9245 173.037L31.9283 173.038L31.9321 173.04L31.9358 173.042L31.9396 173.044L31.9434 173.046L31.9472 173.047L31.951 173.049L31.9547 173.051L31.9585 173.053L31.9623 173.055L31.9661 173.057L31.9698 173.058L31.9736 173.06L31.9774 173.062L31.9812 173.064L31.985 173.066L31.9887 173.068L31.9925 173.069L31.9963 173.071L32.0001 173.073L32.0038 173.075L32.0076 173.077L32.0114 173.079L32.0152 173.08L32.0189 173.082L32.0227 173.084L32.0265 173.086L32.0303 173.088L32.0341 173.09L32.0378 173.091L32.0416 173.093L32.0454 173.095L32.0492 173.097L32.0529 173.099L32.0567 173.101L32.0605 173.102L32.0643 173.104L32.0681 173.106L32.0718 173.108L32.0756 173.11L32.0794 173.112L32.0832 173.113L32.0869 173.115L32.0907 173.117L32.0945 173.119L32.0983 173.121L32.1021 173.123L32.1058 173.124L32.1096 173.126L32.1134 173.128L32.1172 173.13L32.1209 173.132L32.1247 173.134L32.1285 173.135L32.1323 173.137L32.1361 173.139L32.1398 173.141L32.1436 173.143L32.1474 173.145L32.1512 173.146L32.1549 173.148L32.1587 173.15L32.1625 173.152L32.1663 173.154L32.17 173.156L32.1738 173.157L32.1776 173.159L32.1814 173.161L32.1852 173.163L32.1889 173.165L32.1927 173.167L32.1965 173.168L32.2003 173.17L32.204 173.172L32.2078 173.174L32.2116 173.176L32.2154 173.178L32.2192 173.179L32.2229 173.181L32.2267 173.183L32.2305 173.185L32.2343 173.187L32.238 173.188L32.2418 173.19L32.2456 173.192L32.2494 173.194L32.2532 173.196L32.2569 173.198L32.2607 173.199L32.2645 173.201L32.2683 173.203L32.272 173.205L32.2758 173.207L32.2796 173.209L32.2834 173.21L32.2871 173.212L32.2909 173.214L32.2947 173.216L32.2985 173.218L32.3023 173.22L32.306 173.221L32.3098 173.223L32.3136 173.225L32.3174 173.227L32.3211 173.229L32.3249 173.231L32.3287 173.232L32.3325 173.234L32.3363 173.236L32.34 173.238L32.3438 173.24L32.3476 173.242L32.3514 173.243L32.3551 173.245L32.3589 173.247L32.3627 173.249L32.3665 173.251L32.3703 173.253L32.374 173.254L32.3778 173.256L32.3816 173.258L32.3854 173.26L32.3891 173.262L32.3929 173.264L32.3967 173.265L32.4005 173.267L32.4043 173.269L32.408 173.271L32.4118 173.273L32.4156 173.275L32.4194 173.276L32.4231 173.278L32.4269 173.28L32.4307 173.282L32.4345 173.284L32.4382 173.286L32.442 173.287L32.4458 173.289L32.4496 173.291L32.4534 173.293L32.4571 173.295L32.4609 173.297L32.4647 173.298L32.4685 173.3L32.4722 173.302L32.476 173.304L32.4798 173.306L32.4836 173.308L32.4874 173.309L32.4911 173.311L32.4949 173.313L32.4987 173.315L32.5025 173.317L32.5062 173.319L32.51 173.32L32.5138 173.322L32.5176 173.324L32.5214 173.326L32.5251 173.328L32.5289 173.329L32.5327 173.331L32.5365 173.333L32.5402 173.335L32.544 173.337L32.5478 173.339L32.5516 173.34L32.5554 173.342L32.5591 173.344L32.5629 173.346L32.5667 173.348L32.5705 173.35L32.5742 173.351L32.578 173.353L32.5818 173.355L32.5856 173.357L32.5893 173.359L32.5931 173.361L32.5969 173.362L32.6007 173.364L32.6045 173.366L32.6082 173.368L32.612 173.37L32.6158 173.372L32.6196 173.373L32.6233 173.375L32.6271 173.377L32.6309 173.379L32.6347 173.381L32.6385 173.383L32.6422 173.384L32.646 173.386L32.6498 173.388L32.6536 173.39L32.6573 173.392L32.6611 173.394L32.6649 173.395L32.6687 173.397L32.6725 173.399L32.6762 173.401L32.68 173.403L32.6838 173.405L32.6876 173.406L32.6913 173.408L32.6951 173.41L32.6989 173.412L32.7027 173.414L32.7065 173.416L32.7102 173.417L32.714 173.419L32.7178 173.421L32.7216 173.423L32.7253 173.425L32.7291 173.427L32.7329 173.428L32.7367 173.43L32.7404 173.432L32.7442 173.434L32.748 173.436L32.7518 173.438L32.7556 173.439L32.7593 173.441L32.7631 173.443L32.7669 173.445L32.7707 173.447L32.7744 173.449L32.7782 173.45L32.782 173.452L32.7858 173.454L32.7896 173.456L32.7933 173.458L32.7971 173.46L32.8009 173.461L32.8047 173.463L32.8084 173.465L32.8122 173.467L32.816 173.469L32.8198 173.47L32.8236 173.472L32.8273 173.474L32.8311 173.476L32.8349 173.478L32.8387 173.48L32.8424 173.481L32.8462 173.483L32.85 173.485L32.8538 173.487L32.8576 173.489L32.8613 173.491L32.8651 173.492L32.8689 173.494L32.8727 173.496L32.8764 173.498L32.8802 173.5L32.884 173.502L32.8878 173.503L32.8915 173.505L32.8953 173.507L32.8991 173.509L32.9029 173.511L32.9067 173.513L32.9104 173.514L32.9142 173.516L32.918 173.518L32.9218 173.52L32.9255 173.522L32.9293 173.524L32.9331 173.525L32.9369 173.527L32.9407 173.529L32.9444 173.531L32.9482 173.533L32.952 173.535L32.9558 173.536L32.9595 173.538L32.9633 173.54L32.9671 173.542L32.9709 173.544L32.9747 173.546L32.9784 173.547L32.9822 173.549L32.986 173.551L32.9898 173.553L32.9935 173.555L32.9973 173.557L33.0011 173.558L33.0049 173.56L33.0086 173.562L33.0124 173.564L33.0162 173.566L33.02 173.568L33.0238 173.569L33.0275 173.571L33.0313 173.573L33.0351 173.575L33.0389 173.577L33.0426 173.579L33.0464 173.58L33.0502 173.582L33.054 173.584L33.0562 173.585L33.099 173.718C33.1589 173.902 33.2358 174.135 33.3259 174.379C34.4297 177.363 36.4361 179.466 39.0731 180.913C40.675 181.792 42.269 181.733 43.2284 181.621C43.7196 181.564 44.1804 181.473 44.4917 181.411C44.8562 181.339 45.0314 181.305 45.1825 181.285C47.2164 181.014 48.4748 180.987 49.5694 181.37C51.7304 182.128 53.1365 183.211 54.2278 184.976C54.3068 185.104 54.4098 185.278 54.5303 185.481L54.5305 185.482C54.891 186.09 55.4081 186.964 55.9096 187.66C56.6548 188.695 57.7633 189.96 59.4268 190.785C62.1861 192.154 64.7095 192.251 67.3298 191.786C68.5235 191.574 69.6741 191.261 70.6392 190.999L70.7908 190.958C71.8464 190.671 72.6998 190.446 73.5336 190.31C73.6395 190.292 73.7813 190.287 74.0818 190.377C74.4575 190.49 74.8756 190.683 75.6413 191.054C76.2316 191.341 76.7596 191.813 77.4151 192.686C77.7535 193.137 78.0794 193.629 78.4814 194.239L78.5134 194.288L78.5135 194.288C78.8871 194.856 79.3308 195.53 79.8235 196.19C80.8475 197.562 82.2849 198.173 82.7758 198.382C82.8246 198.403 82.8641 198.42 82.8929 198.433C83.7918 198.844 84.8379 199.147 85.8341 199.322C86.7995 199.493 88.0223 199.599 89.2128 199.403C89.803 199.306 90.3251 199.132 90.7793 198.927C92.0095 196.388 93.067 193.83 93.9593 191.431ZM42.1949 173.983C42.1948 173.984 42.1994 173.984 42.2093 173.984C42.2 173.983 42.1951 173.983 42.1949 173.983Z" fill="white"/>
<path fill-rule="evenodd" clip-rule="evenodd" d="M37.0303 120.387C37.2844 119.805 37.3983 119.153 37.3331 118.477L33.5013 118.851L37.3331 118.477L37.3331 118.477L37.3331 118.477L37.3331 118.477L37.3331 118.476L37.3331 118.476L37.333 118.476L37.333 118.476L37.333 118.476L37.333 118.475L37.3329 118.475L37.3329 118.475L37.3329 118.474L37.3328 118.474L37.3328 118.473L37.3327 118.473L37.3327 118.472L37.3326 118.472L37.3326 118.471L37.3325 118.471L37.3325 118.47L37.3324 118.47L37.3323 118.469L37.3323 118.468L37.3322 118.467L37.3321 118.467L37.3321 118.466L37.332 118.465L37.3319 118.464L37.3318 118.463L37.3317 118.462L37.3316 118.462L37.3316 118.461L37.3315 118.46L37.3314 118.459L37.3313 118.458L37.3312 118.457L37.3311 118.455L37.3309 118.454L37.3308 118.453L37.3307 118.452L37.3306 118.451L37.3305 118.45L37.3304 118.448L37.3302 118.447L37.3301 118.446L37.33 118.444L37.3299 118.443L37.3297 118.442L37.3296 118.44L37.3295 118.439L37.3293 118.437L37.3292 118.436L37.329 118.434L37.3289 118.433L37.3287 118.431L37.3286 118.43L37.3284 118.428L37.3283 118.426L37.3281 118.425L37.3279 118.423L37.3278 118.421L37.3276 118.42L37.3274 118.418L37.3273 118.416L37.3271 118.414L37.3269 118.412L37.3267 118.41L37.3265 118.409L37.3264 118.407L37.3262 118.405L37.326 118.403L37.3258 118.401L37.3256 118.399L37.3254 118.397L37.3252 118.395L37.325 118.393L37.3248 118.39L37.3246 118.388L37.3244 118.386L37.3242 118.384L37.324 118.382L37.3237 118.38L37.3235 118.377L37.3233 118.375L37.3231 118.373L37.3229 118.37L37.3226 118.368L37.3224 118.366L37.3222 118.363L37.3219 118.361L37.3217 118.358L37.3215 118.356L37.3212 118.354L37.321 118.351L37.3208 118.349L37.3205 118.346L37.3203 118.343L37.32 118.341L37.3198 118.338L37.3195 118.336L37.3192 118.333L37.319 118.33L37.3187 118.328L37.3185 118.325L37.3182 118.322L37.3179 118.319L37.3177 118.317L37.3174 118.314L37.3171 118.311L37.3169 118.308L37.3166 118.305L37.3163 118.302L37.316 118.299L37.3157 118.297L37.3155 118.294L37.3152 118.291L37.3149 118.288L37.3146 118.285L37.3143 118.282L37.314 118.279L37.3137 118.275L37.3134 118.272L37.3131 118.269L37.3128 118.266L37.3125 118.263L37.3122 118.26L37.3119 118.257L37.3116 118.253L37.3113 118.25L37.311 118.247L37.3107 118.244L37.3103 118.24L37.31 118.237L37.3097 118.234L37.3094 118.23L37.3091 118.227L37.3087 118.224L37.3084 118.22L37.3081 118.217L37.3077 118.214L37.3074 118.21L37.3071 118.207L37.3067 118.203L37.3064 118.2L37.3061 118.196L37.3057 118.193L37.3054 118.189L37.305 118.185L37.3047 118.182L37.3043 118.178L37.304 118.175L37.3036 118.171L37.3033 118.167L37.3029 118.164L37.3026 118.16L37.3022 118.156L37.3019 118.153L37.3015 118.149L37.3011 118.145L37.3008 118.141L37.3004 118.138L37.3001 118.134L37.2997 118.13L37.2993 118.126L37.2989 118.122L37.2986 118.118L37.2982 118.115L37.2978 118.111L37.2974 118.107L37.2971 118.103L37.2967 118.099L37.2963 118.095L37.2959 118.091L37.2955 118.087L37.2952 118.083L37.2948 118.079L37.2944 118.075L37.294 118.071L37.2936 118.067L37.2932 118.063L37.2928 118.059L37.2924 118.054L37.292 118.05L37.2916 118.046L37.2912 118.042L37.2908 118.038L37.2904 118.034L37.29 118.03L37.2896 118.025L37.2892 118.021L37.2888 118.017L37.2884 118.013L37.288 118.008L37.2876 118.004L37.2871 118L37.2867 117.996L37.2863 117.991L37.2859 117.987L37.2855 117.983L37.2851 117.978L37.2846 117.974L37.2842 117.97L37.2838 117.965L37.2834 117.961L37.283 117.956L37.2825 117.952L37.2821 117.947L37.2817 117.943L37.2812 117.939L37.2808 117.934L37.2804 117.93L37.2799 117.925L37.2795 117.921L37.2791 117.916L37.2786 117.912L37.2782 117.907L37.2778 117.902L37.2773 117.898L37.2769 117.893L37.2764 117.889L37.276 117.884L37.2756 117.88L37.2751 117.875L37.2747 117.87L37.2742 117.866L37.2738 117.861L37.2733 117.856L37.2729 117.852L37.2724 117.847L37.272 117.842L37.2715 117.838L37.2711 117.833L37.2706 117.828L37.2702 117.824L37.2697 117.819L37.2692 117.814L37.2688 117.809L37.2683 117.805L37.2679 117.8L37.2674 117.795L37.2669 117.79L37.2665 117.785L37.266 117.781L37.2656 117.776L37.2651 117.771L37.2646 117.766L37.2642 117.761L37.2637 117.756L37.2632 117.752L37.2628 117.747L37.2623 117.742L37.2618 117.737L37.2613 117.732L37.2609 117.727L37.2604 117.722L37.2599 117.717L37.2594 117.712L37.259 117.707L37.2585 117.703L37.258 117.698L37.2575 117.693L37.2571 117.688L37.2566 117.683L37.2561 117.678L37.2556 117.673L37.2551 117.668L37.2547 117.663L37.2542 117.658L37.2537 117.653L37.2532 117.648L37.2527 117.643L37.2522 117.638L37.2518 117.633L37.2513 117.628L37.2508 117.623L37.2503 117.618L37.2498 117.612L37.2493 117.607L37.2488 117.602L37.2484 117.597L37.2479 117.592L37.2474 117.587L37.2469 117.582L37.2464 117.577L37.2459 117.572L37.2454 117.567L37.2449 117.562L37.2444 117.557L37.2439 117.551L37.2434 117.546L37.2429 117.541L37.2425 117.536L37.242 117.531L37.2415 117.526L37.241 117.521L37.2405 117.515L37.24 117.51L37.2395 117.505L37.239 117.5L37.2385 117.495L37.238 117.49L37.2375 117.485L37.237 117.479L37.2365 117.474L37.236 117.469L37.2355 117.464L37.235 117.459L37.2345 117.453L37.234 117.448L37.2335 117.443L37.233 117.438L37.2325 117.433L37.232 117.427L37.2315 117.422L37.231 117.417L37.2305 117.412L37.23 117.407L37.2295 117.401L37.229 117.396L37.2285 117.391L37.228 117.386L37.2275 117.381L37.227 117.375L37.2265 117.37L37.226 117.365L37.2255 117.36L37.225 117.354L37.2244 117.349L37.2239 117.344L37.2234 117.339L37.2229 117.334L37.2224 117.328L37.2219 117.323L37.2214 117.318L37.2209 117.313L37.2204 117.307L37.2199 117.302L37.2194 117.297L37.2189 117.292L37.2184 117.286L37.2179 117.281L37.2174 117.276L37.2169 117.271L37.2164 117.265L37.2159 117.26L37.2154 117.255L37.2149 117.25L37.2144 117.245L37.2139 117.239L37.2134 117.234L37.2128 117.229L37.2123 117.224L37.2118 117.218L37.2113 117.213L37.2108 117.208L37.2103 117.203L37.2098 117.198L37.2093 117.192L37.2088 117.187L37.2083 117.182L37.2078 117.177L37.2073 117.171L37.2068 117.166L37.2063 117.161L37.2058 117.156L37.2053 117.151L37.2048 117.145L37.2043 117.14L37.2038 117.135L37.2033 117.13L37.2028 117.125L37.2023 117.119L37.2018 117.114L37.2013 117.109L37.2008 117.104L37.2003 117.099L37.1998 117.094L37.1993 117.088L37.1988 117.083L37.1983 117.078L37.1978 117.073L37.1973 117.068L37.1968 117.063L37.1963 117.057L37.1958 117.052L37.1953 117.047L37.1948 117.042L37.1943 117.037L37.1938 117.032L37.1934 117.027L37.1929 117.021L37.1924 117.016L37.1919 117.011L37.1914 117.006L37.1909 117.001L37.1904 116.996L37.1899 116.991L37.1894 116.986L37.1889 116.981L37.1884 116.976L37.188 116.971L37.1875 116.965L37.187 116.96L37.1865 116.955L37.186 116.95L37.1855 116.945L37.185 116.94L37.1845 116.935L37.1841 116.93L37.1836 116.925L37.1831 116.92L37.1826 116.915L37.1821 116.91L37.1817 116.905L37.1812 116.9L37.1807 116.895L37.1802 116.89L37.1797 116.885L37.1793 116.88L37.1788 116.875L37.1783 116.87L37.1778 116.865L37.1774 116.861L37.1769 116.856L37.1764 116.851L37.1759 116.846L37.1755 116.841L37.175 116.836L37.1745 116.831L37.1741 116.826L37.1736 116.821L37.1731 116.817L37.1726 116.812L37.1722 116.807L37.1717 116.802L37.1713 116.797L37.1708 116.792L37.1703 116.788L37.1699 116.783L37.1694 116.778L37.1689 116.773L37.1685 116.768L37.168 116.764L37.1676 116.759L37.1671 116.754L37.1667 116.749L37.1662 116.745L37.1657 116.74L37.1653 116.735L37.1648 116.731L37.1644 116.726L37.1639 116.721L37.1635 116.717L37.163 116.712L37.1626 116.707L37.1621 116.703L37.1617 116.698L37.1613 116.693L37.1608 116.689L37.1604 116.684L37.1599 116.68L37.1595 116.675L37.159 116.671L37.1586 116.666L37.1582 116.662L37.1577 116.657L37.1573 116.652L37.1569 116.648L37.1564 116.643L37.156 116.639L37.1556 116.635L37.1551 116.63L37.1547 116.626L37.1543 116.621L37.1539 116.617L37.1534 116.612L37.153 116.608L37.1526 116.604L37.1522 116.599L37.1518 116.595L37.1513 116.591L37.1509 116.586L37.1505 116.582L37.1501 116.578L37.1497 116.573L37.1493 116.569L37.1488 116.565L37.1484 116.561L37.148 116.556L37.1476 116.552L37.1472 116.548L37.1468 116.544L37.1464 116.539L37.146 116.535L37.1456 116.531L37.1452 116.527L37.1448 116.523L37.1444 116.519L37.144 116.515L37.1436 116.511L37.1432 116.506L37.1428 116.502L37.1425 116.498L37.1421 116.494L37.1417 116.49L37.1413 116.486L37.1409 116.482L37.1405 116.478L37.1401 116.474L37.1398 116.471L37.1397 116.47C37.1398 116.47 37.1386 116.447 37.1317 116.312C37.1256 116.192 37.1129 115.946 37.0771 115.671C37.0104 115.16 36.8108 114.061 35.9476 113.057C35.491 112.525 35.0055 112.121 34.6783 111.859C34.467 111.69 34.3429 111.594 34.2475 111.521L34.2474 111.521C34.1404 111.438 34.0694 111.384 33.9518 111.284C33.2905 110.723 32.8844 110.086 32.6714 109.13C32.7265 109.035 32.7986 108.916 32.8996 108.754L32.9404 108.688L32.9404 108.688C33.0798 108.464 33.2903 108.126 33.4755 107.781C34.4306 106.002 35.681 103.524 35.74 100.505C35.8116 96.8427 34.8761 93.5224 32.4797 90.4814C32.2934 90.245 32.0635 89.9644 31.8656 89.723L31.8653 89.7226C31.7653 89.6006 31.6735 89.4886 31.5997 89.3974C31.3337 89.0685 31.1267 88.7996 30.9587 88.5522C30.6104 88.0392 30.585 87.8383 30.5838 87.8277C30.4874 86.9154 30.6323 86.2561 31.3075 85.1198C31.7172 84.4303 32.202 83.7591 32.8157 82.9094L32.8158 82.9094L32.8253 82.8962C33.4065 82.0915 34.1112 81.1153 34.7293 80.0429C36.1373 77.6 35.8849 75.0822 35.7482 73.7192L35.7481 73.7184C35.7408 73.6452 35.7338 73.5753 35.7274 73.509C35.5082 71.2342 34.5879 69.4504 33.696 68.0785C33.2673 67.4191 32.8061 66.798 32.4217 66.2804L32.4012 66.2527C32.0926 65.8372 31.8289 65.4814 31.5921 65.1396L31.5891 65.0956C31.5848 65.0336 31.5797 64.9577 31.5742 64.884C31.561 64.704 31.5731 64.3313 31.6525 63.9033C31.6782 63.765 31.7072 63.641 31.7368 63.535C31.7932 63.505 31.8615 63.469 31.9475 63.4238L31.9595 63.4174C32.1579 63.3131 32.4853 63.1409 32.8158 62.9323C34.0416 62.1583 34.6826 60.8074 34.6079 59.4563C31.9132 58.6137 29.3207 57.9161 26.9643 57.448C26.3755 57.8744 25.6915 58.5013 25.1603 59.421C24.572 60.4395 24.2542 61.583 24.0828 62.5065C23.9058 63.4603 23.8257 64.5047 23.8959 65.4587C23.8979 65.4854 23.8996 65.523 23.9017 65.5704C23.9235 66.0614 23.9923 67.6055 24.9179 69.0202C25.3467 69.6755 25.8038 70.2909 26.1847 70.8038L26.2185 70.8493C26.6299 71.4033 26.9556 71.8446 27.24 72.282C27.7896 73.1275 28.0106 73.7049 28.0638 74.257C28.1409 75.0569 28.1712 75.4659 28.149 75.8082C28.1319 76.0704 28.0887 76.1536 28.0605 76.2025C27.669 76.8817 27.1924 77.5523 26.5864 78.3913L26.4982 78.5132C25.9456 79.2778 25.2802 80.1984 24.6902 81.1914C23.3887 83.3819 22.6155 85.6949 22.9274 88.6462C23.1175 90.445 23.9034 91.8759 24.5879 92.884C25.049 93.563 25.6701 94.3208 26.0926 94.8362C26.2308 95.0048 26.3478 95.1475 26.431 95.253C27.602 96.7391 28.0833 98.2692 28.0424 100.364C28.0224 101.384 27.6101 102.437 26.694 104.143C26.6303 104.262 26.5459 104.398 26.3594 104.698C26.2018 104.952 25.9636 105.336 25.7447 105.76C25.3187 106.585 24.7084 108.032 24.9722 109.814C25.3951 112.67 26.6329 115.18 28.9696 117.161C29.1601 117.323 29.3452 117.468 29.4901 117.581L29.5129 117.599L29.5133 117.604L29.5138 117.609L29.5142 117.613L29.5147 117.618L29.5152 117.623L29.5157 117.628L29.5162 117.633L29.5166 117.638L29.5171 117.643L29.5176 117.648L29.5181 117.653L29.5185 117.658L29.519 117.663L29.5195 117.668L29.52 117.673L29.5205 117.678L29.521 117.683L29.5214 117.688L29.5219 117.693L29.5224 117.698L29.5229 117.703L29.5234 117.708L29.5239 117.713L29.5244 117.719L29.5249 117.724L29.5253 117.729L29.5258 117.734L29.5263 117.739L29.5268 117.744L29.5273 117.749L29.5278 117.754L29.5283 117.759L29.5288 117.764L29.5293 117.769L29.5298 117.775L29.5303 117.78L29.5308 117.785L29.5313 117.79L29.5317 117.795L29.5322 117.8L29.5327 117.805L29.5332 117.811L29.5337 117.816L29.5342 117.821L29.5347 117.826L29.5352 117.831L29.5357 117.836L29.5362 117.841L29.5367 117.847L29.5372 117.852L29.5377 117.857L29.5382 117.862L29.5387 117.867L29.5392 117.873L29.5397 117.878L29.5402 117.883L29.5407 117.888L29.5412 117.893L29.5417 117.899L29.5422 117.904L29.5427 117.909L29.5432 117.914L29.5437 117.919L29.5442 117.925L29.5447 117.93L29.5452 117.935L29.5457 117.94L29.5462 117.945L29.5467 117.951L29.5472 117.956L29.5478 117.961L29.5483 117.966L29.5488 117.972L29.5493 117.977L29.5498 117.982L29.5503 117.987L29.5508 117.993L29.5513 117.998L29.5518 118.003L29.5523 118.008L29.5528 118.013L29.5533 118.019L29.5538 118.024L29.5543 118.029L29.5548 118.034L29.5553 118.04L29.5558 118.045L29.5563 118.05L29.5568 118.055L29.5573 118.061L29.5578 118.066L29.5583 118.071L29.5588 118.076L29.5594 118.081L29.5599 118.087L29.5604 118.092L29.5609 118.097L29.5614 118.102L29.5619 118.108L29.5624 118.113L29.5629 118.118L29.5634 118.123L29.5639 118.129L29.5644 118.134L29.5649 118.139L29.5654 118.144L29.5659 118.149L29.5664 118.155L29.5669 118.16L29.5674 118.165L29.5679 118.17L29.5684 118.175L29.5689 118.181L29.5694 118.186L29.5699 118.191L29.5704 118.196L29.5709 118.201L29.5714 118.207L29.5719 118.212L29.5724 118.217L29.5729 118.222L29.5734 118.227L29.5739 118.233L29.5744 118.238L29.5749 118.243L29.5754 118.248L29.5759 118.253L29.5764 118.258L29.5769 118.263L29.5774 118.269L29.5779 118.274L29.5784 118.279L29.5789 118.284L29.5794 118.289L29.5799 118.294L29.5804 118.299L29.5808 118.305L29.5813 118.31L29.5818 118.315L29.5823 118.32L29.5828 118.325L29.5833 118.33L29.5838 118.335L29.5843 118.34L29.5848 118.345L29.5853 118.35L29.5857 118.355L29.5862 118.36L29.5867 118.366L29.5872 118.371L29.5877 118.376L29.5882 118.381L29.5887 118.386L29.5891 118.391L29.5896 118.396L29.5901 118.401L29.5906 118.406L29.5911 118.411L29.5916 118.416L29.592 118.421L29.5925 118.426L29.593 118.431L29.5935 118.436L29.594 118.441L29.5944 118.446L29.5949 118.45L29.5954 118.455L29.5959 118.46L29.5963 118.465L29.5968 118.47L29.5973 118.475L29.5978 118.48L29.5982 118.485L29.5987 118.49L29.5992 118.495L29.5996 118.5L29.6001 118.504L29.6006 118.509L29.601 118.514L29.6015 118.519L29.602 118.524L29.6024 118.529L29.6029 118.533L29.6034 118.538L29.6038 118.543L29.6043 118.548L29.6047 118.552L29.6052 118.557L29.6057 118.562L29.6061 118.567L29.6066 118.571L29.607 118.576L29.6075 118.581L29.6079 118.586L29.6084 118.59L29.6088 118.595L29.6093 118.6L29.6097 118.604L29.6102 118.609L29.6106 118.614L29.6111 118.618L29.6115 118.623L29.612 118.628L29.6124 118.632L29.6129 118.637L29.6133 118.641L29.6137 118.646L29.6142 118.65L29.6146 118.655L29.6151 118.66L29.6155 118.664L29.6159 118.669L29.6164 118.673L29.6168 118.678L29.6172 118.682L29.6177 118.687L29.6181 118.691L29.6185 118.695L29.6189 118.7L29.6194 118.704L29.6198 118.709L29.6202 118.713L29.6206 118.717L29.6211 118.722L29.6215 118.726L29.6219 118.731L29.6223 118.735L29.6227 118.739L29.6232 118.744L29.6236 118.748L29.624 118.752L29.6244 118.756L29.6248 118.761L29.6252 118.765L29.6256 118.769L29.626 118.773L29.6264 118.778L29.6268 118.782L29.6272 118.786L29.6276 118.79L29.628 118.794L29.6284 118.798L29.6288 118.802L29.6292 118.807L29.6296 118.811L29.63 118.815L29.6304 118.819L29.6308 118.823L29.6312 118.827L29.6316 118.831L29.632 118.835L29.6323 118.839L29.6327 118.843L29.6331 118.847L29.6335 118.851L29.6339 118.855L29.6342 118.859L29.6346 118.862L29.635 118.866L29.6354 118.87L29.6357 118.874L29.6361 118.878L29.6365 118.882L29.6368 118.886L29.6372 118.889L29.6376 118.893L29.6379 118.897L29.6383 118.901L29.6386 118.904L29.639 118.908L29.6394 118.912L29.6397 118.915L29.6401 118.919L29.6404 118.923L29.6408 118.926L29.6411 118.93L29.6415 118.933L29.6418 118.937L29.6421 118.941L29.6425 118.944L29.6428 118.948L29.6432 118.951L29.6435 118.955L29.6438 118.958L29.6442 118.962L29.6445 118.965L29.6448 118.968L29.6451 118.972L29.6455 118.975L29.6458 118.978L29.6461 118.982L29.6464 118.985L29.6468 118.988L29.6471 118.992L29.6474 118.995L29.6477 118.998L29.648 119.001L29.6483 119.005L29.6486 119.008L29.6489 119.011L29.6492 119.014L29.6495 119.017L29.6498 119.02L29.6501 119.023L29.6504 119.026L29.6507 119.03L29.651 119.033L29.6513 119.036L29.6516 119.039L29.6519 119.042L29.6522 119.044L29.6524 119.047L29.6527 119.05L29.653 119.053L29.6533 119.056L29.6535 119.059L29.6538 119.062L29.6541 119.065L29.6544 119.067L29.6546 119.07L29.6549 119.073L29.6551 119.076L29.6554 119.078L29.6557 119.081L29.6559 119.084L29.6562 119.086L29.6564 119.089L29.6567 119.091L29.6569 119.094L29.6572 119.096L29.6574 119.099L29.6577 119.102L29.6579 119.104L29.6581 119.106L29.6584 119.109L29.6586 119.111L29.6588 119.114L29.6591 119.116L29.6593 119.118L29.6595 119.121L29.6597 119.123L29.6599 119.125L29.6602 119.128L29.6604 119.13L29.6606 119.132L29.6608 119.134L29.661 119.136L29.6612 119.138L29.6614 119.141L29.6616 119.143L29.6618 119.145L29.662 119.147L29.6622 119.149L29.6624 119.151L29.6626 119.153L29.6628 119.155L29.663 119.157L29.6631 119.158L29.6633 119.16L29.6635 119.162L29.6637 119.164L29.6638 119.166L29.664 119.168L29.6642 119.169L29.6643 119.171L29.6645 119.173L29.6647 119.174L29.6648 119.176L29.665 119.178L29.6651 119.179L29.6653 119.181L29.6654 119.182L29.6656 119.184L29.6657 119.185L29.6659 119.187L29.666 119.188L29.6661 119.19L29.6663 119.191L29.6664 119.192L29.6665 119.194L29.6667 119.195L29.6668 119.196L29.6669 119.198L29.667 119.199L29.6671 119.2L29.6673 119.201L29.6674 119.202L29.6675 119.203L29.6676 119.204L29.6677 119.206L29.6678 119.207L29.6679 119.208L29.668 119.209L29.6681 119.21L29.6681 119.21L29.6682 119.211L29.6683 119.212L29.6684 119.213L29.6685 119.214L29.6686 119.215L29.6686 119.215L29.6687 119.216L29.6688 119.217L29.6688 119.217L29.6689 119.218L29.6689 119.219L29.669 119.219L29.6691 119.22L29.6691 119.22L29.6692 119.221L29.6692 119.221L29.6692 119.222L29.6693 119.222L29.6693 119.223L29.6694 119.223L29.6694 119.223L29.6694 119.224L29.6694 119.224L29.6695 119.224L29.6695 119.224L29.6695 119.224L29.6695 119.225L29.6695 119.225L29.6695 119.225L29.6695 119.225L33.5013 118.851L29.6695 119.225C29.737 119.925 29.9881 120.563 30.3705 121.096C31.6419 121.095 32.9272 121.016 34.222 120.857C34.9543 120.767 35.9115 120.604 37.0303 120.387ZM31.4697 63.6875C31.4697 63.6875 31.4714 63.6863 31.475 63.6838L31.4697 63.6875ZM32.5387 109.385C32.5384 109.386 32.5404 109.38 32.5454 109.368C32.5415 109.379 32.5389 109.385 32.5387 109.385Z" fill="white"/>
</svg>
