<svg width="260" height="277" viewBox="0 0 260 277" fill="none" xmlns="http://www.w3.org/2000/svg">
<path d="M71.2922 88.6437C75.7413 98.1098 93.4055 112.855 93.4055 112.855C93.4055 112.855 48.1458 109.267 39.1826 115.877C32.3108 120.946 30.5748 127.233 30.0804 135.757C29.3855 147.738 32.2312 158.574 41.7146 165.928C51.8899 173.818 65.2045 175.391 76.5669 169.334C82.081 166.394 100.779 152.81 100.779 152.81C100.779 152.81 84.2125 208.441 95.0236 231.687C100.165 242.743 102.917 252.143 114.436 256.142C128.316 260.96 140.027 253.801 149.54 242.604C160.125 230.145 155.52 201.17 155.52 201.17C155.52 201.17 173.417 229.344 191.278 229.702C204.709 229.971 215.486 226.237 222.182 214.59C228.351 203.858 224.961 194.794 221.538 182.897C214.305 157.757 158.475 130.56 158.475 130.56C158.475 130.56 181.675 127.871 188.136 126.308C202.118 122.925 210.453 116.203 213.385 102.119C215.846 90.2947 211.84 77.3229 203.031 69.0594C194.332 60.8991 186.278 58.378 175.429 63.3344C166.959 67.2039 140.675 94.6258 140.675 94.6258C140.675 94.6258 140.87 73.3923 138.025 62.9084C134.404 49.5652 130.82 38.2602 117.219 33.8039C105.677 30.0226 99.0564 31.2257 87.9344 35.5152C78.0037 39.3452 70.1134 45.6857 66.5832 55.727C61.581 69.9549 64.9551 75.1605 71.2922 88.6437Z" fill="#CF7C38"/>
<path d="M118.588 115.812C118.325 118.014 118.776 120.103 119.382 122.23C119.64 123.138 120.316 122.986 121.122 123.011C121.889 123.034 122.028 121.758 122.221 121.188C122.581 120.126 122.419 119.47 122.04 118.488C121.503 117.094 120.054 116.699 118.654 117.239C118.186 117.42 117.935 118.797 118.011 119.302C118.142 120.173 118.696 121.112 119.01 121.929C119.58 123.407 122.189 122.959 123.393 122.659C125.394 122.162 124.511 119.873 124.006 118.564C123.335 116.823 122.838 116.314 121.255 115.51C119.822 114.782 117.729 114.72 117.387 116.464C117.082 118.016 118.616 124.273 121.116 123.309C121.617 123.116 122.215 123.164 122.777 122.91C123.287 122.68 123.756 121.571 124.068 121.095C124.962 119.726 124.558 117.485 123.995 116.026C123.185 113.925 118.827 114.704 118.053 116.449C117.564 117.554 117.299 117.863 117.508 119.254C117.695 120.493 118.659 121.501 119.858 121.616" stroke="white" stroke-width="7.7" stroke-linecap="round"/>
<path d="M133.864 154.7C133.601 156.902 134.053 158.99 134.658 161.117C134.917 162.025 135.592 161.874 136.398 161.898C137.165 161.922 137.304 160.645 137.497 160.076C137.857 159.014 137.695 158.357 137.317 157.375C136.779 155.981 135.33 155.587 133.93 156.126C133.462 156.307 133.211 157.685 133.287 158.19C133.418 159.061 133.972 160 134.287 160.816C134.857 162.294 137.465 161.846 138.67 161.547C140.671 161.049 139.787 158.76 139.282 157.451C138.611 155.711 138.114 155.201 136.531 154.397C135.098 153.67 133.006 153.607 132.663 155.351C132.359 156.903 133.893 163.16 136.392 162.196C136.893 162.003 137.492 162.051 138.054 161.798C138.563 161.568 139.033 160.458 139.344 159.982C140.238 158.613 139.834 156.372 139.272 154.914C138.461 152.813 134.104 153.591 133.33 155.336C132.84 156.441 132.575 156.75 132.785 158.142C132.971 159.381 133.935 160.388 135.134 160.503" stroke="white" stroke-width="7.7" stroke-linecap="round"/>
<path d="M126.357 135.236C126.095 137.438 126.546 139.527 127.151 141.653C127.41 142.561 128.085 142.41 128.891 142.434C129.658 142.458 129.798 141.181 129.991 140.612C130.35 139.55 130.188 138.893 129.81 137.912C129.272 136.518 127.824 136.123 126.424 136.663C125.956 136.843 125.704 138.221 125.781 138.726C125.912 139.597 126.465 140.536 126.78 141.353C127.35 142.831 129.958 142.382 131.163 142.083C133.164 141.585 132.28 139.297 131.775 137.987C131.104 136.247 130.607 135.738 129.024 134.934C127.591 134.206 125.499 134.143 125.156 135.887C124.852 137.439 126.386 143.696 128.885 142.733C129.386 142.539 129.985 142.587 130.547 142.334C131.056 142.104 131.526 140.995 131.837 140.519C132.732 139.149 132.327 136.908 131.765 135.45C130.955 133.349 126.597 134.127 125.823 135.872C125.333 136.977 125.068 137.286 125.278 138.678C125.464 139.917 126.428 140.924 127.627 141.039" stroke="white" stroke-width="7.7" stroke-linecap="round"/>
<path d="M91.1065 82.0454C91.2658 82.3607 91.5759 82.4466 91.8439 82.6376C92.6176 83.1889 93.3551 83.6438 94.1922 84.1073C96.285 85.2662 98.3402 86.3611 100.557 87.2659C101.174 87.5177 101.757 87.8713 102.379 88.1043C103.206 88.4144 104.156 88.3931 105.025 88.441C106.155 88.5033 107.297 88.227 108.362 87.8541C109.373 87.5001 110.506 87.1554 111.389 86.5382C112.664 85.6478 113.928 84.5413 114.985 83.3982C116.16 82.1277 117.071 80.6084 117.59 78.9511C117.955 77.783 118.546 76.726 118.607 75.4837C118.691 73.7715 118.33 72.0438 118.339 70.3345C118.342 69.6098 118.289 68.8814 118.2 68.1611" stroke="white" stroke-width="6" stroke-linecap="round"/>
<path d="M88.8494 65.8417C89.1874 66.7181 90.5819 66.4491 91.3749 66.4513C92.1644 66.4535 92.6122 65.6118 92.5214 64.8781C92.4405 64.2242 92.0951 63.2877 91.4576 63.0544C90.9163 62.8564 89.8056 63.0032 89.3331 63.393C88.3542 64.2006 88.677 65.5392 89.5242 66.345C90.4274 67.2041 90.8404 67.1099 91.9699 66.6743" stroke="white" stroke-width="6" stroke-linecap="round"/>
<path d="M104.838 59.676C105.176 60.5524 106.57 60.2833 107.363 60.2856C108.153 60.2878 108.6 59.446 108.51 58.7123C108.429 58.0585 108.083 57.1219 107.446 56.8887C106.905 56.6906 105.794 56.8374 105.321 57.2273C104.342 58.0349 104.665 59.3735 105.512 60.1792C106.416 61.0383 106.829 60.9441 107.958 60.5085" stroke="white" stroke-width="6" stroke-linecap="round"/>
<path fill-rule="evenodd" clip-rule="evenodd" d="M163.887 71.8691L163.888 71.8718L163.89 71.8755L163.891 71.8792L163.892 71.8828L163.894 71.8865L163.895 71.8901L163.897 71.8938L163.898 71.8974L163.899 71.9011L163.901 71.9048L163.902 71.9084L163.904 71.9121L163.905 71.9157L163.907 71.9194L163.908 71.923L163.909 71.9267L163.911 71.9304L163.912 71.934L163.914 71.9377L163.915 71.9413L163.916 71.945L163.918 71.9487L163.919 71.9523L163.921 71.956L163.922 71.9596L163.923 71.9633L163.925 71.9669L163.926 71.9706L163.928 71.9743L163.929 71.9779L163.931 71.9816L163.932 71.9852L163.933 71.9889L163.935 71.9925L163.936 71.9962L163.938 71.9999L163.939 72.0035L163.94 72.0072L163.942 72.0108L163.943 72.0145L163.945 72.0181L163.946 72.0218L163.947 72.0255L163.949 72.0291L163.95 72.0328L163.952 72.0364L163.953 72.0401L163.954 72.0437L163.956 72.0474L163.957 72.0511L163.959 72.0547L163.96 72.0584L163.962 72.062L163.963 72.0657L163.964 72.0693L163.966 72.073L163.967 72.0767L163.969 72.0803L163.97 72.084L163.971 72.0876L163.973 72.0913L163.974 72.0949L163.976 72.0986L163.977 72.1023L163.978 72.1059L163.98 72.1096L163.981 72.1132L163.983 72.1169L163.984 72.1205L163.986 72.1242L163.987 72.1279L163.988 72.1315L163.99 72.1352L163.991 72.1388L163.993 72.1425L163.994 72.1461L163.995 72.1498L163.997 72.1535L163.998 72.1571L164 72.1608L164.001 72.1644L164.002 72.1681L164.004 72.1717L164.005 72.1754L164.007 72.1791L164.008 72.1827L164.009 72.1864L164.011 72.19L164.012 72.1937L164.014 72.1973L164.015 72.201L164.017 72.2047L164.018 72.2083L164.019 72.212L164.021 72.2156L164.022 72.2193L164.024 72.2229L164.025 72.2266L164.026 72.2303L164.028 72.2339L164.029 72.2376L164.031 72.2412L164.032 72.2449L164.033 72.2485L164.035 72.2522L164.036 72.2559L164.038 72.2595L164.039 72.2632L164.041 72.2668L164.042 72.2705L164.043 72.2741L164.045 72.2778L164.046 72.2815L164.048 72.2851L164.049 72.2888L164.05 72.2924L164.052 72.2961L164.053 72.2997L164.055 72.3034L164.056 72.3071L164.057 72.3107L164.059 72.3144L164.06 72.318L164.062 72.3217L164.063 72.3253L164.064 72.329L164.066 72.3327L164.067 72.3363L164.069 72.34L164.07 72.3436L164.072 72.3473L164.073 72.3509L164.074 72.3546L164.076 72.3583L164.077 72.3619L164.079 72.3656L164.08 72.3692L164.081 72.3729L164.083 72.3765L164.084 72.3802L164.086 72.3839L164.087 72.3875L164.088 72.3912L164.088 72.3911C164.088 72.3911 164.093 72.4043 164.114 72.4672C164.12 72.4861 164.128 72.5096 164.138 72.5385C164.176 72.6523 164.254 72.8859 164.362 73.1412C164.565 73.6171 165.054 74.6237 166.161 75.359C166.744 75.7464 167.321 76.0041 167.706 76.1671C167.955 76.2726 168.1 76.3307 168.211 76.3753C168.336 76.4253 168.419 76.4585 168.558 76.5224C169.336 76.8779 169.889 77.3707 170.343 78.2105C170.316 78.3136 170.279 78.4423 170.227 78.6171L170.205 78.6909C170.131 78.9426 170.018 79.3237 169.931 79.7043C169.485 81.6617 168.938 84.3772 169.688 87.2948C170.597 90.8303 172.389 93.7668 175.514 96.0403C175.757 96.2169 176.054 96.4244 176.309 96.6026C176.438 96.6925 176.556 96.775 176.651 96.8424C176.995 97.0858 177.265 97.2871 177.492 97.4781C177.717 97.6673 177.855 97.8106 177.94 97.9152C177.98 97.9651 178.004 98.0011 178.018 98.0234C178.024 98.0344 178.029 98.0423 178.031 98.0471C178.033 98.0519 178.034 98.0542 178.034 98.0543C178.365 98.8896 178.403 99.5501 178.056 100.816C177.846 101.585 177.558 102.357 177.192 103.335L177.187 103.35C176.841 104.276 176.422 105.4 176.112 106.594C175.403 109.321 176.322 111.676 176.817 112.945L176.817 112.945C176.844 113.013 176.869 113.078 176.893 113.14C177.714 115.269 179.082 116.736 180.308 117.811C180.898 118.328 181.508 118.8 182.016 119.192L182.043 119.213C182.448 119.526 182.794 119.793 183.11 120.055L183.121 120.084C183.141 120.142 183.167 120.214 183.191 120.283C183.251 120.447 183.337 120.803 183.375 121.231C183.386 121.365 183.391 121.487 183.391 121.594C183.345 121.637 183.29 121.69 183.219 121.755L183.209 121.765L183.209 121.765C183.046 121.918 182.777 122.17 182.514 122.458C181.197 123.903 181.187 126.079 182.416 127.533C184.492 127.192 186.25 126.866 187.441 126.578C188.244 126.384 189.028 126.179 189.794 125.962C190.193 125.42 190.596 124.71 190.829 123.818C191.125 122.681 191.127 121.497 191.046 120.564C190.962 119.601 190.76 118.575 190.437 117.676C190.428 117.652 190.416 117.616 190.402 117.572C190.251 117.109 189.769 115.637 188.492 114.523C187.903 114.01 187.298 113.543 186.795 113.154L186.75 113.119C186.206 112.699 185.775 112.365 185.386 112.023C184.633 111.362 184.272 110.874 184.077 110.37C183.79 109.624 183.653 109.244 183.584 108.915C183.532 108.665 183.552 108.58 183.565 108.53C183.76 107.776 184.041 107.008 184.401 106.042L184.454 105.901C184.782 105.021 185.178 103.961 185.482 102.851C186.154 100.402 186.284 97.9714 185.193 95.2173C184.526 93.5359 183.382 92.3715 182.452 91.5887C181.826 91.0613 181.024 90.5008 180.479 90.1207L180.479 90.1207C180.302 89.9967 180.152 89.8918 180.044 89.8136C178.527 88.7097 177.661 87.3826 177.146 85.377C176.896 84.4061 177.01 83.2952 177.438 81.4156C177.468 81.2858 177.513 81.1336 177.612 80.7956C177.697 80.5102 177.824 80.0778 177.922 79.6124C178.113 78.7079 178.318 77.1482 177.583 75.4993C176.41 72.8677 174.542 70.7911 171.759 69.5191C171.532 69.4155 171.315 69.3255 171.145 69.2561L171.13 69.2497L171.129 69.2475L171.127 69.2439L171.126 69.2402L171.125 69.2366L171.123 69.2329L171.122 69.2293L171.12 69.2256L171.119 69.2219L171.118 69.2183L171.116 69.2146L171.115 69.211L171.113 69.2073L171.112 69.2037L171.111 69.2L171.109 69.1963L171.108 69.1927L171.106 69.189L171.105 69.1854L171.104 69.1817L171.102 69.1781L171.101 69.1744L171.099 69.1707L171.098 69.1671L171.096 69.1634L171.095 69.1598L171.094 69.1561L171.092 69.1525L171.091 69.1488L171.089 69.1451L171.088 69.1415L171.087 69.1378L171.085 69.1342L171.084 69.1305L171.082 69.1269L171.081 69.1232L171.08 69.1195L171.078 69.1159L171.077 69.1122L171.075 69.1086L171.074 69.1049L171.072 69.1013L171.071 69.0976L171.07 69.0939L171.068 69.0903L171.067 69.0866L171.065 69.083L171.064 69.0793L171.063 69.0757L171.061 69.072L171.06 69.0683L171.058 69.0647L171.057 69.061L171.056 69.0574L171.054 69.0537L171.053 69.0501L171.051 69.0464L171.05 69.0427L171.049 69.0391L171.047 69.0354L171.046 69.0318L171.044 69.0281L171.043 69.0245L171.041 69.0208L171.04 69.0171L171.039 69.0135L171.037 69.0098L171.036 69.0062L171.034 69.0025L171.033 68.9989L171.032 68.9952L171.03 68.9915L171.029 68.9879L171.027 68.9842L171.026 68.9806L171.025 68.9769L171.023 68.9733L171.022 68.9696L171.02 68.9659L171.019 68.9623L171.017 68.9586L171.016 68.955L171.015 68.9513L171.013 68.9477L171.012 68.944L171.01 68.9403L171.009 68.9367L171.008 68.933L171.006 68.9294L171.005 68.9257L171.003 68.9221L171.002 68.9184L171.001 68.9147L170.999 68.9111L170.998 68.9074L170.996 68.9038L170.995 68.9001L170.993 68.8965L170.992 68.8928L170.991 68.8891L170.989 68.8855L170.988 68.8818L170.986 68.8782L170.985 68.8745L170.984 68.8709L170.982 68.8672L170.981 68.8635L170.979 68.8599L170.978 68.8562L170.977 68.8526L170.975 68.8489L170.974 68.8453L170.972 68.8416L170.971 68.8379L170.97 68.8343L170.968 68.8306L170.967 68.827L170.965 68.8233L170.964 68.8197L170.962 68.816L170.961 68.8123L170.96 68.8087L170.958 68.805L170.957 68.8014L170.955 68.7977L170.954 68.7941L170.953 68.7904L170.951 68.7867L170.95 68.7831L170.948 68.7794L170.947 68.7758L170.946 68.7721L170.944 68.7685L170.943 68.7648L170.941 68.7611L170.94 68.7575L170.938 68.7538L170.937 68.7502L170.936 68.7465L170.934 68.7429L170.933 68.7392L170.931 68.7355L170.93 68.7319L170.929 68.7282L170.927 68.7246L170.926 68.7209L170.924 68.7173L170.923 68.7136L170.922 68.7099L170.92 68.7063L170.919 68.7026L170.917 68.699L170.916 68.6953L170.915 68.6917L170.913 68.688L170.912 68.6843L170.91 68.6807L170.909 68.677L170.907 68.6734L170.906 68.6697L170.905 68.6661L170.903 68.6624L170.902 68.6587L170.9 68.6551L170.899 68.6514L170.898 68.6478L170.896 68.6441L170.895 68.6405L170.893 68.6368L170.892 68.6331L170.891 68.6295L170.889 68.6258L170.888 68.6222L170.886 68.6185L170.885 68.6149L170.883 68.6112L170.882 68.6075L170.881 68.6039L170.879 68.6002L170.878 68.5966L170.876 68.5929L170.875 68.5893L170.874 68.5856L170.872 68.5819L170.871 68.5783L170.869 68.5746L170.868 68.571L170.867 68.5673L170.865 68.5637L170.864 68.56L170.862 68.5563L170.861 68.5527L170.86 68.549L170.858 68.5454L170.857 68.5417L170.855 68.5381L170.854 68.5344L170.852 68.5307L170.851 68.5271L170.85 68.5234L170.848 68.5198L170.847 68.5161L170.845 68.5125L170.844 68.5088L170.843 68.5051L170.841 68.5015L170.84 68.4978L170.838 68.4942L170.837 68.4905L170.836 68.4869L170.834 68.4832L170.833 68.4795L170.831 68.4759L170.83 68.4722L170.828 68.4686L170.827 68.4649L170.826 68.4613L170.824 68.4576L170.823 68.4539L170.821 68.4503L170.82 68.4466L170.819 68.443L170.817 68.4393L170.816 68.4357L170.814 68.432L170.813 68.4283L170.812 68.4247L170.81 68.421L170.809 68.4174L170.807 68.4137L170.806 68.4101L170.805 68.4064L170.803 68.4027L170.802 68.3991L170.8 68.3954L170.799 68.3918L170.797 68.3881L170.796 68.3845L170.795 68.3808L170.793 68.3771L170.792 68.3735L170.79 68.3698L170.789 68.3662L170.788 68.3625L170.786 68.3589L170.785 68.3552L170.783 68.3515L170.782 68.3479L170.781 68.3442L170.779 68.3406L170.778 68.3369L170.776 68.3333L170.775 68.3296L170.773 68.3259L170.772 68.3223L170.771 68.3186L170.769 68.315L170.768 68.3113L170.766 68.3077L170.765 68.304L170.764 68.3003L170.762 68.2967L170.761 68.293L170.759 68.2894L170.758 68.2857L170.757 68.2821L170.755 68.2784L170.754 68.2747L170.752 68.2711L170.751 68.2674L170.75 68.2638L170.748 68.2601L170.747 68.2565L170.745 68.2528L170.744 68.2491L170.742 68.2455L170.741 68.2418L170.74 68.2382L170.738 68.2345L170.737 68.2309L170.735 68.2272L170.734 68.2235L170.733 68.2199L170.731 68.2162L170.73 68.2126L170.728 68.2089L170.727 68.2053L170.726 68.2016L170.724 68.1979L170.723 68.1943L170.721 68.1906L170.72 68.187L170.718 68.1833L170.717 68.1797L170.716 68.176L170.714 68.1723L170.713 68.1687L170.711 68.165L170.71 68.1614L170.709 68.1577L170.707 68.1541L170.706 68.1504L170.704 68.1467L170.703 68.1431L170.702 68.1394L170.7 68.1358L170.699 68.1321L170.697 68.1285L170.696 68.1248L170.694 68.1211L170.693 68.1175L170.692 68.1138L170.69 68.1102L170.689 68.1065L170.687 68.1029L170.686 68.0992L170.685 68.0955L170.683 68.0919L170.682 68.0882L170.68 68.0846L170.679 68.0809L170.678 68.0773L170.676 68.0736L170.675 68.0699L170.673 68.0663L170.672 68.0626L170.671 68.059L170.669 68.0553L170.668 68.0517L170.666 68.048L170.665 68.0443L170.663 68.0407L170.662 68.037L170.661 68.0334L170.659 68.0297L170.658 68.0261L170.656 68.0224L170.655 68.0187L170.654 68.0151L170.652 68.0114L170.651 68.0078L170.649 68.0041L170.648 68.0005L170.647 67.9968L170.645 67.9931L170.644 67.9895L170.642 67.9858L170.641 67.9822L170.639 67.9785L170.638 67.9749L170.637 67.9712L170.635 67.9675L170.634 67.9639L170.632 67.9602L170.631 67.9566L170.63 67.9529L170.628 67.9493L170.627 67.9456L170.625 67.9419L170.624 67.9383L170.623 67.9346L170.621 67.931L170.62 67.9273L170.618 67.9237L170.617 67.92L170.616 67.9163L170.614 67.9127L170.613 67.909L170.611 67.9054L170.61 67.9017L170.608 67.898L170.607 67.8944L170.606 67.8907L170.604 67.8871L170.603 67.8834L170.601 67.8798L170.6 67.8761L170.599 67.8724L170.597 67.8688L170.596 67.8651L170.594 67.8615L170.593 67.8578L170.592 67.8542L170.59 67.8505L170.589 67.8468L170.587 67.8432L170.586 67.8395L170.584 67.8359L170.583 67.8322L170.582 67.8286L170.58 67.8249L170.579 67.8212L170.577 67.8176L170.576 67.8139L170.575 67.8103L170.573 67.8066L170.572 67.803L170.57 67.7993L170.569 67.7956L170.568 67.792L170.566 67.7883L170.565 67.7847L170.563 67.781L170.562 67.7774L170.561 67.7737L170.559 67.77L170.558 67.7664L170.556 67.7627L170.555 67.7591L170.553 67.7554L170.552 67.7518C170.403 67.3646 170.198 67.0154 169.95 66.7097C168.082 68.1518 166.015 69.9305 163.887 71.8691ZM170.406 77.9197C170.406 77.9195 170.405 77.9258 170.404 77.939C170.404 77.9266 170.405 77.9199 170.406 77.9197Z" fill="white"/>
<path fill-rule="evenodd" clip-rule="evenodd" d="M210.313 165.796C209.429 165.893 208.574 166.294 207.92 166.995L207.917 166.998L207.914 167.001L207.911 167.004L207.908 167.007L207.905 167.01L207.903 167.013L207.9 167.016L207.897 167.019L207.894 167.023L207.891 167.026L207.888 167.029L207.885 167.032L207.883 167.035L207.88 167.038L207.877 167.041L207.874 167.044L207.871 167.047L207.868 167.05L207.865 167.053L207.863 167.056L207.86 167.059L207.857 167.062L207.854 167.066L207.851 167.069L207.848 167.072L207.845 167.075L207.842 167.078L207.84 167.081L207.837 167.084L207.834 167.087L207.831 167.09L207.828 167.093L207.825 167.096L207.822 167.099L207.82 167.102L207.817 167.105L207.814 167.108L207.811 167.112L207.808 167.115L207.805 167.118L207.802 167.121L207.799 167.124L207.797 167.127L207.794 167.13L207.791 167.133L207.788 167.136L207.785 167.139L207.782 167.142L207.779 167.145L207.777 167.148L207.774 167.151L207.771 167.154L207.768 167.158L207.765 167.161L207.762 167.164L207.759 167.167L207.756 167.17L207.754 167.173L207.751 167.176L207.748 167.179L207.745 167.182L207.742 167.185L207.739 167.188L207.736 167.191L207.734 167.194L207.731 167.197L207.728 167.2L207.725 167.204L207.722 167.207L207.719 167.21L207.716 167.213L207.714 167.216L207.711 167.219L207.708 167.222L207.705 167.225L207.702 167.228L207.699 167.231L207.696 167.234L207.693 167.237L207.691 167.24L207.688 167.243L207.685 167.247L207.682 167.25L207.679 167.253L207.676 167.256L207.673 167.259L207.671 167.262L207.668 167.265L207.665 167.268L207.662 167.271L207.659 167.274L207.656 167.277L207.653 167.28L207.65 167.283L207.648 167.286L207.645 167.289L207.642 167.293L207.639 167.296L207.636 167.299L207.633 167.302L207.63 167.305L207.628 167.308L207.625 167.311L207.622 167.314L207.619 167.317L207.616 167.32L207.613 167.323L207.61 167.326L207.607 167.329L207.605 167.332L207.602 167.335L207.599 167.339L207.596 167.342L207.593 167.345L207.59 167.348L207.587 167.351L207.585 167.354L207.582 167.357L207.579 167.36L207.576 167.363L207.573 167.366L207.57 167.369L207.567 167.372L207.564 167.375L207.562 167.378L207.559 167.381L207.556 167.385L207.553 167.388L207.55 167.391L207.547 167.394L207.544 167.397L207.542 167.4L207.539 167.403L207.536 167.406L207.533 167.409L207.53 167.412L207.527 167.415L207.524 167.418L207.522 167.421L207.519 167.424L207.516 167.428L207.513 167.431L207.51 167.434L207.507 167.437L207.504 167.44L207.501 167.443L207.499 167.446L207.496 167.449L207.493 167.452L207.49 167.455L207.487 167.458L207.484 167.461L207.481 167.464L207.479 167.467L207.476 167.47L207.473 167.474L207.47 167.477L207.467 167.48L207.464 167.483L207.461 167.486L207.458 167.489L207.456 167.492L207.453 167.495L207.45 167.498L207.447 167.501L207.444 167.504L207.441 167.507L207.438 167.51L207.436 167.513L207.433 167.516L207.43 167.52L207.427 167.523L207.424 167.526L207.421 167.529L207.418 167.532L207.415 167.535L207.413 167.538L207.41 167.541L207.407 167.544L207.404 167.547L207.401 167.55L207.398 167.553L207.395 167.556L207.393 167.559L207.39 167.562L207.387 167.566L207.384 167.569L207.381 167.572L207.378 167.575L207.375 167.578L207.373 167.581L207.37 167.584L207.367 167.587L207.364 167.59L207.361 167.593L207.358 167.596L207.355 167.599L207.352 167.602L207.35 167.605L207.347 167.609L207.344 167.612L207.341 167.615L207.338 167.618L207.335 167.621L207.332 167.624L207.33 167.627L207.327 167.63L207.324 167.633L207.321 167.636L207.318 167.639L207.315 167.642L207.312 167.645L207.309 167.648L207.307 167.651L207.304 167.655L207.301 167.658L207.298 167.661L207.295 167.664L207.292 167.667L207.289 167.67L207.287 167.673L207.284 167.676L207.281 167.679L207.278 167.682L207.275 167.685L207.272 167.688L207.269 167.691L207.266 167.694L207.264 167.697L207.261 167.701L207.258 167.704L207.255 167.707L207.252 167.71L207.249 167.713L207.246 167.716L207.244 167.719L207.241 167.722L207.238 167.725L207.235 167.728L207.232 167.731L207.229 167.734L207.226 167.737L207.223 167.74L207.221 167.743L207.218 167.747L207.215 167.75L207.212 167.753L207.209 167.756L207.206 167.759L207.203 167.762L207.201 167.765L207.198 167.768L207.195 167.771L207.192 167.774L207.189 167.777L207.186 167.78L207.183 167.783L207.181 167.786L207.178 167.789L207.175 167.793L207.172 167.796L207.169 167.799L207.166 167.802L207.163 167.805L207.16 167.808L207.158 167.811L207.155 167.814L207.152 167.817L207.149 167.82L207.146 167.823L207.143 167.826L207.14 167.829L207.138 167.832L207.135 167.836L207.132 167.839L207.129 167.842L207.126 167.845L207.123 167.848L207.12 167.851L207.117 167.854L207.115 167.857L207.112 167.86L207.109 167.863L207.106 167.866L207.103 167.869L207.1 167.872L207.097 167.875L207.095 167.878L207.092 167.882L207.089 167.885L207.086 167.888L207.083 167.891L207.08 167.894L207.077 167.897L207.074 167.9L207.072 167.903L207.069 167.906L207.066 167.909L207.063 167.912L207.06 167.915L207.057 167.918L207.054 167.921L207.052 167.924L207.049 167.928L207.046 167.931L207.043 167.934L207.04 167.937L207.037 167.94L207.034 167.943L207.031 167.946L207.029 167.949L207.026 167.952L207.023 167.955L207.02 167.958L207.017 167.961L207.014 167.964L207.011 167.967L207.009 167.97L207.006 167.974L207.003 167.977L207 167.98L206.997 167.983L206.994 167.986L206.991 167.989L206.989 167.992L206.986 167.995L206.983 167.998L206.98 168.001L206.977 168.004L206.974 168.007L206.971 168.01L206.968 168.013L206.966 168.017L206.963 168.02L206.96 168.023L206.957 168.026L206.954 168.029L206.951 168.032L206.948 168.035L206.946 168.038L206.943 168.041L206.94 168.044L206.937 168.047L206.934 168.05L206.931 168.053L206.928 168.056L206.925 168.059L206.923 168.063L206.92 168.066L206.917 168.069L206.914 168.072L206.911 168.075L206.908 168.078L206.905 168.081L206.903 168.084L206.9 168.087L206.897 168.09L206.894 168.093L206.891 168.096L206.888 168.099L206.885 168.102L206.882 168.105L206.88 168.109L206.877 168.112L206.874 168.115L206.871 168.118L206.868 168.121L206.865 168.124L206.862 168.127L206.86 168.13L206.857 168.133L206.854 168.136L206.851 168.139L206.848 168.142L206.845 168.145L206.842 168.148L206.839 168.151L206.837 168.155L206.834 168.158L206.831 168.161L206.828 168.164L206.825 168.167L206.822 168.17L206.819 168.173L206.817 168.176L206.814 168.179L206.811 168.182L206.808 168.185L206.805 168.188L206.802 168.191L206.799 168.194L206.797 168.198L206.794 168.201L206.791 168.204L206.788 168.207L206.785 168.21L206.782 168.213L206.779 168.216L206.776 168.219L206.774 168.222L206.771 168.225L206.768 168.228L206.765 168.231L206.762 168.234L206.759 168.237L206.756 168.24L206.754 168.244L206.751 168.247L206.748 168.25L206.745 168.253L206.742 168.256L206.739 168.259L206.736 168.262L206.733 168.265L206.731 168.268L206.728 168.271L206.725 168.274L206.722 168.277L206.719 168.28L206.716 168.283L206.713 168.286L206.711 168.29L206.708 168.293L206.705 168.296L206.702 168.299L206.699 168.302L206.696 168.305L206.693 168.308L206.69 168.311L206.688 168.314L206.685 168.317L206.682 168.32L206.679 168.323L206.676 168.326L206.673 168.329L206.67 168.332L206.668 168.336L206.665 168.339L206.662 168.342L206.659 168.345L206.656 168.348L206.653 168.351L206.65 168.354L206.648 168.357L206.645 168.36L206.642 168.363L206.639 168.366L206.636 168.369L206.633 168.372L206.63 168.375L206.627 168.379L206.625 168.382L206.622 168.385L206.619 168.388L206.616 168.391L206.613 168.394L206.61 168.397L206.607 168.4L206.605 168.403L206.602 168.406L206.599 168.409L206.596 168.412L206.593 168.415L206.59 168.418L206.587 168.421L206.584 168.425L206.582 168.428L206.579 168.431L206.576 168.434L206.573 168.437L206.57 168.44L206.567 168.443L206.564 168.446L206.562 168.449L206.559 168.452L206.556 168.455L206.553 168.458L206.55 168.461L206.547 168.464L206.544 168.467L206.541 168.471L206.539 168.474L206.536 168.477L206.533 168.48L206.53 168.483L206.527 168.486L206.524 168.489L206.521 168.492L206.519 168.495L206.516 168.498L206.513 168.501L206.51 168.504L206.507 168.507L206.504 168.51L206.501 168.513L206.498 168.517L206.496 168.52L206.493 168.523L206.49 168.526L206.487 168.529L206.484 168.532L206.481 168.535L206.478 168.538L206.476 168.541L206.473 168.544L206.47 168.547L206.467 168.55L206.464 168.553L206.461 168.556L206.458 168.559L206.457 168.561L206.437 168.581C206.418 168.6 206.403 168.614 206.381 168.636L206.326 168.69C206.235 168.779 206.054 168.956 205.869 169.169C205.524 169.564 204.827 170.446 204.637 171.762C204.534 172.475 204.548 173.127 204.566 173.567C204.578 173.844 204.588 174.009 204.596 174.138L204.596 174.138C204.605 174.286 204.611 174.386 204.613 174.553C204.627 175.559 204.365 176.408 203.667 177.332C203.531 177.363 203.359 177.395 203.098 177.441L203.017 177.455C202.741 177.503 202.333 177.574 201.938 177.669C199.858 178.168 197.072 178.916 194.682 180.951C191.761 183.437 189.802 186.461 189.056 190.433C188.997 190.745 188.934 191.119 188.88 191.444L188.88 191.445C188.852 191.611 188.826 191.764 188.804 191.89C188.726 192.334 188.654 192.696 188.571 193.014C188.4 193.669 188.242 193.882 188.188 193.94C187.475 194.718 186.789 195.09 185.377 195.365C184.532 195.529 183.652 195.62 182.554 195.734L182.53 195.736C181.483 195.845 180.228 195.975 178.958 196.24C176.12 196.832 174.346 198.745 173.354 199.813C173.302 199.87 173.252 199.924 173.204 199.975C171.589 201.704 170.823 203.641 170.355 205.293C170.129 206.089 169.956 206.885 169.811 207.555L169.803 207.588C169.68 208.154 169.574 208.639 169.458 209.095L169.406 209.147L169.369 209.185L169.368 209.185C169.322 209.232 169.266 209.289 169.212 209.344C169.057 209.503 168.731 209.771 168.318 210.02C168.145 210.124 167.985 210.208 167.85 210.27C167.771 210.241 167.672 210.204 167.532 210.151L167.52 210.146L167.52 210.146C167.298 210.063 166.939 209.928 166.55 209.816C165.138 209.409 163.683 209.847 162.725 210.83C164.622 213.097 166.825 215.538 169.25 217.888C170.402 217.635 171.475 217.108 172.296 216.613C173.162 216.09 174.03 215.432 174.72 214.725C174.743 214.702 174.773 214.672 174.811 214.635C175.194 214.264 176.315 213.176 176.777 211.527C176.999 210.734 177.171 209.946 177.315 209.282L177.315 209.281L177.328 209.225C177.483 208.51 177.61 207.934 177.763 207.391C178.061 206.341 178.384 205.71 178.831 205.231C179.412 204.609 179.733 204.279 180.043 204.038C180.291 203.846 180.425 203.8 180.53 203.778C181.357 203.605 182.234 203.508 183.322 203.395L183.478 203.379C184.473 203.277 185.659 203.154 186.849 202.923C189.461 202.414 191.781 201.415 193.863 199.145C195.118 197.777 195.697 196.198 196.02 194.964C196.238 194.134 196.406 193.133 196.523 192.435L196.523 192.435C196.562 192.202 196.596 192.002 196.624 191.855C197.007 189.815 197.929 188.299 199.673 186.815C200.556 186.063 201.74 185.635 203.735 185.156C203.883 185.12 204.059 185.09 204.425 185.026C204.737 184.971 205.2 184.89 205.679 184.767C206.615 184.526 208.123 184.007 209.301 182.611C211.241 180.312 212.356 177.628 212.313 174.447C212.309 174.187 212.297 173.942 212.286 173.748L212.279 173.609L212.28 173.607L212.283 173.604L212.286 173.601L212.289 173.598L212.292 173.595L212.295 173.592L212.297 173.589L212.3 173.586L212.303 173.583L212.306 173.579L212.309 173.576L212.312 173.573L212.315 173.57L212.317 173.567L212.32 173.564L212.323 173.561L212.326 173.558L212.329 173.555L212.332 173.552L212.335 173.549L212.338 173.546L212.34 173.543L212.343 173.54L212.346 173.537L212.349 173.533L212.352 173.53L212.355 173.527L212.358 173.524L212.36 173.521L212.363 173.518L212.366 173.515L212.369 173.512L212.372 173.509L212.375 173.506L212.378 173.503L212.38 173.5L212.383 173.497L212.386 173.494L212.389 173.49L212.392 173.487L212.395 173.484L212.398 173.481L212.401 173.478L212.403 173.475L212.406 173.472L212.409 173.469L212.412 173.466L212.415 173.463L212.418 173.46L212.421 173.457L212.423 173.454L212.426 173.451L212.429 173.448L212.432 173.444L212.435 173.441L212.438 173.438L212.441 173.435L212.444 173.432L212.446 173.429L212.449 173.426L212.452 173.423L212.455 173.42L212.458 173.417L212.461 173.414L212.464 173.411L212.466 173.408L212.469 173.405L212.472 173.402L212.475 173.398L212.478 173.395L212.481 173.392L212.484 173.389L212.487 173.386L212.489 173.383L212.492 173.38L212.495 173.377L212.498 173.374L212.501 173.371L212.504 173.368L212.507 173.365L212.509 173.362L212.512 173.359L212.515 173.356L212.518 173.352L212.521 173.349L212.524 173.346L212.527 173.343L212.529 173.34L212.532 173.337L212.535 173.334L212.538 173.331L212.541 173.328L212.544 173.325L212.547 173.322L212.55 173.319L212.552 173.316L212.555 173.313L212.558 173.309L212.561 173.306L212.564 173.303L212.567 173.3L212.57 173.297L212.572 173.294L212.575 173.291L212.578 173.288L212.581 173.285L212.584 173.282L212.587 173.279L212.59 173.276L212.593 173.273L212.595 173.27L212.598 173.267L212.601 173.263L212.604 173.26L212.607 173.257L212.61 173.254L212.613 173.251L212.615 173.248L212.618 173.245L212.621 173.242L212.624 173.239L212.627 173.236L212.63 173.233L212.633 173.23L212.636 173.227L212.638 173.224L212.641 173.221L212.644 173.217L212.647 173.214L212.65 173.211L212.653 173.208L212.656 173.205L212.658 173.202L212.661 173.199L212.664 173.196L212.667 173.193L212.67 173.19L212.673 173.187L212.676 173.184L212.679 173.181L212.681 173.178L212.684 173.175L212.687 173.171L212.69 173.168L212.693 173.165L212.696 173.162L212.699 173.159L212.701 173.156L212.704 173.153L212.707 173.15L212.71 173.147L212.713 173.144L212.716 173.141L212.719 173.138L212.721 173.135L212.724 173.132L212.727 173.129L212.73 173.125L212.733 173.122L212.736 173.119L212.739 173.116L212.742 173.113L212.744 173.11L212.747 173.107L212.75 173.104L212.753 173.101L212.756 173.098L212.759 173.095L212.762 173.092L212.764 173.089L212.767 173.086L212.77 173.082L212.773 173.079L212.776 173.076L212.779 173.073L212.782 173.07L212.785 173.067L212.787 173.064L212.79 173.061L212.793 173.058L212.796 173.055L212.799 173.052L212.802 173.049L212.805 173.046L212.807 173.043L212.81 173.04L212.813 173.036L212.816 173.033L212.819 173.03L212.822 173.027L212.825 173.024L212.828 173.021L212.83 173.018L212.833 173.015L212.836 173.012L212.839 173.009L212.842 173.006L212.845 173.003L212.848 173L212.85 172.997L212.853 172.994L212.856 172.99L212.859 172.987L212.862 172.984L212.865 172.981L212.868 172.978L212.871 172.975L212.873 172.972L212.876 172.969L212.879 172.966L212.882 172.963L212.885 172.96L212.888 172.957L212.891 172.954L212.893 172.951L212.896 172.948L212.899 172.944L212.902 172.941L212.905 172.938L212.908 172.935L212.911 172.932L212.913 172.929L212.916 172.926L212.919 172.923L212.922 172.92L212.925 172.917L212.928 172.914L212.931 172.911L212.934 172.908L212.936 172.905L212.939 172.901L212.942 172.898L212.945 172.895L212.948 172.892L212.951 172.889L212.954 172.886L212.956 172.883L212.959 172.88L212.962 172.877L212.965 172.874L212.968 172.871L212.971 172.868L212.974 172.865L212.977 172.862L212.979 172.859L212.982 172.855L212.985 172.852L212.988 172.849L212.991 172.846L212.994 172.843L212.997 172.84L212.999 172.837L213.002 172.834L213.005 172.831L213.008 172.828L213.011 172.825L213.014 172.822L213.017 172.819L213.02 172.816L213.022 172.813L213.025 172.809L213.028 172.806L213.031 172.803L213.034 172.8L213.037 172.797L213.04 172.794L213.042 172.791L213.045 172.788L213.048 172.785L213.051 172.782L213.054 172.779L213.057 172.776L213.06 172.773L213.062 172.77L213.065 172.767L213.068 172.763L213.071 172.76L213.074 172.757L213.077 172.754L213.08 172.751L213.083 172.748L213.085 172.745L213.088 172.742L213.091 172.739L213.094 172.736L213.097 172.733L213.1 172.73L213.103 172.727L213.105 172.724L213.108 172.72L213.111 172.717L213.114 172.714L213.117 172.711L213.12 172.708L213.123 172.705L213.126 172.702L213.128 172.699L213.131 172.696L213.134 172.693L213.137 172.69L213.14 172.687L213.143 172.684L213.146 172.681L213.148 172.678L213.151 172.674L213.154 172.671L213.157 172.668L213.16 172.665L213.163 172.662L213.166 172.659L213.169 172.656L213.171 172.653L213.174 172.65L213.177 172.647L213.18 172.644L213.183 172.641L213.186 172.638L213.189 172.635L213.191 172.632L213.194 172.628L213.197 172.625L213.2 172.622L213.203 172.619L213.206 172.616L213.209 172.613L213.212 172.61L213.214 172.607L213.217 172.604L213.22 172.601L213.223 172.598L213.226 172.595L213.229 172.592L213.232 172.589L213.234 172.586L213.237 172.582L213.24 172.579L213.243 172.576L213.246 172.573L213.249 172.57L213.252 172.567L213.254 172.564L213.257 172.561L213.26 172.558L213.263 172.555L213.266 172.552L213.269 172.549L213.272 172.546L213.275 172.543L213.277 172.539L213.28 172.536L213.283 172.533L213.286 172.53L213.289 172.527L213.292 172.524L213.295 172.521L213.297 172.518L213.3 172.515L213.303 172.512L213.306 172.509L213.309 172.506L213.312 172.503L213.315 172.5L213.318 172.497L213.32 172.493L213.323 172.49L213.326 172.487L213.329 172.484L213.332 172.481L213.335 172.478L213.338 172.475L213.34 172.472L213.343 172.469L213.346 172.466L213.349 172.463L213.352 172.46L213.355 172.457L213.358 172.454L213.361 172.451L213.363 172.447L213.366 172.444L213.369 172.441L213.372 172.438L213.375 172.435L213.378 172.432L213.381 172.429L213.383 172.426L213.386 172.423L213.389 172.42L213.392 172.417L213.395 172.414L213.398 172.411L213.401 172.408L213.404 172.405L213.406 172.401L213.409 172.398L213.412 172.395L213.415 172.392L213.418 172.389L213.421 172.386L213.424 172.383L213.426 172.38L213.429 172.377L213.432 172.374L213.435 172.371L213.438 172.368L213.441 172.365L213.444 172.362L213.446 172.358L213.449 172.355L213.452 172.352L213.455 172.349L213.458 172.346L213.461 172.343L213.464 172.34L213.467 172.337L213.469 172.334L213.472 172.331L213.475 172.328L213.478 172.325L213.481 172.322L213.484 172.319L213.487 172.316L213.489 172.312L213.492 172.309L213.495 172.306L213.498 172.303L213.501 172.3L213.504 172.297L213.507 172.294L213.51 172.291L213.512 172.288L213.515 172.285L213.518 172.282L213.521 172.279L213.524 172.276L213.527 172.273L213.53 172.27L213.532 172.266L213.535 172.263L213.538 172.26L213.541 172.257L213.544 172.254L213.547 172.251C214.033 171.73 214.347 171.11 214.492 170.462C213.213 168.893 211.812 167.336 210.313 165.796ZM203.895 177.269C203.895 177.269 203.891 177.271 203.882 177.274C203.89 177.27 203.895 177.269 203.895 177.269Z" fill="white"/>
<path fill-rule="evenodd" clip-rule="evenodd" d="M156.546 214.228C154.776 213.307 152.567 213.895 151.499 215.62C151.286 215.964 151.111 216.305 151.003 216.516L150.997 216.527C150.929 216.66 150.88 216.754 150.841 216.828C150.699 216.874 150.525 216.919 150.326 216.958C149.853 217.051 149.431 217.071 149.21 217.057C149.184 217.056 149.157 217.054 149.132 217.053C149.08 217.05 149.03 217.047 148.987 217.045L148.934 217.042L148.86 217.037C148.468 216.778 148.064 216.49 147.593 216.153L147.565 216.133L147.565 216.133C147.007 215.735 146.345 215.261 145.643 214.823C144.187 213.912 142.319 212.992 139.96 212.795C139.891 212.789 139.818 212.782 139.742 212.776L139.741 212.776C138.289 212.649 135.689 212.423 133.189 213.89C132.07 214.546 131.052 215.293 130.204 215.915L130.184 215.93C129.295 216.582 128.581 217.106 127.844 217.551C126.614 218.295 125.855 218.481 124.805 218.383C124.726 218.376 124.466 218.324 123.899 217.954C123.624 217.774 123.328 217.555 122.972 217.277C122.871 217.199 122.749 217.103 122.617 216.998L122.616 216.998C122.358 216.794 122.06 216.559 121.807 216.367C118.587 213.924 115.105 212.998 111.271 213.117C108.133 213.215 105.567 214.53 103.69 215.557C103.333 215.752 102.983 215.974 102.746 216.123L102.677 216.167C102.453 216.309 102.304 216.4 102.183 216.469C101.045 216.252 100.281 215.799 99.6152 215.044C99.5051 214.919 99.4422 214.841 99.3496 214.725L99.3496 214.725C99.2688 214.624 99.1653 214.495 98.988 214.282C98.7065 213.944 98.2793 213.452 97.7242 212.992C96.6992 212.144 95.5907 211.958 95.0699 211.897C94.7893 211.864 94.5374 211.854 94.4097 211.849L94.332 211.846C94.3014 211.845 94.2812 211.845 94.2546 211.843L94.2258 211.842L94.2239 211.842L94.2197 211.841L94.2155 211.841L94.2113 211.841L94.2071 211.84L94.203 211.84L94.1988 211.84L94.1946 211.839L94.1904 211.839L94.1862 211.839L94.182 211.838L94.1779 211.838L94.1737 211.838L94.1695 211.837L94.1653 211.837L94.1611 211.837L94.1569 211.836L94.1528 211.836L94.1486 211.835L94.1444 211.835L94.1402 211.835L94.136 211.834L94.1318 211.834L94.1277 211.834L94.1235 211.833L94.1193 211.833L94.1151 211.833L94.1109 211.832L94.1067 211.832L94.1026 211.832L94.0984 211.831L94.0942 211.831L94.09 211.831L94.0858 211.83L94.0816 211.83L94.0775 211.83L94.0733 211.829L94.0691 211.829L94.0649 211.829L94.0607 211.828L94.0565 211.828L94.0524 211.827L94.0482 211.827L94.044 211.827L94.0398 211.826L94.0356 211.826L94.0314 211.826L94.0273 211.825L94.0231 211.825L94.0189 211.825L94.0147 211.824L94.0105 211.824L94.0063 211.824L94.0022 211.823L93.998 211.823L93.9938 211.823L93.9896 211.822L93.9854 211.822L93.9812 211.822L93.9771 211.821L93.9729 211.821L93.9687 211.82L93.9645 211.82L93.9603 211.82L93.9561 211.819L93.952 211.819L93.9478 211.819L93.9436 211.818L93.9394 211.818L93.9352 211.818L93.931 211.817L93.9269 211.817L93.9227 211.817L93.9185 211.816L93.9143 211.816L93.9101 211.816L93.9059 211.815L93.9018 211.815L93.8976 211.815L93.8934 211.814L93.8892 211.814L93.885 211.813L93.8808 211.813L93.8767 211.813L93.8725 211.812L93.8683 211.812L93.8641 211.812L93.8599 211.811L93.8557 211.811L93.8516 211.811L93.8474 211.81L93.8432 211.81L93.839 211.81L93.8348 211.809L93.8306 211.809L93.8265 211.809L93.8223 211.808L93.8181 211.808L93.8139 211.808L93.8097 211.807L93.8055 211.807L93.8014 211.806L93.7972 211.806L93.793 211.806L93.7888 211.805L93.7846 211.805L93.7804 211.805L93.7763 211.804L93.7721 211.804L93.7679 211.804L93.7637 211.803L93.7595 211.803L93.7553 211.803L93.7512 211.802L93.747 211.802L93.7428 211.802L93.7386 211.801L93.7344 211.801L93.7302 211.801L93.7261 211.8L93.7219 211.8L93.7177 211.8L93.7135 211.799L93.7093 211.799L93.7051 211.798L93.701 211.798L93.6968 211.798L93.6926 211.797L93.6884 211.797L93.6842 211.797L93.68 211.796L93.6759 211.796L93.6717 211.796L93.6675 211.795L93.6633 211.795L93.6591 211.795L93.6549 211.794L93.6508 211.794L93.6466 211.794L93.6424 211.793L93.6382 211.793L93.634 211.793L93.6298 211.792L93.6257 211.792L93.6215 211.791L93.6173 211.791L93.6131 211.791L93.6089 211.79L93.6047 211.79L93.6006 211.79L93.5964 211.789L93.5922 211.789L93.588 211.789L93.5838 211.788L93.5796 211.788L93.5755 211.788L93.5713 211.787L93.5671 211.787L93.5629 211.787L93.5587 211.786L93.5545 211.786L93.5504 211.786L93.5462 211.785L93.542 211.785L93.5378 211.784L93.5336 211.784L93.5294 211.784L93.5253 211.783L93.5211 211.783L93.5169 211.783L93.5127 211.782L93.5085 211.782L93.5043 211.782L93.5002 211.781L93.496 211.781L93.4918 211.781L93.4876 211.78L93.4834 211.78L93.4792 211.78L93.4751 211.779L93.4709 211.779L93.4667 211.779L93.4625 211.778L93.4583 211.778L93.4541 211.778L93.45 211.777L93.4458 211.777L93.4416 211.776L93.4374 211.776L93.4332 211.776L93.429 211.775L93.4249 211.775L93.4207 211.775L93.4165 211.774L93.4123 211.774L93.4081 211.774L93.4039 211.773L93.3998 211.773L93.3956 211.773L93.3914 211.772L93.3872 211.772L93.383 211.772L93.3788 211.771L93.3747 211.771L93.3705 211.771L93.3663 211.77L93.3621 211.77L93.3579 211.769L93.3537 211.769L93.3496 211.769L93.3454 211.768L93.3412 211.768L93.337 211.768L93.3328 211.767L93.3286 211.767L93.3245 211.767L93.3203 211.766L93.3161 211.766L93.3119 211.766L93.3077 211.765L93.3035 211.765L93.2994 211.765L93.2952 211.764L93.291 211.764L93.2868 211.764L93.2826 211.763L93.2784 211.763L93.2743 211.762L93.2701 211.762L93.2659 211.762L93.2617 211.761L93.2575 211.761L93.2533 211.761L93.2492 211.76L93.245 211.76L93.2408 211.76L93.2366 211.759L93.2324 211.759L93.2282 211.759L93.2241 211.758L93.2199 211.758L93.2157 211.758L93.2115 211.757L93.2073 211.757L93.2031 211.757L93.199 211.756L93.1948 211.756L93.1906 211.755L93.1864 211.755L93.1822 211.755L93.178 211.754L93.1739 211.754L93.1697 211.754L93.1655 211.753L93.1613 211.753L93.1571 211.753L93.1529 211.752L93.1487 211.752L93.1446 211.752L93.1404 211.751L93.1362 211.751L93.132 211.751L93.1278 211.75L93.1236 211.75L93.1195 211.75L93.1153 211.749L93.1111 211.749L93.1069 211.749L93.1027 211.748L93.0985 211.748L93.0944 211.747L93.0902 211.747L93.086 211.747L93.0818 211.746L93.0776 211.746L93.0734 211.746L93.0693 211.745L93.0651 211.745L93.0609 211.745L93.0567 211.744L93.0525 211.744L93.0483 211.744L93.0442 211.743L93.04 211.743L93.0358 211.743L93.0316 211.742L93.0274 211.742L93.0232 211.742L93.0191 211.741L93.0149 211.741L93.0107 211.74L93.0065 211.74L93.0023 211.74L92.9981 211.739L92.994 211.739L92.9898 211.739L92.9856 211.738L92.9814 211.738L92.9772 211.738L92.973 211.737L92.9689 211.737L92.9647 211.737L92.9605 211.736L92.9563 211.736L92.9521 211.736L92.9479 211.735L92.9438 211.735L92.9396 211.735L92.9354 211.734L92.9312 211.734L92.927 211.733L92.9228 211.733L92.9187 211.733L92.9145 211.732L92.9103 211.732L92.9061 211.732L92.9019 211.731L92.8977 211.731L92.8936 211.731L92.8894 211.73L92.8852 211.73L92.881 211.73L92.8768 211.729L92.8726 211.729L92.8685 211.729L92.8643 211.728L92.8601 211.728L92.8559 211.728L92.8517 211.727L92.8475 211.727L92.8434 211.727L92.8392 211.726L92.835 211.726L92.8308 211.725L92.8266 211.725L92.8224 211.725L92.8183 211.724L92.8141 211.724L92.8099 211.724L92.8057 211.723L92.8015 211.723L92.7973 211.723L92.7932 211.722L92.789 211.722L92.7848 211.722L92.7806 211.721L92.7764 211.721L92.7722 211.721L92.7681 211.72L92.7639 211.72L92.7597 211.72L92.7555 211.719L92.7513 211.719L92.7471 211.718L92.743 211.718L92.7388 211.718L92.7346 211.717L92.7304 211.717L92.7262 211.717L92.722 211.716L92.7179 211.716L92.7137 211.716L92.7095 211.715L92.7053 211.715L92.7011 211.715L92.6969 211.714L92.6928 211.714L92.6886 211.714L92.6844 211.713L92.6802 211.713L92.676 211.713L92.6718 211.712L92.6677 211.712L92.6635 211.711L92.6593 211.711L92.6551 211.711L92.6509 211.71L92.6467 211.71L92.6426 211.71L92.6384 211.709L92.6342 211.709L92.63 211.709L92.6258 211.708L92.6216 211.708L92.6175 211.708L92.6133 211.707L92.6091 211.707L92.6049 211.707L92.6007 211.706L92.5965 211.706L92.5924 211.706L92.5882 211.705L92.584 211.705L92.5798 211.704L92.5756 211.704L92.5714 211.704L92.5673 211.703L92.5631 211.703L92.5589 211.703L92.5547 211.702L92.5505 211.702L92.5463 211.702L92.5422 211.701L92.538 211.701L92.5338 211.701L92.5296 211.7L92.5254 211.7L92.5212 211.7L92.5171 211.699L92.5129 211.699L92.5087 211.699L92.5045 211.698L92.5003 211.698L92.4961 211.698L92.492 211.697L92.4878 211.697L92.4836 211.696L92.4794 211.696L92.4752 211.696L92.471 211.695L92.4669 211.695L92.4627 211.695L92.4585 211.694L92.4543 211.694L92.4501 211.694L92.4459 211.693L92.4418 211.693L92.4376 211.693L92.4334 211.692L92.4292 211.692L92.425 211.692L92.4208 211.691L92.4167 211.691L92.4125 211.691L92.4083 211.69L92.4041 211.69L92.3999 211.689L92.3957 211.689L92.3916 211.689L92.3874 211.688L92.3832 211.688L92.379 211.688L92.3748 211.687L92.3706 211.687L92.3665 211.687L92.3623 211.686L92.3581 211.686L92.3539 211.686L92.3497 211.685L92.3455 211.685L92.3414 211.685L92.3372 211.684L92.333 211.684L92.3288 211.684L92.3246 211.683L92.3204 211.683L92.3163 211.682L92.3121 211.682L92.3079 211.682L92.3037 211.681L92.2995 211.681L92.2953 211.681L92.2912 211.68L92.287 211.68L92.2828 211.68L92.2786 211.679L92.2744 211.679L92.2702 211.679L92.2661 211.678L92.2619 211.678L92.2577 211.678L92.2535 211.677L92.2493 211.677L92.2451 211.677L92.241 211.676L92.2368 211.676L92.2326 211.676L92.2284 211.675L92.2242 211.675L92.22 211.674L92.2159 211.674L92.2117 211.674L92.2075 211.673L92.2033 211.673L92.1991 211.673L92.1949 211.672L92.1908 211.672L92.1866 211.672L92.1824 211.671L92.1782 211.671L92.174 211.671L92.1698 211.67L92.1657 211.67L92.1615 211.67L92.1573 211.669L92.1531 211.669L92.1489 211.669L92.1447 211.668L92.1406 211.668L92.1364 211.667L92.1322 211.667L92.128 211.667L92.1238 211.666L92.1196 211.666L92.1155 211.666L92.1113 211.665L92.1071 211.665L92.1029 211.665L92.0987 211.664L92.0945 211.664L92.0904 211.664C91.8606 211.644 91.6339 211.646 91.412 211.666C91.4578 214.328 91.6131 216.912 91.9 219.375L91.9014 219.375L91.9056 219.375L91.9098 219.375L91.914 219.376L91.9181 219.376L91.9223 219.376L91.9265 219.377L91.9307 219.377L91.9349 219.377L91.9391 219.378L91.9432 219.378L91.9474 219.378L91.9516 219.379L91.9558 219.379L91.96 219.38L91.9642 219.38L91.9683 219.38L91.9725 219.381L91.9767 219.381L91.9809 219.381L91.9851 219.382L91.9893 219.382L91.9934 219.382L91.9976 219.383L92.0018 219.383L92.006 219.383L92.0102 219.384L92.0144 219.384L92.0185 219.384L92.0227 219.385L92.0269 219.385L92.0311 219.385L92.0353 219.386L92.0395 219.386L92.0436 219.387L92.0478 219.387L92.052 219.387L92.0562 219.388L92.0604 219.388L92.0646 219.388L92.0687 219.389L92.0729 219.389L92.0771 219.389L92.0813 219.39L92.0855 219.39L92.0897 219.39L92.0938 219.391L92.098 219.391L92.1022 219.391L92.1064 219.392L92.1106 219.392L92.1148 219.392L92.1189 219.393L92.1231 219.393L92.1273 219.394L92.1315 219.394L92.1357 219.394L92.1399 219.395L92.144 219.395L92.1482 219.395L92.1524 219.396L92.1566 219.396L92.1608 219.396L92.165 219.397L92.1691 219.397L92.1733 219.397L92.1775 219.398L92.1817 219.398L92.1859 219.398L92.1901 219.399L92.1942 219.399L92.1984 219.399L92.2026 219.4L92.2068 219.4L92.211 219.4L92.2152 219.401L92.2193 219.401L92.2235 219.402L92.2277 219.402L92.2319 219.402L92.2361 219.403L92.2403 219.403L92.2444 219.403L92.2486 219.404L92.2528 219.404L92.257 219.404L92.2612 219.405L92.2654 219.405L92.2695 219.405L92.2737 219.406L92.2779 219.406L92.2821 219.406L92.2863 219.407L92.2905 219.407L92.2947 219.407L92.2988 219.408L92.303 219.408L92.3072 219.409L92.3114 219.409L92.3156 219.409L92.3198 219.41L92.3239 219.41L92.3281 219.41L92.3323 219.411L92.3365 219.411L92.3407 219.411L92.3449 219.412L92.349 219.412L92.3532 219.412L92.3574 219.413L92.3616 219.413L92.3658 219.413L92.37 219.414L92.3741 219.414L92.3783 219.414L92.3825 219.415L92.3867 219.415L92.3909 219.416L92.3951 219.416L92.3992 219.416L92.4034 219.417L92.4076 219.417L92.4118 219.417L92.416 219.418L92.4202 219.418L92.4243 219.418L92.4285 219.419L92.4327 219.419L92.4369 219.419L92.4411 219.42L92.4453 219.42L92.4494 219.42L92.4536 219.421L92.4578 219.421L92.462 219.421L92.4662 219.422L92.4704 219.422L92.4745 219.423L92.4787 219.423L92.4829 219.423L92.4871 219.424L92.4913 219.424L92.4955 219.424L92.4996 219.425L92.5038 219.425L92.508 219.425L92.5122 219.426L92.5164 219.426L92.5206 219.426L92.5247 219.427L92.5289 219.427L92.5331 219.427L92.5373 219.428L92.5415 219.428L92.5457 219.428L92.5498 219.429L92.554 219.429L92.5582 219.429L92.5624 219.43L92.5666 219.43L92.5708 219.431L92.5749 219.431L92.5791 219.431L92.5833 219.432L92.5875 219.432L92.5917 219.432L92.5959 219.433L92.6 219.433L92.6042 219.433L92.6084 219.434L92.6126 219.434L92.6168 219.434L92.621 219.435L92.6251 219.435L92.6293 219.435L92.6335 219.436L92.6377 219.436L92.6419 219.436L92.6461 219.437L92.6502 219.437L92.6544 219.438L92.6586 219.438L92.6628 219.438L92.667 219.439L92.6712 219.439L92.6753 219.439L92.6795 219.44L92.6837 219.44L92.6879 219.44L92.6921 219.441L92.6963 219.441L92.7004 219.441L92.7046 219.442L92.7088 219.442L92.713 219.442L92.7172 219.443L92.7214 219.443L92.7255 219.443L92.7297 219.444L92.7339 219.444L92.7381 219.445L92.7423 219.445L92.7465 219.445L92.7506 219.446L92.7548 219.446L92.759 219.446L92.7632 219.447L92.7674 219.447L92.7716 219.447L92.7757 219.448L92.7799 219.448L92.7841 219.448L92.7883 219.449L92.7925 219.449L92.7967 219.449L92.8008 219.45L92.805 219.45L92.8092 219.45L92.8134 219.451L92.8176 219.451L92.8218 219.451L92.8259 219.452L92.8301 219.452L92.8343 219.453L92.8385 219.453L92.8427 219.453L92.8469 219.454L92.851 219.454L92.8552 219.454L92.8594 219.455L92.8636 219.455L92.8678 219.455L92.872 219.456L92.8761 219.456L92.8803 219.456L92.8845 219.457L92.8887 219.457L92.8929 219.457L92.8971 219.458L92.9012 219.458L92.9054 219.458L92.9096 219.459L92.9138 219.459L92.918 219.46L92.9222 219.46L92.9263 219.46L92.9305 219.461L92.9347 219.461L92.9389 219.461L92.9431 219.462L92.9473 219.462L92.9514 219.462L92.9556 219.463L92.9598 219.463L92.964 219.463L92.9682 219.464L92.9724 219.464L92.9765 219.464L92.9807 219.465L92.9849 219.465L92.9891 219.465L92.9933 219.466L92.9975 219.466L93.0016 219.467L93.0058 219.467L93.01 219.467L93.0142 219.468L93.0184 219.468L93.0226 219.468L93.0267 219.469L93.0309 219.469L93.0351 219.469L93.0393 219.47L93.0435 219.47L93.0477 219.47L93.0518 219.471L93.056 219.471L93.0602 219.471L93.0644 219.472L93.0686 219.472L93.0728 219.472L93.0769 219.473L93.0811 219.473L93.0853 219.474L93.0895 219.474L93.0937 219.474L93.0979 219.475L93.102 219.475L93.1062 219.475L93.1104 219.476L93.1146 219.476L93.1188 219.476L93.123 219.477L93.1271 219.477L93.1313 219.477L93.1355 219.478L93.1397 219.478L93.1439 219.478L93.1481 219.479L93.1522 219.479L93.1564 219.479L93.1606 219.48L93.1648 219.48L93.169 219.48L93.1732 219.481L93.1773 219.481L93.1815 219.482L93.1857 219.482L93.1899 219.482L93.1941 219.483L93.1983 219.483L93.2024 219.483L93.2066 219.484L93.2108 219.484L93.215 219.484L93.2192 219.485L93.2234 219.485L93.2275 219.485L93.2317 219.486L93.2359 219.486L93.2401 219.486L93.2443 219.487L93.2485 219.487L93.2526 219.487L93.2568 219.488L93.261 219.488L93.2652 219.489L93.2694 219.489L93.2736 219.489L93.2777 219.49L93.2819 219.49L93.2861 219.49L93.2903 219.491L93.2945 219.491L93.2987 219.491L93.3011 219.492L93.3887 219.6C93.511 219.75 93.6667 219.94 93.8384 220.135C95.9419 222.522 98.5708 223.763 101.552 224.164C103.362 224.407 104.829 223.779 105.684 223.329C106.121 223.099 106.518 222.848 106.787 222.679C107.101 222.481 107.252 222.385 107.386 222.312C109.186 221.327 110.35 220.85 111.51 220.814C113.798 220.743 115.5 221.247 117.153 222.502C117.273 222.592 117.432 222.718 117.617 222.864L117.618 222.864C118.173 223.303 118.97 223.931 119.688 224.401C120.756 225.098 122.245 225.879 124.094 226.051C127.161 226.335 129.551 225.518 131.828 224.141C132.866 223.514 133.827 222.808 134.633 222.216L134.759 222.123C135.641 221.476 136.356 220.959 137.085 220.531C137.178 220.477 137.308 220.421 137.621 220.397C138.012 220.368 138.472 220.397 139.32 220.468C139.973 220.523 140.636 220.773 141.562 221.352C142.04 221.651 142.521 221.993 143.116 222.418L143.163 222.452L143.163 222.452C143.716 222.847 144.372 223.316 145.07 223.755C146.519 224.666 148.08 224.72 148.613 224.738C148.666 224.74 148.709 224.741 148.741 224.743C149.727 224.803 150.812 224.709 151.805 224.515C152.767 224.326 153.946 223.986 154.986 223.374C155.502 223.071 155.927 222.721 156.276 222.366C156.511 219.555 156.577 216.788 156.546 214.228ZM101.971 216.575C101.971 216.575 101.975 216.574 101.985 216.57C101.976 216.573 101.971 216.575 101.971 216.575Z" fill="white"/>
<path fill-rule="evenodd" clip-rule="evenodd" d="M77.8672 168.426C77.895 167.792 77.7666 167.142 77.4625 166.535L74.0219 168.263L77.4625 166.535L77.4625 166.535L77.4624 166.535L77.4624 166.535L77.4623 166.535L77.4622 166.535L77.4622 166.534L77.4621 166.534L77.4619 166.534L77.4618 166.534L77.4617 166.533L77.4615 166.533L77.4613 166.533L77.4612 166.532L77.461 166.532L77.4608 166.532L77.4605 166.531L77.4603 166.531L77.46 166.53L77.4598 166.53L77.4595 166.529L77.4592 166.529L77.4589 166.528L77.4586 166.527L77.4583 166.527L77.4579 166.526L77.4576 166.525L77.4572 166.525L77.4568 166.524L77.4565 166.523L77.4561 166.522L77.4556 166.521L77.4552 166.521L77.4548 166.52L77.4543 166.519L77.4539 166.518L77.4534 166.517L77.4529 166.516L77.4524 166.515L77.4519 166.514L77.4513 166.513L77.4508 166.512L77.4503 166.511L77.4497 166.51L77.4491 166.508L77.4485 166.507L77.4479 166.506L77.4473 166.505L77.4467 166.504L77.4461 166.502L77.4454 166.501L77.4448 166.5L77.4441 166.498L77.4434 166.497L77.4427 166.496L77.442 166.494L77.4413 166.493L77.4406 166.491L77.4398 166.49L77.4391 166.488L77.4383 166.487L77.4376 166.485L77.4368 166.484L77.436 166.482L77.4352 166.481L77.4343 166.479L77.4335 166.477L77.4327 166.476L77.4318 166.474L77.431 166.472L77.4301 166.47L77.4292 166.469L77.4283 166.467L77.4274 166.465L77.4265 166.463L77.4256 166.461L77.4246 166.459L77.4237 166.458L77.4227 166.456L77.4217 166.454L77.4208 166.452L77.4198 166.45L77.4188 166.448L77.4178 166.446L77.4167 166.444L77.4157 166.442L77.4147 166.44L77.4136 166.437L77.4125 166.435L77.4115 166.433L77.4104 166.431L77.4093 166.429L77.4082 166.427L77.4071 166.424L77.4059 166.422L77.4048 166.42L77.4037 166.418L77.4025 166.415L77.4013 166.413L77.4002 166.411L77.399 166.408L77.3978 166.406L77.3966 166.403L77.3954 166.401L77.3942 166.399L77.3929 166.396L77.3917 166.394L77.3904 166.391L77.3892 166.389L77.3879 166.386L77.3866 166.384L77.3853 166.381L77.384 166.378L77.3827 166.376L77.3814 166.373L77.3801 166.37L77.3788 166.368L77.3774 166.365L77.3761 166.362L77.3747 166.36L77.3733 166.357L77.3719 166.354L77.3706 166.351L77.3692 166.349L77.3678 166.346L77.3663 166.343L77.3649 166.34L77.3635 166.337L77.362 166.334L77.3606 166.332L77.3591 166.329L77.3577 166.326L77.3562 166.323L77.3547 166.32L77.3532 166.317L77.3517 166.314L77.3502 166.311L77.3487 166.308L77.3472 166.305L77.3456 166.302L77.3441 166.299L77.3426 166.296L77.341 166.292L77.3394 166.289L77.3379 166.286L77.3363 166.283L77.3347 166.28L77.3331 166.277L77.3315 166.273L77.3299 166.27L77.3283 166.267L77.3266 166.264L77.325 166.26L77.3233 166.257L77.3217 166.254L77.32 166.251L77.3184 166.247L77.3167 166.244L77.315 166.241L77.3133 166.237L77.3116 166.234L77.3099 166.23L77.3082 166.227L77.3065 166.224L77.3048 166.22L77.303 166.217L77.3013 166.213L77.2996 166.21L77.2978 166.206L77.2961 166.203L77.2943 166.199L77.2925 166.196L77.2907 166.192L77.2889 166.188L77.2872 166.185L77.2854 166.181L77.2835 166.178L77.2817 166.174L77.2799 166.17L77.2781 166.167L77.2763 166.163L77.2744 166.159L77.2726 166.156L77.2707 166.152L77.2689 166.148L77.267 166.145L77.2651 166.141L77.2632 166.137L77.2614 166.133L77.2595 166.13L77.2576 166.126L77.2557 166.122L77.2538 166.118L77.2518 166.114L77.2499 166.11L77.248 166.107L77.2461 166.103L77.2441 166.099L77.2422 166.095L77.2402 166.091L77.2383 166.087L77.2363 166.083L77.2344 166.079L77.2324 166.075L77.2304 166.071L77.2284 166.068L77.2264 166.064L77.2244 166.06L77.2224 166.056L77.2204 166.052L77.2184 166.048L77.2164 166.044L77.2144 166.039L77.2124 166.035L77.2103 166.031L77.2083 166.027L77.2063 166.023L77.2042 166.019L77.2022 166.015L77.2001 166.011L77.198 166.007L77.196 166.003L77.1939 165.999L77.1918 165.994L77.1897 165.99L77.1877 165.986L77.1856 165.982L77.1835 165.978L77.1814 165.974L77.1793 165.969L77.1772 165.965L77.1751 165.961L77.1729 165.957L77.1708 165.952L77.1687 165.948L77.1666 165.944L77.1644 165.94L77.1623 165.935L77.1602 165.931L77.158 165.927L77.1559 165.923L77.1537 165.918L77.1515 165.914L77.1494 165.91L77.1472 165.905L77.145 165.901L77.1429 165.897L77.1407 165.892L77.1385 165.888L77.1363 165.884L77.1341 165.879L77.1319 165.875L77.1297 165.87L77.1275 165.866L77.1253 165.862L77.1231 165.857L77.1209 165.853L77.1187 165.848L77.1165 165.844L77.1143 165.84L77.1121 165.835L77.1098 165.831L77.1076 165.826L77.1054 165.822L77.1031 165.817L77.1009 165.813L77.0986 165.808L77.0964 165.804L77.0942 165.799L77.0919 165.795L77.0896 165.79L77.0874 165.786L77.0851 165.781L77.0829 165.777L77.0806 165.772L77.0783 165.768L77.0761 165.763L77.0738 165.759L77.0715 165.754L77.0692 165.75L77.067 165.745L77.0647 165.74L77.0624 165.736L77.0601 165.731L77.0578 165.727L77.0555 165.722L77.0532 165.718L77.0509 165.713L77.0486 165.708L77.0463 165.704L77.044 165.699L77.0417 165.695L77.0394 165.69L77.0371 165.685L77.0348 165.681L77.0325 165.676L77.0302 165.672L77.0279 165.667L77.0255 165.662L77.0232 165.658L77.0209 165.653L77.0186 165.648L77.0162 165.644L77.0139 165.639L77.0116 165.634L77.0093 165.63L77.0069 165.625L77.0046 165.62L77.0023 165.616L76.9999 165.611L76.9976 165.606L76.9953 165.602L76.9929 165.597L76.9906 165.592L76.9882 165.588L76.9859 165.583L76.9836 165.578L76.9812 165.574L76.9789 165.569L76.9765 165.564L76.9742 165.56L76.9718 165.555L76.9695 165.55L76.9671 165.546L76.9648 165.541L76.9624 165.536L76.9601 165.532L76.9577 165.527L76.9554 165.522L76.953 165.517L76.9507 165.513L76.9483 165.508L76.946 165.503L76.9436 165.499L76.9413 165.494L76.9389 165.489L76.9366 165.485L76.9342 165.48L76.9319 165.475L76.9295 165.47L76.9271 165.466L76.9248 165.461L76.9224 165.456L76.9201 165.452L76.9177 165.447L76.9154 165.442L76.913 165.438L76.9107 165.433L76.9083 165.428L76.906 165.423L76.9036 165.419L76.9013 165.414L76.8989 165.409L76.8966 165.405L76.8942 165.4L76.8919 165.395L76.8895 165.391L76.8872 165.386L76.8848 165.381L76.8825 165.376L76.8801 165.372L76.8778 165.367L76.8754 165.362L76.8731 165.358L76.8707 165.353L76.8684 165.348L76.8661 165.344L76.8637 165.339L76.8614 165.334L76.859 165.33L76.8567 165.325L76.8544 165.32L76.852 165.316L76.8497 165.311L76.8474 165.306L76.845 165.302L76.8427 165.297L76.8404 165.292L76.8381 165.288L76.8357 165.283L76.8334 165.278L76.8311 165.274L76.8288 165.269L76.8265 165.265L76.8241 165.26L76.8218 165.255L76.8195 165.251L76.8172 165.246L76.8149 165.242L76.8126 165.237L76.8103 165.232L76.808 165.228L76.8057 165.223L76.8034 165.219L76.8011 165.214L76.7988 165.209L76.7965 165.205L76.7942 165.2L76.7919 165.196L76.7896 165.191L76.7874 165.187L76.7851 165.182L76.7828 165.177L76.7805 165.173L76.7783 165.168L76.776 165.164L76.7737 165.159L76.7715 165.155L76.7692 165.15L76.7669 165.146L76.7647 165.141L76.7624 165.137L76.7602 165.132L76.7579 165.128L76.7557 165.123L76.7534 165.119L76.7512 165.114L76.749 165.11L76.7467 165.105L76.7445 165.101L76.7423 165.096L76.7401 165.092L76.7378 165.088L76.7356 165.083L76.7334 165.079L76.7312 165.074L76.729 165.07L76.7268 165.066L76.7246 165.061L76.7224 165.057L76.7202 165.052L76.718 165.048L76.7158 165.044L76.7137 165.039L76.7115 165.035L76.7093 165.031L76.7071 165.026L76.705 165.022L76.7028 165.018L76.7007 165.013L76.6985 165.009L76.6964 165.005L76.6942 165L76.6921 164.996L76.6899 164.992L76.6878 164.988L76.6857 164.983L76.6835 164.979L76.6814 164.975L76.6793 164.971L76.6772 164.966L76.6751 164.962L76.673 164.958L76.6709 164.954L76.6688 164.95L76.6667 164.946L76.6646 164.941L76.6626 164.937L76.6605 164.933L76.6584 164.929L76.6564 164.925L76.6543 164.921L76.6522 164.917L76.6502 164.913L76.6481 164.908L76.6461 164.904L76.6441 164.9L76.642 164.896L76.64 164.892L76.638 164.888L76.636 164.884L76.634 164.88L76.632 164.876L76.63 164.872L76.628 164.868L76.626 164.864L76.624 164.86L76.622 164.856L76.6201 164.852L76.6181 164.848L76.6161 164.845L76.6142 164.841L76.6122 164.837L76.6103 164.833L76.6084 164.829L76.6064 164.825L76.6045 164.821L76.6026 164.817L76.6007 164.814L76.5988 164.81L76.5969 164.806L76.595 164.802L76.5931 164.798L76.5912 164.795L76.5893 164.791L76.5875 164.787L76.5856 164.783L76.5837 164.78L76.5819 164.776L76.5801 164.772L76.5782 164.769L76.5764 164.765L76.5746 164.761L76.5727 164.758L76.5709 164.754L76.5691 164.751L76.5673 164.747L76.5655 164.743L76.5637 164.74L76.562 164.736L76.5602 164.733L76.5599 164.732C76.56 164.732 76.5508 164.711 76.4958 164.588C76.4467 164.478 76.3464 164.253 76.214 164.009C75.9679 163.557 75.3863 162.603 74.2194 161.976C73.6022 161.645 73.0037 161.442 72.6042 161.315C72.3462 161.234 72.1961 161.189 72.0806 161.155L72.0805 161.155C71.9511 161.117 71.8652 161.091 71.7195 161.041C70.9008 160.756 70.2925 160.307 69.7499 159.492C69.7671 159.383 69.7918 159.247 69.8274 159.059L69.8418 158.983L69.8419 158.983C69.8913 158.723 69.9659 158.332 70.0146 157.944C70.2659 155.941 70.5409 153.179 69.5095 150.34C68.2586 146.897 66.191 144.136 62.861 142.161C62.6021 142.008 62.2866 141.829 62.0151 141.674L62.0147 141.674C61.8775 141.596 61.7515 141.525 61.6498 141.466C61.2833 141.255 60.9934 141.079 60.7476 140.908C60.2381 140.555 60.142 140.377 60.1372 140.367C59.719 139.551 59.617 138.884 59.8381 137.58C59.9722 136.79 60.183 135.989 60.4499 134.975L60.4499 134.975L60.4541 134.96C60.7068 134 61.013 132.835 61.2039 131.612C61.6386 128.826 60.4972 126.568 59.8792 125.346L59.8788 125.345C59.8456 125.279 59.814 125.216 59.7841 125.157C58.7611 123.113 57.2606 121.78 55.9348 120.821C55.2975 120.36 54.6438 119.947 54.0989 119.602L54.0698 119.583C53.6324 119.307 53.2583 119.07 52.9144 118.836L52.8957 118.796C52.8694 118.74 52.8373 118.671 52.8057 118.604C52.7286 118.441 52.6058 118.089 52.5259 117.661C52.5001 117.523 52.4826 117.396 52.472 117.287C52.5138 117.239 52.5646 117.18 52.6285 117.107L52.6375 117.097C52.7851 116.928 53.0286 116.65 53.2619 116.336C54.1271 115.173 54.2391 113.682 53.6833 112.448C50.8659 112.632 48.1959 112.914 45.8289 113.325C45.433 113.934 45.0204 114.765 44.8557 115.815C44.6733 116.977 44.7882 118.158 44.9606 119.081C45.1386 120.035 45.4397 121.038 45.8485 121.903C45.8599 121.927 45.875 121.962 45.894 122.005C46.0911 122.455 46.7108 123.871 48.0835 124.858C48.7193 125.315 49.3673 125.725 49.9071 126.066L49.9551 126.097C50.5383 126.466 51.001 126.76 51.4237 127.066C52.2407 127.657 52.6547 128.116 52.903 128.612C53.2627 129.331 53.4382 129.702 53.5406 130.029C53.6191 130.28 53.6086 130.373 53.5999 130.429C53.479 131.203 53.2756 132 53.0121 133.001L52.9737 133.147C52.7332 134.059 52.4436 135.157 52.2505 136.296C51.8243 138.808 51.9351 141.244 53.2881 143.886C54.1126 145.496 55.3608 146.548 56.3622 147.242C57.0367 147.71 57.8889 148.194 58.4686 148.522C58.6582 148.63 58.8187 148.721 58.9342 148.79C60.5616 149.755 61.5612 151.009 62.2766 152.978C62.6251 153.937 62.6193 155.068 62.3784 156.989C62.3616 157.123 62.3319 157.28 62.2661 157.628C62.2104 157.922 62.1263 158.366 62.0746 158.84C61.9738 159.763 61.9251 161.332 62.8125 162.9C64.2348 165.413 66.2927 167.309 69.1858 168.317C69.4216 168.399 69.6467 168.468 69.8227 168.522L69.8502 168.53L69.8522 168.534L69.8545 168.539L69.8567 168.543L69.8589 168.547L69.8611 168.552L69.8633 168.556L69.8656 168.561L69.8678 168.565L69.87 168.57L69.8723 168.574L69.8745 168.579L69.8768 168.583L69.879 168.588L69.8813 168.592L69.8835 168.597L69.8858 168.601L69.888 168.606L69.8903 168.61L69.8926 168.615L69.8948 168.619L69.8971 168.624L69.8994 168.628L69.9016 168.633L69.9039 168.637L69.9062 168.642L69.9085 168.646L69.9108 168.651L69.913 168.656L69.9153 168.66L69.9176 168.665L69.9199 168.669L69.9222 168.674L69.9245 168.678L69.9268 168.683L69.9291 168.688L69.9314 168.692L69.9337 168.697L69.936 168.701L69.9383 168.706L69.9407 168.711L69.943 168.715L69.9453 168.72L69.9476 168.725L69.9499 168.729L69.9522 168.734L69.9546 168.739L69.9569 168.743L69.9592 168.748L69.9615 168.752L69.9639 168.757L69.9662 168.762L69.9685 168.766L69.9709 168.771L69.9732 168.776L69.9755 168.78L69.9779 168.785L69.9802 168.79L69.9825 168.794L69.9849 168.799L69.9872 168.804L69.9896 168.808L69.9919 168.813L69.9943 168.818L69.9966 168.822L69.9989 168.827L70.0013 168.832L70.0036 168.837L70.006 168.841L70.0083 168.846L70.0107 168.851L70.013 168.855L70.0154 168.86L70.0177 168.865L70.0201 168.869L70.0224 168.874L70.0248 168.879L70.0271 168.883L70.0295 168.888L70.0319 168.893L70.0342 168.898L70.0366 168.902L70.0389 168.907L70.0413 168.912L70.0436 168.916L70.046 168.921L70.0483 168.926L70.0507 168.931L70.053 168.935L70.0554 168.94L70.0577 168.945L70.0601 168.949L70.0625 168.954L70.0648 168.959L70.0672 168.963L70.0695 168.968L70.0719 168.973L70.0742 168.978L70.0766 168.982L70.0789 168.987L70.0813 168.992L70.0836 168.996L70.086 169.001L70.0883 169.006L70.0907 169.01L70.093 169.015L70.0954 169.02L70.0977 169.024L70.1 169.029L70.1024 169.034L70.1047 169.038L70.1071 169.043L70.1094 169.048L70.1118 169.052L70.1141 169.057L70.1164 169.062L70.1188 169.066L70.1211 169.071L70.1234 169.076L70.1258 169.08L70.1281 169.085L70.1304 169.09L70.1328 169.094L70.1351 169.099L70.1374 169.104L70.1397 169.108L70.142 169.113L70.1444 169.118L70.1467 169.122L70.149 169.127L70.1513 169.132L70.1536 169.136L70.1559 169.141L70.1582 169.145L70.1606 169.15L70.1629 169.155L70.1652 169.159L70.1675 169.164L70.1698 169.168L70.1721 169.173L70.1744 169.178L70.1766 169.182L70.1789 169.187L70.1812 169.191L70.1835 169.196L70.1858 169.2L70.1881 169.205L70.1904 169.209L70.1926 169.214L70.1949 169.219L70.1972 169.223L70.1994 169.228L70.2017 169.232L70.204 169.237L70.2062 169.241L70.2085 169.246L70.2107 169.25L70.213 169.255L70.2152 169.259L70.2175 169.264L70.2197 169.268L70.222 169.273L70.2242 169.277L70.2264 169.282L70.2287 169.286L70.2309 169.29L70.2331 169.295L70.2353 169.299L70.2375 169.304L70.2398 169.308L70.242 169.313L70.2442 169.317L70.2464 169.321L70.2486 169.326L70.2508 169.33L70.253 169.335L70.2552 169.339L70.2573 169.343L70.2595 169.348L70.2617 169.352L70.2639 169.356L70.266 169.361L70.2682 169.365L70.2704 169.369L70.2725 169.374L70.2747 169.378L70.2768 169.382L70.279 169.387L70.2811 169.391L70.2833 169.395L70.2854 169.399L70.2875 169.404L70.2897 169.408L70.2918 169.412L70.2939 169.416L70.296 169.421L70.2981 169.425L70.3002 169.429L70.3023 169.433L70.3044 169.437L70.3065 169.441L70.3086 169.446L70.3107 169.45L70.3127 169.454L70.3148 169.458L70.3169 169.462L70.3189 169.466L70.321 169.47L70.323 169.475L70.3251 169.479L70.3271 169.483L70.3292 169.487L70.3312 169.491L70.3332 169.495L70.3352 169.499L70.3373 169.503L70.3393 169.507L70.3413 169.511L70.3433 169.515L70.3453 169.519L70.3473 169.523L70.3492 169.527L70.3512 169.531L70.3532 169.535L70.3552 169.539L70.3571 169.543L70.3591 169.546L70.361 169.55L70.363 169.554L70.3649 169.558L70.3668 169.562L70.3688 169.566L70.3707 169.57L70.3726 169.574L70.3745 169.577L70.3764 169.581L70.3783 169.585L70.3802 169.589L70.3821 169.592L70.384 169.596L70.3858 169.6L70.3877 169.604L70.3895 169.607L70.3914 169.611L70.3932 169.615L70.3951 169.618L70.3969 169.622L70.3987 169.626L70.4006 169.629L70.4024 169.633L70.4042 169.637L70.406 169.64L70.4078 169.644L70.4096 169.647L70.4113 169.651L70.4131 169.654L70.4149 169.658L70.4166 169.662L70.4184 169.665L70.4201 169.668L70.4219 169.672L70.4236 169.675L70.4253 169.679L70.4271 169.682L70.4288 169.686L70.4305 169.689L70.4322 169.693L70.4339 169.696L70.4355 169.699L70.4372 169.703L70.4389 169.706L70.4405 169.709L70.4422 169.713L70.4438 169.716L70.4455 169.719L70.4471 169.722L70.4487 169.726L70.4503 169.729L70.4519 169.732L70.4535 169.735L70.4551 169.738L70.4567 169.741L70.4583 169.745L70.4598 169.748L70.4614 169.751L70.4629 169.754L70.4645 169.757L70.466 169.76L70.4675 169.763L70.4691 169.766L70.4706 169.769L70.4721 169.772L70.4736 169.775L70.475 169.778L70.4765 169.781L70.478 169.784L70.4794 169.787L70.4809 169.79L70.4823 169.793L70.4838 169.796L70.4852 169.798L70.4866 169.801L70.488 169.804L70.4894 169.807L70.4908 169.81L70.4922 169.812L70.4935 169.815L70.4949 169.818L70.4962 169.821L70.4976 169.823L70.4989 169.826L70.5002 169.829L70.5016 169.831L70.5029 169.834L70.5042 169.836L70.5055 169.839L70.5067 169.841L70.508 169.844L70.5093 169.847L70.5105 169.849L70.5118 169.851L70.513 169.854L70.5142 169.856L70.5154 169.859L70.5166 169.861L70.5178 169.864L70.519 169.866L70.5202 169.868L70.5213 169.871L70.5225 169.873L70.5236 169.875L70.5248 169.878L70.5259 169.88L70.527 169.882L70.5281 169.884L70.5292 169.886L70.5303 169.889L70.5314 169.891L70.5324 169.893L70.5335 169.895L70.5345 169.897L70.5356 169.899L70.5366 169.901L70.5376 169.903L70.5386 169.905L70.5396 169.907L70.5406 169.909L70.5415 169.911L70.5425 169.913L70.5435 169.915L70.5444 169.917L70.5453 169.919L70.5462 169.92L70.5471 169.922L70.548 169.924L70.5489 169.926L70.5498 169.927L70.5507 169.929L70.5515 169.931L70.5524 169.933L70.5532 169.934L70.554 169.936L70.5548 169.937L70.5556 169.939L70.5564 169.941L70.5572 169.942L70.5579 169.944L70.5587 169.945L70.5594 169.947L70.5601 169.948L70.5609 169.95L70.5616 169.951L70.5622 169.952L70.5629 169.954L70.5636 169.955L70.5643 169.956L70.5649 169.958L70.5655 169.959L70.5662 169.96L70.5668 169.961L70.5674 169.963L70.568 169.964L70.5685 169.965L70.5691 169.966L70.5696 169.967L70.5702 169.968L70.5707 169.969L70.5712 169.97L70.5717 169.971L70.5722 169.972L70.5727 169.973L70.5732 169.974L70.5736 169.975L70.574 169.976L70.5745 169.977L70.5749 169.978L70.5753 169.978L70.5757 169.979L70.5761 169.98L70.5764 169.981L70.5768 169.981L70.5771 169.982L70.5774 169.983L70.5778 169.983L70.5781 169.984L70.5783 169.984L70.5786 169.985L70.5789 169.986L70.5791 169.986L70.5794 169.987L70.5796 169.987L70.5798 169.987L70.58 169.988L70.5802 169.988L70.5803 169.988L70.5805 169.989L70.5806 169.989L70.5808 169.989L70.5809 169.99L70.581 169.99L70.5811 169.99L70.5812 169.99L70.5812 169.99L70.5813 169.99L70.5813 169.99L70.5813 169.99L74.0219 168.263L70.5813 169.99C70.8963 170.62 71.3601 171.125 71.9086 171.484C73.0945 171.026 74.2655 170.49 75.4162 169.875C76.067 169.528 76.9015 169.031 77.8672 168.426ZM52.2777 117.525C52.2777 117.525 52.2788 117.523 52.2813 117.52L52.2777 117.525ZM69.7179 159.778C69.7177 159.778 69.7176 159.772 69.7181 159.759C69.7184 159.771 69.7182 159.778 69.7179 159.778Z" fill="white"/>
</svg>
