<svg width="169" height="169" viewBox="0 0 169 169" fill="none" xmlns="http://www.w3.org/2000/svg">
<g clip-path="url(#clip0_18_12767)">
<path d="M94.6774 157.562L86.1982 98.7743" stroke="#39B64B" stroke-miterlimit="10"/>
<path d="M70.239 157.025L81.3068 98.6654" stroke="#39B64B" stroke-miterlimit="10"/>
<path d="M47.3136 148.579L76.7256 96.9777" stroke="#39B64B" stroke-miterlimit="10"/>
<path d="M28.3625 133.139L72.9369 93.8853" stroke="#39B64B" stroke-miterlimit="10"/>
<path d="M15.4468 112.385L70.3504 89.7414" stroke="#39B64B" stroke-miterlimit="10"/>
<path d="M9.9707 88.5702L69.2621 84.9795" stroke="#39B64B" stroke-miterlimit="10"/>
<path d="M12.5273 64.2734L69.7661 80.1149" stroke="#39B64B" stroke-miterlimit="10"/>
<path d="M22.8389 42.1058L71.8247 75.682" stroke="#39B64B" stroke-miterlimit="10"/>
<path d="M39.7842 24.5029L75.2201 72.1667" stroke="#39B64B" stroke-miterlimit="10"/>
<path d="M61.5322 13.3479L79.5631 69.9324" stroke="#39B64B" stroke-miterlimit="10"/>
<path d="M85.7188 9.85937L84.4026 69.2344" stroke="#39B64B" stroke-miterlimit="10"/>
<path d="M109.732 14.4142L89.2097 70.149" stroke="#39B64B" stroke-miterlimit="10"/>
<path d="M130.963 26.5106L93.4514 72.5626" stroke="#39B64B" stroke-miterlimit="10"/>
<path d="M147.117 44.861L96.688 76.2319" stroke="#39B64B" stroke-miterlimit="10"/>
<path d="M156.436 67.4449L98.5467 80.7557" stroke="#39B64B" stroke-miterlimit="10"/>
<path d="M157.914 91.8472L98.8477 85.6311" stroke="#39B64B" stroke-miterlimit="10"/>
<path d="M151.388 115.394L97.5391 90.3473" stroke="#39B64B" stroke-miterlimit="10"/>
<path d="M137.572 135.56L94.7773 94.374" stroke="#39B64B" stroke-miterlimit="10"/>
<path d="M117.959 150.142L90.8506 97.2888" stroke="#39B64B" stroke-miterlimit="10"/>
<circle cx="84.0794" cy="84.0801" r="20.2478" transform="rotate(-8.20739 84.0794 84.0801)" fill="#39B64B"/>
</g>
<defs>
<clipPath id="clip0_18_12767">
<rect width="148.484" height="148.484" fill="white" transform="translate(-0.000976562 21.197) rotate(-8.20739)"/>
</clipPath>
</defs>
</svg>
