<svg width="135" height="151" viewBox="0 0 135 151" fill="none" xmlns="http://www.w3.org/2000/svg">
<path d="M109.719 7.20605C96.9922 23.6332 84.2657 40.0603 71.5392 56.4874C63.8618 66.3973 56.5423 76.4654 49.3566 86.7314C48.134 88.4781 37.4687 107.359 35.494 106.968" stroke="black" stroke-width="9.76372" stroke-linecap="round"/>
<path d="M35.6308 106.762C34.6215 108.065 33.6971 109.604 32.3512 110.581C31.0088 111.556 29.1867 112.047 27.6473 112.59C24.5639 113.677 21.4968 115.196 18.5938 116.689C15.4792 118.291 12.4085 120.097 9.43111 121.924C8.27002 122.637 6.36112 124.928 5.00031 124.658" stroke="black" stroke-width="9.76372" stroke-linecap="round"/>
<path d="M35.6309 106.763C30.2102 113.76 27.9683 122.31 26.2968 130.751" stroke="black" stroke-width="9.76372" stroke-linecap="round"/>
<path d="M38.7188 107.998C39.9714 114.928 41.4743 122.008 42.3619 129C42.6963 131.635 43.13 134.439 43.7245 137.026C44.0655 138.509 44.8911 139.961 44.5947 141.458" stroke="black" stroke-width="9.76372" stroke-linecap="round"/>
</svg>
