<svg width="221" height="244" viewBox="0 0 221 244" fill="none" xmlns="http://www.w3.org/2000/svg">
<path d="M8.59863 57.8669C22.3394 73.4556 36.0801 89.0442 49.8209 104.633C58.1102 114.037 66.6221 123.119 75.3537 132.107C76.8394 133.637 93.3781 147.662 92.6227 149.528" stroke="black" stroke-width="9.76372" stroke-linecap="round"/>
<path d="M92.4456 149.355C93.5354 150.591 94.8731 151.789 95.5795 153.294C96.284 154.796 96.4242 156.678 96.6678 158.292C97.1558 161.525 98.0708 164.823 98.9913 167.955C99.9788 171.315 101.175 174.671 102.41 177.939C102.891 179.213 104.783 181.519 104.262 182.804" stroke="black" stroke-width="9.76372" stroke-linecap="round"/>
<path d="M92.4463 149.354C98.2989 155.994 106.275 159.804 114.251 163.033" stroke="black" stroke-width="9.76372" stroke-linecap="round"/>
<path d="M94.2412 146.555C101.282 146.627 108.519 146.483 115.553 146.926C118.204 147.093 121.04 147.194 123.692 147.097C125.213 147.041 126.794 146.503 128.209 147.076" stroke="black" stroke-width="9.76372" stroke-linecap="round"/>
<g clip-path="url(#clip0_40_249)">
<path d="M73.934 89.8634C73.9868 95.525 74.5611 99.1387 77.6624 103.876C80.6985 108.512 83.3441 111.387 88.708 112.785C93.8037 114.112 97.2601 113.008 102.051 110.816C106.639 108.716 109.184 106.724 111.937 102.494C113.941 99.4121 115.289 93.6965 115.289 93.6965C115.289 93.6965 115.516 93.0983 115.886 92.1714L76.9023 77.3203C75.2704 81.7188 73.8868 84.7513 73.934 89.8634Z" fill="#B40406"/>
<path d="M179.254 107.205L140.302 93.8835C139.958 94.743 139.704 95.2776 139.704 95.2776L128.227 118.387L169.493 132.503C173.448 123.284 176.424 117.04 179.253 107.208L179.254 107.205Z" fill="#E8E2E4"/>
<path d="M88.5199 198.343C88.5199 198.343 86.1801 204.52 86.6487 208.544C87.2105 213.372 89.0403 216.043 92.3391 219.61C95.9636 223.53 98.9075 225.551 104.167 226.467C110.043 227.49 114.063 226.335 119.059 223.073C121.883 221.231 125.224 217.027 125.224 217.027C125.224 217.027 130.639 208.049 137.903 195.188L97.0288 181.208L88.5199 198.343Z" fill="#B40406"/>
<path d="M141.884 33.1416C132.983 31.7286 127.486 31.2967 118.815 33.756C110.995 35.9752 107.095 38.9222 100.564 43.7613C97.4534 46.0652 95.0232 47.94 92.7999 50.0212L123.636 78.2731C124.835 77.128 126.291 76.1784 128.163 75.7698C130.353 75.2913 132.141 75.1731 133.943 75.6446L145.431 33.7474C144.301 33.5388 143.124 33.342 141.883 33.1446L141.884 33.1416Z" fill="#B40406"/>
<path d="M86.2225 57.6065C81.6785 63.8843 80.1159 68.1448 77.5718 75.4665C77.382 76.0087 77.1964 76.5223 77.0113 77.026L116.001 91.8793C117.077 89.1865 119.134 84.2378 120.49 82.2461L120.553 82.1524C121.355 80.9735 122.26 79.6461 123.411 78.493L92.5686 50.2388C90.4094 52.284 88.4396 54.5457 86.2214 57.6094L86.2225 57.6065Z" fill="#E8E2E4"/>
<path d="M141.755 83.3154C142.829 86.4814 141.37 91.1237 140.414 93.5872L179.339 106.901C179.553 106.146 179.767 105.372 179.981 104.573C182.537 95.0065 184.777 89.5431 184.61 79.6406C184.485 72.2388 184.344 67.5916 181.6 61.0356L146.136 80.8605L141.752 83.3143L141.755 83.3154Z" fill="#B40406"/>
<path d="M136.808 76.8769C139.442 78.4413 140.642 80.1914 141.652 83.0141L141.679 82.9974L145.933 80.6186L181.471 60.7144C181.375 60.4898 181.275 60.2601 181.174 60.0304C177.479 51.7389 173.424 47.689 166.079 42.3589C159.005 37.226 153.543 35.266 145.745 33.8033L134.248 75.7239C135.081 75.9707 135.921 76.3478 136.812 76.8751L136.808 76.8769Z" fill="#E8E2E4"/>
<path d="M111.879 151.304L107.261 160.606L127.643 167.645L148.385 174.741C148.374 174.761 148.364 174.78 148.353 174.8L148.994 175.02C150.608 172.002 152.223 168.923 153.822 165.829L112.038 151.398C112.038 151.398 112.047 151.375 112.052 151.363L111.879 151.304Z" fill="#E8E2E4"/>
<path d="M156.03 161.522L113.952 147.131L112.02 151.022L153.968 165.549C154.66 164.21 155.349 162.868 156.029 161.525L156.03 161.522Z" fill="#B40406"/>
<path d="M107.354 161.041L107.383 160.982L107.118 160.891L97.1691 180.926L138.058 194.911C141.385 189.016 145.093 182.316 148.843 175.302L127.526 167.94L107.351 161.04L107.354 161.041Z" fill="#E8E2E4"/>
<path d="M159.592 154.376L117.829 140.092L117.97 139.81L159.733 154.094C162.799 147.817 165.641 141.66 168.034 135.953C168.492 134.855 168.939 133.806 169.373 132.789L128.089 118.671L114.093 146.849L156.174 161.241C157.337 158.947 158.478 156.655 159.592 154.376Z" fill="#B40406"/>
<path d="M76.902 77.3202L115.883 92.1702C115.919 92.0763 115.956 91.9796 116.001 91.8792L77.0107 77.0259C76.9739 77.1226 76.9359 77.2224 76.902 77.3202Z" fill="#E8E2E4"/>
<path d="M179.338 106.904L140.413 93.5904C140.374 93.693 140.337 93.7898 140.298 93.8825L179.251 107.204C179.279 107.104 179.31 107.005 179.339 106.901L179.338 106.904Z" fill="#E8E2E4"/>
<path d="M169.493 132.5L128.228 118.385L128.087 118.667L169.371 132.786C169.412 132.687 169.455 132.592 169.494 132.497L169.493 132.5Z" fill="#E8E2E4"/>
<path d="M156.174 161.241L114.094 146.849L113.953 147.131L156.03 161.522C156.079 161.429 156.125 161.333 156.174 161.241Z" fill="#B40406"/>
<path d="M97.0286 181.208L137.903 195.187C137.954 195.096 138.007 195.002 138.06 194.908L97.1707 180.923L97.0297 181.205L97.0286 181.208Z" fill="#E8E2E4"/>
<path d="M107.018 161.383L127.378 168.434L148.366 175.476C148.492 175.235 148.621 174.992 148.748 174.748L127.815 167.499L107.389 160.648L107.018 161.383Z" fill="#E8E2E4"/>
<path d="M148.228 175.021L127.529 167.941L148.846 175.303C148.895 175.208 148.947 175.116 148.995 175.024L148.354 174.803C148.312 174.878 148.272 174.95 148.231 175.022L148.228 175.021Z" fill="#E8E2E4"/>
<path d="M107.496 160.756L127.641 167.648L107.261 160.606L107.119 160.891L107.383 160.982L107.496 160.756Z" fill="#E8E2E4"/>
<path d="M181.603 61.0369L181.696 60.9852C181.696 60.9852 181.683 60.9668 181.678 60.9546L181.588 61.0045C181.588 61.0045 181.597 61.0247 181.603 61.0369Z" fill="#E8E2E4"/>
<path d="M146.139 80.8616L181.603 61.0367C181.603 61.0367 181.594 61.0164 181.588 61.0043L146.136 80.8605L146.139 80.8616Z" fill="#E8E2E4"/>
<path d="M141.675 82.9963L141.677 83.0004L145.93 80.6176L141.675 82.9963Z" fill="#E8E2E4"/>
<path d="M117.829 140.092L159.591 154.376C159.638 154.28 159.684 154.186 159.729 154.093L117.967 139.809L117.826 140.091L117.829 140.092Z" fill="#B40406"/>
<path d="M92.5692 50.236L123.412 78.4901C123.486 78.4178 123.559 78.3414 123.636 78.2702L92.7999 50.0183C92.7224 50.0895 92.6479 50.1618 92.5704 50.233L92.5692 50.236Z" fill="#E8E2E4"/>
<path d="M145.738 33.8038C145.634 33.7846 145.531 33.7653 145.427 33.746L133.939 75.6432C134.04 75.6683 134.141 75.6964 134.244 75.7256L145.741 33.8049L145.738 33.8038Z" fill="#E8E2E4"/>
<path d="M141.755 83.3155L146.139 80.8617L141.816 83.2784C141.774 83.1882 141.725 83.0957 141.677 83.0003L141.651 83.0171C141.683 83.1098 141.718 83.2007 141.749 83.2964C141.753 83.3045 141.753 83.3115 141.754 83.3184L141.755 83.3155Z" fill="#E8E2E4"/>
<path d="M181.483 60.7458C181.483 60.7458 181.474 60.7255 181.468 60.7134L145.93 80.6176L181.483 60.7458Z" fill="#E8E2E4"/>
<path d="M181.677 60.9546C181.627 60.875 181.579 60.7994 181.525 60.7187L181.479 60.7445C181.516 60.8325 181.551 60.9164 181.588 61.0044L181.677 60.9546Z" fill="#E8E2E4"/>
<path d="M141.677 83.0001C141.724 83.0955 141.773 83.188 141.816 83.2782L146.138 80.8615L181.591 61.0054C181.554 60.9174 181.519 60.8335 181.482 60.7455L145.929 80.6173L141.677 83.0001Z" fill="#E8E2E4"/>
<path d="M112.05 151.366L153.821 165.831C153.87 165.736 153.919 165.644 153.968 165.551L112.152 151.109C112.117 151.2 112.085 151.285 112.053 151.367L112.05 151.366Z" fill="#E8E2E4"/>
<path d="M112.153 151.106L153.969 165.549L112.02 151.022L111.879 151.304L112.051 151.363C112.084 151.278 112.116 151.193 112.15 151.105L112.153 151.106Z" fill="#E8E2E4"/>
</g>
<defs>
<clipPath id="clip0_40_249">
<rect width="142.821" height="205.419" fill="white" transform="translate(87.5352 0.768555) rotate(20.8545)"/>
</clipPath>
</defs>
</svg>
