<svg width="558" height="486" viewBox="0 0 558 486" fill="none" xmlns="http://www.w3.org/2000/svg">
<g clip-path="url(#clip0_138_162041)">
<path d="M277.871 463.199V286.334" stroke="#FEF401" stroke-miterlimit="10"/>
<path d="M246.672 461.515L271.646 285.991" stroke="#FEF401" stroke-miterlimit="10"/>
<path d="M215.973 456.527L265.491 284.994" stroke="#FEF401" stroke-miterlimit="10"/>
<path d="M186.205 448.265L259.552 283.342" stroke="#FEF401" stroke-miterlimit="10"/>
<path d="M157.832 436.886L253.863 281.066" stroke="#FEF401" stroke-miterlimit="10"/>
<path d="M131.285 422.576L248.569 278.198" stroke="#FEF401" stroke-miterlimit="10"/>
<path d="M106.955 405.491L243.702 274.799" stroke="#FEF401" stroke-miterlimit="10"/>
<path d="M85.2012 385.943L239.337 270.902" stroke="#FEF401" stroke-miterlimit="10"/>
<path d="M66.3809 364.244L235.58 266.537" stroke="#FEF401" stroke-miterlimit="10"/>
<path d="M50.7461 340.675L232.432 261.83" stroke="#FEF401" stroke-miterlimit="10"/>
<path d="M38.5801 315.578L229.998 256.81" stroke="#FEF401" stroke-miterlimit="10"/>
<path d="M30.0293 289.421L228.316 251.573" stroke="#FEF401" stroke-miterlimit="10"/>
<path d="M25.2363 262.516L227.352 246.21" stroke="#FEF401" stroke-miterlimit="10"/>
<path d="M24.2695 235.33L227.136 240.755" stroke="#FEF401" stroke-miterlimit="10"/>
<path d="M27.168 208.206L227.745 235.33" stroke="#FEF401" stroke-miterlimit="10"/>
<path d="M33.8574 181.613L229.068 230.03" stroke="#FEF401" stroke-miterlimit="10"/>
<path d="M44.2344 155.954L231.144 224.886" stroke="#FEF401" stroke-miterlimit="10"/>
<path d="M58.1523 131.574L233.935 220.022" stroke="#FEF401" stroke-miterlimit="10"/>
<path d="M75.3984 108.909L237.37 215.47" stroke="#FEF401" stroke-miterlimit="10"/>
<path d="M95.7207 88.239L241.449 211.355" stroke="#FEF401" stroke-miterlimit="10"/>
<path d="M118.797 69.9072L246.063 207.676" stroke="#FEF401" stroke-miterlimit="10"/>
<path d="M144.309 54.1631L251.145 204.527" stroke="#FEF401" stroke-miterlimit="10"/>
<path d="M171.822 41.2874L256.654 201.971" stroke="#FEF401" stroke-miterlimit="10"/>
<path d="M200.945 31.4666L262.485 199.975" stroke="#FEF401" stroke-miterlimit="10"/>
<path d="M231.25 24.8262L268.532 198.666" stroke="#FEF401" stroke-miterlimit="10"/>
<path d="M262.236 21.459L274.759 197.98" stroke="#FEF401" stroke-miterlimit="10"/>
<path d="M293.471 21.459L280.984 197.98" stroke="#FEF401" stroke-miterlimit="10"/>
<path d="M324.491 24.8262L287.174 198.666" stroke="#FEF401" stroke-miterlimit="10"/>
<path d="M354.796 31.4666L293.256 199.975" stroke="#FEF401" stroke-miterlimit="10"/>
<path d="M383.92 41.2874L299.088 201.971" stroke="#FEF401" stroke-miterlimit="10"/>
<path d="M411.434 54.1631L304.562 204.527" stroke="#FEF401" stroke-miterlimit="10"/>
<path d="M436.908 69.9072L309.678 207.676" stroke="#FEF401" stroke-miterlimit="10"/>
<path d="M460.023 88.239L314.295 211.355" stroke="#FEF401" stroke-miterlimit="10"/>
<path d="M480.345 108.909L318.373 215.47" stroke="#FEF401" stroke-miterlimit="10"/>
<path d="M497.589 131.574L321.807 220.022" stroke="#FEF401" stroke-miterlimit="10"/>
<path d="M511.507 155.954L324.598 224.886" stroke="#FEF401" stroke-miterlimit="10"/>
<path d="M521.884 181.613L326.674 230.03" stroke="#FEF401" stroke-miterlimit="10"/>
<path d="M528.575 208.206L327.998 235.33" stroke="#FEF401" stroke-miterlimit="10"/>
<path d="M531.437 235.33L328.57 240.755" stroke="#FEF401" stroke-miterlimit="10"/>
<path d="M530.506 262.516L328.391 246.21" stroke="#FEF401" stroke-miterlimit="10"/>
<path d="M525.713 289.421L327.426 251.573" stroke="#FEF401" stroke-miterlimit="10"/>
<path d="M517.162 315.609L325.744 256.81" stroke="#FEF401" stroke-miterlimit="10"/>
<path d="M504.961 340.675L323.275 261.83" stroke="#FEF401" stroke-miterlimit="10"/>
<path d="M489.361 364.244L320.162 266.537" stroke="#FEF401" stroke-miterlimit="10"/>
<path d="M470.54 385.943L316.404 270.902" stroke="#FEF401" stroke-miterlimit="10"/>
<path d="M448.786 405.491L312.039 274.799" stroke="#FEF401" stroke-miterlimit="10"/>
<path d="M424.457 422.545L307.174 278.198" stroke="#FEF401" stroke-miterlimit="10"/>
<path d="M397.874 436.886L301.879 281.066" stroke="#FEF401" stroke-miterlimit="10"/>
<path d="M369.501 448.265L296.189 283.342" stroke="#FEF401" stroke-miterlimit="10"/>
<path d="M339.732 456.527L290.25 284.994" stroke="#FEF401" stroke-miterlimit="10"/>
<path d="M309.034 461.515L284.096 285.991" stroke="#FEF401" stroke-miterlimit="10"/>
</g>
<ellipse cx="199.503" cy="224.473" rx="199.503" ry="224.473" transform="matrix(-0.302566 -0.953128 0.97216 -0.234317 120.725 485.499)" fill="#FEF401" fill-opacity="0.4"/>
<defs>
<clipPath id="clip0_138_162041">
<rect width="507.418" height="442.145" fill="white" transform="translate(24.1621 21.0537)"/>
</clipPath>
</defs>
</svg>
