<svg width="396" height="257" viewBox="0 0 396 257" fill="none" xmlns="http://www.w3.org/2000/svg">
<path d="M193.12 0C193.12 0 208.418 14.0567 215.393 25.1786C221.284 34.572 226.309 40.0181 227.014 51.0834C227.746 62.5719 219.509 79.4093 219.509 79.4093L209.582 105.072H186.583L174.478 79.1672C174.478 79.1672 164.496 62.6808 164.794 51.0834C165.071 40.2867 169.407 34.7142 174.478 25.1786C180.222 14.3766 193.12 0 193.12 0Z" fill="#FF0000"/>
<path d="M98.7293 44.8603C98.7293 44.8603 119.43 43.0914 132.34 45.4716C143.244 47.4818 150.654 47.4613 159.284 54.4229C168.244 61.6507 175.081 79.1035 175.081 79.1035L187.279 103.768L171.73 120.714L144.458 112.12C144.458 112.12 125.562 108.328 117.218 100.268C109.45 92.7643 108.276 85.8023 104.678 75.6189C100.603 64.083 98.7293 44.8603 98.7293 44.8603Z" fill="#FF0000"/>
<path d="M75.9678 131.748C75.9678 131.748 90.1688 116.583 101.356 109.714C110.805 103.912 116.299 98.9394 127.37 98.3392C138.865 97.716 155.624 106.112 155.624 106.112L181.191 116.281L180.973 139.28L154.955 151.139C154.955 151.139 138.374 160.964 126.78 160.557C115.987 160.177 110.456 155.789 100.969 150.627C90.2214 144.781 75.9678 131.748 75.9678 131.748Z" fill="#FF0000"/>
<path d="M320.056 130.779C320.056 130.779 305.855 115.615 294.667 108.746C285.218 102.944 279.725 97.9711 268.653 97.3709C257.158 96.7478 240.4 105.144 240.4 105.144L214.832 115.313L215.05 138.312L241.069 150.171C241.069 150.171 257.649 159.996 269.243 159.588C280.037 159.209 285.568 154.82 295.055 149.659C305.802 143.812 320.056 130.779 320.056 130.779Z" fill="#FF0000"/>
<path d="M193.12 256.856C193.12 256.856 208.418 242.799 215.393 231.677C221.284 222.284 226.309 216.838 227.014 205.773C227.746 194.284 219.509 177.447 219.509 177.447L209.582 151.784H186.583L174.478 177.689C174.478 177.689 164.496 194.175 164.794 205.773C165.071 216.569 169.407 222.142 174.478 231.677C180.222 242.479 193.12 256.856 193.12 256.856Z" fill="#FF0000"/>
<path d="M98.7293 213.932C98.7293 213.932 119.43 215.701 132.34 213.321C143.244 211.311 150.654 211.331 159.284 204.37C168.244 197.142 175.081 179.689 175.081 179.689L187.279 155.025L171.73 138.078L144.458 146.673C144.458 146.673 125.562 150.464 117.218 158.525C109.45 166.028 108.276 172.99 104.678 183.174C100.603 194.71 98.7293 213.932 98.7293 213.932Z" fill="#FF0000"/>
<path d="M292.275 46.3129C292.275 46.3129 271.574 44.5441 258.664 46.9242C247.76 48.9344 240.35 48.914 231.72 55.8755C222.76 63.1033 215.923 80.5561 215.923 80.5561L203.725 105.22L219.274 122.167L246.546 113.572C246.546 113.572 265.442 109.781 273.786 101.721C281.553 94.217 282.728 87.255 286.326 77.0715C290.401 65.5356 292.275 46.3129 292.275 46.3129Z" fill="#FF0000"/>
<path d="M292.275 213.932C292.275 213.932 271.574 215.701 258.664 213.321C247.76 211.311 240.35 211.331 231.72 204.37C222.76 197.142 215.923 179.689 215.923 179.689L203.725 155.025L219.274 138.078L246.546 146.673C246.546 146.673 265.442 150.464 273.786 158.525C281.553 166.028 282.728 172.99 286.326 183.174C290.401 194.71 292.275 213.932 292.275 213.932Z" fill="#FF0000"/>
<path d="M194.442 47.9358C194.442 47.9358 207.051 59.5309 212.799 68.7052C217.655 76.4537 221.796 80.9461 222.377 90.0737C222.981 99.5504 216.192 113.439 216.192 113.439L208.01 134.608H189.054L179.077 113.24C179.077 113.24 170.85 99.6402 171.095 90.0737C171.324 81.1677 174.897 76.571 179.077 68.7052C183.812 59.7948 194.442 47.9358 194.442 47.9358Z" fill="#FA3838"/>
<path d="M127.835 79.3079C127.835 79.3079 144.93 77.8471 155.592 79.8127C164.597 81.4728 170.717 81.4559 177.844 87.2051C185.244 93.1742 190.89 107.588 190.89 107.588L200.964 127.956L188.122 141.952L165.6 134.854C165.6 134.854 149.995 131.723 143.104 125.066C136.689 118.869 135.719 113.12 132.748 104.71C129.382 95.1829 127.835 79.3079 127.835 79.3079Z" fill="#FA3838"/>
<path d="M263.732 79.3079C263.732 79.3079 246.636 77.8471 235.974 79.8127C226.969 81.4728 220.849 81.4559 213.722 87.2051C206.323 93.1742 200.676 107.588 200.676 107.588L190.603 127.956L203.444 141.952L225.966 134.854C225.966 134.854 241.572 131.723 248.463 125.066C254.878 118.869 255.848 113.12 258.819 104.71C262.184 95.1829 263.732 79.3079 263.732 79.3079Z" fill="#FA3838"/>
<path d="M194.442 208.691C194.442 208.691 207.051 197.096 212.799 187.922C217.655 180.173 221.796 175.681 222.377 166.553C222.981 157.077 216.192 143.188 216.192 143.188L208.01 122.019H189.054L179.077 143.387C179.077 143.387 170.85 156.987 171.095 166.553C171.324 175.459 174.897 180.056 179.077 187.922C183.812 196.832 194.442 208.691 194.442 208.691Z" fill="#FA3838"/>
<path d="M127.835 177.438C127.835 177.438 144.93 178.899 155.592 176.933C164.597 175.273 170.717 175.29 177.844 169.54C185.244 163.571 190.89 149.158 190.89 149.158L200.964 128.789L188.122 114.794L165.6 121.892C165.6 121.892 149.995 125.023 143.104 131.679C136.689 137.876 135.719 143.626 132.748 152.036C129.382 161.563 127.835 177.438 127.835 177.438Z" fill="#FA3838"/>
<path d="M263.732 177.438C263.732 177.438 246.636 178.899 235.974 176.933C226.969 175.273 220.849 175.29 213.722 169.54C206.323 163.571 200.676 149.158 200.676 149.158L190.603 128.789L203.444 114.794L225.966 121.892C225.966 121.892 241.572 125.023 248.463 131.679C254.878 137.876 255.848 143.626 258.819 152.036C262.184 161.563 263.732 177.438 263.732 177.438Z" fill="#FA3838"/>
<path d="M180.363 103.809C181.389 103.84 182.265 104.127 183.206 104.441" stroke="#7E1100" stroke-width="3" stroke-linecap="round"/>
<path d="M186.34 108.476C186.828 109.693 188.073 109.569 188.306 108.406C188.626 106.804 189.209 104.419 187.235 103.896C184.516 103.176 181.617 103.423 178.831 103.423C176.911 103.423 177.181 104.055 177.181 105.774C177.181 106.599 176.673 109.69 177.322 110.371C178.978 112.11 181.736 112.427 183.919 113.038C185.596 113.507 186.533 110.111 184.586 109.757C183.261 109.516 180.105 109.748 181.919 111.775C182.784 112.742 184.025 113.364 185.358 113.512C186.574 113.647 186.34 112.429 186.34 111.564C186.34 109.645 185.284 108.476 183.182 108.476C182.454 108.476 181.235 108.11 181.287 109.108C181.345 110.21 182.413 110.964 183.147 111.617C185.368 113.591 187.837 111.976 188.165 109.353C188.609 105.805 188.018 103.807 184.445 103.738C182.616 103.703 178.445 102.762 178.445 105.16C178.445 106.243 178.952 106.783 179.392 107.774C180.203 109.598 180.678 110.137 182.55 110.546C183.515 110.757 185.181 111.413 186.183 110.967C187.369 110.44 186.972 107.558 186.972 106.581C186.972 104.859 181.535 105.185 180.34 105.318C179.27 105.436 180.288 108.821 180.831 109.265C182.47 110.606 187.025 108.283 185.2 106.458C184.315 105.573 179.496 105.346 179.392 107.213C179.325 108.424 180.34 109.226 180.34 110.213C180.34 112.062 183.225 112.927 184.445 113.775C186.186 114.984 187.642 114.188 188.306 112.196C189.116 109.766 191.53 106.774 189.025 104.826C187.063 103.3 185.503 101.528 182.796 101.528C180.539 101.528 177.097 102.301 176.532 104.844C176.129 106.657 176.391 109.09 177.743 110.441C179.164 111.862 179.754 114.161 182.393 114.161C183.268 114.161 184.925 114.483 185.709 114.091C186.206 113.842 188.205 112.25 187.604 111.95" stroke="black" stroke-width="3" stroke-linecap="round"/>
<path d="M213.241 108.476C213.728 109.693 214.973 109.569 215.206 108.405C215.526 106.804 216.11 104.419 214.136 103.896C211.416 103.176 208.517 103.422 205.731 103.422C203.812 103.422 204.082 104.055 204.082 105.774C204.082 106.599 203.574 109.69 204.222 110.371C205.879 112.11 208.636 112.426 210.819 113.038C212.496 113.507 213.433 110.111 211.486 109.757C210.161 109.516 207.006 109.748 208.819 111.774C209.685 112.742 210.926 113.363 212.258 113.511C213.475 113.647 213.241 112.429 213.241 111.564C213.241 109.644 212.184 108.476 210.083 108.476C209.354 108.476 208.135 108.11 208.188 109.107C208.246 110.21 209.314 110.964 210.047 111.616C212.268 113.59 214.738 111.976 215.066 109.353C215.509 105.805 214.919 103.807 211.346 103.738C209.517 103.703 205.345 102.761 205.345 105.159C205.345 106.243 205.852 106.783 206.293 107.774C207.103 109.598 207.578 110.136 209.451 110.546C210.416 110.757 212.081 111.412 213.083 110.967C214.27 110.44 213.873 107.558 213.873 106.581C213.873 104.858 208.435 105.185 207.24 105.317C206.171 105.436 207.188 108.821 207.731 109.265C209.37 110.606 213.925 108.283 212.1 106.458C211.215 105.573 206.396 105.346 206.293 107.212C206.225 108.424 207.24 109.225 207.24 110.213C207.24 112.062 210.125 112.927 211.346 113.775C213.086 114.983 214.542 114.188 215.206 112.195C216.016 109.766 218.43 106.774 215.925 104.826C213.964 103.3 212.403 101.527 209.697 101.527C207.44 101.527 203.998 102.301 203.433 104.844C203.03 106.657 203.292 109.089 204.643 110.441C206.065 111.862 206.654 114.161 209.293 114.161C210.168 114.161 211.826 114.482 212.609 114.09C213.107 113.842 215.105 112.25 214.504 111.95" stroke="black" stroke-width="3" stroke-linecap="round"/>
<path d="M182.221 130.365C178.882 131.617 189.313 142.309 190.36 143.316C193.042 145.899 199.18 148.34 202.538 145.336C206.641 141.664 211.093 134.777 211.093 129.296" stroke="black" stroke-width="4" stroke-linecap="round"/>
<path d="M328.579 82.0431L310.918 90.5266C310.918 90.5266 320.916 77.4977 317.769 69.4253C315.976 64.8238 313.915 61.6682 309.233 60.0942C304.737 58.5821 301.283 59.5423 297.239 62.0227C294.769 63.5379 293.77 64.9808 291.99 67.2679C285.057 76.1769 287.487 95.8215 287.487 95.8215C287.487 95.8215 275.89 113.672 276.776 122.775C277.663 131.879 288.788 153.03 299.215 152.382C321.12 151.021 331.954 152.489 353.252 143.805C366.977 138.208 374.766 136.508 382.354 123.342C387.242 114.861 389.914 104.624 388.474 94.9547C387.254 86.7647 387.944 79.3781 381.46 74.6283C374.338 69.4118 366.899 71.4818 358.16 72.5763C348.432 73.7948 328.579 82.0431 328.579 82.0431Z" fill="white"/>
<path d="M275.303 113.655C276.819 113.68 272.247 113.71 270.808 113.898C268.992 114.135 268.509 114.939 268.576 115.678C268.733 117.393 273.874 118.197 276.802 118.874C278.065 119.166 278.421 120.329 278.404 120.856C278.359 122.268 277.292 122.904 275.389 124.006C273.631 125.024 271.968 127.171 274.001 128.348C276.563 129.832 280.716 130.213 283.714 131.322C290.809 133.945 283.189 136.316 280.168 138.779C278.77 139.918 279.702 141.068 282.299 141.598C285.67 142.287 289.299 142.832 291.983 144.038C293.962 144.927 291.763 146.557 290.467 147.311C288.2 148.631 285.389 149.84 285.334 151.573C285.324 151.899 284.841 152.941 285.537 153.186C286.423 153.497 287.795 153.387 288.788 153.525C289.779 153.663 290.866 153.776 291.921 153.922C292.916 154.06 293.194 154.485 293.979 154.667" stroke="#195CC7" stroke-width="17" stroke-linecap="round"/>
<path d="M328.579 82.0431L310.918 90.5266C310.918 90.5266 320.916 77.4977 317.769 69.4253C315.976 64.8238 313.915 61.6682 309.233 60.0942C304.737 58.5821 301.283 59.5423 297.239 62.0227C294.769 63.5379 293.77 64.9808 291.99 67.2679C285.057 76.1769 287.487 95.8215 287.487 95.8215C287.487 95.8215 275.89 113.672 276.776 122.775C277.663 131.879 288.788 153.03 299.215 152.382C321.12 151.021 331.954 152.489 353.252 143.805C366.977 138.208 374.766 136.508 382.354 123.342C387.242 114.861 389.914 104.624 388.474 94.9547C387.254 86.7647 387.944 79.3781 381.46 74.6283C374.338 69.4118 366.899 71.4818 358.16 72.5763C348.432 73.7948 328.579 82.0431 328.579 82.0431Z" fill="white"/>
<path d="M275.303 113.655C276.819 113.68 272.247 113.71 270.808 113.898C268.992 114.135 268.509 114.939 268.576 115.678C268.733 117.393 273.874 118.197 276.802 118.874C278.065 119.166 278.421 120.329 278.404 120.856C278.359 122.268 277.292 122.904 275.389 124.006C273.631 125.024 271.968 127.171 274.001 128.348C276.563 129.832 280.716 130.213 283.714 131.322C290.809 133.945 283.189 136.316 280.168 138.779C278.77 139.918 279.702 141.068 282.299 141.598C285.67 142.287 289.299 142.832 291.983 144.038C293.962 144.927 291.763 146.557 290.467 147.311C288.2 148.631 285.389 149.84 285.334 151.573C285.324 151.899 284.841 152.941 285.537 153.186C286.423 153.497 287.795 153.387 288.788 153.525C289.779 153.663 290.866 153.776 291.921 153.922C292.916 154.06 293.194 154.485 293.979 154.667" stroke="#195CC7" stroke-width="15" stroke-linecap="round"/>
<path d="M67.0066 84.0431L84.6676 92.5266C84.6676 92.5266 74.67 79.4977 77.8166 71.4253C79.6103 66.8238 81.6714 63.6682 86.3525 62.0942C90.8492 60.5821 94.3025 61.5423 98.3464 64.0227C100.817 65.5379 101.816 66.9808 103.596 69.2679C110.529 78.1769 108.099 97.8215 108.099 97.8215C108.099 97.8215 119.696 115.672 118.809 124.775C117.923 133.879 106.798 155.03 96.3705 154.382C74.4662 153.021 63.6319 154.489 42.3343 145.805C28.6085 140.208 20.8199 138.508 13.2319 125.342C8.34376 116.861 5.67235 106.624 7.11223 96.9547C8.33187 88.7647 7.64199 81.3781 14.1263 76.6283C21.2479 71.4118 28.6865 73.4818 37.4256 74.5763C47.1543 75.7948 67.0066 84.0431 67.0066 84.0431Z" fill="white"/>
<path d="M120.283 115.655C118.767 115.68 123.339 115.71 124.778 115.898C126.594 116.135 127.077 116.939 127.009 117.678C126.853 119.393 121.712 120.197 118.784 120.874C117.521 121.166 117.165 122.329 117.182 122.856C117.227 124.268 118.294 124.904 120.197 126.006C121.955 127.024 123.618 129.171 121.585 130.348C119.023 131.832 114.87 132.213 111.872 133.322C104.777 135.945 112.397 138.316 115.418 140.779C116.816 141.918 115.884 143.068 113.287 143.598C109.916 144.287 106.287 144.832 103.603 146.038C101.624 146.927 103.823 148.557 105.119 149.311C107.386 150.631 110.196 151.84 110.252 153.573C110.262 153.899 110.745 154.941 110.049 155.186C109.163 155.497 107.791 155.387 106.798 155.525C105.807 155.663 104.72 155.776 103.665 155.922C102.67 156.06 102.392 156.485 101.607 156.667" stroke="#195CC7" stroke-width="15" stroke-linecap="round"/>
</svg>
