<svg width="155" height="162" viewBox="0 0 155 162" fill="none" xmlns="http://www.w3.org/2000/svg">
<path d="M74.0569 0C74.0569 0 83.7057 8.86558 88.1047 15.8802C91.8201 21.8047 94.9893 25.2396 95.4341 32.2185C95.8958 39.4643 90.7006 50.0837 90.7006 50.0837L84.4401 66.2693H69.9341L62.2994 49.931C62.2994 49.931 56.0037 39.533 56.1916 32.2185C56.3666 25.409 59.101 21.8944 62.2994 15.8802C65.9226 9.06734 74.0569 0 74.0569 0Z" fill="#FF0000"/>
<path d="M14.5245 28.2936C14.5245 28.2936 27.5803 27.178 35.723 28.6791C42.6002 29.947 47.2738 29.9341 52.7167 34.3248C58.3678 38.8834 62.68 49.8909 62.68 49.8909L70.3733 65.4466L60.5661 76.135L43.3659 70.7144C43.3659 70.7144 31.448 68.3232 26.1855 63.2396C21.2864 58.5069 20.5454 54.1159 18.2764 47.6932C15.7061 40.4175 14.5245 28.2936 14.5245 28.2936Z" fill="#FF0000"/>
<path d="M0.169373 83.0936C0.169373 83.0936 9.12601 73.5292 16.182 69.1969C22.1414 65.5378 25.6062 62.4013 32.589 62.0227C39.8389 61.6297 50.4086 66.9253 50.4086 66.9253L66.5341 73.339L66.3966 87.8443L49.9867 95.3238C49.9867 95.3238 39.5294 101.521 32.2171 101.263C25.4095 101.024 21.921 98.2563 15.9374 95.0011C9.1592 91.3135 0.169373 83.0936 0.169373 83.0936Z" fill="#FF0000"/>
<path d="M154.116 82.483C154.116 82.483 145.159 72.9186 138.103 68.5863C132.144 64.9272 128.679 61.7907 121.696 61.4121C114.446 61.0191 103.877 66.3147 103.877 66.3147L87.751 72.7284L87.8885 87.2337L104.298 94.7132C104.298 94.7132 114.756 100.91 122.068 100.653C128.876 100.413 132.364 97.6457 138.348 94.3905C145.126 90.7029 154.116 82.483 154.116 82.483Z" fill="#FF0000"/>
<path d="M74.0569 162C74.0569 162 83.7057 153.134 88.1047 146.12C91.8201 140.195 94.9893 136.76 95.4341 129.782C95.8958 122.536 90.7006 111.916 90.7006 111.916L84.4401 95.7307H69.9341L62.2994 112.069C62.2994 112.069 56.0037 122.467 56.1916 129.782C56.3666 136.591 59.101 140.106 62.2994 146.12C65.9226 152.933 74.0569 162 74.0569 162Z" fill="#FF0000"/>
<path d="M14.5245 134.928C14.5245 134.928 27.5803 136.044 35.723 134.542C42.6002 133.275 47.2738 133.287 52.7167 128.897C58.3678 124.338 62.68 113.331 62.68 113.331L70.3733 97.7749L60.5661 87.0866L43.3659 92.5072C43.3659 92.5072 31.448 94.8983 26.1855 99.982C21.2864 104.715 20.5454 109.106 18.2764 115.528C15.7061 122.804 14.5245 134.928 14.5245 134.928Z" fill="#FF0000"/>
<path d="M136.595 29.2096C136.595 29.2096 123.539 28.094 115.396 29.5952C108.519 30.863 103.845 30.8501 98.4024 35.2408C92.7514 39.7994 88.4391 50.8069 88.4391 50.8069L80.7458 66.3626L90.553 77.051L107.753 71.6304C107.753 71.6304 119.671 69.2392 124.934 64.1556C129.833 59.4229 130.574 55.0319 132.843 48.6092C135.413 41.3335 136.595 29.2096 136.595 29.2096Z" fill="#FF0000"/>
<path d="M136.595 134.928C136.595 134.928 123.539 136.044 115.396 134.542C108.519 133.275 103.845 133.287 98.4024 128.897C92.7514 124.338 88.4391 113.331 88.4391 113.331L80.7458 97.7749L90.553 87.0866L107.753 92.5072C107.753 92.5072 119.671 94.8983 124.934 99.982C129.833 104.715 130.574 109.106 132.843 115.528C135.413 122.804 136.595 134.928 136.595 134.928Z" fill="#FF0000"/>
<path d="M74.8901 30.2334C74.8901 30.2334 82.8428 37.5465 86.4685 43.3327C89.5307 48.2197 92.1428 51.0531 92.5094 56.8099C92.8899 62.7869 88.608 71.5467 88.608 71.5467L83.448 84.898H71.4921L65.1996 71.4208C65.1996 71.4208 60.0106 62.8435 60.1655 56.8099C60.3097 51.1929 62.5634 48.2937 65.1996 43.3327C68.1858 37.7129 74.8901 30.2334 74.8901 30.2334Z" fill="#FA3838"/>
<path d="M32.8815 50.0199C32.8815 50.0199 43.6637 49.0985 50.3883 50.3383C56.0678 51.3853 59.9275 51.3747 64.4225 55.0007C69.0895 58.7654 72.6507 67.856 72.6507 67.856L79.0043 80.7027L70.9049 89.5296L56.7002 85.053C56.7002 85.053 46.8577 83.0783 42.5118 78.88C38.4658 74.9715 37.8539 71.3452 35.98 66.041C33.8573 60.0323 32.8815 50.0199 32.8815 50.0199Z" fill="#FA3838"/>
<path d="M118.592 50.0199C118.592 50.0199 107.81 49.0985 101.085 50.3383C95.4058 51.3853 91.5461 51.3747 87.0511 55.0007C82.3842 58.7654 78.8229 67.856 78.8229 67.856L72.4694 80.7027L80.5687 89.5296L94.7734 85.053C94.7734 85.053 104.616 83.0783 108.962 78.88C113.008 74.9715 113.62 71.3452 115.494 66.041C117.616 60.0323 118.592 50.0199 118.592 50.0199Z" fill="#FA3838"/>
<path d="M74.8901 131.622C74.8901 131.622 82.8428 124.309 86.4685 118.523C89.5307 113.636 92.1428 110.803 92.5094 105.046C92.8899 99.0688 88.608 90.309 88.608 90.309L83.448 76.9578H71.4921L65.1996 90.435C65.1996 90.435 60.0106 99.0122 60.1655 105.046C60.3097 110.663 62.5634 113.562 65.1996 118.523C68.1858 124.143 74.8901 131.622 74.8901 131.622Z" fill="#FA3838"/>
<path d="M32.8815 111.911C32.8815 111.911 43.6637 112.832 50.3883 111.592C56.0678 110.545 59.9275 110.556 64.4225 106.93C69.0895 103.165 72.6507 94.0745 72.6507 94.0745L79.0043 81.2278L70.9049 72.4008L56.7002 76.8774C56.7002 76.8774 46.8577 78.8522 42.5118 83.0505C38.4658 86.959 37.8539 90.5853 35.98 95.8895C33.8573 101.898 32.8815 111.911 32.8815 111.911Z" fill="#FA3838"/>
<path d="M118.592 111.911C118.592 111.911 107.81 112.832 101.085 111.592C95.4058 110.545 91.5461 110.556 87.0511 106.93C82.3842 103.165 78.8229 94.0745 78.8229 94.0745L72.4694 81.2278L80.5687 72.4008L94.7734 76.8774C94.7734 76.8774 104.616 78.8522 108.962 83.0505C113.008 86.959 113.62 90.5853 115.494 95.8895C117.616 101.898 118.592 111.911 118.592 111.911Z" fill="#FA3838"/>
</svg>
