<svg width="196" height="201" viewBox="0 0 196 201" fill="none" xmlns="http://www.w3.org/2000/svg">
<path d="M119.2 28.5771C52.4417 18.0933 24.7326 173.557 24.7326 173.557L181.516 177.569C181.516 177.569 181.506 38.3616 119.2 28.5771Z" fill="#2C51A4"/>
<path d="M20.9608 172.453C22.453 172.066 23.672 170.532 25.2242 170.013C26.9631 169.43 29.0759 169.423 30.888 169.161C35.5479 168.489 36.8833 172.968 39.315 176.006C41.2162 178.381 44.9787 177.199 47.6083 176.669C49.1175 176.366 51.1668 173.627 52.289 172.584C54.2507 170.761 57.5206 170.9 60.0532 170.535C64.668 169.869 69.2313 169.458 72.7647 172.697C76.1781 175.825 78.346 179.676 83.3123 178.96C89.5307 178.063 92.3473 174.709 97.0565 171.087C100.716 168.273 106.014 167.368 109.84 169.691C114.899 172.763 118.787 178.183 125.664 177.191C128.063 176.845 129.917 176.413 131.576 174.478C132.726 173.137 134.209 171.197 136.031 170.736C141.738 169.29 143.283 168.937 148.25 172.831C151.013 174.997 155.162 179.756 159.256 179.166C162.804 178.654 163.617 178.191 165.185 174.901C165.958 173.278 170.392 171.571 172.009 172.78C174.183 174.406 176.451 177.926 179.474 177.49C181.097 177.255 184.542 177.027 185.068 175.443" stroke="#B40406" stroke-width="20" stroke-linecap="round"/>
<path d="M111.961 17.8969C112.094 18.8175 112.097 19.955 112.746 20.6776C113.623 21.6553 114.879 22.2382 116.2 22.2712C117.794 22.311 119.478 21.2402 120.805 20.4739C123.051 19.1769 123.007 15.685 122.763 13.445C122.576 11.7209 122.227 11.1304 120.482 10.8628C118.214 10.5149 114.864 10.2846 112.799 11.5002C111.532 12.2462 110.698 12.8955 110.551 14.4046C110.283 17.1525 110.853 19.783 112.756 21.8354C114.78 24.0187 117.478 25.8215 120.247 23.6749C121.026 23.0712 122.362 21.7445 122.639 20.7411C123.061 19.2117 122.901 17.6018 122.678 16.0548C122.271 13.2362 120.214 11.1688 117.428 10.5972C116.189 10.3431 114.896 10.4596 113.689 10.8402C111.663 11.4789 110.723 13.3239 110.015 15.1617C108.971 17.8719 109.757 21.5095 113.272 21.0026C114.13 20.8788 114.861 20.6647 115.583 20.1638C116.507 19.522 117.581 17.9624 117.622 16.8364C117.648 16.1343 117.789 15.0944 117.206 14.5603C116.538 13.9478 115.452 14.0986 114.646 14.2148C113.085 14.44 111.547 16.0116 111.25 17.5636C110.992 18.9184 110.533 22.4959 112.889 22.1561" stroke="#B40406" stroke-width="20" stroke-linecap="round"/>
<g clip-path="url(#clip0_87_1783)">
<path d="M114.887 146.353L110.473 115.748" stroke="#7E1100" stroke-miterlimit="10"/>
<path d="M102.163 146.073L107.925 115.691" stroke="#7E1100" stroke-miterlimit="10"/>
<path d="M90.2288 141.676L105.541 114.812" stroke="#7E1100" stroke-miterlimit="10"/>
<path d="M80.3618 133.638L103.568 113.202" stroke="#7E1100" stroke-miterlimit="10"/>
<path d="M73.6378 122.834L102.221 111.045" stroke="#7E1100" stroke-miterlimit="10"/>
<path d="M70.7871 110.435L101.655 108.566" stroke="#7E1100" stroke-miterlimit="10"/>
<path d="M72.1182 97.7861L101.917 106.033" stroke="#7E1100" stroke-miterlimit="10"/>
<path d="M77.4863 86.2454L102.989 103.726" stroke="#7E1100" stroke-miterlimit="10"/>
<path d="M86.3086 77.0813L104.757 101.896" stroke="#7E1100" stroke-miterlimit="10"/>
<path d="M97.6309 71.2737L107.018 100.732" stroke="#7E1100" stroke-miterlimit="10"/>
<path d="M110.222 69.4576L109.537 100.369" stroke="#7E1100" stroke-miterlimit="10"/>
<path d="M122.724 71.8287L112.04 100.845" stroke="#7E1100" stroke-miterlimit="10"/>
<path d="M133.777 78.1264L114.248 102.102" stroke="#7E1100" stroke-miterlimit="10"/>
<path d="M142.188 87.6798L115.934 104.012" stroke="#7E1100" stroke-miterlimit="10"/>
<path d="M147.039 99.4374L116.901 106.367" stroke="#7E1100" stroke-miterlimit="10"/>
<path d="M147.808 112.141L117.058 108.905" stroke="#7E1100" stroke-miterlimit="10"/>
<path d="M144.41 124.4L116.376 111.361" stroke="#7E1100" stroke-miterlimit="10"/>
<path d="M137.218 134.899L114.938 113.457" stroke="#7E1100" stroke-miterlimit="10"/>
<path d="M127.006 142.49L112.894 114.974" stroke="#7E1100" stroke-miterlimit="10"/>
<circle cx="109.369" cy="108.098" r="10.5413" transform="rotate(-8.20739 109.369 108.098)" fill="#7E1100"/>
</g>
<defs>
<clipPath id="clip0_87_1783">
<rect width="77.3025" height="77.3025" fill="white" transform="translate(65.5957 75.3601) rotate(-8.20739)"/>
</clipPath>
</defs>
</svg>
