<svg width="202" height="170" viewBox="0 0 202 170" fill="none" xmlns="http://www.w3.org/2000/svg">
<path d="M120.919 5.14844L67.5312 16.9119C67.5312 16.9119 91.0581 118.259 93.7728 126.402C96.4874 134.546 110.844 146.7 120.919 148.12C142.833 151.207 157.607 146.677 176.117 134.546C188.046 126.728 195.118 123.64 199.644 110.115C202.559 101.402 203.002 91.5203 199.644 82.9682C196.799 75.7243 195.939 68.8384 188.785 65.7754C180.928 62.4115 174.265 65.7684 166.163 68.4901C157.144 71.52 139.922 82.9682 139.922 82.9682L120.919 5.14844Z" fill="white"/>
<path d="M68 14.9777C68 14.145 68.1342 16.6557 68.4066 17.4426C68.7504 18.4358 69.7953 18.6869 70.7444 18.6369C72.9474 18.521 73.873 15.6832 74.6832 14.0629C75.0325 13.3642 76.5213 13.1481 77.1989 13.1481C79.0169 13.1481 79.8573 13.7228 81.3155 14.749C82.6625 15.6969 85.4594 16.5726 86.9314 15.4351C88.7862 14.0019 89.1891 11.7144 90.5526 10.0479C93.7788 6.10477 96.9892 10.2486 100.222 11.8648C101.717 12.6125 103.177 12.0805 103.805 10.6451C104.62 8.78138 105.244 6.77863 106.74 5.28327C107.842 4.18064 109.986 5.35992 110.983 6.05832C112.729 7.28035 114.344 8.80274 116.574 8.80274C116.994 8.80274 118.344 9.04951 118.645 8.66298C119.027 8.17112 118.857 7.41944 119.013 6.87148C119.169 6.32494 119.292 5.72549 119.458 5.14351C119.615 4.59482 120.156 4.43443 120.373 4" stroke="#113380" stroke-width="7.7" stroke-linecap="round"/>
<path d="M78.5332 62.2808C78.5041 61.4486 78.7258 63.9531 79.0255 64.7301C79.4037 65.7107 80.4567 65.9252 81.4035 65.8421C83.6012 65.6494 84.4272 62.7811 85.1804 61.1335C85.5052 60.4231 86.9855 60.1552 87.6627 60.1316C89.4796 60.0682 90.3395 60.6133 91.8326 61.588C93.2119 62.4883 96.0376 63.266 97.4691 62.0778C99.2727 60.5808 99.5956 58.2806 100.9 56.5676C103.987 52.5144 107.34 56.5438 110.627 58.0463C112.147 58.7414 113.587 58.1588 114.165 56.7023C114.915 54.8114 115.469 52.7881 116.911 51.2415C117.975 50.1011 120.158 51.2049 121.179 51.8681C122.967 53.0285 124.633 54.4936 126.862 54.4159C127.282 54.4012 128.64 54.6008 128.927 54.204C129.292 53.6991 129.095 52.9538 129.233 52.4007C129.37 51.8491 129.471 51.2457 129.617 50.6583C129.754 50.1045 130.289 49.9253 130.491 49.4836" stroke="#113380" stroke-width="7.7" stroke-linecap="round"/>
<path d="M114.686 138.534C113.992 138.074 116.169 139.335 116.995 139.512C118.038 139.736 118.902 138.887 119.456 137.963C120.74 135.816 118.955 133.373 118.112 131.712C117.749 130.996 118.502 129.469 118.926 128.829C120.066 127.111 121.072 126.634 122.841 125.823C124.475 125.074 126.958 122.914 126.932 120.894C126.9 118.349 125.246 116.704 124.712 114.495C123.448 109.266 128.913 108.522 132.286 106.361C133.847 105.36 134.318 103.687 133.515 102.3C132.473 100.499 131.195 98.8026 130.886 96.5629C130.658 94.9114 132.984 93.5374 134.192 92.9805C136.304 92.0059 138.585 91.3211 139.983 89.2135C140.246 88.8167 141.298 87.6766 141.164 87.1789C140.994 86.5455 140.261 86.2914 139.902 85.8406C139.545 85.3909 139.122 84.9441 138.741 84.4653C138.382 84.0139 138.587 83.4141 138.361 82.9687" stroke="#113380" stroke-width="7.7" stroke-linecap="round"/>
<path d="M186.472 120.506C185.646 120.613 188.119 120.157 188.864 119.787C189.805 119.321 189.92 118.26 189.749 117.332C189.352 115.179 186.419 114.635 184.709 114.046C183.971 113.793 183.566 112.355 183.479 111.689C183.246 109.899 183.709 108.998 184.539 107.431C185.307 105.983 185.817 103.117 184.5 101.815C182.842 100.175 180.522 100.073 178.695 98.9466C174.371 96.2805 178.069 92.5861 179.258 89.1964C179.808 87.6281 179.093 86.2604 177.589 85.8276C175.637 85.2657 173.571 84.9097 171.896 83.6311C170.662 82.6882 171.557 80.4266 172.121 79.3546C173.11 77.4788 174.412 75.6932 174.127 73.4985C174.073 73.0853 174.145 71.7243 173.723 71.4783C173.186 71.1653 172.463 71.4303 171.899 71.3469C171.337 71.2638 170.727 71.2208 170.129 71.1323C169.565 71.0488 169.336 70.5373 168.878 70.3796" stroke="#113380" stroke-width="7.4" stroke-linecap="round"/>
<g filter="url(#filter0_d_87_1811)">
<path d="M60.763 19.1553L7.375 30.9187C7.375 30.9187 30.9019 132.265 33.6165 140.409C36.3312 148.553 50.6879 160.707 60.763 162.126C82.6771 165.214 97.4511 160.684 115.961 148.553C127.89 140.735 134.962 137.647 139.488 124.121C142.403 115.408 142.846 105.527 139.488 96.975C136.643 89.7311 135.783 82.8453 128.629 79.7823C120.772 76.4183 114.109 79.7752 106.007 82.4969C96.9873 85.5269 79.7654 96.975 79.7654 96.975L60.763 19.1553Z" fill="white"/>
<path d="M7 29.9777C7 29.145 7.13418 31.6557 7.40658 32.4426C7.7504 33.4358 8.79525 33.6869 9.74442 33.6369C11.9474 33.521 12.873 30.6832 13.6832 29.0629C14.0325 28.3642 15.5213 28.1481 16.1989 28.1481C18.0169 28.1481 18.8573 28.7228 20.3155 29.749C21.6625 30.6969 24.4594 31.5726 25.9314 30.4351C27.7862 29.0019 28.1891 26.7144 29.5526 25.0479C32.7788 21.1048 35.9892 25.2486 39.2216 26.8648C40.717 27.6125 42.1766 27.0805 42.8046 25.6451C43.6199 23.7814 44.2442 21.7786 45.7396 20.2833C46.8422 19.1806 48.9856 20.3599 49.9833 21.0583C51.729 22.2803 53.3437 23.8027 55.5738 23.8027C55.9936 23.8027 57.3442 24.0495 57.6448 23.663C58.0274 23.1711 57.8567 22.4194 58.0133 21.8715C58.1694 21.3249 58.2917 20.7255 58.458 20.1435C58.6147 19.5948 59.1555 19.4344 59.3728 19" stroke="#113380" stroke-width="7.7" stroke-linecap="round"/>
<path d="M18.3769 76.2877C18.3479 75.4554 18.5695 77.9599 18.8692 78.7369C19.2475 79.7175 20.3004 79.932 21.2473 79.849C23.4449 79.6563 24.271 76.7879 25.0241 75.1404C25.3489 74.4299 26.8293 74.162 27.5064 74.1384C29.3233 74.075 30.1833 74.6201 31.6764 75.5948C33.0556 76.4951 35.8813 77.2728 37.3128 76.0847C39.1164 74.5877 39.4393 72.2875 40.7439 70.5745C43.8306 66.5212 47.1836 70.5506 50.4704 72.0531C51.9909 72.7482 53.4311 72.1656 54.0087 70.7092C54.7585 68.8182 55.3126 66.7949 56.7549 65.2483C57.8184 64.1079 60.0016 65.2117 61.023 65.8749C62.8104 67.0353 64.4772 68.5005 66.7058 68.4227C67.1254 68.4081 68.4838 68.6076 68.7707 68.2108C69.1359 67.7059 68.9391 66.9607 69.0765 66.4076C69.2135 65.8559 69.3148 65.2526 69.4607 64.6651C69.5982 64.1113 70.1331 63.9322 70.3351 63.4904" stroke="#113380" stroke-width="7.7" stroke-linecap="round"/>
<path d="M54.5298 152.541C53.8358 152.081 56.0123 153.342 56.8389 153.519C57.8821 153.743 58.7462 152.894 59.2994 151.97C60.5835 149.823 58.7986 147.38 57.956 145.719C57.5926 145.003 58.3456 143.476 58.7702 142.836C59.9097 141.118 60.9154 140.641 62.6845 139.83C64.3187 139.081 66.8014 136.921 66.776 134.901C66.744 132.356 65.0901 130.711 64.5558 128.502C63.2915 123.273 68.7571 122.529 72.1299 120.367C73.6903 119.367 74.1617 117.694 73.359 116.307C72.3168 114.506 71.0389 112.809 70.7299 110.57C70.502 108.918 72.8281 107.544 74.0355 106.987C76.1481 106.013 78.4289 105.328 79.8265 103.22C80.0896 102.824 81.1417 101.683 81.008 101.186C80.8378 100.552 80.1044 100.298 79.7459 99.8474C79.3883 99.3978 78.9653 98.9509 78.5845 98.4721C78.2255 98.0207 78.4307 97.4209 78.2048 96.9755" stroke="#113380" stroke-width="7.7" stroke-linecap="round"/>
<path d="M126.316 134.512C125.49 134.62 127.962 134.164 128.708 133.794C129.649 133.328 129.764 132.267 129.593 131.339C129.196 129.186 126.263 128.641 124.552 128.053C123.815 127.8 123.41 126.362 123.323 125.695C123.09 123.906 123.552 123.005 124.383 121.437C125.151 119.989 125.661 117.124 124.344 115.822C122.685 114.182 120.365 114.08 118.538 112.953C114.215 110.287 117.913 106.593 119.101 103.203C119.651 101.635 118.937 100.267 117.433 99.8344C115.48 99.2725 113.415 98.9166 111.74 97.6379C110.505 96.6951 111.4 94.4335 111.965 93.3614C112.953 91.4856 114.256 89.7 113.971 87.5053C113.917 87.0921 113.988 85.7312 113.567 85.4852C113.03 85.1722 112.306 85.4371 111.743 85.3538C111.181 85.2706 110.571 85.2277 109.972 85.1391C109.408 85.0557 109.18 84.5441 108.721 84.3864" stroke="#113380" stroke-width="7.4" stroke-linecap="round"/>
</g>
<defs>
<filter id="filter0_d_87_1811" x="0.150391" y="15.1492" width="144.693" height="153.916" filterUnits="userSpaceOnUse" color-interpolation-filters="sRGB">
<feFlood flood-opacity="0" result="BackgroundImageFix"/>
<feColorMatrix in="SourceAlpha" type="matrix" values="0 0 0 0 0 0 0 0 0 0 0 0 0 0 0 0 0 0 127 0" result="hardAlpha"/>
<feOffset dy="3"/>
<feGaussianBlur stdDeviation="1.5"/>
<feComposite in2="hardAlpha" operator="out"/>
<feColorMatrix type="matrix" values="0 0 0 0 0 0 0 0 0 0 0 0 0 0 0 0 0 0 0.25 0"/>
<feBlend mode="normal" in2="BackgroundImageFix" result="effect1_dropShadow_87_1811"/>
<feBlend mode="normal" in="SourceGraphic" in2="effect1_dropShadow_87_1811" result="shape"/>
</filter>
</defs>
</svg>
