<svg width="202" height="170" viewBox="0 0 202 170" fill="none" xmlns="http://www.w3.org/2000/svg">
<path d="M120.919 5.14844L67.5312 16.9119C67.5312 16.9119 91.0581 118.259 93.7728 126.402C96.4874 134.546 110.844 146.7 120.919 148.12C142.833 151.207 157.607 146.677 176.117 134.546C188.046 126.728 195.118 123.64 199.644 110.115C202.559 101.402 203.002 91.5203 199.644 82.9682C196.799 75.7243 195.939 68.8384 188.785 65.7754C180.928 62.4115 174.265 65.7684 166.163 68.4901C157.144 71.52 139.922 82.9682 139.922 82.9682L120.919 5.14844Z" fill="#FF0000"/>
<path d="M68 14.9777C68 14.145 68.1342 16.6557 68.4066 17.4426C68.7504 18.4358 69.7953 18.6869 70.7444 18.6369C72.9474 18.521 73.873 15.6832 74.6832 14.0629C75.0325 13.3642 76.5213 13.1481 77.1989 13.1481C79.0169 13.1481 79.8573 13.7228 81.3155 14.749C82.6625 15.6969 85.4594 16.5726 86.9314 15.4351C88.7862 14.0019 89.1891 11.7144 90.5526 10.0479C93.7788 6.10477 96.9892 10.2486 100.222 11.8648C101.717 12.6125 103.177 12.0805 103.805 10.6451C104.62 8.78138 105.244 6.77863 106.74 5.28327C107.842 4.18064 109.986 5.35992 110.983 6.05832C112.729 7.28035 114.344 8.80274 116.574 8.80274C116.994 8.80274 118.344 9.04951 118.645 8.66298C119.027 8.17112 118.857 7.41944 119.013 6.87148C119.169 6.32494 119.292 5.72549 119.458 5.14351C119.615 4.59482 120.156 4.43443 120.373 4" stroke="#39B64B" stroke-width="7.7" stroke-linecap="round"/>
<path d="M78.5322 62.2808C78.5032 61.4486 78.7248 63.9531 79.0245 64.7301C79.4027 65.7107 80.4557 65.9252 81.4026 65.8421C83.6002 65.6494 84.4263 62.7811 85.1794 61.1335C85.5042 60.4231 86.9846 60.1552 87.6617 60.1316C89.4786 60.0682 90.3385 60.6133 91.8317 61.588C93.2109 62.4883 96.0366 63.266 97.4681 62.0778C99.2717 60.5808 99.5946 58.2806 100.899 56.5676C103.986 52.5144 107.339 56.5438 110.626 58.0463C112.146 58.7414 113.586 58.1588 114.164 56.7023C114.914 54.8114 115.468 52.7881 116.91 51.2415C117.974 50.1011 120.157 51.2049 121.178 51.8681C122.966 53.0285 124.632 54.4936 126.861 54.4159C127.281 54.4012 128.639 54.6008 128.926 54.204C129.291 53.6991 129.094 52.9538 129.232 52.4007C129.369 51.8491 129.47 51.2457 129.616 50.6583C129.753 50.1045 130.288 49.9253 130.49 49.4836" stroke="#39B64B" stroke-width="7.7" stroke-linecap="round"/>
<path d="M114.685 138.534C113.991 138.074 116.168 139.335 116.994 139.512C118.037 139.736 118.901 138.887 119.455 137.963C120.739 135.816 118.954 133.373 118.111 131.712C117.748 130.996 118.501 129.469 118.926 128.829C120.065 127.111 121.071 126.634 122.84 125.823C124.474 125.074 126.957 122.914 126.931 120.894C126.899 118.349 125.245 116.704 124.711 114.495C123.447 109.266 128.912 108.522 132.285 106.361C133.846 105.36 134.317 103.687 133.514 102.3C132.472 100.499 131.194 98.8026 130.885 96.5629C130.657 94.9114 132.983 93.5374 134.191 92.9805C136.303 92.0059 138.584 91.3211 139.982 89.2135C140.245 88.8167 141.297 87.6766 141.163 87.1789C140.993 86.5455 140.26 86.2914 139.901 85.8406C139.544 85.3909 139.121 84.9441 138.74 84.4653C138.381 84.0139 138.586 83.4141 138.36 82.9687" stroke="#39B64B" stroke-width="7.7" stroke-linecap="round"/>
<path d="M186.473 120.506C185.647 120.613 188.12 120.157 188.865 119.787C189.806 119.321 189.921 118.26 189.75 117.332C189.353 115.179 186.42 114.635 184.71 114.046C183.972 113.793 183.567 112.355 183.48 111.689C183.247 109.899 183.71 108.998 184.54 107.431C185.308 105.983 185.818 103.117 184.501 101.815C182.843 100.175 180.523 100.073 178.695 98.9466C174.372 96.2805 178.07 92.5861 179.259 89.1964C179.809 87.6281 179.094 86.2604 177.59 85.8276C175.638 85.2657 173.572 84.9097 171.897 83.6311C170.663 82.6882 171.558 80.4266 172.122 79.3546C173.111 77.4788 174.413 75.6932 174.128 73.4985C174.074 73.0853 174.146 71.7243 173.724 71.4783C173.187 71.1653 172.464 71.4303 171.9 71.3469C171.338 71.2638 170.728 71.2208 170.13 71.1323C169.565 71.0488 169.337 70.5373 168.879 70.3796" stroke="#39B64B" stroke-width="7.4" stroke-linecap="round"/>
<g filter="url(#filter0_d_87_1770)">
<path d="M60.763 19.1553L7.375 30.9187C7.375 30.9187 30.9019 132.265 33.6165 140.409C36.3312 148.553 50.6879 160.707 60.763 162.126C82.6771 165.214 97.4511 160.684 115.961 148.553C127.89 140.735 134.962 137.647 139.488 124.121C142.403 115.408 142.846 105.527 139.488 96.975C136.643 89.7311 135.783 82.8453 128.629 79.7823C120.772 76.4183 114.109 79.7752 106.007 82.4969C96.9873 85.5269 79.7654 96.975 79.7654 96.975L60.763 19.1553Z" fill="#FF0000"/>
<path d="M7 29.9777C7 29.145 7.13418 31.6557 7.40658 32.4426C7.7504 33.4358 8.79525 33.6869 9.74442 33.6369C11.9474 33.521 12.873 30.6832 13.6832 29.0629C14.0325 28.3642 15.5213 28.1481 16.1989 28.1481C18.0169 28.1481 18.8573 28.7228 20.3155 29.749C21.6625 30.6969 24.4594 31.5726 25.9314 30.4351C27.7862 29.0019 28.1891 26.7144 29.5526 25.0479C32.7788 21.1048 35.9892 25.2486 39.2216 26.8648C40.717 27.6125 42.1766 27.0805 42.8046 25.6451C43.6199 23.7814 44.2442 21.7786 45.7396 20.2833C46.8422 19.1806 48.9856 20.3599 49.9833 21.0583C51.729 22.2803 53.3437 23.8027 55.5738 23.8027C55.9936 23.8027 57.3442 24.0495 57.6448 23.663C58.0274 23.1711 57.8567 22.4194 58.0133 21.8715C58.1694 21.3249 58.2917 20.7255 58.458 20.1435C58.6147 19.5948 59.1555 19.4344 59.3728 19" stroke="#39B64B" stroke-width="7.7" stroke-linecap="round"/>
<path d="M18.376 76.2877C18.3469 75.4554 18.5686 77.9599 18.8682 78.7369C19.2465 79.7175 20.2995 79.932 21.2463 79.849C23.4439 79.6563 24.27 76.7879 25.0232 75.1404C25.3479 74.4299 26.8283 74.162 27.5055 74.1384C29.3224 74.075 30.1823 74.6201 31.6754 75.5948C33.0546 76.4951 35.8803 77.2728 37.3118 76.0847C39.1155 74.5877 39.4384 72.2875 40.7429 70.5745C43.8296 66.5212 47.1826 70.5506 50.4694 72.0531C51.99 72.7482 53.4301 72.1656 54.0077 70.7092C54.7576 68.8182 55.3116 66.7949 56.7539 65.2483C57.8174 64.1079 60.0006 65.2117 61.0221 65.8749C62.8094 67.0353 64.4762 68.5005 66.7049 68.4227C67.1245 68.4081 68.4828 68.6076 68.7698 68.2108C69.1349 67.7059 68.9382 66.9607 69.0755 66.4076C69.2125 65.8559 69.3138 65.2526 69.4597 64.6651C69.5972 64.1113 70.1321 63.9322 70.3341 63.4904" stroke="#39B64B" stroke-width="7.7" stroke-linecap="round"/>
<path d="M54.5288 152.541C53.8348 152.081 56.0113 153.342 56.8379 153.519C57.8811 153.743 58.7452 152.894 59.2985 151.97C60.5825 149.823 58.7976 147.38 57.955 145.719C57.5916 145.003 58.3446 143.476 58.7693 142.836C59.9087 141.118 60.9144 140.641 62.6835 139.83C64.3177 139.081 66.8004 136.921 66.775 134.901C66.743 132.356 65.0891 130.711 64.5548 128.502C63.2905 123.273 68.7561 122.529 72.1289 120.367C73.6893 119.367 74.1607 117.694 73.358 116.307C72.3158 114.506 71.038 112.809 70.7289 110.57C70.501 108.918 72.8272 107.544 74.0345 106.987C76.1471 106.013 78.4279 105.328 79.8255 103.22C80.0887 102.824 81.1407 101.683 81.007 101.186C80.8369 100.552 80.1035 100.298 79.7449 99.8474C79.3873 99.3978 78.9643 98.9509 78.5835 98.4721C78.2245 98.0207 78.4298 97.4209 78.2038 96.9755" stroke="#39B64B" stroke-width="7.7" stroke-linecap="round"/>
<path d="M126.317 134.512C125.491 134.62 127.963 134.164 128.709 133.794C129.65 133.328 129.765 132.267 129.594 131.339C129.196 129.186 126.264 128.641 124.553 128.053C123.816 127.8 123.411 126.362 123.324 125.695C123.091 123.906 123.553 123.005 124.384 121.437C125.152 119.989 125.662 117.124 124.345 115.822C122.686 114.182 120.366 114.08 118.539 112.953C114.216 110.287 117.914 106.593 119.102 103.203C119.652 101.635 118.938 100.267 117.434 99.8344C115.481 99.2725 113.415 98.9166 111.741 97.6379C110.506 96.6951 111.401 94.4335 111.966 93.3614C112.954 91.4856 114.257 89.7 113.971 87.5053C113.918 87.0921 113.989 85.7312 113.568 85.4852C113.031 85.1722 112.307 85.4371 111.744 85.3538C111.182 85.2706 110.572 85.2277 109.973 85.1391C109.409 85.0557 109.181 84.5441 108.722 84.3864" stroke="#39B64B" stroke-width="7.4" stroke-linecap="round"/>
</g>
<defs>
<filter id="filter0_d_87_1770" x="0.150391" y="15.1492" width="144.692" height="153.916" filterUnits="userSpaceOnUse" color-interpolation-filters="sRGB">
<feFlood flood-opacity="0" result="BackgroundImageFix"/>
<feColorMatrix in="SourceAlpha" type="matrix" values="0 0 0 0 0 0 0 0 0 0 0 0 0 0 0 0 0 0 127 0" result="hardAlpha"/>
<feOffset dy="3"/>
<feGaussianBlur stdDeviation="1.5"/>
<feComposite in2="hardAlpha" operator="out"/>
<feColorMatrix type="matrix" values="0 0 0 0 0 0 0 0 0 0 0 0 0 0 0 0 0 0 0.25 0"/>
<feBlend mode="normal" in2="BackgroundImageFix" result="effect1_dropShadow_87_1770"/>
<feBlend mode="normal" in="SourceGraphic" in2="effect1_dropShadow_87_1770" result="shape"/>
</filter>
</defs>
</svg>
