<svg width="369" height="378" viewBox="0 0 369 378" fill="none" xmlns="http://www.w3.org/2000/svg">
<path d="M228.963 48.2084C100.732 28.071 47.5082 326.688 47.5082 326.688L348.661 334.395C348.661 334.395 348.641 67.0026 228.963 48.2084Z" fill="#FF0000"/>
<path d="M40.2626 324.568C43.129 323.824 45.4704 320.879 48.4519 319.88C51.792 318.762 55.8504 318.747 59.331 318.245C68.2818 316.954 70.8469 325.556 75.5177 331.392C79.1696 335.955 86.3968 333.684 91.4477 332.667C94.3466 332.083 98.2829 326.823 100.438 324.82C104.207 321.318 110.487 321.585 115.352 320.883C124.216 319.604 132.982 318.816 139.769 325.036C146.325 331.044 150.489 338.442 160.029 337.066C171.973 335.343 177.383 328.902 186.429 321.945C193.458 316.538 203.634 314.8 210.984 319.263C220.702 325.163 228.17 335.574 241.378 333.669C245.986 333.004 249.548 332.175 252.734 328.458C254.944 325.881 257.793 322.156 261.291 321.269C272.255 318.492 275.221 317.814 284.762 325.294C290.069 329.454 298.038 338.596 305.902 337.462C312.718 336.479 314.279 335.589 317.291 329.269C318.776 326.153 327.294 322.873 330.399 325.195C334.575 328.318 338.932 335.079 344.737 334.242C347.855 333.792 354.473 333.355 355.483 330.31" stroke="#113380" stroke-width="26" stroke-linecap="round"/>
<path d="M215.056 27.6937C215.311 29.462 215.317 31.6469 216.563 33.0349C218.247 34.9128 220.661 36.0326 223.199 36.0959C226.26 36.1724 229.495 34.1155 232.043 32.6437C236.357 30.1524 236.272 23.4451 235.805 19.1424C235.446 15.8307 234.775 14.6965 231.423 14.1824C227.067 13.5142 220.632 13.0719 216.665 15.4069C214.231 16.8398 212.63 18.0869 212.347 20.9856C211.832 26.2638 212.927 31.3166 216.582 35.2588C220.47 39.4525 225.653 42.9155 230.971 38.7922C232.467 37.6326 235.035 35.0842 235.566 33.1569C236.377 30.2193 236.069 27.127 235.641 24.1554C234.86 18.7414 230.909 14.7703 225.557 13.6724C223.177 13.1842 220.693 13.408 218.374 14.1391C214.483 15.366 212.677 18.9099 211.318 22.4399C209.312 27.6456 210.823 34.6329 217.574 33.6592C219.222 33.4215 220.626 33.0102 222.012 32.0479C223.788 30.8153 225.85 27.8196 225.929 25.6566C225.978 24.3081 226.251 22.3107 225.131 21.2847C223.847 20.1082 221.76 20.398 220.213 20.6211C217.215 21.0536 214.26 24.0723 213.691 27.0534C213.194 29.6558 212.313 36.5275 216.838 35.8748" stroke="#113380" stroke-width="26" stroke-linecap="round"/>
</svg>
