<svg width="169" height="169" viewBox="0 0 169 169" fill="none" xmlns="http://www.w3.org/2000/svg">
<g clip-path="url(#clip0_18_12745)">
<path d="M94.6793 157.562L86.2002 98.7745" stroke="#7E1100" stroke-miterlimit="10"/>
<path d="M70.241 157.025L81.3087 98.6657" stroke="#7E1100" stroke-miterlimit="10"/>
<path d="M47.3156 148.579L76.7275 96.978" stroke="#7E1100" stroke-miterlimit="10"/>
<path d="M28.3645 133.139L72.9388 93.8856" stroke="#7E1100" stroke-miterlimit="10"/>
<path d="M15.4487 112.386L70.3524 89.7416" stroke="#7E1100" stroke-miterlimit="10"/>
<path d="M9.97266 88.5704L69.2641 84.9798" stroke="#7E1100" stroke-miterlimit="10"/>
<path d="M12.5293 64.2737L69.7681 80.1151" stroke="#7E1100" stroke-miterlimit="10"/>
<path d="M22.8408 42.1061L71.8266 75.6822" stroke="#7E1100" stroke-miterlimit="10"/>
<path d="M39.7861 24.5032L75.2221 72.1669" stroke="#7E1100" stroke-miterlimit="10"/>
<path d="M61.5342 13.3481L79.5651 69.9327" stroke="#7E1100" stroke-miterlimit="10"/>
<path d="M85.7207 9.85961L84.4045 69.2347" stroke="#7E1100" stroke-miterlimit="10"/>
<path d="M109.734 14.4144L89.2117 70.1492" stroke="#7E1100" stroke-miterlimit="10"/>
<path d="M130.965 26.5109L93.4534 72.5628" stroke="#7E1100" stroke-miterlimit="10"/>
<path d="M147.119 44.8613L96.69 76.2321" stroke="#7E1100" stroke-miterlimit="10"/>
<path d="M156.438 67.4451L98.5486 80.756" stroke="#7E1100" stroke-miterlimit="10"/>
<path d="M157.916 91.8475L98.8496 85.6313" stroke="#7E1100" stroke-miterlimit="10"/>
<path d="M151.39 115.394L97.541 90.3475" stroke="#7E1100" stroke-miterlimit="10"/>
<path d="M137.574 135.561L94.7793 94.3743" stroke="#7E1100" stroke-miterlimit="10"/>
<path d="M117.961 150.142L90.8525 97.2891" stroke="#7E1100" stroke-miterlimit="10"/>
<circle cx="84.0813" cy="84.0803" r="20.2478" transform="rotate(-8.20739 84.0813 84.0803)" fill="#7E1100"/>
</g>
<defs>
<clipPath id="clip0_18_12745">
<rect width="148.484" height="148.484" fill="white" transform="translate(0.000976562 21.1973) rotate(-8.20739)"/>
</clipPath>
</defs>
</svg>
