<svg width="2084" height="274" viewBox="0 0 2084 274" fill="none" xmlns="http://www.w3.org/2000/svg">
<rect x="45" y="65" width="1920" height="120" fill="#FF0000"/>
<rect x="45" y="65" width="1920" height="120" fill="#FF0000"/>
<path d="M114.741 150L213.954 184.169L114.741 273.089L11 184.169L114.741 150Z" fill="#FF0000"/>
<path d="M311.52 150L410.733 184.169L311.52 273.089L207.779 184.169L311.52 150Z" fill="#FF0000"/>
<path d="M511.593 150L610.805 184.169L511.593 273.089L407.852 184.169L511.593 150Z" fill="#FF0000"/>
<path d="M714.958 150L814.17 184.169L714.958 273.089L611.217 184.169L714.958 150Z" fill="#FF0000"/>
<path d="M908.442 150L1007.65 184.169L908.442 273.089L804.701 184.169L908.442 150Z" fill="#FF0000"/>
<path d="M1111.81 150L1211.02 184.169L1111.81 273.089L1008.07 184.169L1111.81 150Z" fill="#FF0000"/>
<path d="M1315.22 150L1414.43 184.169L1315.22 273.089L1211.48 184.169L1315.22 150Z" fill="#FF0000"/>
<path d="M1512 150L1611.21 184.169L1512 273.089L1408.26 184.169L1512 150Z" fill="#FF0000"/>
<path d="M1712.07 150L1811.28 184.169L1712.07 273.089L1608.33 184.169L1712.07 150Z" fill="#FF0000"/>
<path d="M1915.44 150L2014.65 184.169L1915.44 273.089L1811.7 184.169L1915.44 150Z" fill="#FF0000"/>
<path d="M1637.55 36.3273C1637.55 14.7403 1686.82 26.8061 1732.76 26.8061C1778.7 26.8061 1815.95 44.3058 1815.95 65.8928C1815.95 87.4798 1778.7 104.979 1732.76 104.979C1686.82 104.98 1637.55 57.9142 1637.55 36.3273Z" fill="#E8E2E4"/>
<path d="M1489.17 55.7477C1484.15 34.7522 1534.88 35.0333 1579.56 24.3529C1624.24 13.6725 1664.54 22.0346 1669.55 43.0301C1674.57 64.0257 1642.42 89.7041 1597.74 100.384C1553.05 111.065 1494.19 76.7432 1489.17 55.7477Z" fill="#E8E2E4"/>
<path d="M1367.9 48.684C1364.68 27.5597 1415.18 31.9447 1460.6 25.0237C1506.02 18.1028 1545.44 29.617 1548.66 50.7413C1551.88 71.8656 1517.67 94.6007 1472.26 101.522C1426.84 108.443 1371.11 69.8083 1367.9 48.684Z" fill="#E8E2E4"/>
<path d="M1894.2 56.0031C1889.19 35.0075 1939.91 35.2887 1984.59 24.6083C2029.28 13.9279 2069.57 22.29 2074.59 43.2855C2079.6 64.281 2047.45 89.9594 2002.77 100.64C1958.08 111.32 1899.22 76.9986 1894.2 56.0031Z" fill="#E8E2E4"/>
<path d="M1772.93 48.9394C1769.71 27.815 1820.21 32.2 1865.63 25.2791C1911.05 18.3582 1950.48 29.8723 1953.69 50.9967C1956.91 72.121 1922.71 94.8561 1877.29 101.777C1831.87 108.698 1776.15 70.0637 1772.93 48.9394Z" fill="#E8E2E4"/>
<path d="M271.575 36.3273C271.575 14.7403 320.845 26.8061 366.786 26.8061C412.728 26.8061 449.971 44.3058 449.971 65.8928C449.971 87.4798 412.728 104.979 366.786 104.979C320.845 104.98 271.575 57.9142 271.575 36.3273Z" fill="#E8E2E4"/>
<path d="M123.198 55.7477C118.179 34.7522 168.904 35.0333 213.587 24.3529C258.27 13.6725 298.561 22.0346 303.579 43.0301C308.598 64.0257 276.443 89.7041 231.761 100.384C187.078 111.065 128.216 76.7432 123.198 55.7477Z" fill="#E8E2E4"/>
<path d="M1.92242 48.684C-1.29661 27.5597 49.21 31.9447 94.6272 25.0237C140.044 18.1028 179.472 29.617 182.691 50.7413C185.91 71.8656 151.702 94.6007 106.284 101.522C60.8671 108.443 5.14145 69.8083 1.92242 48.684Z" fill="#E8E2E4"/>
<path d="M1221 35.9562C1221 14.2461 1278.17 26.3808 1331.48 26.3808C1384.79 26.3808 1428 43.9803 1428 65.6904C1428 87.4005 1384.79 105 1331.48 105C1278.17 105 1221 57.6663 1221 35.9562Z" fill="#E8E2E4"/>
<path d="M1101.31 55.7477C1096.29 34.7522 1147.01 35.0333 1191.69 24.3529C1236.38 13.6725 1276.67 22.0346 1281.69 43.0301C1286.71 64.0257 1254.55 89.7041 1209.87 100.384C1165.19 111.065 1106.32 76.7432 1101.31 55.7477Z" fill="#E8E2E4"/>
<path d="M980.03 48.684C976.811 27.5597 1027.32 31.9447 1072.73 25.0237C1118.15 18.1028 1157.58 29.617 1160.8 50.7413C1164.02 71.8656 1129.81 94.6007 1084.39 101.522C1038.97 108.443 983.249 69.8083 980.03 48.684Z" fill="#E8E2E4"/>
<path d="M881.866 34.8238C881.866 13.2369 931.136 25.3027 977.077 25.3027C1023.02 25.3027 1060.26 42.8024 1060.26 64.3894C1060.26 85.9764 1023.02 103.476 977.077 103.476C931.136 103.476 881.866 56.4108 881.866 34.8238Z" fill="#E8E2E4"/>
<path d="M739.503 57.7521C734.484 36.7566 785.209 37.0377 829.892 26.3573C874.575 15.6769 914.865 24.039 919.884 45.0345C924.902 66.0301 892.748 91.7085 848.065 102.389C803.383 113.069 744.521 78.7476 739.503 57.7521Z" fill="#E8E2E4"/>
<path d="M614.218 41.6683C610.999 20.5439 665.469 24.3249 714.582 16.8408C763.695 9.35675 806.118 20.4143 809.337 41.5386C812.556 62.663 775.352 85.8547 726.239 93.3388C677.126 100.823 617.437 62.7926 614.218 41.6683Z" fill="#E8E2E4"/>
<path d="M598.237 36.3273C598.237 14.7403 647.507 26.8061 693.448 26.8061C739.39 26.8061 776.633 44.3058 776.633 65.8928C776.633 87.4798 739.39 104.979 693.448 104.979C647.507 104.98 598.237 57.9142 598.237 36.3273Z" fill="#E8E2E4"/>
<path d="M449.86 55.7477C444.842 34.7522 495.566 35.0333 540.249 24.3529C584.932 13.6725 625.223 22.0346 630.241 43.0301C635.26 64.0257 603.106 89.7041 558.423 100.384C513.74 111.065 454.879 76.7432 449.86 55.7477Z" fill="#E8E2E4"/>
<path d="M328.585 48.684C325.365 27.5597 375.872 31.9447 421.289 25.0237C466.707 18.1028 506.134 29.617 509.353 50.7413C512.572 71.8656 478.364 94.6007 432.946 101.522C387.529 108.443 331.804 69.8083 328.585 48.684Z" fill="#E8E2E4"/>
<rect x="45" y="65" width="1920" height="120" fill="#FF0000"/>
<rect x="45" y="65" width="1920" height="120" fill="#FF0000"/>
<path d="M114.741 150L213.954 184.169L114.741 273.089L11 184.169L114.741 150Z" fill="#FF0000"/>
<path d="M311.52 150L410.733 184.169L311.52 273.089L207.779 184.169L311.52 150Z" fill="#FF0000"/>
<path d="M511.593 150L610.805 184.169L511.593 273.089L407.852 184.169L511.593 150Z" fill="#FF0000"/>
<path d="M714.958 150L814.17 184.169L714.958 273.089L611.217 184.169L714.958 150Z" fill="#FF0000"/>
<path d="M908.442 150L1007.65 184.169L908.442 273.089L804.701 184.169L908.442 150Z" fill="#FF0000"/>
<path d="M1111.81 150L1211.02 184.169L1111.81 273.089L1008.07 184.169L1111.81 150Z" fill="#FF0000"/>
<path d="M1315.22 150L1414.43 184.169L1315.22 273.089L1211.48 184.169L1315.22 150Z" fill="#FF0000"/>
<path d="M1512 150L1611.21 184.169L1512 273.089L1408.26 184.169L1512 150Z" fill="#FF0000"/>
<path d="M1712.07 150L1811.28 184.169L1712.07 273.089L1608.33 184.169L1712.07 150Z" fill="#FF0000"/>
<path d="M1915.44 150L2014.65 184.169L1915.44 273.089L1811.7 184.169L1915.44 150Z" fill="#FF0000"/>
<path d="M1637.55 36.3273C1637.55 14.7403 1686.82 26.8061 1732.76 26.8061C1778.7 26.8061 1815.95 44.3058 1815.95 65.8928C1815.95 87.4798 1778.7 104.979 1732.76 104.979C1686.82 104.98 1637.55 57.9142 1637.55 36.3273Z" fill="#E8E2E4"/>
<path d="M1489.17 55.7477C1484.15 34.7522 1534.88 35.0333 1579.56 24.3529C1624.24 13.6725 1664.54 22.0346 1669.55 43.0301C1674.57 64.0257 1642.42 89.7041 1597.74 100.384C1553.05 111.065 1494.19 76.7432 1489.17 55.7477Z" fill="#E8E2E4"/>
<path d="M1367.9 48.684C1364.68 27.5597 1415.18 31.9447 1460.6 25.0237C1506.02 18.1028 1545.44 29.617 1548.66 50.7413C1551.88 71.8656 1517.67 94.6007 1472.26 101.522C1426.84 108.443 1371.11 69.8083 1367.9 48.684Z" fill="#E8E2E4"/>
<path d="M1894.2 56.0031C1889.19 35.0075 1939.91 35.2887 1984.59 24.6083C2029.28 13.9279 2069.57 22.29 2074.59 43.2855C2079.6 64.281 2047.45 89.9594 2002.77 100.64C1958.08 111.32 1899.22 76.9986 1894.2 56.0031Z" fill="#E8E2E4"/>
<path d="M1772.93 48.9394C1769.71 27.815 1820.21 32.2 1865.63 25.2791C1911.05 18.3582 1950.48 29.8723 1953.69 50.9967C1956.91 72.121 1922.71 94.8561 1877.29 101.777C1831.87 108.698 1776.15 70.0637 1772.93 48.9394Z" fill="#E8E2E4"/>
<path d="M271.575 36.3273C271.575 14.7403 320.845 26.8061 366.786 26.8061C412.728 26.8061 449.971 44.3058 449.971 65.8928C449.971 87.4798 412.728 104.979 366.786 104.979C320.845 104.98 271.575 57.9142 271.575 36.3273Z" fill="#E8E2E4"/>
<path d="M123.198 55.7477C118.179 34.7522 168.904 35.0333 213.587 24.3529C258.27 13.6725 298.561 22.0346 303.579 43.0301C308.598 64.0257 276.443 89.7041 231.761 100.384C187.078 111.065 128.216 76.7432 123.198 55.7477Z" fill="#E8E2E4"/>
<path d="M1.92242 48.684C-1.29661 27.5597 49.21 31.9447 94.6272 25.0237C140.044 18.1028 179.472 29.617 182.691 50.7413C185.91 71.8656 151.702 94.6007 106.284 101.522C60.8671 108.443 5.14145 69.8083 1.92242 48.684Z" fill="#E8E2E4"/>
<path d="M1221 35.9562C1221 14.2461 1278.17 26.3808 1331.48 26.3808C1384.79 26.3808 1428 43.9803 1428 65.6904C1428 87.4005 1384.79 105 1331.48 105C1278.17 105 1221 57.6663 1221 35.9562Z" fill="#E8E2E4"/>
<path d="M1101.31 55.7477C1096.29 34.7522 1147.01 35.0333 1191.69 24.3529C1236.38 13.6725 1276.67 22.0346 1281.69 43.0301C1286.71 64.0257 1254.55 89.7041 1209.87 100.384C1165.19 111.065 1106.32 76.7432 1101.31 55.7477Z" fill="#E8E2E4"/>
<path d="M980.03 48.684C976.811 27.5597 1027.32 31.9447 1072.73 25.0237C1118.15 18.1028 1157.58 29.617 1160.8 50.7413C1164.02 71.8656 1129.81 94.6007 1084.39 101.522C1038.97 108.443 983.249 69.8083 980.03 48.684Z" fill="#E8E2E4"/>
<path d="M881.866 34.8238C881.866 13.2369 931.136 25.3027 977.077 25.3027C1023.02 25.3027 1060.26 42.8024 1060.26 64.3894C1060.26 85.9764 1023.02 103.476 977.077 103.476C931.136 103.476 881.866 56.4108 881.866 34.8238Z" fill="#E8E2E4"/>
<path d="M739.503 57.7521C734.484 36.7566 785.209 37.0377 829.892 26.3573C874.575 15.6769 914.865 24.039 919.884 45.0345C924.902 66.0301 892.748 91.7085 848.065 102.389C803.383 113.069 744.521 78.7476 739.503 57.7521Z" fill="#E8E2E4"/>
<path d="M614.218 41.6683C610.999 20.5439 665.469 24.3249 714.582 16.8408C763.695 9.35675 806.118 20.4143 809.337 41.5386C812.556 62.663 775.352 85.8547 726.239 93.3388C677.126 100.823 617.437 62.7926 614.218 41.6683Z" fill="#E8E2E4"/>
<path d="M598.237 36.3273C598.237 14.7403 647.507 26.8061 693.448 26.8061C739.39 26.8061 776.633 44.3058 776.633 65.8928C776.633 87.4798 739.39 104.979 693.448 104.979C647.507 104.98 598.237 57.9142 598.237 36.3273Z" fill="#E8E2E4"/>
<path d="M449.86 55.7477C444.842 34.7522 495.566 35.0333 540.249 24.3529C584.932 13.6725 625.223 22.0346 630.241 43.0301C635.26 64.0257 603.106 89.7041 558.423 100.384C513.74 111.065 454.879 76.7432 449.86 55.7477Z" fill="#E8E2E4"/>
<path d="M328.585 48.684C325.365 27.5597 375.872 31.9447 421.289 25.0237C466.707 18.1028 506.134 29.617 509.353 50.7413C512.572 71.8656 478.364 94.6007 432.946 101.522C387.529 108.443 331.804 69.8083 328.585 48.684Z" fill="#E8E2E4"/>
</svg>
