<svg width="693" height="891" viewBox="0 0 693 891" fill="none" xmlns="http://www.w3.org/2000/svg">
<ellipse cx="355.633" cy="233.175" rx="101.765" ry="102.208" fill="#F0DDE4"/>
<path d="M299.543 16.3428C383.398 46.3468 436.001 168.557 436.001 168.557L262.582 189.258C262.582 189.258 258.371 104.61 214.584 69.5167C175.558 38.2394 82.5917 28.2942 82.5917 28.2942C82.5917 28.2942 221.489 -11.5856 299.543 16.3428Z" fill="#FF0000"/>
<ellipse cx="355.633" cy="516.349" rx="193.797" ry="214.592" fill="#B40406"/>
<rect x="233" y="285" width="245" height="63" rx="20" fill="#FF0000"/>
<rect x="401.025" y="579.396" width="294.057" height="58.5826" rx="20" transform="rotate(-90.2026 401.025 579.396)" fill="#FF0000"/>
<path d="M278.532 276.221L257.408 246.892H453.86L428.863 266.698L432.736 281.934L424.99 314.311L442.946 368.779L414.428 372.969L409.5 401.536H384.503H346.128L332.046 422.105L302.12 384.396L271.491 372.969L278.532 323.833L257.408 291.457L278.532 276.221Z" fill="white"/>
<path d="M312.099 213.386C312.099 215.558 312.754 216.371 315.287 216.601C317.181 216.773 318.442 216.501 319.381 214.841C320.43 212.984 320.12 210.216 317.985 209.344C316.387 208.693 314.685 208.859 312.986 208.859C311.383 208.859 311.42 209.659 311.42 211.015C311.42 212.855 311.349 214.709 311.42 216.547C311.527 219.322 314.312 220.94 316.853 221.72C318.205 222.136 319.828 222.511 321.267 222.439C322.283 222.388 322.434 220.287 322.625 219.601C323.609 216.074 323.479 214.55 320.512 212.416C319.483 211.675 316.28 209.676 315.155 211.015C313.431 213.067 310.96 217.705 312.495 220.355C313.908 222.793 317.994 225.661 321.097 224.505C323.701 223.534 324.662 218.183 324.662 215.811C324.662 213.022 322.817 211.1 320.229 209.991C318.002 209.037 315.658 209.524 313.684 210.799C312.031 211.868 312.4 216.809 312.439 218.487C312.517 221.908 319.653 225.189 321.606 221.469" stroke="#171615" stroke-width="10" stroke-linecap="round"/>
<path d="M381.96 213.386C381.96 215.558 382.571 216.371 384.935 216.601C386.703 216.773 387.88 216.501 388.756 214.841C389.736 212.984 389.446 210.216 387.453 209.344C385.962 208.693 384.373 208.859 382.787 208.859C381.292 208.859 381.326 209.659 381.326 211.015C381.326 212.855 381.26 214.709 381.326 216.547C381.426 219.322 384.025 220.94 386.397 221.72C387.659 222.136 389.174 222.511 390.517 222.439C391.465 222.388 391.606 220.287 391.784 219.601C392.702 216.074 392.581 214.55 389.812 212.416C388.852 211.675 385.862 209.676 384.812 211.015C383.203 213.067 380.896 217.705 382.33 220.355C383.648 222.793 387.462 225.661 390.358 224.505C392.788 223.534 393.686 218.183 393.686 215.811C393.686 213.022 391.964 211.1 389.548 209.991C387.469 209.037 385.281 209.524 383.439 210.799C381.896 211.868 382.241 216.809 382.277 218.487C382.35 221.908 389.01 225.189 390.834 221.469" stroke="#171615" stroke-width="10" stroke-linecap="round"/>
<path d="M334.396 289.757C335.709 292.204 340.802 294.528 343.358 295.102C346.469 295.8 349.614 296.447 352.858 296.447C358.506 296.447 362.457 292.795 365.369 288.483" stroke="#171615" stroke-width="10" stroke-linecap="round"/>
<path d="M344.153 252.319C344.153 254.861 351.789 254.507 353.763 254.569C357.56 254.687 359.416 248.388 357.563 245.57C355.334 242.179 348.516 239.206 345.444 242.928C343.527 245.249 342.087 249.884 344.547 252.391C346.437 254.315 353.397 257.466 355.52 254.569C356.783 252.845 356.739 250.729 356.739 248.695C356.739 247.045 355.403 246.225 354.157 245.32C351.151 243.135 346.412 246.321 346.412 249.677C346.412 251.536 347.642 252.479 349.137 253.426C350.477 254.275 352.475 250.231 352.866 249.409C353.649 247.763 355.187 244.868 353.189 243.463C352.077 242.682 349.794 242.28 348.51 242.892C343.658 245.203 347.594 252.676 351.898 252.944C354.247 253.09 355.384 251.318 355.448 249.105C355.534 246.098 354.404 245.257 351.414 244.802C349.43 244.501 345.361 244.429 344.153 246.534C343.278 248.06 343.411 249.954 343.525 251.659C343.794 255.67 352.519 255.432 354.283 252.766C356.767 249.009 358.152 239.598 350.894 240.803C348.344 241.226 345.695 243.988 344.153 245.963C343.103 247.308 343.185 250.285 343.705 251.837C344.547 254.354 347.602 254.569 349.962 254.569" stroke="#FF0000" stroke-width="10" stroke-linecap="round"/>
<path d="M260.947 190.257C262.367 190.257 263.788 190.257 265.208 190.257C266.779 190.257 267.444 188.698 268.522 187.738C269.546 186.825 269.442 185.512 271.066 185.512C273.128 185.512 275.094 185.865 277.043 186.567C278.246 187 282.507 188.493 283.729 187.504C284.754 186.674 286.418 182.94 287.575 182.876C290.165 182.734 292.642 182.9 295.15 183.521C298.038 184.235 300.095 186.039 303.256 186.039C305.746 186.039 306.862 183.53 308.345 181.851C310.114 179.851 311.589 180.24 314.174 180.24C319.009 180.24 324.036 184.059 328.583 181.412C329.486 180.886 330.083 179.314 331.246 179.186C334.172 178.864 336.678 178.43 339.648 179.069C341.912 179.556 344.336 181.424 346.69 181.295C349.04 181.166 349.877 176.49 352.312 176.052C355.685 175.445 359.077 176.519 362.105 177.868C364.209 178.805 366.102 180.768 368.525 180.768C370.403 180.768 372.911 177.663 374.087 176.287C375.921 174.141 378.167 174.05 381.011 174.5C383.475 174.89 385.79 177.643 388.496 177.048C390.79 176.543 391.182 173.052 392.757 171.805C393.924 170.881 396.415 171.032 397.816 171.571C399.775 172.325 404.291 175.966 406.219 175.379C407.814 174.893 408.942 172.906 410.183 171.923C411.008 171.27 413.16 170.66 414.207 170.341C415.426 169.97 417.122 170.097 418.172 170.751C421.457 172.799 420.326 170.688 422.58 169.697C423.995 169.074 424.906 167.904 426.841 168.935C428.263 169.693 429.825 171.752 431.604 171.249C432.665 170.949 432.532 168.669 433.232 168.115C434.399 167.191 434.514 166.023 436.161 165.479" stroke="white" stroke-width="20" stroke-linecap="round"/>
<path d="M84.2208 25.8961C84.0189 24.0549 80.2716 23.451 79.0617 24.3705C77.0785 25.8778 76.9847 28.6194 76.8289 30.9185C76.6341 33.791 76.5904 36.8035 79.8567 37.6208C81.4104 38.0095 83.3829 38.6263 84.9989 38.5464C86.7023 38.4622 88.1169 35.9471 88.9232 34.6725C90.1851 32.6776 91.1708 30.0904 90.8515 27.6788C90.5496 25.3983 87.8511 24.1105 85.8785 23.5992C80.9095 22.311 76.8644 24.0689 76.3721 29.6672C75.7461 36.7865 83.1965 38.8983 88.957 39.4035C90.5903 39.5467 91.8101 39.6684 92.4416 37.895C93.5431 34.8013 93.8602 30.8783 93.6256 27.6102C93.1936 21.5901 86.5766 20.3589 81.6835 21.765C75.9588 23.4102 76 27.5486 76 32.924C76 35.1935 76.1265 37.0574 78.199 38.4093C81.0822 40.2899 84.9545 40.7062 88.2973 40.7062C93.4313 40.7062 92.8064 33.8684 92.746 30.0786C92.6542 24.3057 87.8923 22.5351 82.8676 23.5649C80.5482 24.0402 76.5902 25.6756 76.3214 28.5359C76.0314 31.6216 76.5793 33.5199 78.4358 35.9238C79.767 37.6474 80.3185 37.9293 82.3263 37.9293C82.962 37.9293 84.1678 38.1773 84.6944 37.7407C85.1427 37.369 85.5562 36.9441 86.0476 36.6951" stroke="white" stroke-width="20" stroke-linecap="round"/>
<path d="M250.277 686.621L347.117 700.908C347.117 700.908 343.65 816.423 341.631 832.407C339.611 848.391 318.287 875.647 300.874 881.603C263.001 894.558 235.192 891.044 198.129 874.68C174.243 864.135 160.615 860.748 147.917 837.184C139.738 822.005 135.55 803.844 138.572 786.892C141.132 772.532 140.29 759.491 151.946 751.455C164.749 742.628 177.742 746.648 193.075 749.015C210.143 751.651 244.683 767.175 244.683 767.175L250.277 686.621Z" fill="#8F8A8A"/>
<path d="M343.249 694.169C342.104 691.188 345.354 700.258 346.022 703.241C346.866 707.007 345.624 708.544 344.113 708.945C340.606 709.877 335.296 700.284 331.836 694.979C330.344 692.691 327.785 692.827 326.755 693.241C323.993 694.353 323.506 696.924 322.702 701.488C321.959 705.705 318.914 710.549 315.113 707.377C310.323 703.38 306.564 695.437 302.2 690.305C291.874 678.161 292.696 694.958 290.008 702.719C288.764 706.31 285.814 705.297 282.885 700.543C279.083 694.369 275.379 687.581 271.05 683.142C267.858 679.869 266.223 685.401 265.668 688.51C264.697 693.952 264.337 700.389 260.949 701.752C260.311 702.009 258.598 703.717 257.61 702.517C256.352 700.991 255.577 698.195 254.585 696.329C253.596 694.468 252.586 692.397 251.533 690.415C250.54 688.547 249.497 688.303 248.57 686.881" stroke="#645E5E" stroke-width="22" stroke-linecap="round"/>
<path d="M466.075 686.621L369.235 700.908C369.235 700.908 372.701 816.423 374.721 832.407C376.741 848.391 398.065 875.647 415.477 881.603C453.35 894.558 481.159 891.044 518.222 874.68C542.108 864.135 555.737 860.748 568.434 837.184C576.614 822.005 580.802 803.844 577.779 786.892C575.219 772.532 576.062 759.491 564.405 751.455C551.603 742.628 538.609 746.648 523.277 749.015C506.208 751.651 471.668 767.175 471.668 767.175L466.075 686.621Z" fill="#8F8A8A"/>
<path d="M373.102 694.169C374.248 691.188 370.998 700.258 370.329 703.241C369.486 707.007 370.728 708.544 372.239 708.945C375.746 709.877 381.056 700.284 384.516 694.979C386.008 692.691 388.567 692.827 389.597 693.241C392.359 694.353 392.845 696.924 393.649 701.488C394.392 705.705 397.437 710.549 401.239 707.377C406.029 703.38 409.787 695.437 414.152 690.305C424.478 678.161 423.656 694.958 426.344 702.719C427.588 706.31 430.537 705.297 433.466 700.543C437.269 694.369 440.972 687.581 445.301 683.142C448.494 679.869 450.128 685.401 450.683 688.51C451.655 693.952 452.014 700.389 455.403 701.752C456.041 702.009 457.753 703.717 458.742 702.517C460 700.991 460.775 698.195 461.766 696.329C462.755 694.468 463.766 692.397 464.819 690.415C465.812 688.547 466.854 688.303 467.782 686.881" stroke="#645E5E" stroke-width="22" stroke-linecap="round"/>
<path d="M594.825 359.366L569.063 371.741C569.063 371.741 583.647 352.735 579.056 340.96C576.44 334.248 573.433 329.645 566.605 327.348C560.045 325.143 555.008 326.543 549.109 330.162C545.506 332.372 544.048 334.477 541.452 337.813C531.339 350.809 534.883 379.465 534.883 379.465C534.883 379.465 517.966 405.504 519.259 418.783C520.552 432.062 536.781 462.916 551.991 461.971C583.944 459.986 599.748 462.127 630.815 449.459C650.838 441.295 662.199 438.815 673.268 419.61C680.398 407.239 684.295 392.305 682.195 378.2C680.416 366.253 681.422 355.478 671.963 348.55C661.575 340.94 650.724 343.96 637.976 345.557C623.784 347.334 594.825 359.366 594.825 359.366Z" fill="white"/>
<path d="M517.112 405.478C519.323 405.514 512.653 405.557 510.555 405.831C507.906 406.178 507.202 407.351 507.3 408.429C507.528 410.93 515.027 412.102 519.299 413.091C521.141 413.517 521.66 415.213 521.636 415.981C521.57 418.041 520.014 418.968 517.237 420.576C514.673 422.062 512.247 425.193 515.213 426.91C518.95 429.074 525.008 429.63 529.382 431.248C539.732 435.075 528.616 438.533 524.209 442.126C522.17 443.788 523.529 445.465 527.317 446.239C532.234 447.244 537.528 448.038 541.443 449.797C544.33 451.095 541.122 453.472 539.232 454.573C535.925 456.498 531.825 458.261 531.745 460.788C531.73 461.264 531.026 462.784 532.041 463.141C533.332 463.596 535.334 463.435 536.783 463.637C538.228 463.837 539.815 464.002 541.353 464.216C542.804 464.417 543.21 465.037 544.356 465.302" stroke="#FF0000" stroke-width="17" stroke-linecap="round"/>
<path d="M97.745 363.366L123.508 375.741C123.508 375.741 108.924 356.735 113.514 344.96C116.13 338.248 119.137 333.645 125.965 331.348C132.525 329.143 137.562 330.543 143.461 334.162C147.065 336.372 148.522 338.477 151.118 341.813C161.232 354.809 157.687 383.465 157.687 383.465C157.687 383.465 174.604 409.504 173.311 422.783C172.018 436.062 155.789 466.916 140.579 465.971C108.627 463.986 92.8223 466.127 61.7549 453.459C41.7327 445.295 30.3713 442.815 19.3025 423.61C12.172 411.239 8.27519 396.305 10.3756 382.2C12.1547 370.253 11.1484 359.478 20.6073 352.55C30.9956 344.94 41.8465 347.96 54.5944 349.557C68.7859 351.334 97.745 363.366 97.745 363.366Z" fill="white"/>
<path d="M175.458 409.478C173.247 409.514 179.917 409.557 182.016 409.831C184.664 410.178 185.369 411.351 185.27 412.429C185.042 414.93 177.543 416.102 173.272 417.091C171.43 417.517 170.91 419.213 170.934 419.981C171 422.041 172.556 422.968 175.333 424.576C177.898 426.062 180.324 429.193 177.357 430.91C173.62 433.074 167.563 433.63 163.189 435.248C152.839 439.075 163.954 442.533 168.362 446.126C170.4 447.788 169.041 449.465 165.254 450.239C160.336 451.244 155.043 452.038 151.127 453.797C148.24 455.095 151.448 457.472 153.338 458.573C156.645 460.498 160.745 462.261 160.826 464.788C160.841 465.264 161.545 466.784 160.53 467.141C159.238 467.596 157.236 467.435 155.788 467.637C154.342 467.837 152.756 468.002 151.217 468.216C149.766 468.417 149.36 469.037 148.215 469.302" stroke="#FF0000" stroke-width="17" stroke-linecap="round"/>
</svg>
