<svg width="833" height="81" viewBox="0 0 833 81" fill="none" xmlns="http://www.w3.org/2000/svg">
<path d="M50.5525 48.695C51.1842 47.6575 51.898 46.7124 52.7197 45.7892L48.5865 50.5692C49.6478 49.4557 50.7649 48.4816 52.0175 47.5759L46.6317 51.2976C48.4718 50.0564 50.4234 49.0943 52.5384 48.2702L46.1392 50.7198C48.6839 49.8197 51.2596 49.2231 53.9458 48.8354L46.7991 49.7754C50.2655 49.3537 53.7101 49.3063 57.2136 49.6322L50.0438 48.8891C54.2758 49.3453 58.219 50.3198 62.1938 51.6447L55.7297 49.372C66.9811 53.3325 76.8914 59.5795 87.9587 63.8465C102.977 69.6491 118.418 72.9675 134.973 73.0905C149.079 73.2005 163.173 70.5281 176.412 66.3711C188.017 62.7276 199.369 58.3627 211.591 56.5578L204.444 57.4979C209.254 56.8706 214.015 56.6882 218.866 57.1125L211.696 56.3693C216.953 56.9517 221.949 58.2158 226.898 59.878L220.434 57.6053C234.606 62.6012 247.62 69.4602 262.188 73.796C276.755 78.1318 293.175 80.1506 308.783 79.9359C324.337 79.722 339.913 77.1462 354.63 72.7584C367.764 68.8367 380.564 64.031 394.317 62.018L387.171 62.9581C393.431 62.1471 399.62 62.0152 405.9 62.6537L398.73 61.9106C411.428 63.3961 423.327 67.4879 435.303 71.2514C449.711 75.7764 464.015 78.5726 479.397 79.4834C508.22 81.2147 537.577 74.7316 564.733 66.7122C579.503 62.3471 594.02 57.1203 609.522 55.0599L602.375 56C607.938 55.3389 613.48 55.1458 619.085 55.6298L611.915 54.8867C616.525 55.3845 620.925 56.3528 625.252 57.8131L618.788 55.5404C625.821 58.0858 632.249 61.645 638.967 64.7326C645.684 67.8202 653.339 70.5675 660.746 72.8974C674.235 77.131 688.528 79.0856 702.804 79.8947C731.654 81.5322 760.721 75.4739 786.459 64.2239C800.612 58.0435 813.683 49.4695 824.799 39.6833C834.719 30.9422 835.119 14.9902 824.345 6.6273C813.571 -1.73559 796.85 -2.1837 786.293 7.15064C782.862 10.1673 779.268 12.9992 775.482 15.6701L780.868 11.9484C772.069 18.0085 762.421 23.0046 752.14 26.9339L758.539 24.4843C747.506 28.611 735.971 31.4586 724.096 33.0248L731.243 32.0848C719.367 33.5809 707.392 33.769 695.479 32.6001L702.649 33.3432C691.516 32.1635 680.664 29.8343 670.251 26.213L676.716 28.4857C663.272 23.6902 651.41 16.3945 637.677 12.0706C620.998 6.8286 602.444 8.15935 585.455 11.6665C571.633 14.5455 558.429 19.3334 544.943 23.1665C531.457 26.9995 517.13 30.3765 502.811 32.3038L509.957 31.3637C497.705 32.9118 485.384 33.3852 473.094 32.1981L480.264 32.9412C466.92 31.488 454.54 27.6599 441.996 23.6704C427.912 19.2111 413.733 15.6884 398.602 15.3821C369.551 14.7996 344.582 29.1021 316.561 32.9246L323.708 31.9846C313.336 33.2963 302.921 33.4162 292.518 32.4135L299.688 33.1567C289.768 32.0772 280.103 29.9655 270.774 26.8203L277.238 29.093C267.312 25.6053 258.121 20.8215 248.275 17.2391C235.155 12.4392 221.514 8.97921 207.052 10.3238C194.418 11.4796 182.885 14.4441 171.041 18.3247C160.886 21.6677 150.758 25.0338 139.958 26.4917L147.105 25.5516C139.93 26.3986 132.771 26.497 125.576 25.8477L132.746 26.5909C125.117 25.7839 117.72 24.1787 110.581 21.7283L117.045 24.001C99.4897 17.6721 84.0422 6.09998 64.7371 3.67655C53.9791 2.32806 43.0481 2.10428 32.5685 5.33484C20.5081 9.10155 9.99526 15.7931 3.75277 25.7228C-2.98945 36.5011 0.774038 51.8114 13.8539 57.5939C26.6631 63.2632 43.3355 60.1813 50.5525 48.695Z" fill="#3CB54B"/>
</svg>
