<svg width="303" height="632" viewBox="0 0 303 632" fill="none" xmlns="http://www.w3.org/2000/svg">
<g filter="url(#filter0_d_40_85)">
<ellipse cx="151.862" cy="485.51" rx="147.09" ry="141.384" fill="#E9E1E4"/>
</g>
<path d="M150.852 155.888C144.967 175.773 121.825 186.969 98.7167 180.13C75.608 173.291 62.2871 151.303 68.1718 131.419C74.0565 111.535 97.1984 100.338 120.307 107.177C143.416 114.016 156.737 136.004 150.852 155.888Z" stroke="#113380" stroke-width="5.07206"/>
<ellipse cx="149.745" cy="146.571" rx="76.715" ry="73.5449" fill="#E9E1E4"/>
<path d="M248.156 163.116L160.389 169.633L162.922 141.194L248.156 163.116Z" fill="#FD7717"/>
<path d="M72.2056 27.2038L115.235 9.6515L169.614 75.3069L80.852 113.347L72.2056 27.2038Z" fill="#113380"/>
<path d="M102.581 158.561C102.426 158.78 102.338 159.188 102.482 159.438C102.575 159.598 102.648 159.844 102.836 159.922C103.065 160.018 103.305 160.252 103.562 160.263C104.212 160.29 104.524 159.941 104.779 159.389C105.017 158.874 105.022 158.457 104.649 158.033C104.325 157.664 103.539 157.623 103.161 157.948C102.956 158.125 102.969 158.389 102.969 158.629C102.969 158.806 103.2 159.297 103.411 159.342C103.512 159.363 103.623 159.398 103.729 159.376C103.893 159.341 104.151 159.016 104.241 158.886C104.399 158.657 104.421 158.357 104.1 158.288C104.027 158.273 103.428 158.124 103.428 158.273C103.428 158.465 103.322 158.653 103.322 158.848C103.322 158.988 103.585 158.82 103.633 158.791C103.878 158.645 104.011 158.399 103.86 158.152C103.735 157.947 103.494 157.93 103.305 157.829C103.19 157.768 103.002 157.824 102.918 157.912C102.842 157.992 102.867 158.062 102.808 158.135C102.754 158.203 102.749 158.282 102.702 158.339C102.643 158.412 102.652 158.66 102.687 158.493" stroke="black" stroke-width="9.76372" stroke-linecap="round"/>
<path d="M107.653 171.241C107.498 171.46 107.411 171.869 107.555 172.118C107.647 172.278 107.72 172.524 107.908 172.602C108.137 172.698 108.377 172.932 108.634 172.943C109.285 172.97 109.596 172.621 109.851 172.069C110.089 171.554 110.094 171.137 109.721 170.713C109.397 170.344 108.611 170.303 108.234 170.628C108.029 170.805 108.041 171.07 108.041 171.309C108.041 171.486 108.272 171.977 108.483 172.022C108.584 172.043 108.695 172.078 108.801 172.056C108.965 172.021 109.223 171.696 109.313 171.566C109.471 171.338 109.493 171.037 109.172 170.969C109.099 170.953 108.501 170.805 108.501 170.953C108.501 171.145 108.395 171.334 108.395 171.528C108.395 171.669 108.657 171.5 108.705 171.472C108.951 171.325 109.083 171.079 108.932 170.832C108.807 170.628 108.566 170.61 108.377 170.509C108.263 170.448 108.074 170.504 107.99 170.592C107.914 170.672 107.939 170.742 107.88 170.815C107.826 170.883 107.821 170.962 107.774 171.02C107.716 171.093 107.724 171.34 107.759 171.173" stroke="black" stroke-width="9.76372" stroke-linecap="round"/>
<path d="M119.065 178.849C118.91 179.068 118.823 179.477 118.967 179.726C119.059 179.886 119.132 180.132 119.32 180.211C119.549 180.306 119.789 180.54 120.046 180.551C120.697 180.578 121.008 180.229 121.263 179.677C121.501 179.162 121.506 178.746 121.134 178.321C120.81 177.952 120.023 177.911 119.646 178.236C119.441 178.413 119.454 178.678 119.454 178.917C119.454 179.094 119.684 179.585 119.895 179.63C119.996 179.652 120.107 179.687 120.213 179.664C120.377 179.629 120.635 179.304 120.725 179.174C120.883 178.946 120.906 178.646 120.584 178.577C120.511 178.561 119.913 178.413 119.913 178.562C119.913 178.753 119.807 178.942 119.807 179.136C119.807 179.277 120.069 179.108 120.117 179.08C120.363 178.933 120.495 178.687 120.345 178.441C120.22 178.236 119.978 178.218 119.789 178.117C119.675 178.056 119.486 178.112 119.402 178.2C119.326 178.281 119.352 178.35 119.293 178.423C119.238 178.491 119.233 178.57 119.187 178.628C119.128 178.701 119.136 178.948 119.171 178.781" stroke="black" stroke-width="9.76372" stroke-linecap="round"/>
<path d="M171.825 117.927C170.974 119.133 170.494 121.38 171.285 122.753C171.793 123.633 172.196 124.986 173.229 125.415C174.49 125.94 175.81 127.228 177.223 127.287C180.8 127.437 182.515 125.519 183.915 122.482C185.223 119.648 185.252 117.358 183.203 115.025C181.421 112.996 177.095 112.768 175.02 114.557C173.892 115.53 173.963 116.985 173.963 118.301C173.963 119.275 175.232 121.974 176.391 122.222C176.946 122.341 177.559 122.534 178.14 122.409C179.042 122.216 180.463 120.43 180.958 119.716C181.827 118.459 181.949 116.808 180.18 116.429C179.779 116.343 176.489 115.527 176.489 116.346C176.489 117.399 175.906 118.437 175.906 119.508C175.906 120.279 177.348 119.353 177.611 119.196C178.964 118.389 179.692 117.037 178.863 115.68C178.176 114.554 176.847 114.458 175.808 113.902C175.18 113.565 174.143 113.875 173.682 114.359C173.262 114.801 173.402 115.184 173.077 115.587C172.778 115.957 172.749 116.394 172.494 116.71C172.171 117.111 172.217 118.471 172.408 117.552" stroke="black" stroke-width="9.76372" stroke-linecap="round"/>
<path d="M145.196 456.487C144.345 457.693 143.865 459.94 144.657 461.313C145.164 462.193 145.567 463.546 146.6 463.976C147.861 464.5 149.181 465.789 150.594 465.848C154.172 465.998 155.886 464.079 157.287 461.043C158.594 458.208 158.623 455.918 156.574 453.585C154.792 451.556 150.466 451.329 148.392 453.117C147.263 454.09 147.334 455.546 147.334 456.862C147.334 457.835 148.603 460.534 149.762 460.783C150.318 460.901 150.93 461.094 151.511 460.97C152.413 460.777 153.834 458.991 154.329 458.276C155.198 457.02 155.32 455.368 153.551 454.989C153.15 454.903 149.86 454.087 149.86 454.906C149.86 455.959 149.277 456.997 149.277 458.068C149.277 458.84 150.719 457.913 150.982 457.756C152.335 456.949 153.063 455.597 152.235 454.241C151.547 453.114 150.218 453.018 149.18 452.462C148.551 452.126 147.514 452.435 147.053 452.92C146.633 453.361 146.773 453.745 146.448 454.147C146.149 454.517 146.121 454.954 145.866 455.27C145.542 455.671 145.588 457.031 145.779 456.113" stroke="black" stroke-width="9.76372" stroke-linecap="round"/>
<path d="M145.196 522.424C144.345 523.63 143.865 525.877 144.657 527.25C145.164 528.13 145.567 529.483 146.6 529.912C147.861 530.437 149.181 531.725 150.594 531.784C154.172 531.934 155.886 530.016 157.287 526.979C158.594 524.145 158.623 521.855 156.574 519.522C154.792 517.493 150.466 517.266 148.392 519.054C147.263 520.027 147.334 521.482 147.334 522.798C147.334 523.772 148.603 526.471 149.762 526.719C150.318 526.838 150.93 527.031 151.511 526.907C152.413 526.714 153.834 524.928 154.329 524.213C155.198 522.957 155.32 521.305 153.551 520.926C153.15 520.84 149.86 520.024 149.86 520.843C149.86 521.896 149.277 522.934 149.277 524.005C149.277 524.776 150.719 523.85 150.982 523.693C152.335 522.886 153.063 521.534 152.235 520.177C151.547 519.051 150.218 518.955 149.18 518.399C148.551 518.062 147.514 518.372 147.053 518.856C146.633 519.298 146.773 519.682 146.448 520.084C146.149 520.454 146.121 520.891 145.866 521.207C145.542 521.608 145.588 522.968 145.779 522.049" stroke="black" stroke-width="9.76372" stroke-linecap="round"/>
<ellipse cx="151.862" cy="304.818" rx="103.977" ry="100.173" fill="#E9E1E4"/>
<path d="M145.196 313.201C144.345 314.407 143.865 316.654 144.657 318.027C145.164 318.907 145.567 320.26 146.6 320.69C147.861 321.215 149.181 322.503 150.594 322.562C154.172 322.712 155.886 320.793 157.287 317.757C158.594 314.922 158.623 312.632 156.574 310.299C154.792 308.27 150.466 308.043 148.392 309.831C147.263 310.804 147.334 312.26 147.334 313.576C147.334 314.549 148.603 317.249 149.762 317.497C150.318 317.616 150.93 317.808 151.511 317.684C152.413 317.491 153.834 315.705 154.329 314.99C155.198 313.734 155.32 312.082 153.551 311.704C153.15 311.618 149.86 310.801 149.86 311.62C149.86 312.673 149.277 313.711 149.277 314.782C149.277 315.554 150.719 314.627 150.982 314.47C152.335 313.663 153.063 312.311 152.235 310.955C151.547 309.828 150.218 309.732 149.18 309.176C148.551 308.84 147.514 309.149 147.053 309.634C146.633 310.075 146.773 310.459 146.448 310.861C146.149 311.232 146.121 311.668 145.866 311.984C145.542 312.385 145.588 313.745 145.779 312.827" stroke="black" stroke-width="9.76372" stroke-linecap="round"/>
<path d="M145.196 262.481C144.345 263.687 143.865 265.934 144.657 267.307C145.164 268.187 145.567 269.54 146.6 269.969C147.861 270.494 149.181 271.782 150.594 271.841C154.172 271.991 155.886 270.073 157.287 267.036C158.594 264.201 158.623 261.912 156.574 259.579C154.792 257.55 150.466 257.322 148.392 259.111C147.263 260.084 147.334 261.539 147.334 262.855C147.334 263.829 148.603 266.528 149.762 266.776C150.318 266.895 150.93 267.088 151.511 266.963C152.413 266.77 153.834 264.984 154.329 264.27C155.198 263.013 155.32 261.362 153.551 260.983C153.15 260.897 149.86 260.081 149.86 260.9C149.86 261.953 149.277 262.991 149.277 264.062C149.277 264.833 150.719 263.907 150.982 263.75C152.335 262.943 153.063 261.591 152.235 260.234C151.547 259.108 150.218 259.012 149.18 258.456C148.551 258.119 147.514 258.429 147.053 258.913C146.633 259.355 146.773 259.738 146.448 260.141C146.149 260.511 146.121 260.948 145.866 261.264C145.542 261.665 145.588 263.025 145.779 262.106" stroke="black" stroke-width="9.76372" stroke-linecap="round"/>
<defs>
<filter id="filter0_d_40_85" x="0.968414" y="341.59" width="301.788" height="290.376" filterUnits="userSpaceOnUse" color-interpolation-filters="sRGB">
<feFlood flood-opacity="0" result="BackgroundImageFix"/>
<feColorMatrix in="SourceAlpha" type="matrix" values="0 0 0 0 0 0 0 0 0 0 0 0 0 0 0 0 0 0 127 0" result="hardAlpha"/>
<feOffset dy="1.26802"/>
<feGaussianBlur stdDeviation="1.90202"/>
<feComposite in2="hardAlpha" operator="out"/>
<feColorMatrix type="matrix" values="0 0 0 0 0 0 0 0 0 0 0 0 0 0 0 0 0 0 0.25 0"/>
<feBlend mode="normal" in2="BackgroundImageFix" result="effect1_dropShadow_40_85"/>
<feBlend mode="normal" in="SourceGraphic" in2="effect1_dropShadow_40_85" result="shape"/>
</filter>
</defs>
</svg>
