<svg width="1920" height="544" viewBox="0 0 1920 544" fill="none" xmlns="http://www.w3.org/2000/svg">
<path d="M559 274.774C559 370.4 347.575 346.291 194.737 346.291C41.8994 346.291 -82 268.771 -82 173.145C-82 77.5199 41.8994 0 194.737 0C347.575 0 559 179.149 559 274.774Z" fill="#204067" fill-opacity="0.6"/>
<path d="M945 377.774C945 473.4 732.915 449.291 579.6 449.291C426.286 449.291 302 371.771 302 276.145C302 180.52 426.286 103 579.6 103C732.915 103 945 282.149 945 377.774Z" fill="#204067" fill-opacity="0.6"/>
<path d="M675 363.603C675 454.296 434.879 431.431 261.297 431.431C87.7157 431.431 -53 357.909 -53 267.215C-53 176.522 87.7157 103 261.297 103C434.879 103 675 272.909 675 363.603Z" fill="#98A8B9"/>
<path d="M953 458.985C953 547.898 740.915 525.481 587.6 525.481C434.286 525.481 310 453.404 310 364.492C310 275.58 505.3 235 658.614 235C811.929 235 953 370.073 953 458.985Z" fill="#98A8B9"/>
<path d="M1359 258.993C1359 346.607 1570.43 324.518 1723.26 324.518C1876.1 324.518 2000 253.493 2000 165.879C2000 78.2655 1876.1 41 1723.26 41C1570.43 41 1359 171.38 1359 258.993Z" fill="#204067" fill-opacity="0.6"/>
<path d="M1039 410.54C1039 518.062 1250.43 490.954 1403.26 490.954C1556.1 490.954 1680 403.79 1680 296.268C1680 188.746 1500.11 203.709 1347.27 203.709C1194.43 203.709 1039 303.018 1039 410.54Z" fill="#98A8B9"/>
<path d="M2.26823 213.502C111.805 145.481 215.054 231.185 348.789 254.747C469.26 275.972 530.161 315.116 652.8 324.382C817.467 336.824 906.116 271.442 1071.46 271.888C1233.32 272.325 1324.07 357.042 1481.1 324.382C1601.33 299.375 1628.57 180.788 1752.26 187.255C1838.94 191.786 1950 271.888 1950 271.888V544H2.26823C2.26823 544 -122.085 290.724 2.26823 213.502Z" fill="#E9E1E4"/>
</svg>
