<svg width="409" height="364" viewBox="0 0 409 364" fill="none" xmlns="http://www.w3.org/2000/svg">
<path d="M55.8563 111.159C52.0711 89.9551 94.059 88.6326 135.12 81.3026C176.182 73.9725 224.019 76.6355 227.804 97.8394C231.59 119.043 201.371 142.175 160.31 149.505C119.249 156.835 59.6415 132.363 55.8563 111.159Z" fill="#C3CDD7"/>
<path d="M177.475 77.2215C178.809 55.7238 224.027 64.6182 269.779 67.4571C315.53 70.296 365.989 84.4765 364.656 105.974C363.322 127.472 325.151 142.598 279.4 139.759C233.648 136.92 176.141 98.7193 177.475 77.2215Z" fill="#C3CDD7"/>
<path d="M256.019 30.3476C255.988 6.64259 298.01 19.8369 337.178 19.7852C376.346 19.7335 408.123 38.9083 408.154 62.6133C408.186 86.3184 376.459 105.577 337.292 105.629C298.124 105.681 256.05 54.0527 256.019 30.3476Z" fill="#E9E1E4"/>
<path d="M116.157 42.7081C112.544 21.6957 163.013 25.1084 208.189 17.3392C253.366 9.57004 292.918 20.3057 296.531 41.3181C300.145 62.3304 266.451 85.6624 221.275 93.4316C176.099 101.201 119.771 63.7204 116.157 42.7081Z" fill="#E8E2E4"/>
<path d="M3.04801 62.5817C-2.05905 39.4332 41.8142 43.3222 80.0622 34.8838C118.31 26.4455 153.456 38.3703 158.563 61.5187C163.67 84.6671 136.804 110.273 98.5565 118.712C60.3085 127.15 8.15507 85.7301 3.04801 62.5817Z" fill="#E8E2E4"/>
<path d="M178 194L111.5 144.5L88.5 121.5L307.5 113.5L233 157.5L246 208.5L195 275.5L204 364L148 275.5L178 194Z" fill="#C3CDD7"/>
</svg>
