<svg width="1023" height="546" viewBox="0 0 1023 546" fill="none" xmlns="http://www.w3.org/2000/svg">
<rect x="10" y="36.0005" width="1003" height="500" rx="30" fill="#BEF1FF" stroke="#122E4F" stroke-width="20"/>
<path d="M20 342H1003V506C1003 517.046 994.046 526 983 526H40C28.9543 526 20 517.046 20 506V342Z" fill="#FA3838"/>
<path d="M62.5793 64.0754C63.2991 62.9049 64.1123 61.8387 65.0484 60.7971L60.3395 66.19C61.5487 64.9336 62.8213 63.8347 64.2483 62.8128L58.1126 67.0119C60.2089 65.6115 62.4322 64.5258 64.8416 63.5959L57.5517 66.3602C60.4505 65.3444 63.3847 64.671 66.4448 64.2333L58.3036 65.2948C62.2523 64.8185 66.1761 64.7645 70.1671 65.1316L61.9998 64.2944C66.8206 64.8084 71.3122 65.9072 75.8399 67.4011L68.4767 64.8384C81.2931 69.3044 92.5813 76.35 105.188 81.1618C122.295 87.7053 139.884 91.4463 158.742 91.5826C174.81 91.7045 190.866 88.6877 205.948 83.9963C219.168 79.8843 232.1 74.9586 246.023 72.9208L237.882 73.9823C243.36 73.2739 248.784 73.0675 254.31 73.5454L246.143 72.7081C252.13 73.3643 257.822 74.7895 263.459 76.6639L256.096 74.1011C272.24 79.7347 287.063 87.4702 303.657 92.3591C320.25 97.2479 338.954 99.5228 356.734 99.2783C374.453 99.0346 392.196 96.1266 408.961 91.1745C423.924 86.7485 438.505 81.3254 454.172 79.0525L446.031 80.114C453.163 79.1983 460.213 79.0486 467.367 79.7678L459.199 78.9306C473.663 80.6044 487.218 85.2186 500.859 89.4622C517.271 94.5646 533.565 97.7167 551.087 98.7418C583.921 100.691 617.363 93.3726 648.298 84.322C665.125 79.3955 681.662 73.4971 699.321 71.1705L691.18 72.232C697.516 71.4854 703.83 71.2667 710.215 71.8119L702.047 70.9747C707.298 71.5355 712.311 72.6272 717.239 74.2739L709.876 71.7111C717.887 74.5815 725.209 78.5955 732.861 82.0775C740.513 85.5595 749.232 88.6576 757.67 91.2847C773.035 96.0586 789.316 98.2613 805.579 99.1718C838.442 101.015 871.554 94.1761 900.875 81.4813C916.998 74.5071 931.889 64.833 944.554 53.7917C955.855 43.9296 956.312 25.9344 944.041 16.5021C931.77 7.06973 912.722 6.56678 900.694 17.0982C896.786 20.5018 892.691 23.697 888.378 26.7105L894.514 22.5113C884.49 29.3489 873.499 34.9864 861.786 39.4205L869.076 36.6562C856.508 41.3131 843.368 44.5271 829.84 46.2958L837.981 45.2343C824.452 46.9238 810.811 47.1378 797.241 45.8209L805.408 46.6582C792.727 45.3291 780.365 42.7032 768.504 38.6197L775.868 41.1825C760.555 35.7748 747.043 27.5465 731.4 22.6709C712.401 16.7601 691.265 18.2641 671.912 22.223C656.166 25.4729 641.124 30.876 625.761 35.202C610.398 39.5281 594.078 43.3398 577.765 45.516L585.907 44.4545C571.949 46.2027 557.914 46.7386 543.914 45.4013L552.082 46.2385C536.882 44.6012 522.78 40.2847 508.491 35.7862C492.448 30.7579 476.296 26.7861 459.06 26.4429C425.968 25.7902 397.522 41.9283 365.602 46.2447L373.743 45.1832C361.928 46.6645 350.064 46.8013 338.214 45.6718L346.381 46.5091C335.081 45.2929 324.072 42.9121 313.445 39.3656L320.808 41.9283C309.501 37.9955 299.033 32.6003 287.817 28.5607C272.872 23.148 257.334 19.2469 240.86 20.766C226.467 22.0717 213.329 25.4176 199.837 29.7971C188.268 33.5698 176.731 37.3685 164.428 39.0148L172.569 37.9532C164.396 38.9097 156.241 39.0218 148.045 38.2905L156.212 39.1278C147.523 38.2186 139.096 36.409 130.964 33.6458L138.327 36.2085C118.33 29.0717 100.735 16.0198 78.7444 13.289C66.4898 11.7694 54.0379 11.5186 42.0997 15.1645C28.3607 19.4155 16.3841 26.9657 9.27153 38.1681C1.58958 50.3279 5.87438 67.5985 20.7733 74.1196C35.3638 80.5131 54.3565 77.034 62.5793 64.0754Z" fill="#3CB54B"/>
</svg>
