<svg width="1023" height="549" viewBox="0 0 1023 549" fill="none" xmlns="http://www.w3.org/2000/svg">
<rect x="10" y="39" width="1003" height="500" rx="30" fill="#BEF1FF" stroke="#122E4F" stroke-width="20"/>
<path d="M952.393 45.9596C951.648 47.1248 950.809 48.1841 949.846 49.2169L954.691 43.8675C953.449 45.1122 952.144 46.1979 950.685 47.2042L956.958 43.0731C954.815 44.4501 952.548 45.5094 950.095 46.4098L957.517 43.7351C954.567 44.7149 951.585 45.3505 948.48 45.7477L956.74 44.7944C952.734 45.2181 948.759 45.2181 944.722 44.7944L952.983 45.7477C948.107 45.1651 943.573 43.9999 939.008 42.4375L946.43 45.1122C933.512 40.4514 922.177 33.2218 909.476 28.2167C892.24 21.4108 874.477 17.4121 855.379 17.0148C839.106 16.6706 822.803 19.4777 807.462 23.9796C794.015 27.9254 780.848 32.6921 766.718 34.5459L774.979 33.5925C769.42 34.2281 763.924 34.3605 758.334 33.8044L766.594 34.7577C760.539 34.0162 754.794 32.5068 749.111 30.5471L756.533 33.2218C740.26 27.3428 725.354 19.3717 708.616 14.2342C691.877 9.09674 672.965 6.55447 654.954 6.55447C637.004 6.55447 618.993 9.22915 601.944 13.9694C586.727 18.2065 571.883 23.4499 555.983 25.5155L564.244 24.5622C557.008 25.3831 549.866 25.4361 542.63 24.6151L550.89 25.5685C536.264 23.6883 522.6 18.8685 508.843 14.4196C492.291 9.07024 475.832 5.68055 458.1 4.40941C424.872 1.99955 390.898 8.88486 359.44 17.5444C342.329 22.2582 325.497 27.9518 307.579 30.0439L315.839 29.0906C309.411 29.7526 303.014 29.885 296.555 29.2494L304.815 30.2028C299.505 29.5672 294.443 28.402 289.474 26.6807L296.896 29.3554C288.822 26.3629 281.462 22.2317 273.761 18.6302C266.059 15.0287 257.271 11.7979 248.762 9.04373C233.266 4.03865 216.807 1.60231 200.348 0.463583C167.089 -1.84034 133.457 4.56828 103.582 16.9089C87.1547 23.6882 71.9381 33.1952 58.9573 44.1058C47.374 53.8511 46.6598 71.9118 58.9573 81.5512C71.2548 91.1906 90.5397 91.9586 102.868 81.5512C106.874 78.188 111.067 75.0367 115.476 72.0707L109.203 76.2019C119.451 69.4755 130.662 63.9672 142.587 59.6771L135.165 62.3518C147.959 57.8499 161.313 54.8045 175.039 53.2156L166.778 54.1689C180.504 52.6595 194.324 52.633 208.05 54.1424L199.789 53.1891C212.615 54.6986 225.099 57.5056 237.054 61.7692L229.632 59.0946C245.066 64.7352 258.637 73.1829 274.413 78.2939C293.573 84.4907 315.001 83.2726 334.658 79.5651C350.651 76.5197 365.961 71.3027 381.582 67.1716C397.202 63.0404 413.785 59.4388 430.337 57.4792L422.077 58.4325C436.237 56.8701 450.46 56.5258 464.621 58.0618L456.361 57.1084C471.733 58.9622 485.956 63.4906 500.365 68.2044C516.544 73.4743 532.848 77.6849 550.3 78.2675C583.808 79.3797 612.844 63.57 645.234 59.6772L636.973 60.6305C648.96 59.3064 660.978 59.3329 672.965 60.6305L664.705 59.6772C676.133 61.0543 687.25 63.5965 697.964 67.304L690.542 64.6293C701.939 68.734 712.466 74.2952 723.77 78.5058C738.832 84.1465 754.514 88.2777 771.221 86.9801C785.817 85.8678 799.17 82.69 812.896 78.4794C824.666 74.8513 836.405 71.1968 848.888 69.7139L840.628 70.6672C848.919 69.8198 857.18 69.8198 865.471 70.6672L857.211 69.7139C865.999 70.7467 874.508 72.6798 882.707 75.5664L875.285 72.8917C895.439 80.3331 913.078 93.68 935.313 96.7254C947.704 98.4203 960.312 98.844 972.454 95.3484C986.428 91.2702 998.664 83.8552 1006.02 72.7063C1013.97 60.6041 1009.87 43.2055 994.875 36.4526C980.187 29.8321 960.902 33.0629 952.393 45.9596Z" fill="#3CB54B"/>
</svg>
