<svg width="439" height="367" viewBox="0 0 439 367" fill="none" xmlns="http://www.w3.org/2000/svg">
<path d="M268.107 10.4205L155.581 35.2143C155.581 35.2143 205.169 248.823 210.89 265.988C216.612 283.152 246.872 308.769 268.107 311.761C314.295 318.268 345.434 308.721 384.447 283.152C409.59 266.674 424.495 260.165 434.035 231.658C440.18 213.293 441.113 192.466 434.035 174.441C428.039 159.173 426.227 144.66 411.148 138.204C394.587 131.114 380.544 138.189 363.468 143.926C344.457 150.312 308.158 174.441 308.158 174.441L268.107 10.4205Z" fill="white"/>
<path d="M156.569 31.1377C156.569 29.3825 156.852 34.6744 157.426 36.333C158.151 38.4264 160.353 38.9555 162.354 38.8502C166.997 38.6059 168.948 32.6246 170.655 29.2095C171.392 27.7369 174.53 27.2814 175.958 27.2814C179.79 27.2814 181.561 28.4928 184.634 30.6556C187.474 32.6535 193.368 34.4993 196.471 32.1018C200.38 29.081 201.23 24.2595 204.103 20.7471C210.903 12.4362 217.67 21.1702 224.483 24.5767C227.635 26.1526 230.711 25.0313 232.035 22.0058C233.753 18.0777 235.069 13.8565 238.221 10.7048C240.545 8.38074 245.062 10.8663 247.165 12.3383C250.845 14.914 254.248 18.1227 258.948 18.1227C259.833 18.1227 262.68 18.6428 263.313 17.8282C264.12 16.7915 263.76 15.2072 264.09 14.0522C264.419 12.9003 264.677 11.6368 265.027 10.4102C265.358 9.25369 266.498 8.91564 266.955 8" stroke="#FEF401" stroke-width="15" stroke-linecap="round"/>
<path d="M178.77 130.838C178.708 129.084 179.176 134.363 179.807 136C180.604 138.067 182.824 138.519 184.82 138.344C189.451 137.938 191.193 131.892 192.78 128.42C193.465 126.922 196.585 126.358 198.012 126.308C201.841 126.174 203.654 127.323 206.801 129.378C209.708 131.275 215.664 132.914 218.681 130.41C222.482 127.255 223.163 122.407 225.912 118.796C232.418 110.253 239.485 118.746 246.413 121.913C249.618 123.378 252.653 122.15 253.871 119.08C255.451 115.095 256.619 110.83 259.659 107.57C261.9 105.167 266.502 107.493 268.655 108.891C272.422 111.337 275.935 114.425 280.633 114.261C281.517 114.23 284.38 114.651 284.985 113.814C285.754 112.75 285.34 111.179 285.629 110.014C285.918 108.851 286.131 107.579 286.439 106.341C286.729 105.174 287.856 104.796 288.282 103.865" stroke="#FEF401" stroke-width="15" stroke-linecap="round"/>
<path d="M249.239 300.2C247.776 299.23 252.379 301.865 254.151 302.194C256.387 302.609 258.323 300.648 259.593 298.542C262.54 293.655 258.879 288.353 257.192 284.718C256.464 283.151 258.214 279.688 259.183 278.226C261.784 274.305 263.996 273.161 267.884 271.211C271.476 269.41 277.015 264.397 277.122 259.897C277.258 254.227 273.816 250.693 272.839 245.811C270.527 234.259 282.398 232.16 289.861 227.071C293.313 224.716 294.467 220.948 292.843 217.921C290.736 213.991 288.111 210.312 287.623 205.345C287.264 201.682 292.401 198.432 295.055 197.094C299.699 194.751 304.682 193.042 307.872 188.231C308.473 187.326 310.838 184.7 310.589 183.601C310.272 182.203 308.708 181.696 307.969 180.72C307.233 179.746 306.355 178.784 305.57 177.748C304.831 176.77 305.322 175.417 304.87 174.442" stroke="#FEF401" stroke-width="15" stroke-linecap="round"/>
<path d="M406.464 257.981C404.752 258.203 409.876 257.242 411.417 256.444C413.363 255.436 413.585 253.114 413.216 251.08C412.359 246.357 406.265 245.119 402.707 243.805C401.172 243.238 400.31 240.083 400.12 238.621C399.609 234.698 400.555 232.731 402.255 229.31C403.825 226.15 404.84 219.88 402.088 217.008C398.621 213.389 393.805 213.132 389.996 210.636C380.984 204.729 388.601 196.693 391.016 189.286C392.133 185.859 390.629 182.852 387.502 181.881C383.442 180.62 379.149 179.809 375.655 176.982C373.079 174.898 374.901 169.958 376.057 167.618C378.078 163.524 380.755 159.633 380.128 154.821C380.011 153.915 380.139 150.934 379.259 150.389C378.141 149.695 376.644 150.265 375.473 150.073C374.306 149.883 373.039 149.779 371.796 149.576C370.624 149.385 370.142 148.261 369.188 147.908" stroke="#FEF401" stroke-width="15" stroke-linecap="round"/>
<g filter="url(#filter0_d_63_758)">
<path d="M141.316 39.9425L28.79 64.7363C28.79 64.7363 78.3777 278.345 84.0993 295.509C89.821 312.674 120.081 338.291 141.316 341.283C187.504 347.79 218.643 338.243 257.656 312.674C282.799 296.196 297.704 289.687 307.244 261.18C313.389 242.815 314.322 221.988 307.244 203.963C301.248 188.695 299.436 174.182 284.357 167.726C267.796 160.636 253.753 167.711 236.677 173.448C217.666 179.834 181.367 203.963 181.367 203.963L141.316 39.9425Z" fill="white"/>
<path d="M28 62.7532C28 60.998 28.2828 66.2898 28.857 67.9484C29.5816 70.0419 31.7838 70.571 33.7844 70.4657C38.4277 70.2213 40.3786 64.2401 42.0861 60.825C42.8224 59.3524 45.9604 58.8969 47.3885 58.8969C51.2203 58.8969 52.9916 60.1083 56.0652 62.2711C58.9042 64.269 64.7991 66.1147 67.9018 63.7172C71.811 60.6965 72.6602 55.875 75.534 52.3626C82.3339 44.0517 89.1004 52.7857 95.9134 56.1921C99.0653 57.7681 102.142 56.6468 103.465 53.6213C105.184 49.6932 106.5 45.472 109.651 42.3202C111.975 39.9962 116.493 42.4818 118.596 43.9538C122.275 46.5295 125.679 49.7382 130.379 49.7382C131.264 49.7382 134.11 50.2583 134.744 49.4436C135.55 48.4069 135.191 46.8226 135.521 45.6677C135.85 44.5158 136.107 43.2523 136.458 42.0257C136.788 40.8692 137.928 40.5311 138.386 39.6155" stroke="#FEF401" stroke-width="15" stroke-linecap="round"/>
<path d="M51.9787 160.36C51.9175 158.606 52.3847 163.885 53.0163 165.522C53.8135 167.589 56.0328 168.041 58.0285 167.866C62.6605 167.46 64.4016 161.414 65.989 157.942C66.6735 156.444 69.7937 155.88 71.2209 155.83C75.0504 155.696 76.8629 156.845 80.01 158.9C82.9169 160.797 88.8726 162.436 91.8898 159.932C95.6913 156.777 96.3719 151.929 99.1215 148.318C105.627 139.775 112.694 148.268 119.622 151.435C122.827 152.9 125.862 151.672 127.08 148.602C128.66 144.617 129.828 140.352 132.868 137.092C135.109 134.689 139.711 137.015 141.864 138.413C145.631 140.859 149.144 143.947 153.841 143.783C154.726 143.752 157.589 144.173 158.194 143.336C158.963 142.272 158.549 140.701 158.838 139.536C159.127 138.373 159.34 137.101 159.648 135.863C159.938 134.696 161.065 134.318 161.491 133.387" stroke="#FEF401" stroke-width="15" stroke-linecap="round"/>
<path d="M123.731 327.785C122.269 326.815 126.868 329.455 128.633 329.794C130.861 330.222 132.771 328.3 134.017 326.229C136.911 321.423 133.227 316.156 131.52 312.551C130.784 310.996 132.497 307.588 133.45 306.152C136.006 302.297 138.197 301.185 142.05 299.289C145.608 297.537 151.079 292.628 151.15 288.182C151.24 282.58 147.788 279.061 146.778 274.23C144.387 262.797 156.18 260.817 163.563 255.847C166.979 253.548 168.096 249.834 166.458 246.83C164.33 242.931 161.69 239.274 161.166 234.362C160.779 230.74 165.864 227.57 168.493 226.268C173.094 223.99 178.038 222.34 181.173 217.613C181.764 216.723 184.096 214.147 183.839 213.059C183.513 211.675 181.953 211.161 181.211 210.191C180.47 209.223 179.589 208.266 178.8 207.236C178.057 206.264 178.536 204.931 178.078 203.964" stroke="#FEF401" stroke-width="15" stroke-linecap="round"/>
<path d="M283.269 287.136C281.285 287.394 287.228 286.326 289.026 285.494C291.296 284.443 291.6 282.109 291.214 280.074C290.319 275.353 283.299 274.233 279.211 272.986C277.449 272.448 276.515 269.3 276.325 267.836C275.814 263.91 276.947 261.917 278.981 258.449C280.861 255.246 282.161 248.935 279.037 246.108C275.102 242.547 269.539 242.386 265.187 239.958C254.887 234.213 263.855 225.994 266.797 218.512C268.157 215.051 266.48 212.063 262.884 211.152C258.215 209.969 253.269 209.242 249.287 206.476C246.35 204.436 248.557 199.442 249.94 197.07C252.36 192.921 255.533 188.962 254.906 184.146C254.788 183.239 254.996 180.246 253.991 179.716C252.712 179.042 250.969 179.644 249.62 179.476C248.274 179.308 246.812 179.23 245.379 179.051C244.028 178.883 243.494 177.764 242.398 177.43" stroke="#FEF401" stroke-width="15" stroke-linecap="round"/>
</g>
<defs>
<filter id="filter0_d_63_758" x="0.5" y="15.1138" width="331.708" height="351.147" filterUnits="userSpaceOnUse" color-interpolation-filters="sRGB">
<feFlood flood-opacity="0" result="BackgroundImageFix"/>
<feColorMatrix in="SourceAlpha" type="matrix" values="0 0 0 0 0 0 0 0 0 0 0 0 0 0 0 0 0 0 127 0" result="hardAlpha"/>
<feOffset dy="3"/>
<feGaussianBlur stdDeviation="10"/>
<feComposite in2="hardAlpha" operator="out"/>
<feColorMatrix type="matrix" values="0 0 0 0 0 0 0 0 0 0 0 0 0 0 0 0 0 0 0.25 0"/>
<feBlend mode="normal" in2="BackgroundImageFix" result="effect1_dropShadow_63_758"/>
<feBlend mode="normal" in="SourceGraphic" in2="effect1_dropShadow_63_758" result="shape"/>
</filter>
</defs>
</svg>
